ply
format ascii 1.0
comment Created by Blender 2.79 (sub 0) - www.blender.org, source file: 'Bird.blend'
element vertex 852
property float x
property float y
property float z
property float nx
property float ny
property float nz
property uchar red
property uchar green
property uchar blue
element face 286
property list uchar uint vertex_indices
end_header
0.014214 0.144634 -0.005972 0.504225 0.694606 -0.513107 255 152 23
0.014303 0.156888 0.010702 0.504225 0.694606 -0.513107 255 152 23
0.027256 0.149745 0.013762 0.504225 0.694606 -0.513107 255 152 23
0.027256 0.149745 0.013762 0.540631 0.655670 -0.527082 255 152 23
0.028579 0.136386 -0.001499 0.540631 0.655670 -0.527082 255 152 23
0.014214 0.144634 -0.005972 0.540631 0.655670 -0.527082 255 152 23
0.033553 0.116720 0.025382 0.981899 -0.023209 0.187976 255 152 23
0.029638 0.137706 0.048424 0.981899 -0.023209 0.187976 255 152 23
0.027232 0.091033 0.055227 0.981899 -0.023209 0.187976 255 152 23
0.027232 0.091033 0.055227 0.986890 -0.126744 0.099923 255 152 23
0.027970 0.076882 0.029997 0.986890 -0.126744 0.099923 255 152 23
0.033553 0.116720 0.025382 0.986890 -0.126744 0.099923 255 152 23
0.022445 0.055505 -0.013648 0.671342 -0.695627 0.255740 255 152 23
0.027970 0.076882 0.029997 0.671342 -0.695627 0.255740 255 152 23
0.014997 0.066162 0.034893 0.671342 -0.695627 0.255740 255 152 23
-0.000282 0.163361 0.102051 0.478302 0.825121 0.300671 0 0 0
0.010091 0.165184 0.080546 0.478302 0.825121 0.300671 0 0 0
0.005904 0.167516 0.080810 0.478302 0.825121 0.300671 0 0 0
-0.000282 0.163361 0.102051 0.833005 -0.271871 0.481860 0 0 0
0.012642 0.153951 0.074399 0.833005 -0.271871 0.481860 0 0 0
0.012230 0.161567 0.079409 0.833005 -0.271871 0.481860 0 0 0
0.036047 0.115614 0.020840 0.766851 0.577304 0.280463 255 152 23
0.028579 0.136386 -0.001499 0.766851 0.577304 0.280463 255 152 23
0.033553 0.116720 0.025382 0.766851 0.577304 0.280463 255 152 23
0.012642 0.153951 0.074399 0.304980 -0.106108 0.946429 255 152 23
0.006521 0.150382 0.075972 0.304980 -0.106108 0.946429 255 152 23
0.011915 0.133324 0.072321 0.304980 -0.106108 0.946429 255 152 23
0.011915 0.133324 0.072321 0.211502 -0.105356 0.971683 255 152 23
0.021684 0.137657 0.070665 0.211502 -0.105356 0.971683 255 152 23
0.012642 0.153951 0.074399 0.211502 -0.105356 0.971683 255 152 23
0.010091 0.165184 0.080546 0.824625 0.347243 0.446560 255 152 23
0.012230 0.161567 0.079409 0.824625 0.347243 0.446560 255 152 23
0.022984 0.160683 0.060239 0.824625 0.347243 0.446560 255 152 23
0.022984 0.160683 0.060239 0.796412 0.447906 0.406335 255 152 23
0.015591 0.167929 0.066742 0.796412 0.447906 0.406335 255 152 23
0.010091 0.165184 0.080546 0.796412 0.447906 0.406335 255 152 23
0.013793 0.107137 0.069151 0.377570 -0.142995 0.914873 255 152 23
0.025805 0.117104 0.065752 0.377570 -0.142995 0.914873 255 152 23
0.021684 0.137657 0.070665 0.377570 -0.142995 0.914873 255 152 23
0.014844 0.083375 0.058286 0.409776 -0.322073 0.853436 255 152 23
0.027232 0.091033 0.055227 0.409776 -0.322073 0.853436 255 152 23
0.025805 0.117104 0.065752 0.409776 -0.322073 0.853436 255 152 23
0.027256 0.149745 0.013762 0.974712 0.223217 0.010549 255 152 23
0.024307 0.161669 0.033901 0.974712 0.223217 0.010549 255 152 23
0.029638 0.137706 0.048424 0.974712 0.223217 0.010549 255 152 23
0.024307 0.161669 0.033901 0.936048 0.351010 0.024626 255 152 23
0.020867 0.169721 0.049916 0.936048 0.351010 0.024626 255 152 23
0.025766 0.156570 0.051142 0.936048 0.351010 0.024626 255 152 23
0.020867 0.169721 0.049916 0.789738 0.532617 0.304358 255 152 23
0.015591 0.167929 0.066742 0.789738 0.532617 0.304358 255 152 23
0.022984 0.160683 0.060239 0.789738 0.532617 0.304358 255 152 23
0.012642 0.153951 0.074399 0.755614 0.284020 0.590237 255 152 23
0.021684 0.137657 0.070665 0.755614 0.284020 0.590237 255 152 23
0.025119 0.153755 0.058521 0.755614 0.284020 0.590237 255 152 23
0.021684 0.137657 0.070665 0.935039 0.106661 0.338120 255 152 23
0.025805 0.117104 0.065752 0.935039 0.106661 0.338120 255 152 23
0.025938 0.151722 0.054463 0.935039 0.106661 0.338120 255 152 23
-0.000282 0.064101 0.034893 0.107946 -0.800399 0.589669 255 152 23
0.014997 0.066162 0.034893 0.107946 -0.800399 0.589669 255 152 23
0.014844 0.083375 0.058286 0.107946 -0.800399 0.589669 255 152 23
0.009842 0.101859 -0.065802 0.047784 0.810895 -0.583238 255 152 23
-0.000282 0.145693 -0.005688 0.047784 0.810895 -0.583238 255 152 23
0.014214 0.144634 -0.005972 0.047784 0.810895 -0.583238 255 152 23
-0.000282 0.150128 0.075972 0.033390 -0.891259 0.452263 0 0 0
0.006521 0.150382 0.075972 0.033390 -0.891259 0.452263 0 0 0
-0.000282 0.163361 0.102051 0.033390 -0.891259 0.452263 0 0 0
-0.000282 0.173430 0.067067 0.212229 0.928676 0.304172 255 152 23
-0.000282 0.168929 0.080810 0.212229 0.928676 0.304172 255 152 23
0.005904 0.167516 0.080810 0.212229 0.928676 0.304172 255 152 23
0.014303 0.156888 0.010702 0.047173 0.804801 -0.591668 255 152 23
0.014214 0.144634 -0.005972 0.047173 0.804801 -0.591668 255 152 23
-0.000282 0.145693 -0.005688 0.047173 0.804801 -0.591668 255 152 23
0.012658 0.051164 -0.013648 0.128026 -0.949294 0.287142 255 152 23
0.014997 0.066162 0.034893 0.128026 -0.949294 0.287142 255 152 23
-0.000282 0.064101 0.034893 0.128026 -0.949294 0.287142 255 152 23
-0.000282 0.163361 0.102051 0.215848 0.944514 0.247593 0 0 0
0.005904 0.167516 0.080810 0.215848 0.944514 0.247593 0 0 0
-0.000282 0.168929 0.080810 0.215848 0.944514 0.247593 0 0 0
0.006521 0.150382 0.075972 0.007752 -0.206910 0.978329 255 152 23
-0.000282 0.150128 0.075972 0.007752 -0.206910 0.978329 255 152 23
0.011915 0.133324 0.072321 0.007752 -0.206910 0.978329 255 152 23
0.014997 0.066162 0.034893 0.670342 -0.638674 0.377807 255 152 23
0.027970 0.076882 0.029997 0.670342 -0.638674 0.377807 255 152 23
0.027232 0.091033 0.055227 0.670342 -0.638674 0.377807 255 152 23
0.027232 0.091033 0.055227 0.541210 -0.675594 0.500665 255 152 23
0.014844 0.083375 0.058286 0.541210 -0.675594 0.500665 255 152 23
0.014997 0.066162 0.034893 0.541210 -0.675594 0.500665 255 152 23
0.014214 0.144634 -0.005972 0.541827 0.664487 -0.514666 255 152 23
0.028579 0.136386 -0.001499 0.541827 0.664487 -0.514666 255 152 23
0.009842 0.101859 -0.065802 0.541827 0.664487 -0.514666 255 152 23
0.006521 0.150382 0.075972 0.530115 -0.695819 0.484575 0 0 0
0.012642 0.153951 0.074399 0.530115 -0.695819 0.484575 0 0 0
-0.000282 0.163361 0.102051 0.530115 -0.695819 0.484575 0 0 0
0.015591 0.167929 0.066742 0.387356 0.896054 0.216892 255 152 23
0.020867 0.169721 0.049916 0.387356 0.896054 0.216892 255 152 23
0.011628 0.173876 0.049252 0.387356 0.896054 0.216892 255 152 23
0.010091 0.165184 0.080546 0.538921 0.758887 0.365589 255 152 23
0.015591 0.167929 0.066742 0.538921 0.758887 0.365589 255 152 23
0.010031 0.171721 0.067067 0.538921 0.758887 0.365589 255 152 23
0.010031 0.171721 0.067067 0.467489 0.796230 0.384021 255 152 23
0.005904 0.167516 0.080810 0.467489 0.796230 0.384021 255 152 23
0.010091 0.165184 0.080546 0.467489 0.796230 0.384021 255 152 23
0.020867 0.169721 0.049916 0.552793 0.786121 -0.276465 255 152 23
0.024307 0.161669 0.033901 0.552793 0.786121 -0.276465 255 152 23
0.012983 0.168206 0.029844 0.552793 0.786121 -0.276465 255 152 23
0.024307 0.161669 0.033901 0.513860 0.769062 -0.380121 255 152 23
0.027256 0.149745 0.013762 0.513860 0.769062 -0.380121 255 152 23
0.014303 0.156888 0.010702 0.513860 0.769062 -0.380121 255 152 23
-0.014780 0.144634 -0.005972 -0.540679 0.655616 -0.527100 255 152 23
-0.029143 0.136386 -0.001499 -0.540679 0.655616 -0.527100 255 152 23
-0.027821 0.149745 0.013762 -0.540679 0.655616 -0.527100 255 152 23
-0.027821 0.149745 0.013762 -0.435583 0.758729 -0.484354 255 152 23
-0.013549 0.168206 0.029844 -0.435583 0.758729 -0.484354 255 152 23
-0.014780 0.144634 -0.005972 -0.435583 0.758729 -0.484354 255 152 23
-0.027796 0.091033 0.055227 -0.981886 -0.023198 0.188047 255 152 23
-0.030201 0.137706 0.048424 -0.981886 -0.023198 0.188047 255 152 23
-0.034119 0.116720 0.025382 -0.981886 -0.023198 0.188047 255 152 23
-0.034119 0.116720 0.025382 -0.986882 -0.126789 0.099948 255 152 23
-0.028533 0.076882 0.029997 -0.986882 -0.126789 0.099948 255 152 23
-0.027796 0.091033 0.055227 -0.986882 -0.126789 0.099948 255 152 23
-0.015560 0.066162 0.034893 -0.671343 -0.695616 0.255765 255 152 23
-0.028533 0.076882 0.029997 -0.671343 -0.695616 0.255765 255 152 23
-0.023008 0.055503 -0.013648 -0.671343 -0.695616 0.255765 255 152 23
-0.006467 0.167516 0.080810 -0.478302 0.825120 0.300671 0 0 0
-0.010655 0.165184 0.080546 -0.478302 0.825120 0.300671 0 0 0
-0.000282 0.163361 0.102051 -0.478302 0.825120 0.300671 0 0 0
-0.012794 0.161567 0.079409 -0.833005 -0.271872 0.481860 0 0 0
-0.013206 0.153951 0.074399 -0.833005 -0.271872 0.481860 0 0 0
-0.000282 0.163361 0.102051 -0.833005 -0.271872 0.481860 0 0 0
-0.034119 0.116720 0.025382 -0.766829 0.577344 0.280441 255 152 23
-0.029143 0.136386 -0.001499 -0.766829 0.577344 0.280441 255 152 23
-0.036612 0.115614 0.020840 -0.766829 0.577344 0.280441 255 152 23
-0.013206 0.153951 0.074399 -0.214468 -0.103604 0.971221 255 152 23
-0.022248 0.137657 0.070665 -0.214468 -0.103604 0.971221 255 152 23
-0.014358 0.107137 0.069151 -0.214468 -0.103604 0.971221 255 152 23
-0.014358 0.107137 0.069151 -0.301373 -0.098901 0.948363 255 152 23
-0.007087 0.150382 0.075972 -0.301373 -0.098901 0.948363 255 152 23
-0.013206 0.153951 0.074399 -0.301373 -0.098901 0.948363 255 152 23
-0.023547 0.160683 0.060239 -0.824625 0.347243 0.446560 255 152 23
-0.012794 0.161567 0.079409 -0.824625 0.347243 0.446560 255 152 23
-0.010655 0.165184 0.080546 -0.824625 0.347243 0.446560 255 152 23
-0.010655 0.165184 0.080546 -0.796412 0.447905 0.406335 255 152 23
-0.016154 0.167929 0.066742 -0.796412 0.447905 0.406335 255 152 23
-0.023547 0.160683 0.060239 -0.796412 0.447905 0.406335 255 152 23
-0.022248 0.137657 0.070665 -0.377617 -0.142982 0.914856 255 152 23
-0.026369 0.117104 0.065752 -0.377617 -0.142982 0.914856 255 152 23
-0.014358 0.107137 0.069151 -0.377617 -0.142982 0.914856 255 152 23
-0.026369 0.117104 0.065752 -0.409829 -0.322061 0.853415 255 152 23
-0.027796 0.091033 0.055227 -0.409829 -0.322061 0.853415 255 152 23
-0.015409 0.083375 0.058286 -0.409829 -0.322061 0.853415 255 152 23
-0.030201 0.137706 0.048424 -0.974702 0.223257 0.010619 255 152 23
-0.024871 0.161669 0.033901 -0.974702 0.223257 0.010619 255 152 23
-0.027821 0.149745 0.013762 -0.974702 0.223257 0.010619 255 152 23
-0.026329 0.156570 0.051142 -0.936096 0.350885 0.024585 255 152 23
-0.021432 0.169721 0.049916 -0.936096 0.350885 0.024585 255 152 23
-0.024871 0.161669 0.033901 -0.936096 0.350885 0.024585 255 152 23
-0.023547 0.160683 0.060239 -0.789750 0.532549 0.304445 255 152 23
-0.016154 0.167929 0.066742 -0.789750 0.532549 0.304445 255 152 23
-0.021432 0.169721 0.049916 -0.789750 0.532549 0.304445 255 152 23
-0.025684 0.153755 0.058521 -0.755578 0.283984 0.590301 255 152 23
-0.022248 0.137657 0.070665 -0.755578 0.283984 0.590301 255 152 23
-0.013206 0.153951 0.074399 -0.755578 0.283984 0.590301 255 152 23
-0.026504 0.151722 0.054463 -0.935012 0.106635 0.338204 255 152 23
-0.026369 0.117104 0.065752 -0.935012 0.106635 0.338204 255 152 23
-0.022248 0.137657 0.070665 -0.935012 0.106635 0.338204 255 152 23
-0.015409 0.083375 0.058286 -0.107946 -0.800403 0.589663 255 152 23
-0.015560 0.066162 0.034893 -0.107946 -0.800403 0.589663 255 152 23
-0.000282 0.064101 0.034893 -0.107946 -0.800403 0.589663 255 152 23
-0.014780 0.144634 -0.005972 -0.047020 0.803324 -0.593683 255 152 23
-0.000282 0.145693 -0.005688 -0.047020 0.803324 -0.593683 255 152 23
0.009842 0.101859 -0.065802 -0.047020 0.803324 -0.593683 255 152 23
-0.000282 0.163361 0.102051 -0.033381 -0.891260 0.452263 0 0 0
-0.007087 0.150382 0.075972 -0.033381 -0.891260 0.452263 0 0 0
-0.000282 0.150128 0.075972 -0.033381 -0.891260 0.452263 0 0 0
-0.006467 0.167516 0.080810 -0.212228 0.928676 0.304172 255 152 23
-0.000282 0.168929 0.080810 -0.212228 0.928676 0.304172 255 152 23
-0.000282 0.173430 0.067067 -0.212228 0.928676 0.304172 255 152 23
-0.000282 0.145693 -0.005688 -0.050237 0.835072 -0.547842 255 152 23
-0.014780 0.144634 -0.005972 -0.050237 0.835072 -0.547842 255 152 23
-0.013549 0.168206 0.029844 -0.050237 0.835072 -0.547842 255 152 23
-0.000282 0.064101 0.034893 -0.127655 -0.946545 0.296238 255 152 23
-0.015560 0.066162 0.034893 -0.127655 -0.946545 0.296238 255 152 23
-0.000282 0.042630 -0.033714 -0.127655 -0.946545 0.296238 255 152 23
-0.000282 0.168929 0.080810 -0.215848 0.944514 0.247593 0 0 0
-0.006467 0.167516 0.080810 -0.215848 0.944514 0.247593 0 0 0
-0.000282 0.163361 0.102051 -0.215848 0.944514 0.247593 0 0 0
0.011915 0.133324 0.072321 -0.008163 -0.217939 0.975928 255 152 23
-0.000282 0.150128 0.075972 -0.008163 -0.217939 0.975928 255 152 23
-0.007087 0.150382 0.075972 -0.008163 -0.217939 0.975928 255 152 23
-0.015560 0.066162 0.034893 -0.541275 -0.675582 0.500611 255 152 23
-0.015409 0.083375 0.058286 -0.541275 -0.675582 0.500611 255 152 23
-0.027796 0.091033 0.055227 -0.541275 -0.675582 0.500611 255 152 23
-0.027796 0.091033 0.055227 -0.670342 -0.638674 0.377807 255 152 23
-0.028533 0.076882 0.029997 -0.670342 -0.638674 0.377807 255 152 23
-0.015560 0.066162 0.034893 -0.670342 -0.638674 0.377807 255 152 23
-0.010408 0.101859 -0.065802 -0.541879 0.664458 -0.514649 255 152 23
-0.029143 0.136386 -0.001499 -0.541879 0.664458 -0.514649 255 152 23
-0.014780 0.144634 -0.005972 -0.541879 0.664458 -0.514649 255 152 23
-0.000282 0.163361 0.102051 -0.530231 -0.695717 0.484595 0 0 0
-0.013206 0.153951 0.074399 -0.530231 -0.695717 0.484595 0 0 0
-0.007087 0.150382 0.075972 -0.530231 -0.695717 0.484595 0 0 0
-0.012192 0.173876 0.049252 -0.387283 0.896080 0.216917 255 152 23
-0.021432 0.169721 0.049916 -0.387283 0.896080 0.216917 255 152 23
-0.016154 0.167929 0.066742 -0.387283 0.896080 0.216917 255 152 23
-0.010655 0.165184 0.080546 -0.467489 0.796230 0.384020 255 152 23
-0.006467 0.167516 0.080810 -0.467489 0.796230 0.384020 255 152 23
-0.010594 0.171721 0.067067 -0.467489 0.796230 0.384020 255 152 23
-0.010594 0.171721 0.067067 -0.538920 0.758888 0.365589 255 152 23
-0.016154 0.167929 0.066742 -0.538920 0.758888 0.365589 255 152 23
-0.010655 0.165184 0.080546 -0.538920 0.758888 0.365589 255 152 23
-0.013549 0.168206 0.029844 -0.552864 0.786063 -0.276488 255 152 23
-0.024871 0.161669 0.033901 -0.552864 0.786063 -0.276488 255 152 23
-0.021432 0.169721 0.049916 -0.552864 0.786063 -0.276488 255 152 23
-0.013549 0.168206 0.029844 -0.559830 0.746367 -0.359897 255 152 23
-0.027821 0.149745 0.013762 -0.559830 0.746367 -0.359897 255 152 23
-0.024871 0.161669 0.033901 -0.559830 0.746367 -0.359897 255 152 23
0.028579 0.136386 -0.001499 0.991722 0.126072 -0.024363 255 152 23
0.027256 0.149745 0.013762 0.991722 0.126072 -0.024363 255 152 23
0.029638 0.137706 0.048424 0.991722 0.126072 -0.024363 255 152 23
0.029638 0.137706 0.048424 0.977095 0.211172 -0.026302 255 152 23
0.033553 0.116720 0.025382 0.977095 0.211172 -0.026302 255 152 23
0.028579 0.136386 -0.001499 0.977095 0.211172 -0.026302 255 152 23
-0.000282 0.163361 0.102051 0.829757 0.355367 0.430370 0 0 0
0.012230 0.161567 0.079409 0.829757 0.355367 0.430370 0 0 0
0.010091 0.165184 0.080546 0.829757 0.355367 0.430370 0 0 0
0.033553 0.116720 0.025382 0.868038 -0.064634 0.492274 255 152 23
0.027970 0.076882 0.029997 0.868038 -0.064634 0.492274 255 152 23
0.036047 0.115614 0.020840 0.868038 -0.064634 0.492274 255 152 23
0.022984 0.160683 0.060239 0.834164 -0.270862 0.480420 255 152 23
0.012230 0.161567 0.079409 0.834164 -0.270862 0.480420 255 152 23
0.012642 0.153951 0.074399 0.834164 -0.270862 0.480420 255 152 23
0.025805 0.117104 0.065752 0.981540 -0.022913 0.189877 255 152 23
0.027232 0.091033 0.055227 0.981540 -0.022913 0.189877 255 152 23
0.029638 0.137706 0.048424 0.981540 -0.022913 0.189877 255 152 23
-0.030201 0.137706 0.048424 -0.991741 0.125924 -0.024359 255 152 23
-0.027821 0.149745 0.013762 -0.991741 0.125924 -0.024359 255 152 23
-0.029143 0.136386 -0.001499 -0.991741 0.125924 -0.024359 255 152 23
-0.029143 0.136386 -0.001499 -0.977076 0.211262 -0.026304 255 152 23
-0.034119 0.116720 0.025382 -0.977076 0.211262 -0.026304 255 152 23
-0.030201 0.137706 0.048424 -0.977076 0.211262 -0.026304 255 152 23
-0.036612 0.115614 0.020840 -0.868031 -0.064675 0.492280 255 152 23
-0.028533 0.076882 0.029997 -0.868031 -0.064675 0.492280 255 152 23
-0.034119 0.116720 0.025382 -0.868031 -0.064675 0.492280 255 152 23
-0.012794 0.161567 0.079409 -0.834165 -0.270862 0.480420 255 152 23
-0.023547 0.160683 0.060239 -0.834165 -0.270862 0.480420 255 152 23
-0.013206 0.153951 0.074399 -0.834165 -0.270862 0.480420 255 152 23
-0.030201 0.137706 0.048424 -0.981540 -0.022913 0.189878 255 152 23
-0.027796 0.091033 0.055227 -0.981540 -0.022913 0.189878 255 152 23
-0.026369 0.117104 0.065752 -0.981540 -0.022913 0.189878 255 152 23
-0.036612 0.115614 0.020840 -0.955561 0.028036 -0.293457 255 152 23
-0.029143 0.136386 -0.001499 -0.955561 0.028036 -0.293457 255 152 23
-0.010408 0.101859 -0.065802 -0.955561 0.028036 -0.293457 255 152 23
0.009842 0.101859 -0.065802 0.955567 0.027959 -0.293446 255 152 23
0.028579 0.136386 -0.001499 0.955567 0.027959 -0.293446 255 152 23
0.036047 0.115614 0.020840 0.955567 0.027959 -0.293446 255 152 23
-0.025833 0.092696 -0.041793 -0.760766 0.593714 -0.262182 255 152 23
-0.032146 0.100416 -0.005992 -0.760766 0.593714 -0.262182 255 152 23
-0.010408 0.101859 -0.065802 -0.760766 0.593714 -0.262182 255 152 23
-0.092052 0.145330 -0.038015 -0.622963 -0.781765 -0.027574 255 152 23
-0.025833 0.092696 -0.041793 -0.622963 -0.781765 -0.027574 255 152 23
-0.032211 0.096486 -0.005151 -0.622963 -0.781765 -0.027574 255 152 23
-0.023008 0.055503 -0.013648 -0.977683 -0.208995 -0.021383 255 152 23
-0.028533 0.076882 0.029997 -0.977683 -0.208995 -0.021383 255 152 23
-0.036612 0.115614 0.020840 -0.977683 -0.208995 -0.021383 255 152 23
-0.032146 0.100416 -0.005992 0.619035 0.783090 -0.059718 255 152 23
-0.025833 0.092696 -0.041793 0.619035 0.783090 -0.059718 255 152 23
-0.092052 0.145330 -0.038015 0.619035 0.783090 -0.059718 255 152 23
0.036047 0.115614 0.020840 0.977691 -0.208954 -0.021413 255 152 23
0.027970 0.076882 0.029997 0.977691 -0.208954 -0.021413 255 152 23
0.022445 0.055505 -0.013648 0.977691 -0.208954 -0.021413 255 152 23
0.091489 0.145330 -0.038015 -0.619035 0.783090 -0.059718 255 152 23
0.025270 0.092696 -0.041793 -0.619035 0.783090 -0.059718 255 152 23
0.031583 0.100416 -0.005992 -0.619035 0.783090 -0.059718 255 152 23
0.031647 0.096486 -0.005151 0.622963 -0.781765 -0.027573 255 152 23
0.025270 0.092696 -0.041793 0.622963 -0.781765 -0.027573 255 152 23
0.091489 0.145330 -0.038015 0.622963 -0.781765 -0.027573 255 152 23
0.009842 0.101859 -0.065802 0.760714 0.593778 -0.262187 255 152 23
0.031583 0.100416 -0.005992 0.760714 0.593778 -0.262187 255 152 23
0.025270 0.092696 -0.041793 0.760714 0.593778 -0.262187 255 152 23
-0.025833 0.092696 -0.041793 -0.960571 -0.054555 -0.272630 255 152 23
-0.005018 0.077564 -0.112104 -0.960571 -0.054555 -0.272630 255 152 23
-0.011045 0.070097 -0.089375 -0.960571 -0.054555 -0.272630 255 152 23
0.010482 0.070097 -0.089375 0.960571 -0.054556 -0.272630 255 152 23
0.004455 0.077564 -0.112104 0.960571 -0.054556 -0.272630 255 152 23
0.025270 0.092696 -0.041793 0.960571 -0.054556 -0.272630 255 152 23
0.018710 0.042004 -0.030659 -0.171068 0.421948 0.890335 255 152 23
0.004104 0.042338 -0.033624 -0.171068 0.421948 0.890335 255 152 23
0.010391 0.007291 -0.015807 -0.171068 0.421948 0.890335 255 152 23
0.004104 0.042338 -0.033624 -0.535163 -0.481509 -0.694082 255 152 23
0.015636 0.046763 -0.045585 -0.535163 -0.481509 -0.694082 255 152 23
0.012503 0.007323 -0.015808 -0.535163 -0.481509 -0.694082 255 152 23
0.008113 0.062631 -0.064083 0.327525 -0.938196 0.111871 255 152 23
-0.000282 0.060006 -0.061520 0.327525 -0.938196 0.111871 255 152 23
-0.000282 0.055536 -0.099008 0.327525 -0.938196 0.111871 255 152 23
0.014997 0.066162 0.034893 0.392100 -0.884084 0.254270 255 152 23
0.012658 0.051164 -0.013648 0.392100 -0.884084 0.254270 255 152 23
0.022445 0.055505 -0.013648 0.392100 -0.884084 0.254270 255 152 23
-0.023008 0.055503 -0.013648 -0.970897 -0.186990 -0.149646 255 152 23
-0.032211 0.096486 -0.005151 -0.970897 -0.186990 -0.149646 255 152 23
-0.025833 0.092696 -0.041793 -0.970897 -0.186990 -0.149646 255 152 23
-0.013066 0.007323 -0.015808 0.535163 -0.481510 -0.694082 255 152 23
-0.016199 0.046763 -0.045585 0.535163 -0.481510 -0.694082 255 152 23
-0.004667 0.042338 -0.033624 0.535163 -0.481510 -0.694082 255 152 23
-0.016199 0.046763 -0.045585 -0.917200 -0.283905 -0.279539 255 152 23
-0.013066 0.007323 -0.015808 -0.917200 -0.283905 -0.279539 255 152 23
-0.019275 0.042004 -0.030659 -0.917200 -0.283905 -0.279539 255 152 23
-0.000282 0.045220 -0.041574 0.069271 -0.801412 -0.594088 255 152 23
-0.000282 0.060006 -0.061520 0.069271 -0.801412 -0.594088 255 152 23
0.008113 0.062631 -0.064083 0.069271 -0.801412 -0.594088 255 152 23
0.025270 0.092696 -0.041793 0.970896 -0.186998 -0.149644 255 152 23
0.031647 0.096486 -0.005151 0.970896 -0.186998 -0.149644 255 152 23
0.022445 0.055505 -0.013648 0.970896 -0.186998 -0.149644 255 152 23
0.016508 0.062631 -0.066647 0.960571 -0.054562 -0.272627 255 152 23
0.010482 0.070097 -0.089375 0.960571 -0.054562 -0.272627 255 152 23
0.025270 0.092696 -0.041793 0.960571 -0.054562 -0.272627 255 152 23
-0.005014 0.067478 -0.094149 -1.000000 -0.000075 0.000176 255 152 23
-0.005018 0.077564 -0.112104 -1.000000 -0.000075 0.000176 255 152 23
-0.005018 0.066384 -0.116882 -1.000000 -0.000075 0.000176 255 152 23
0.004455 0.066384 -0.116882 1.000000 -0.000075 0.000176 255 152 23
0.004455 0.077564 -0.112104 1.000000 -0.000075 0.000176 255 152 23
0.004451 0.067478 -0.094149 1.000000 -0.000075 0.000176 255 152 23
-0.025833 0.092696 -0.041793 -0.960571 -0.054561 -0.272627 255 152 23
-0.011045 0.070097 -0.089375 -0.960571 -0.054561 -0.272627 255 152 23
-0.017072 0.062631 -0.066647 -0.960571 -0.054561 -0.272627 255 152 23
-0.025833 0.092696 -0.041793 -0.975652 -0.174576 -0.132765 255 152 23
-0.017072 0.062631 -0.066647 -0.975652 -0.174576 -0.132765 255 152 23
-0.023008 0.055503 -0.013648 -0.975652 -0.174576 -0.132765 255 152 23
-0.094564 0.146126 -0.015579 -0.649984 -0.700441 0.294791 255 152 23
-0.098030 0.157227 0.003154 -0.649984 -0.700441 0.294791 255 152 23
-0.163915 0.190164 -0.063857 -0.649984 -0.700441 0.294791 255 152 23
-0.088455 0.148751 -0.016291 0.573743 0.815772 -0.073041 255 152 23
-0.098030 0.157227 0.003154 0.573743 0.815772 -0.073041 255 152 23
-0.036612 0.115614 0.020840 0.573743 0.815772 -0.073041 255 152 23
0.036047 0.115614 0.020840 -0.573751 0.815762 -0.073090 255 152 23
0.097464 0.157227 0.003154 -0.573751 0.815762 -0.073090 255 152 23
0.087891 0.148751 -0.016291 -0.573751 0.815762 -0.073090 255 152 23
0.163350 0.190164 -0.063857 0.649984 -0.700442 0.294791 255 152 23
0.097464 0.157227 0.003154 0.649984 -0.700442 0.294791 255 152 23
0.093998 0.146126 -0.015579 0.649984 -0.700442 0.294791 255 152 23
-0.092052 0.145330 -0.038015 -0.521792 -0.852608 -0.028159 255 152 23
-0.094564 0.146126 -0.015579 -0.521792 -0.852608 -0.028159 255 152 23
-0.163915 0.190164 -0.063857 -0.521792 -0.852608 -0.028159 255 152 23
-0.163904 0.192034 -0.063773 0.540821 0.835430 -0.097822 255 152 23
-0.098030 0.157227 0.003154 0.540821 0.835430 -0.097822 255 152 23
-0.088455 0.148751 -0.016291 0.540821 0.835430 -0.097822 255 152 23
0.087891 0.148751 -0.016291 -0.540837 0.835415 -0.097862 255 152 23
0.097464 0.157227 0.003154 -0.540837 0.835415 -0.097862 255 152 23
0.163340 0.192034 -0.063773 -0.540837 0.835415 -0.097862 255 152 23
0.163350 0.190164 -0.063857 0.521814 -0.852596 -0.028117 255 152 23
0.093998 0.146126 -0.015579 0.521814 -0.852596 -0.028117 255 152 23
0.091489 0.145330 -0.038015 0.521814 -0.852596 -0.028117 255 152 23
-0.000282 0.173430 0.067067 -0.154319 0.930864 0.331177 255 152 23
-0.010594 0.171721 0.067067 -0.154319 0.930864 0.331177 255 152 23
-0.006467 0.167516 0.080810 -0.154319 0.930864 0.331177 255 152 23
-0.013549 0.168206 0.029844 -0.110446 0.820398 -0.561025 255 152 23
-0.000282 0.169992 0.029844 -0.110446 0.820398 -0.561025 255 152 23
-0.000282 0.145693 -0.005688 -0.110446 0.820398 -0.561025 255 152 23
0.001475 0.047796 -0.041574 -0.224246 -0.773859 -0.592330 255 152 23
0.016508 0.062631 -0.066647 -0.224246 -0.773859 -0.592330 255 152 23
0.015636 0.046763 -0.045585 -0.224246 -0.773859 -0.592330 255 152 23
0.022445 0.055505 -0.013648 0.975652 -0.174581 -0.132759 255 152 23
0.016508 0.062631 -0.066647 0.975652 -0.174581 -0.132759 255 152 23
0.025270 0.092696 -0.041793 0.975652 -0.174581 -0.132759 255 152 23
-0.023008 0.055503 -0.013648 -0.301963 -0.920377 0.248445 255 152 23
-0.000282 0.042630 -0.033714 -0.301963 -0.920377 0.248445 255 152 23
-0.015560 0.066162 0.034893 -0.301963 -0.920377 0.248445 255 152 23
-0.010955 0.007291 -0.015807 0.171045 0.421953 0.890336 255 152 23
-0.004667 0.042338 -0.033624 0.171045 0.421953 0.890336 255 152 23
-0.019275 0.042004 -0.030659 0.171045 0.421953 0.890336 255 152 23
-0.000282 0.064101 0.034893 0.000000 -0.771783 0.635886 255 152 23
0.014844 0.083375 0.058286 0.000000 -0.771783 0.635886 255 152 23
-0.015409 0.083375 0.058286 0.000000 -0.771783 0.635886 255 152 23
-0.007087 0.150382 0.075972 0.043270 -0.162744 0.985719 255 152 23
-0.014358 0.107137 0.069151 0.043270 -0.162744 0.985719 255 152 23
0.011915 0.133324 0.072321 0.043270 -0.162744 0.985719 255 152 23
0.009842 0.101859 -0.065802 0.000000 0.813479 -0.581594 255 152 23
-0.010408 0.101859 -0.065802 0.000000 0.813479 -0.581594 255 152 23
-0.014780 0.144634 -0.005972 0.000000 0.813479 -0.581594 255 152 23
-0.005018 0.077564 -0.112104 0.000000 0.935901 -0.352263 255 152 23
0.004455 0.077564 -0.112104 0.000000 0.935901 -0.352263 255 152 23
0.004169 0.054781 -0.172635 0.000000 0.935901 -0.352263 255 152 23
-0.021432 0.169721 0.049916 -0.926334 0.356342 0.122169 255 152 23
-0.026329 0.156570 0.051142 -0.926334 0.356342 0.122169 255 152 23
-0.023547 0.160683 0.060239 -0.926334 0.356342 0.122169 255 152 23
-0.022248 0.137657 0.070665 -0.974869 -0.043275 0.218537 255 152 23
-0.025684 0.153755 0.058521 -0.974869 -0.043275 0.218537 255 152 23
-0.026504 0.151722 0.054463 -0.974869 -0.043275 0.218537 255 152 23
0.022984 0.160683 0.060239 0.926297 0.356460 0.122104 255 152 23
0.025766 0.156570 0.051142 0.926297 0.356460 0.122104 255 152 23
0.020867 0.169721 0.049916 0.926297 0.356460 0.122104 255 152 23
0.025938 0.151722 0.054463 0.974882 -0.043190 0.218495 255 152 23
0.025119 0.153755 0.058521 0.974882 -0.043190 0.218495 255 152 23
0.021684 0.137657 0.070665 0.974882 -0.043190 0.218495 255 152 23
-0.000282 0.065127 -0.094149 -0.437837 -0.881517 0.176711 255 152 23
-0.005014 0.067478 -0.094149 -0.437837 -0.881517 0.176711 255 152 23
-0.004732 0.051282 -0.174243 -0.437837 -0.881517 0.176711 255 152 23
0.010482 0.070097 -0.089375 0.848603 -0.393033 -0.354116 255 152 23
0.016508 0.062631 -0.066647 0.848603 -0.393033 -0.354116 255 152 23
-0.000282 0.055536 -0.099008 0.848603 -0.393033 -0.354116 255 152 23
-0.004732 0.054781 -0.172635 0.000000 0.935901 -0.352263 255 152 23
-0.000282 0.065127 -0.094149 0.429544 -0.885541 0.176945 255 152 23
-0.000282 0.048505 -0.177333 0.429544 -0.885541 0.176945 255 152 23
0.004169 0.051282 -0.174243 0.429544 -0.885541 0.176945 255 152 23
0.012983 0.168206 0.029844 0.412908 0.881583 -0.228733 255 152 23
0.011628 0.173876 0.049252 0.412908 0.881583 -0.228733 255 152 23
0.020867 0.169721 0.049916 0.412908 0.881583 -0.228733 255 152 23
-0.012192 0.173876 0.049252 -0.150365 0.947585 -0.281911 255 152 23
-0.000282 0.175765 0.049252 -0.150365 0.947585 -0.281911 255 152 23
-0.000282 0.169992 0.029844 -0.150365 0.947585 -0.281911 255 152 23
-0.022334 0.002035 -0.001255 -0.013971 -0.999872 -0.007757 255 152 23
-0.009249 0.002006 -0.021029 -0.013971 -0.999872 -0.007757 255 152 23
-0.002776 0.001757 -0.000595 -0.013971 -0.999872 -0.007757 255 152 23
-0.011861 0.002057 0.003522 -0.124231 0.955374 0.268006 255 152 23
-0.013066 0.007323 -0.015808 -0.124231 0.955374 0.268006 255 152 23
-0.022334 0.002035 -0.001255 -0.124231 0.955374 0.268006 255 152 23
0.021770 0.002035 -0.001255 0.124231 0.955374 0.268006 255 152 23
0.012503 0.007323 -0.015808 0.124231 0.955374 0.268006 255 152 23
0.011297 0.002057 0.003522 0.124231 0.955374 0.268006 255 152 23
0.002212 0.001757 -0.000595 0.013970 -0.999872 -0.007757 255 152 23
0.008686 0.002006 -0.021029 0.013970 -0.999872 -0.007757 255 152 23
0.021770 0.002035 -0.001255 0.013970 -0.999872 -0.007757 255 152 23
0.014844 0.083375 0.058286 0.000000 -0.415848 0.909434 255 152 23
0.013793 0.107137 0.069151 0.000000 -0.415848 0.909434 255 152 23
-0.014358 0.107137 0.069151 0.000000 -0.415848 0.909434 255 152 23
0.025805 0.117104 0.065752 0.506373 -0.339970 0.792469 255 152 23
0.013793 0.107137 0.069151 0.506373 -0.339970 0.792469 255 152 23
0.014844 0.083375 0.058286 0.506373 -0.339970 0.792469 255 152 23
0.022445 0.055505 -0.013648 0.975895 -0.218194 -0.004601 255 152 23
0.031647 0.096486 -0.005151 0.975895 -0.218194 -0.004601 255 152 23
0.036047 0.115614 0.020840 0.975895 -0.218194 -0.004601 255 152 23
0.093998 0.146126 -0.015579 0.592810 -0.736170 0.326542 255 152 23
0.097464 0.157227 0.003154 0.592810 -0.736170 0.326542 255 152 23
0.036047 0.115614 0.020840 0.592810 -0.736170 0.326542 255 152 23
-0.036612 0.115614 0.020840 -0.592810 -0.736170 0.326542 255 152 23
-0.098030 0.157227 0.003154 -0.592810 -0.736170 0.326542 255 152 23
-0.094564 0.146126 -0.015579 -0.592810 -0.736170 0.326542 255 152 23
-0.036612 0.115614 0.020840 -0.975901 -0.218165 -0.004696 255 152 23
-0.032211 0.096486 -0.005151 -0.975901 -0.218165 -0.004696 255 152 23
-0.023008 0.055503 -0.013648 -0.975901 -0.218165 -0.004696 255 152 23
0.025270 0.092696 -0.041793 0.812634 0.471793 -0.342108 255 152 23
0.004455 0.077564 -0.112104 0.812634 0.471793 -0.342108 255 152 23
0.009842 0.101859 -0.065802 0.812634 0.471793 -0.342108 255 152 23
0.009842 0.101859 -0.065802 0.000000 0.885505 -0.464630 255 152 23
0.004455 0.077564 -0.112104 0.000000 0.885505 -0.464630 255 152 23
-0.005018 0.077564 -0.112104 0.000000 0.885505 -0.464630 255 152 23
-0.000282 0.055536 -0.099008 -0.848602 -0.393034 -0.354116 255 152 23
-0.017072 0.062631 -0.066647 -0.848602 -0.393034 -0.354116 255 152 23
-0.011045 0.070097 -0.089375 -0.848602 -0.393034 -0.354116 255 152 23
-0.000282 0.055536 -0.099008 0.218993 0.440908 -0.870427 255 152 23
-0.005014 0.067478 -0.094149 0.218993 0.440908 -0.870427 255 152 23
-0.000282 0.065127 -0.094149 0.218993 0.440908 -0.870427 255 152 23
-0.021432 0.169721 0.049916 -0.412837 0.881623 -0.228707 255 152 23
-0.012192 0.173876 0.049252 -0.412837 0.881623 -0.228707 255 152 23
-0.013549 0.168206 0.029844 -0.412837 0.881623 -0.228707 255 152 23
-0.000282 0.169992 0.029844 -0.128472 0.954302 -0.269819 255 152 23
-0.013549 0.168206 0.029844 -0.128472 0.954302 -0.269819 255 152 23
-0.012192 0.173876 0.049252 -0.128472 0.954302 -0.269819 255 152 23
-0.015409 0.083375 0.058286 -0.506433 -0.339954 0.792437 255 152 23
-0.014358 0.107137 0.069151 -0.506433 -0.339954 0.792437 255 152 23
-0.026369 0.117104 0.065752 -0.506433 -0.339954 0.792437 255 152 23
-0.015409 0.083375 0.058286 0.000000 -0.415848 0.909434 255 152 23
-0.017072 0.062631 -0.066647 0.176382 -0.797166 -0.577422 255 152 23
-0.008677 0.062631 -0.064083 0.176382 -0.797166 -0.577422 255 152 23
-0.002038 0.047796 -0.041574 0.176382 -0.797166 -0.577422 255 152 23
-0.008677 0.062631 -0.064083 -0.056712 -0.980976 0.185658 255 152 23
-0.017072 0.062631 -0.066647 -0.056712 -0.980976 0.185658 255 152 23
-0.000282 0.055536 -0.099008 -0.056712 -0.980976 0.185658 255 152 23
-0.010408 0.101859 -0.065802 -0.812683 0.471710 -0.342105 255 152 23
-0.005018 0.077564 -0.112104 -0.812683 0.471710 -0.342105 255 152 23
-0.025833 0.092696 -0.041793 -0.812683 0.471710 -0.342105 255 152 23
-0.010408 0.101859 -0.065802 0.000000 0.885505 -0.464630 255 152 23
0.000889 0.067478 -0.094149 0.000000 0.376839 -0.926279 255 152 23
0.004451 0.067478 -0.094149 0.000000 0.376839 -0.926279 255 152 23
-0.000282 0.055536 -0.099008 0.000000 0.376839 -0.926279 255 152 23
0.004169 0.051282 -0.174243 0.000000 -0.980161 0.198201 255 152 23
0.004451 0.067478 -0.094149 0.000000 -0.980161 0.198201 255 152 23
0.000889 0.067478 -0.094149 0.000000 -0.980161 0.198201 255 152 23
-0.027888 0.155545 0.058153 -0.941259 -0.337670 -0.003225 0 0 0
-0.028294 0.156723 0.053230 -0.941259 -0.337670 -0.003225 0 0 0
-0.026504 0.151722 0.054463 -0.941259 -0.337670 -0.003225 0 0 0
-0.026329 0.156570 0.051142 -0.978690 0.204115 -0.022429 255 152 23
-0.024871 0.161669 0.033901 -0.978690 0.204115 -0.022429 255 152 23
-0.030201 0.137706 0.048424 -0.978690 0.204115 -0.022429 255 152 23
0.025938 0.151722 0.054463 0.941166 -0.337932 -0.002923 0 0 0
0.027730 0.156723 0.053230 0.941166 -0.337932 -0.002923 0 0 0
0.027323 0.155545 0.058153 0.941166 -0.337932 -0.002923 0 0 0
0.029638 0.137706 0.048424 0.978690 0.204115 -0.022429 255 152 23
0.024307 0.161669 0.033901 0.978690 0.204115 -0.022429 255 152 23
0.025766 0.156570 0.051142 0.978690 0.204115 -0.022429 255 152 23
0.015636 0.046763 -0.045585 0.917272 -0.283807 -0.279402 255 152 23
0.018710 0.042004 -0.030659 0.917272 -0.283807 -0.279402 255 152 23
0.012503 0.007323 -0.015808 0.917272 -0.283807 -0.279402 255 152 23
0.018710 0.042004 -0.030659 0.823644 -0.468816 -0.319098 255 152 23
0.015636 0.046763 -0.045585 0.823644 -0.468816 -0.319098 255 152 23
0.016508 0.062631 -0.066647 0.823644 -0.468816 -0.319098 255 152 23
0.002212 0.001757 -0.000595 -0.819184 0.514592 -0.253247 255 152 23
0.010391 0.007291 -0.015807 -0.819184 0.514592 -0.253247 255 152 23
0.008686 0.002006 -0.021029 -0.819184 0.514592 -0.253247 255 152 23
0.021770 0.002035 -0.001255 0.750070 0.609759 -0.256104 255 152 23
0.010887 -0.000000 -0.037974 0.750070 0.609759 -0.256104 255 152 23
0.012503 0.007323 -0.015808 0.750070 0.609759 -0.256104 255 152 23
-0.009249 0.002006 -0.021029 0.819184 0.514592 -0.253247 255 152 23
-0.010955 0.007291 -0.015807 0.819184 0.514592 -0.253247 255 152 23
-0.002776 0.001757 -0.000595 0.819184 0.514592 -0.253247 255 152 23
-0.013066 0.007323 -0.015808 -0.750033 0.609824 -0.256056 255 152 23
-0.011453 -0.000000 -0.037974 -0.750033 0.609824 -0.256056 255 152 23
-0.022334 0.002035 -0.001255 -0.750033 0.609824 -0.256056 255 152 23
0.011628 0.173876 0.049252 0.563068 0.812902 0.148815 255 152 23
0.010031 0.171721 0.067067 0.563068 0.812902 0.148815 255 152 23
0.015591 0.167929 0.066742 0.563068 0.812902 0.148815 255 152 23
-0.010594 0.171721 0.067067 -0.162198 0.978390 0.128234 255 152 23
-0.000282 0.173430 0.067067 -0.162198 0.978390 0.128234 255 152 23
-0.000282 0.175765 0.049252 -0.162198 0.978390 0.128234 255 152 23
-0.026237 0.158464 0.059056 0.704396 0.688420 -0.172931 255 152 23
-0.023410 0.156172 0.061448 0.704396 0.688420 -0.172931 255 152 23
-0.026329 0.156570 0.051142 0.704396 0.688420 -0.172931 255 152 23
-0.025684 0.153755 0.058521 -0.607069 -0.654599 0.450519 0 0 0
-0.027888 0.155545 0.058153 -0.607069 -0.654599 0.450519 0 0 0
-0.026504 0.151722 0.054463 -0.607069 -0.654599 0.450519 0 0 0
0.025766 0.156570 0.051142 -0.704696 0.688088 -0.173029 255 152 23
0.022847 0.156172 0.061448 -0.704696 0.688088 -0.173029 255 152 23
0.025672 0.158464 0.059056 -0.704696 0.688088 -0.173029 255 152 23
0.025938 0.151722 0.054463 0.607068 -0.654601 0.450518 0 0 0
0.027323 0.155545 0.058153 0.607068 -0.654601 0.450518 0 0 0
0.025119 0.153755 0.058521 0.607068 -0.654601 0.450518 0 0 0
-0.002038 0.047796 -0.041574 0.204726 -0.837221 -0.507098 255 152 23
-0.004667 0.042338 -0.033624 0.204726 -0.837221 -0.507098 255 152 23
-0.016199 0.046763 -0.045585 0.204726 -0.837221 -0.507098 255 152 23
-0.004667 0.042338 -0.033624 0.065719 -0.804384 0.590464 255 152 23
-0.000282 0.042630 -0.033714 0.065719 -0.804384 0.590464 255 152 23
-0.023008 0.055503 -0.013648 0.065719 -0.804384 0.590464 255 152 23
-0.000282 0.063972 -0.116882 0.000000 -0.986683 0.162655 255 152 23
-0.004732 0.054781 -0.172635 0.000000 -0.986683 0.162655 255 152 23
0.004169 0.054781 -0.172635 0.000000 -0.986683 0.162655 255 152 23
0.004169 0.051282 -0.174243 -0.396759 0.889278 -0.227525 255 152 23
-0.000282 0.048505 -0.177333 -0.396759 0.889278 -0.227525 255 152 23
-0.000282 0.063972 -0.116882 -0.396759 0.889278 -0.227525 255 152 23
-0.016199 0.046763 -0.045585 0.224246 -0.773859 -0.592330 255 152 23
-0.017072 0.062631 -0.066647 0.224246 -0.773859 -0.592330 255 152 23
-0.002038 0.047796 -0.041574 0.224246 -0.773859 -0.592330 255 152 23
-0.017072 0.062631 -0.066647 -0.823498 -0.468982 -0.319229 255 152 23
-0.016199 0.046763 -0.045585 -0.823498 -0.468982 -0.319229 255 152 23
-0.019275 0.042004 -0.030659 -0.823498 -0.468982 -0.319229 255 152 23
-0.004732 0.051282 -0.174243 0.441920 0.868033 -0.226329 255 152 23
-0.005018 0.066384 -0.116882 0.441920 0.868033 -0.226329 255 152 23
-0.000282 0.063972 -0.116882 0.441920 0.868033 -0.226329 255 152 23
-0.005018 0.066384 -0.116882 -0.999712 -0.023985 0.001326 255 152 23
-0.004732 0.051282 -0.174243 -0.999712 -0.023985 0.001326 255 152 23
-0.005014 0.067478 -0.094149 -0.999712 -0.023985 0.001326 255 152 23
-0.000282 0.055536 -0.099008 0.056712 -0.980977 0.185658 255 152 23
0.016508 0.062631 -0.066647 0.056712 -0.980977 0.185658 255 152 23
0.008113 0.062631 -0.064083 0.056712 -0.980977 0.185658 255 152 23
0.001475 0.047796 -0.041574 -0.176382 -0.797165 -0.577422 255 152 23
0.008113 0.062631 -0.064083 -0.176382 -0.797165 -0.577422 255 152 23
0.016508 0.062631 -0.066647 -0.176382 -0.797165 -0.577422 255 152 23
0.022445 0.055505 -0.013648 -0.065718 -0.804345 0.590517 255 152 23
-0.000282 0.042630 -0.033714 -0.065718 -0.804345 0.590517 255 152 23
0.004104 0.042338 -0.033624 -0.065718 -0.804345 0.590517 255 152 23
0.015636 0.046763 -0.045585 -0.204726 -0.837221 -0.507098 255 152 23
0.004104 0.042338 -0.033624 -0.204726 -0.837221 -0.507098 255 152 23
0.001475 0.047796 -0.041574 -0.204726 -0.837221 -0.507098 255 152 23
-0.094564 0.146126 -0.015579 -0.610939 -0.683454 0.399555 255 152 23
-0.032211 0.096486 -0.005151 -0.610939 -0.683454 0.399555 255 152 23
-0.036612 0.115614 0.020840 -0.610939 -0.683454 0.399555 255 152 23
-0.032211 0.096486 -0.005151 -0.618073 -0.785033 -0.041334 255 152 23
-0.094564 0.146126 -0.015579 -0.618073 -0.785033 -0.041334 255 152 23
-0.092052 0.145330 -0.038015 -0.618073 -0.785033 -0.041334 255 152 23
0.091489 0.145330 -0.038015 0.618091 -0.785022 -0.041283 255 152 23
0.093998 0.146126 -0.015579 0.618091 -0.785022 -0.041283 255 152 23
0.031647 0.096486 -0.005151 0.618091 -0.785022 -0.041283 255 152 23
0.036047 0.115614 0.020840 0.610945 -0.683432 0.399584 255 152 23
0.031647 0.096486 -0.005151 0.610945 -0.683432 0.399584 255 152 23
0.093998 0.146126 -0.015579 0.610945 -0.683432 0.399584 255 152 23
0.004451 0.067478 -0.094149 0.999711 -0.023990 0.001327 255 152 23
0.004169 0.051282 -0.174243 0.999711 -0.023990 0.001327 255 152 23
0.004455 0.066384 -0.116882 0.999711 -0.023990 0.001327 255 152 23
-0.000282 0.063972 -0.116882 -0.441920 0.868033 -0.226329 255 152 23
0.004455 0.066384 -0.116882 -0.441920 0.868033 -0.226329 255 152 23
0.004169 0.051282 -0.174243 -0.441920 0.868033 -0.226329 255 152 23
0.004104 0.042338 -0.033624 -0.146082 -0.759042 0.634441 255 152 23
0.018710 0.042004 -0.030659 -0.146082 -0.759042 0.634441 255 152 23
0.022445 0.055505 -0.013648 -0.146082 -0.759042 0.634441 255 152 23
0.016508 0.062631 -0.066647 0.985470 -0.114187 -0.125738 255 152 23
0.022445 0.055505 -0.013648 0.985470 -0.114187 -0.125738 255 152 23
0.018710 0.042004 -0.030659 0.985470 -0.114187 -0.125738 255 152 23
-0.023008 0.055503 -0.013648 0.146051 -0.759101 0.634377 255 152 23
-0.019275 0.042004 -0.030659 0.146051 -0.759101 0.634377 255 152 23
-0.004667 0.042338 -0.033624 0.146051 -0.759101 0.634377 255 152 23
-0.019275 0.042004 -0.030659 -0.985484 -0.114076 -0.125729 255 152 23
-0.023008 0.055503 -0.013648 -0.985484 -0.114076 -0.125729 255 152 23
-0.017072 0.062631 -0.066647 -0.985484 -0.114076 -0.125729 255 152 23
-0.010408 0.101859 -0.065802 -0.898893 0.299878 -0.319475 255 152 23
-0.032146 0.100416 -0.005992 -0.898893 0.299878 -0.319475 255 152 23
-0.036612 0.115614 0.020840 -0.898893 0.299878 -0.319475 255 152 23
-0.036612 0.115614 0.020840 0.653551 0.700054 -0.287741 255 152 23
-0.032146 0.100416 -0.005992 0.653551 0.700054 -0.287741 255 152 23
-0.088455 0.148751 -0.016291 0.653551 0.700054 -0.287741 255 152 23
0.036047 0.115614 0.020840 0.898843 0.300022 -0.319482 255 152 23
0.031583 0.100416 -0.005992 0.898843 0.300022 -0.319482 255 152 23
0.009842 0.101859 -0.065802 0.898843 0.300022 -0.319482 255 152 23
0.087891 0.148751 -0.016291 -0.653547 0.700041 -0.287782 255 152 23
0.031583 0.100416 -0.005992 -0.653547 0.700041 -0.287782 255 152 23
0.036047 0.115614 0.020840 -0.653547 0.700041 -0.287782 255 152 23
0.011628 0.173876 0.049252 0.128491 0.954297 -0.269830 255 152 23
0.012983 0.168206 0.029844 0.128491 0.954297 -0.269830 255 152 23
-0.000282 0.169992 0.029844 0.128491 0.954297 -0.269830 255 152 23
-0.000282 0.145693 -0.005688 0.000770 0.825448 -0.564478 255 152 23
-0.000282 0.169992 0.029844 0.000770 0.825448 -0.564478 255 152 23
0.014303 0.156888 0.010702 0.000770 0.825448 -0.564478 255 152 23
-0.030201 0.137706 0.048424 -0.937608 0.104479 0.331624 255 152 23
-0.026369 0.117104 0.065752 -0.937608 0.104479 0.331624 255 152 23
-0.026504 0.151722 0.054463 -0.937608 0.104479 0.331624 255 152 23
-0.026504 0.151722 0.054463 -0.965560 0.169792 0.197142 255 152 23
-0.026329 0.156570 0.051142 -0.965560 0.169792 0.197142 255 152 23
-0.030201 0.137706 0.048424 -0.965560 0.169792 0.197142 255 152 23
0.025938 0.151722 0.054463 0.937568 0.104562 0.331713 255 152 23
0.025805 0.117104 0.065752 0.937568 0.104562 0.331713 255 152 23
0.029638 0.137706 0.048424 0.937568 0.104562 0.331713 255 152 23
0.029638 0.137706 0.048424 0.965481 0.169710 0.197599 255 152 23
0.025766 0.156570 0.051142 0.965481 0.169710 0.197599 255 152 23
0.025938 0.151722 0.054463 0.965481 0.169710 0.197599 255 152 23
-0.000282 0.063972 -0.116882 -0.446272 -0.876582 0.180127 255 152 23
-0.005018 0.066384 -0.116882 -0.446272 -0.876582 0.180127 255 152 23
-0.004732 0.054781 -0.172635 -0.446272 -0.876582 0.180127 255 152 23
-0.005018 0.077564 -0.112104 -0.999981 0.002408 -0.005635 255 152 23
-0.004732 0.054781 -0.172635 -0.999981 0.002408 -0.005635 255 152 23
-0.005018 0.066384 -0.116882 -0.999981 0.002408 -0.005635 255 152 23
-0.004667 0.042338 -0.033624 0.043881 -0.830322 -0.555554 255 152 23
-0.002038 0.047796 -0.041574 0.043881 -0.830322 -0.555554 255 152 23
-0.000282 0.042630 -0.033714 0.043881 -0.830322 -0.555554 255 152 23
0.008113 0.062631 -0.064083 0.819552 -0.558840 -0.126621 255 152 23
0.001475 0.047796 -0.041574 0.819552 -0.558840 -0.126621 255 152 23
-0.000282 0.045220 -0.041574 0.819552 -0.558840 -0.126621 255 152 23
0.022984 0.160683 0.060239 0.764932 0.145010 0.627576 255 152 23
0.012642 0.153951 0.074399 0.764932 0.145010 0.627576 255 152 23
0.022847 0.156172 0.061448 0.764932 0.145010 0.627576 255 152 23
0.025766 0.156570 0.051142 0.960761 0.044199 0.273834 255 152 23
0.022984 0.160683 0.060239 0.960761 0.044199 0.273834 255 152 23
0.022847 0.156172 0.061448 0.960761 0.044199 0.273834 255 152 23
-0.023410 0.156172 0.061448 -0.960761 0.044199 0.273834 255 152 23
-0.023547 0.160683 0.060239 -0.960761 0.044199 0.273834 255 152 23
-0.026329 0.156570 0.051142 -0.960761 0.044199 0.273834 255 152 23
-0.023410 0.156172 0.061448 -0.764932 0.145010 0.627575 255 152 23
-0.013206 0.153951 0.074399 -0.764932 0.145010 0.627575 255 152 23
-0.023547 0.160683 0.060239 -0.764932 0.145010 0.627575 255 152 23
-0.011861 0.002057 0.003522 -0.015524 -0.999137 0.038539 255 152 23
-0.022334 0.002035 -0.001255 -0.015524 -0.999137 0.038539 255 152 23
-0.002776 0.001757 -0.000595 -0.015524 -0.999137 0.038539 255 152 23
-0.002776 0.001757 -0.000595 0.151529 0.952270 0.264993 255 152 23
-0.010955 0.007291 -0.015807 0.151529 0.952270 0.264993 255 152 23
-0.011861 0.002057 0.003522 0.151529 0.952270 0.264993 255 152 23
0.011297 0.002057 0.003522 -0.151529 0.952270 0.264993 255 152 23
0.010391 0.007291 -0.015807 -0.151529 0.952270 0.264993 255 152 23
0.002212 0.001757 -0.000595 -0.151529 0.952270 0.264993 255 152 23
0.002212 0.001757 -0.000595 0.015524 -0.999137 0.038539 255 152 23
0.021770 0.002035 -0.001255 0.015524 -0.999137 0.038539 255 152 23
0.011297 0.002057 0.003522 0.015524 -0.999137 0.038539 255 152 23
-0.011045 0.070097 -0.089375 -0.608261 -0.692064 -0.388672 255 152 23
-0.005018 0.077564 -0.112104 -0.608261 -0.692064 -0.388672 255 152 23
-0.005014 0.067478 -0.094149 -0.608261 -0.692064 -0.388672 255 152 23
-0.011045 0.070097 -0.089375 -0.593864 0.089909 -0.799526 255 152 23
-0.005014 0.067478 -0.094149 -0.593864 0.089909 -0.799526 255 152 23
-0.000282 0.055536 -0.099008 -0.593864 0.089909 -0.799526 255 152 23
-0.000282 0.055536 -0.099008 0.593863 0.089911 -0.799526 255 152 23
0.004451 0.067478 -0.094149 0.593863 0.089911 -0.799526 255 152 23
0.010482 0.070097 -0.089375 0.593863 0.089911 -0.799526 255 152 23
0.004451 0.067478 -0.094149 0.608261 -0.692064 -0.388671 255 152 23
0.004455 0.077564 -0.112104 0.608261 -0.692064 -0.388671 255 152 23
0.010482 0.070097 -0.089375 0.608261 -0.692064 -0.388671 255 152 23
0.004455 0.077564 -0.112104 0.999981 0.002408 -0.005635 255 152 23
0.004455 0.066384 -0.116882 0.999981 0.002408 -0.005635 255 152 23
0.004169 0.054781 -0.172635 0.999981 0.002408 -0.005635 255 152 23
0.004169 0.054781 -0.172635 0.446272 -0.876582 0.180127 255 152 23
0.004455 0.066384 -0.116882 0.446272 -0.876582 0.180127 255 152 23
-0.000282 0.063972 -0.116882 0.446272 -0.876582 0.180127 255 152 23
0.025766 0.156570 0.051142 0.683068 -0.396045 -0.613650 255 152 23
0.027730 0.156723 0.053230 0.683068 -0.396045 -0.613650 255 152 23
0.025938 0.151722 0.054463 0.683068 -0.396045 -0.613650 255 152 23
0.025672 0.158464 0.059056 0.167189 0.959304 -0.227561 255 152 23
0.027730 0.156723 0.053230 0.167189 0.959304 -0.227561 255 152 23
0.025766 0.156570 0.051142 0.167189 0.959304 -0.227561 255 152 23
-0.026504 0.151722 0.054463 -0.683130 -0.395818 -0.613728 255 152 23
-0.028294 0.156723 0.053230 -0.683130 -0.395818 -0.613728 255 152 23
-0.026329 0.156570 0.051142 -0.683130 -0.395818 -0.613728 255 152 23
-0.026329 0.156570 0.051142 -0.167229 0.959288 -0.227598 255 152 23
-0.028294 0.156723 0.053230 -0.167229 0.959288 -0.227598 255 152 23
-0.026237 0.158464 0.059056 -0.167229 0.959288 -0.227598 255 152 23
-0.163915 0.190164 -0.063857 0.053637 -0.432737 -0.899923 255 152 23
-0.161155 0.191607 -0.064387 0.053637 -0.432737 -0.899923 255 152 23
-0.092052 0.145330 -0.038015 0.053637 -0.432737 -0.899923 255 152 23
-0.092052 0.145330 -0.038015 0.254412 0.736845 0.626365 255 152 23
-0.161155 0.191607 -0.064387 0.254412 0.736845 0.626365 255 152 23
-0.163904 0.192034 -0.063773 0.254412 0.736845 0.626365 255 152 23
0.091489 0.145330 -0.038015 -0.053637 -0.432739 -0.899922 255 152 23
0.160590 0.191607 -0.064387 -0.053637 -0.432739 -0.899922 255 152 23
0.163350 0.190164 -0.063857 -0.053637 -0.432739 -0.899922 255 152 23
0.163340 0.192034 -0.063773 -0.254257 0.736722 0.626573 255 152 23
0.160590 0.191607 -0.064387 -0.254257 0.736722 0.626573 255 152 23
0.091489 0.145330 -0.038015 -0.254257 0.736722 0.626573 255 152 23
0.091489 0.145330 -0.038015 -0.585840 0.780036 -0.219852 255 152 23
0.087891 0.148751 -0.016291 -0.585840 0.780036 -0.219852 255 152 23
0.163340 0.192034 -0.063773 -0.585840 0.780036 -0.219852 255 152 23
0.031583 0.100416 -0.005992 -0.658135 0.719344 -0.222267 255 152 23
0.087891 0.148751 -0.016291 -0.658135 0.719344 -0.222267 255 152 23
0.091489 0.145330 -0.038015 -0.658135 0.719344 -0.222267 255 152 23
-0.163904 0.192034 -0.063773 0.585840 0.780036 -0.219852 255 152 23
-0.088455 0.148751 -0.016291 0.585840 0.780036 -0.219852 255 152 23
-0.092052 0.145330 -0.038015 0.585840 0.780036 -0.219852 255 152 23
-0.092052 0.145330 -0.038015 0.658135 0.719344 -0.222267 255 152 23
-0.088455 0.148751 -0.016291 0.658135 0.719344 -0.222267 255 152 23
-0.032146 0.100416 -0.005992 0.658135 0.719344 -0.222267 255 152 23
-0.000282 0.175765 0.049252 -0.155343 0.978957 0.132330 255 152 23
-0.012192 0.173876 0.049252 -0.155343 0.978957 0.132330 255 152 23
-0.010594 0.171721 0.067067 -0.155343 0.978957 0.132330 255 152 23
-0.016154 0.167929 0.066742 -0.563066 0.812902 0.148815 255 152 23
-0.010594 0.171721 0.067067 -0.563066 0.812902 0.148815 255 152 23
-0.012192 0.173876 0.049252 -0.563066 0.812902 0.148815 255 152 23
0.012503 0.007323 -0.015808 0.005894 -0.452339 -0.891826 255 152 23
0.010391 0.007291 -0.015807 0.005894 -0.452339 -0.891826 255 152 23
0.004104 0.042338 -0.033624 0.005894 -0.452339 -0.891826 255 152 23
0.012503 0.007323 -0.015808 -0.014095 0.964967 0.261991 255 152 23
0.010391 0.007291 -0.015807 -0.014095 0.964967 0.261991 255 152 23
0.011297 0.002057 0.003522 -0.014095 0.964967 0.261991 255 152 23
0.010391 0.007291 -0.015807 -0.005007 0.394389 0.918930 255 152 23
0.012503 0.007323 -0.015808 -0.005007 0.394389 0.918930 255 152 23
0.018710 0.042004 -0.030659 -0.005007 0.394389 0.918930 255 152 23
0.010391 0.007291 -0.015807 -0.014402 0.949742 -0.312703 255 152 23
0.012503 0.007323 -0.015808 -0.014402 0.949742 -0.312703 255 152 23
0.010887 -0.000000 -0.037974 -0.014402 0.949742 -0.312703 255 152 23
-0.011453 -0.000000 -0.037974 0.014402 0.949741 -0.312704 255 152 23
-0.013066 0.007323 -0.015808 0.014402 0.949741 -0.312704 255 152 23
-0.010955 0.007291 -0.015807 0.014402 0.949741 -0.312704 255 152 23
-0.019275 0.042004 -0.030659 0.005007 0.394390 0.918930 255 152 23
-0.013066 0.007323 -0.015808 0.005007 0.394390 0.918930 255 152 23
-0.010955 0.007291 -0.015807 0.005007 0.394390 0.918930 255 152 23
-0.004667 0.042338 -0.033624 -0.005894 -0.452339 -0.891826 255 152 23
-0.010955 0.007291 -0.015807 -0.005894 -0.452339 -0.891826 255 152 23
-0.013066 0.007323 -0.015808 -0.005894 -0.452339 -0.891826 255 152 23
-0.011861 0.002057 0.003522 0.014095 0.964967 0.261991 255 152 23
-0.010955 0.007291 -0.015807 0.014095 0.964967 0.261991 255 152 23
-0.013066 0.007323 -0.015808 0.014095 0.964967 0.261991 255 152 23
-0.000282 0.042630 -0.033714 -0.043881 -0.830322 -0.555554 255 152 23
0.001475 0.047796 -0.041574 -0.043881 -0.830322 -0.555554 255 152 23
0.004104 0.042338 -0.033624 -0.043881 -0.830322 -0.555554 255 152 23
-0.000282 0.042630 -0.033714 0.812324 -0.553911 -0.182519 255 152 23
-0.000282 0.045220 -0.041574 0.812324 -0.553911 -0.182519 255 152 23
0.001475 0.047796 -0.041574 0.812324 -0.553911 -0.182519 255 152 23
-0.000282 0.169992 0.029844 0.150365 0.947585 -0.281911 255 152 23
-0.000282 0.175765 0.049252 0.150365 0.947585 -0.281911 255 152 23
0.011628 0.173876 0.049252 0.150365 0.947585 -0.281911 255 152 23
0.010031 0.171721 0.067067 0.155343 0.978957 0.132330 255 152 23
0.011628 0.173876 0.049252 0.155343 0.978957 0.132330 255 152 23
-0.000282 0.175765 0.049252 0.155343 0.978957 0.132330 255 152 23
-0.000282 0.175765 0.049252 0.162198 0.978390 0.128234 255 152 23
-0.000282 0.173430 0.067067 0.162198 0.978390 0.128234 255 152 23
0.010031 0.171721 0.067067 0.162198 0.978390 0.128234 255 152 23
0.005904 0.167516 0.080810 0.154319 0.930864 0.331177 255 152 23
0.010031 0.171721 0.067067 0.154319 0.930864 0.331177 255 152 23
-0.000282 0.173430 0.067067 0.154319 0.930864 0.331177 255 152 23
-0.004732 0.051282 -0.174243 -0.429543 -0.885541 0.176945 255 152 23
-0.000282 0.048505 -0.177333 -0.429543 -0.885541 0.176945 255 152 23
-0.000282 0.065127 -0.094149 -0.429543 -0.885541 0.176945 255 152 23
-0.000282 0.063972 -0.116882 0.396758 0.889278 -0.227525 255 152 23
-0.000282 0.048505 -0.177333 0.396758 0.889278 -0.227525 255 152 23
-0.004732 0.051282 -0.174243 0.396758 0.889278 -0.227525 255 152 23
-0.013206 0.153951 0.074399 -0.786167 -0.008638 0.617954 255 152 23
-0.023410 0.156172 0.061448 -0.786167 -0.008638 0.617954 255 152 23
-0.025684 0.153755 0.058521 -0.786167 -0.008638 0.617954 255 152 23
-0.027888 0.155545 0.058153 -0.488644 -0.447326 0.749084 0 0 0
-0.025684 0.153755 0.058521 -0.488644 -0.447326 0.749084 0 0 0
-0.023410 0.156172 0.061448 -0.488644 -0.447326 0.749084 0 0 0
0.025119 0.153755 0.058521 0.786207 -0.009168 0.617896 255 152 23
0.022847 0.156172 0.061448 0.786207 -0.009168 0.617896 255 152 23
0.012642 0.153951 0.074399 0.786207 -0.009168 0.617896 255 152 23
0.022847 0.156172 0.061448 0.488733 -0.447467 0.748942 0 0 0
0.025119 0.153755 0.058521 0.488733 -0.447467 0.748942 0 0 0
0.027323 0.155545 0.058153 0.488733 -0.447467 0.748942 0 0 0
-0.000282 0.055536 -0.099008 -0.327524 -0.938196 0.111871 255 152 23
-0.000282 0.060006 -0.061520 -0.327524 -0.938196 0.111871 255 152 23
-0.008677 0.062631 -0.064083 -0.327524 -0.938196 0.111871 255 152 23
-0.008677 0.062631 -0.064083 -0.069271 -0.801412 -0.594088 255 152 23
-0.000282 0.060006 -0.061520 -0.069271 -0.801412 -0.594088 255 152 23
-0.000282 0.045220 -0.041574 -0.069271 -0.801412 -0.594088 255 152 23
0.021684 0.137657 0.070665 0.210375 -0.102609 0.972221 255 152 23
0.011915 0.133324 0.072321 0.210375 -0.102609 0.972221 255 152 23
0.013793 0.107137 0.069151 0.210375 -0.102609 0.972221 255 152 23
0.013793 0.107137 0.069151 0.000000 -0.120183 0.992752 255 152 23
0.011915 0.133324 0.072321 0.000000 -0.120183 0.992752 255 152 23
-0.014358 0.107137 0.069151 0.000000 -0.120183 0.992752 255 152 23
0.000889 0.067478 -0.094149 -0.672044 0.334620 -0.660596 255 152 23
-0.000282 0.055536 -0.099008 -0.672044 0.334620 -0.660596 255 152 23
-0.000282 0.065127 -0.094149 -0.672044 0.334620 -0.660596 255 152 23
0.004169 0.051282 -0.174243 0.888063 -0.442179 0.125782 255 152 23
0.000889 0.067478 -0.094149 0.888063 -0.442179 0.125782 255 152 23
-0.000282 0.065127 -0.094149 0.888063 -0.442179 0.125782 255 152 23
0.010887 -0.000000 -0.037974 -0.145355 -0.984549 0.097647 255 152 23
0.021770 0.002035 -0.001255 -0.145355 -0.984549 0.097647 255 152 23
0.008686 0.002006 -0.021029 -0.145355 -0.984549 0.097647 255 152 23
0.010391 0.007291 -0.015807 -0.878003 0.448515 -0.167167 255 152 23
0.010887 -0.000000 -0.037974 -0.878003 0.448515 -0.167167 255 152 23
0.008686 0.002006 -0.021029 -0.878003 0.448515 -0.167167 255 152 23
-0.009249 0.002006 -0.021029 0.145334 -0.984554 0.097633 255 152 23
-0.022334 0.002035 -0.001255 0.145334 -0.984554 0.097633 255 152 23
-0.011453 -0.000000 -0.037974 0.145334 -0.984554 0.097633 255 152 23
-0.009249 0.002006 -0.021029 0.877941 0.448597 -0.167271 255 152 23
-0.011453 -0.000000 -0.037974 0.877941 0.448597 -0.167271 255 152 23
-0.010955 0.007291 -0.015807 0.877941 0.448597 -0.167271 255 152 23
0.027323 0.155545 0.058153 0.598746 0.092254 0.795608 0 0 0
0.025672 0.158464 0.059056 0.598746 0.092254 0.795608 0 0 0
0.022847 0.156172 0.061448 0.598746 0.092254 0.795608 0 0 0
0.027323 0.155545 0.058153 0.879138 0.441844 0.178578 0 0 0
0.027730 0.156723 0.053230 0.879138 0.441844 0.178578 0 0 0
0.025672 0.158464 0.059056 0.879138 0.441844 0.178578 0 0 0
-0.023410 0.156172 0.061448 -0.598573 0.092111 0.795755 0 0 0
-0.026237 0.158464 0.059056 -0.598573 0.092111 0.795755 0 0 0
-0.027888 0.155545 0.058153 -0.598573 0.092111 0.795755 0 0 0
-0.026237 0.158464 0.059056 -0.879150 0.441950 0.178257 0 0 0
-0.028294 0.156723 0.053230 -0.879150 0.441950 0.178257 0 0 0
-0.027888 0.155545 0.058153 -0.879150 0.441950 0.178257 0 0 0
0.163350 0.190164 -0.063857 0.719525 -0.027508 0.693921 255 152 23
0.163340 0.192034 -0.063773 0.719525 -0.027508 0.693921 255 152 23
0.097464 0.157227 0.003154 0.719525 -0.027508 0.693921 255 152 23
0.160590 0.191607 -0.064387 0.210836 0.045122 -0.976479 255 152 23
0.163340 0.192034 -0.063773 0.210836 0.045122 -0.976479 255 152 23
0.163350 0.190164 -0.063857 0.210836 0.045122 -0.976479 255 152 23
-0.098030 0.157227 0.003154 -0.719359 -0.026767 0.694122 255 152 23
-0.163904 0.192034 -0.063773 -0.719359 -0.026767 0.694122 255 152 23
-0.163915 0.190164 -0.063857 -0.719359 -0.026767 0.694122 255 152 23
-0.163915 0.190164 -0.063857 -0.210946 0.045341 -0.976446 255 152 23
-0.163904 0.192034 -0.063773 -0.210946 0.045341 -0.976446 255 152 23
-0.161155 0.191607 -0.064387 -0.210946 0.045341 -0.976446 255 152 23
-0.000282 0.064101 0.034893 0.164005 -0.941430 0.294638 255 152 23
-0.000282 0.042630 -0.033714 0.164005 -0.941430 0.294638 255 152 23
0.012658 0.051164 -0.013648 0.164005 -0.941430 0.294638 255 152 23
-0.000282 0.042630 -0.033714 0.402177 -0.906805 0.126327 255 152 23
0.022445 0.055505 -0.013648 0.402177 -0.906805 0.126327 255 152 23
0.012658 0.051164 -0.013648 0.402177 -0.906805 0.126327 255 152 23
-0.002038 0.047796 -0.041574 -0.812320 -0.553915 -0.182520 255 152 23
-0.000282 0.045220 -0.041574 -0.812320 -0.553915 -0.182520 255 152 23
-0.000282 0.042630 -0.033714 -0.812320 -0.553915 -0.182520 255 152 23
-0.000282 0.045220 -0.041574 -0.819548 -0.558844 -0.126625 255 152 23
-0.002038 0.047796 -0.041574 -0.819548 -0.558844 -0.126625 255 152 23
-0.008677 0.062631 -0.064083 -0.819548 -0.558844 -0.126625 255 152 23
0.014303 0.156888 0.010702 0.561199 0.728835 -0.392244 255 152 23
0.012983 0.168206 0.029844 0.561199 0.728835 -0.392244 255 152 23
0.024307 0.161669 0.033901 0.561199 0.728835 -0.392244 255 152 23
0.012983 0.168206 0.029844 0.115592 0.858497 -0.499622 255 152 23
0.014303 0.156888 0.010702 0.115592 0.858497 -0.499622 255 152 23
-0.000282 0.169992 0.029844 0.115592 0.858497 -0.499622 255 152 23
-0.010655 0.165184 0.080546 -0.829756 0.355367 0.430371 0 0 0
-0.012794 0.161567 0.079409 -0.829756 0.355367 0.430371 0 0 0
-0.000282 0.163361 0.102051 -0.829756 0.355367 0.430371 0 0 0
3 0 1 2
3 3 4 5
3 6 7 8
3 9 10 11
3 12 13 14
3 15 16 17
3 18 19 20
3 21 22 23
3 24 25 26
3 27 28 29
3 30 31 32
3 33 34 35
3 36 37 38
3 39 40 41
3 42 43 44
3 45 46 47
3 48 49 50
3 51 52 53
3 54 55 56
3 57 58 59
3 60 61 62
3 63 64 65
3 66 67 68
3 69 70 71
3 72 73 74
3 75 76 77
3 78 79 80
3 81 82 83
3 84 85 86
3 87 88 89
3 90 91 92
3 93 94 95
3 96 97 98
3 99 100 101
3 102 103 104
3 105 106 107
3 108 109 110
3 111 112 113
3 114 115 116
3 117 118 119
3 120 121 122
3 123 124 125
3 126 127 128
3 129 130 131
3 132 133 134
3 135 136 137
3 138 139 140
3 141 142 143
3 144 145 146
3 147 148 149
3 150 151 152
3 153 154 155
3 156 157 158
3 159 160 161
3 162 163 164
3 165 166 167
3 168 169 170
3 171 172 173
3 174 175 176
3 177 178 179
3 180 181 182
3 183 184 185
3 186 187 188
3 189 190 191
3 192 193 194
3 195 196 197
3 198 199 200
3 201 202 203
3 204 205 206
3 207 208 209
3 210 211 212
3 213 214 215
3 216 217 218
3 219 220 221
3 222 223 224
3 225 226 227
3 228 229 230
3 231 232 233
3 234 235 236
3 237 238 239
3 240 241 242
3 243 244 245
3 246 247 248
3 249 250 251
3 252 253 254
3 255 256 257
3 258 259 260
3 261 262 263
3 264 265 266
3 267 268 269
3 270 271 272
3 273 274 275
3 276 277 278
3 279 280 281
3 282 283 284
3 285 286 287
3 288 289 290
3 291 292 293
3 294 295 296
3 297 298 299
3 300 301 302
3 303 304 305
3 306 307 308
3 309 310 311
3 312 313 314
3 315 316 317
3 318 319 320
3 321 322 323
3 324 325 326
3 327 328 329
3 330 331 332
3 333 334 335
3 336 337 338
3 339 340 341
3 342 343 344
3 345 346 347
3 348 349 350
3 351 352 353
3 354 355 356
3 357 358 359
3 360 361 362
3 363 364 365
3 366 367 368
3 369 370 371
3 372 373 374
3 375 376 377
3 378 379 380
3 381 382 383
3 384 385 386
3 387 388 389
3 390 391 392
3 393 394 395
3 396 397 398
3 380 399 378
3 400 401 402
3 403 404 405
3 406 407 408
3 409 410 411
3 412 413 414
3 415 416 417
3 418 419 420
3 421 422 423
3 424 425 426
3 427 428 429
3 430 431 432
3 433 434 435
3 436 437 438
3 439 440 441
3 442 443 444
3 445 446 447
3 448 449 450
3 451 452 453
3 454 455 456
3 457 458 459
3 423 460 421
3 461 462 463
3 464 465 466
3 467 468 469
3 470 442 444
3 471 472 473
3 474 475 476
3 477 478 479
3 480 481 482
3 483 484 485
3 486 487 488
3 489 490 491
3 492 493 494
3 495 496 497
3 498 499 500
3 501 502 503
3 504 505 506
3 507 508 509
3 510 511 512
3 513 514 515
3 516 517 518
3 519 520 521
3 522 523 524
3 525 526 527
3 528 529 530
3 531 532 533
3 534 535 536
3 537 538 539
3 540 541 542
3 543 544 545
3 546 547 548
3 549 550 551
3 552 553 554
3 555 556 557
3 558 559 560
3 561 562 563
3 564 565 566
3 567 568 569
3 570 571 572
3 573 574 575
3 576 577 578
3 579 580 581
3 582 583 584
3 585 586 587
3 588 589 590
3 591 592 593
3 594 595 596
3 597 598 599
3 600 601 602
3 603 604 605
3 606 607 608
3 609 610 611
3 612 613 614
3 615 616 617
3 618 619 620
3 621 622 623
3 624 625 626
3 627 628 629
3 630 631 632
3 633 634 635
3 636 637 638
3 639 640 641
3 642 643 644
3 645 646 647
3 648 649 650
3 651 652 653
3 654 655 656
3 657 658 659
3 660 661 662
3 663 664 665
3 666 667 668
3 669 670 671
3 672 673 674
3 675 676 677
3 678 679 680
3 681 682 683
3 684 685 686
3 687 688 689
3 690 691 692
3 693 694 695
3 696 697 698
3 699 700 701
3 702 703 704
3 705 706 707
3 708 709 710
3 711 712 713
3 714 715 716
3 717 718 719
3 720 721 722
3 723 724 725
3 726 727 728
3 729 730 731
3 732 733 734
3 735 736 737
3 738 739 740
3 741 742 743
3 744 745 746
3 747 748 749
3 750 751 752
3 753 754 755
3 756 757 758
3 759 760 761
3 762 763 764
3 765 766 767
3 768 769 770
3 771 772 773
3 774 775 776
3 777 778 779
3 780 781 782
3 783 784 785
3 786 787 788
3 789 790 791
3 792 793 794
3 795 796 797
3 798 799 800
3 801 802 803
3 804 805 806
3 807 808 809
3 810 811 812
3 813 814 815
3 816 817 818
3 819 820 821
3 822 823 824
3 825 826 827
3 828 829 830
3 831 832 833
3 834 835 836
3 837 838 839
3 840 841 842
3 843 844 845
3 846 847 848
3 849 850 851
