# Blender v2.79 (sub 0) OBJ File: 'FirstRoom.blend'
# www.blender.org
v 4.355080 0.798655 -18.616940
v 4.366919 0.827227 -18.616940
v 4.395490 0.839065 -18.616940
v 4.424062 0.827227 -18.616940
v 4.435900 0.798655 -18.616940
v 4.424062 0.770084 -18.616940
v 4.395490 0.758245 -18.616940
v 4.366919 0.770084 -18.616940
v 4.355080 0.783717 -18.684870
v 4.366919 0.809748 -18.696648
v 4.395490 0.820534 -18.701527
v 4.424062 0.809748 -18.696648
v 4.435900 0.783717 -18.684870
v 4.424062 0.757685 -18.673092
v 4.395490 0.746900 -18.668213
v 4.366919 0.757685 -18.673092
v 4.355080 0.742417 -18.741127
v 4.366919 0.762773 -18.761177
v 4.395490 0.771207 -18.769484
v 4.424062 0.762773 -18.761177
v 4.435900 0.742417 -18.741127
v 4.424062 0.722061 -18.721077
v 4.395490 0.713627 -18.712770
v 4.366919 0.722061 -18.721077
v 4.355080 0.680027 -18.788403
v 4.366919 0.695339 -18.812525
v 4.395490 0.701683 -18.822519
v 4.424062 0.695339 -18.812525
v 4.435900 0.680027 -18.788403
v 4.424062 0.664715 -18.764280
v 4.395490 0.658371 -18.754286
v 4.366919 0.664715 -18.764280
v 4.355080 0.601820 -18.829390
v 4.366919 0.614008 -18.855230
v 4.395490 0.619059 -18.865938
v 4.424062 0.614008 -18.855230
v 4.435900 0.601820 -18.829390
v 4.424062 0.589631 -18.803549
v 4.395490 0.584581 -18.792841
v 4.366919 0.589631 -18.803549
v 4.355080 0.513068 -18.866781
v 4.366919 0.523784 -18.893267
v 4.395490 0.528224 -18.904242
v 4.424062 0.523784 -18.893267
v 4.435900 0.513068 -18.866781
v 4.424062 0.502352 -18.840296
v 4.395490 0.497912 -18.829321
v 4.366919 0.502352 -18.840296
v 4.355080 0.419044 -18.903269
v 4.366919 0.429599 -18.929819
v 4.395490 0.433972 -18.940821
v 4.424062 0.429599 -18.929819
v 4.435900 0.419044 -18.903269
v 4.424062 0.408489 -18.876719
v 4.395490 0.404115 -18.865717
v 4.366919 0.408489 -18.876719
v 4.355080 0.325020 -18.941545
v 4.366919 0.336612 -18.967659
v 4.395490 0.341415 -18.978479
v 4.424062 0.336612 -18.967659
v 4.435900 0.325020 -18.941545
v 4.424062 0.313427 -18.915432
v 4.395490 0.308624 -18.904612
v 4.366919 0.313427 -18.915432
v 4.355080 0.236268 -18.984304
v 4.366919 0.250181 -19.009260
v 4.395490 0.255946 -19.019600
v 4.424062 0.250181 -19.009260
v 4.435900 0.236268 -18.984304
v 4.424062 0.222355 -18.959349
v 4.395490 0.216590 -18.949009
v 4.366919 0.222355 -18.959349
v 4.355080 0.158061 -19.034239
v 4.366919 0.175719 -19.056702
v 4.395490 0.183035 -19.066008
v 4.424062 0.175719 -19.056702
v 4.435900 0.158061 -19.034239
v 4.424062 0.140403 -19.011776
v 4.395490 0.133086 -19.002470
v 4.366919 0.140403 -19.011776
v 4.355080 0.095671 -19.094040
v 4.366919 0.118197 -19.111616
v 4.395490 0.127530 -19.118898
v 4.424062 0.118197 -19.111616
v 4.435900 0.095671 -19.094040
v 4.424062 0.073145 -19.076464
v 4.395490 0.063812 -19.069181
v 4.366919 0.073145 -19.076464
v 4.355080 0.054371 -19.166401
v 4.366919 0.081271 -19.176031
v 4.395490 0.092416 -19.180019
v 4.424062 0.081271 -19.176031
v 4.435900 0.054371 -19.166401
v 4.424062 0.027470 -19.156771
v 4.395490 0.016325 -19.152782
v 4.366919 0.027470 -19.156771
v 4.355080 0.039432 -19.254015
v 4.366919 0.067902 -19.256424
v 4.395490 0.079698 -19.257423
v 4.424062 0.067902 -19.256424
v 4.435900 0.039432 -19.254015
v 4.424062 0.010962 -19.251606
v 4.395490 -0.000834 -19.250607
v 4.366919 0.010962 -19.251606
v 4.355080 0.039432 -19.286900
v 4.366919 0.068004 -19.286900
v 4.395490 0.079842 -19.286900
v 4.424062 0.068004 -19.286900
v 4.435900 0.039432 -19.286900
v 4.424062 0.010860 -19.286900
v 4.395490 -0.000978 -19.286900
v 4.366919 0.010860 -19.286900
v 4.355080 0.039432 -19.329996
v 4.366919 0.068004 -19.329996
v 4.395490 0.079842 -19.329996
v 4.424062 0.068004 -19.329996
v 4.435900 0.039432 -19.329996
v 4.424062 0.010860 -19.329996
v 4.395490 -0.000978 -19.329996
v 4.366919 0.010860 -19.329996
v 4.355080 0.039432 -19.381306
v 4.366919 0.068004 -19.381306
v 4.395490 0.079842 -19.381306
v 4.424062 0.068004 -19.381306
v 4.435900 0.039432 -19.381306
v 4.424062 0.010860 -19.381306
v 4.395490 -0.000978 -19.381306
v 4.366919 0.010860 -19.381306
v 4.355080 0.039432 -19.438829
v 4.366919 0.068004 -19.438829
v 4.395490 0.079842 -19.438829
v 4.424062 0.068004 -19.438829
v 4.435900 0.039432 -19.438829
v 4.424062 0.010860 -19.438829
v 4.395490 -0.000978 -19.438829
v 4.366919 0.010860 -19.438829
v 4.355080 0.039432 -19.500570
v 4.366919 0.068004 -19.500570
v 4.395490 0.079842 -19.500570
v 4.424062 0.068004 -19.500570
v 4.435900 0.039432 -19.500570
v 4.424062 0.010860 -19.500570
v 4.395490 -0.000978 -19.500570
v 4.366919 0.010860 -19.500570
v 4.355080 0.039432 -19.564528
v 4.366919 0.068004 -19.564528
v 4.395490 0.079842 -19.564528
v 4.424062 0.068004 -19.564528
v 4.435900 0.039432 -19.564528
v 4.424062 0.010860 -19.564528
v 4.395490 -0.000978 -19.564528
v 4.366919 0.010860 -19.564528
v 4.355080 0.039432 -19.628704
v 4.366919 0.068004 -19.628704
v 4.395490 0.079842 -19.628704
v 4.424062 0.068004 -19.628704
v 4.435900 0.039432 -19.628704
v 4.424062 0.010860 -19.628704
v 4.395490 -0.000978 -19.628704
v 4.366919 0.010860 -19.628704
v 4.355080 0.039432 -19.691099
v 4.366919 0.068004 -19.691099
v 4.395490 0.079842 -19.691099
v 4.424062 0.068004 -19.691099
v 4.435900 0.039432 -19.691099
v 4.424062 0.010860 -19.691099
v 4.395490 -0.000978 -19.691099
v 4.366919 0.010860 -19.691099
v 4.355080 0.039432 -19.749716
v 4.366919 0.068004 -19.749716
v 4.395490 0.079842 -19.749716
v 4.424062 0.068004 -19.749716
v 4.435900 0.039432 -19.749716
v 4.424062 0.010860 -19.749716
v 4.395490 -0.000978 -19.749716
v 4.366919 0.010860 -19.749716
v 4.355080 0.039432 -19.802555
v 4.366919 0.068004 -19.802555
v 4.395490 0.079842 -19.802555
v 4.424062 0.068004 -19.802555
v 4.435900 0.039432 -19.802555
v 4.424062 0.010860 -19.802555
v 4.395490 -0.000978 -19.802555
v 4.366919 0.010860 -19.802555
v 4.355080 0.039432 -19.847620
v 4.366919 0.068004 -19.847620
v 4.395490 0.079842 -19.847620
v 4.424062 0.068004 -19.847620
v 4.435900 0.039432 -19.847620
v 4.424062 0.010860 -19.847620
v 4.395490 -0.000978 -19.847620
v 4.366919 0.010860 -19.847620
v 4.355089 0.039432 -19.883755
v 4.366925 0.068004 -19.883507
v 4.395490 0.079842 -19.882914
v 4.424056 0.068004 -19.882318
v 4.435891 0.039432 -19.882072
v 4.424056 0.010860 -19.882320
v 4.395490 -0.000978 -19.882914
v 4.366925 0.010860 -19.883509
v 4.356449 0.039432 -19.915281
v 4.368234 0.068004 -19.914164
v 4.396678 0.079842 -19.911467
v 4.425123 0.068004 -19.908770
v 4.436908 0.039432 -19.907652
v 4.425123 0.010860 -19.908770
v 4.396678 -0.000978 -19.911467
v 4.368234 0.010860 -19.914164
v 4.360902 0.039432 -19.944941
v 4.372458 0.068004 -19.942369
v 4.400347 0.079842 -19.936165
v 4.428237 0.068004 -19.929960
v 4.439793 0.039432 -19.927389
v 4.428237 0.010860 -19.929960
v 4.400347 -0.000978 -19.936165
v 4.372458 0.010860 -19.942369
v 4.369154 0.039432 -19.972326
v 4.380140 0.068004 -19.967915
v 4.406654 0.079842 -19.957268
v 4.433167 0.068004 -19.946621
v 4.444153 0.039432 -19.942209
v 4.433167 0.010860 -19.946621
v 4.406654 -0.000978 -19.957268
v 4.380140 0.010860 -19.967915
v 4.381955 0.039432 -19.997185
v 4.391857 0.068004 -19.990698
v 4.415755 0.079842 -19.975039
v 4.439654 0.068004 -19.959379
v 4.449556 0.039432 -19.952892
v 4.439654 0.010860 -19.959379
v 4.415755 -0.000978 -19.975039
v 4.391857 0.010860 -19.990698
v 4.399545 0.039432 -20.018621
v 4.407825 0.068004 -20.010160
v 4.427808 0.079842 -19.989738
v 4.447791 0.068004 -19.969316
v 4.456070 0.039432 -19.960855
v 4.447791 0.010860 -19.969316
v 4.427808 -0.000978 -19.989738
v 4.407825 0.010860 -20.010160
v 4.421257 0.039432 -20.035711
v 4.427618 0.068004 -20.025726
v 4.442969 0.079842 -20.001629
v 4.458320 0.068004 -19.977531
v 4.464680 0.039432 -19.967546
v 4.458320 0.010860 -19.977531
v 4.442969 -0.000978 -20.001629
v 4.427618 0.010860 -20.025726
v 4.445997 0.039432 -20.048334
v 4.450508 0.068004 -20.037390
v 4.461395 0.079842 -20.010973
v 4.472282 0.068004 -19.984556
v 4.476793 0.039432 -19.973612
v 4.472282 0.010860 -19.984556
v 4.461395 -0.000978 -20.010973
v 4.450508 0.010860 -20.037390
v 4.473089 0.039432 -20.057146
v 4.476064 0.068004 -20.045687
v 4.483243 0.079842 -20.018032
v 4.490421 0.068004 -19.990377
v 4.493396 0.039432 -19.978918
v 4.490421 0.010860 -19.990377
v 4.483243 -0.000978 -20.018032
v 4.476064 0.010860 -20.045687
v 4.502488 0.039432 -20.063000
v 4.504298 0.068004 -20.051302
v 4.508669 0.079842 -20.023066
v 4.513040 0.068004 -19.994829
v 4.514850 0.039432 -19.983131
v 4.513040 0.010860 -19.994829
v 4.508669 -0.000978 -20.023066
v 4.504298 0.010860 -20.051302
v 4.534495 0.039432 -20.066608
v 4.535473 0.068004 -20.054811
v 4.537831 0.079842 -20.026337
v 4.540189 0.068004 -19.997862
v 4.541166 0.039432 -19.986065
v 4.540189 0.010860 -19.997862
v 4.537831 -0.000978 -20.026337
v 4.535473 0.010860 -20.054811
v 4.569512 0.039432 -20.068495
v 4.569915 0.068004 -20.056664
v 4.570885 0.079842 -20.028109
v 4.571856 0.068004 -19.999554
v 4.572258 0.039432 -19.987722
v 4.571856 0.010860 -19.999554
v 4.570885 -0.000978 -20.028109
v 4.569915 0.010860 -20.056664
v 4.607698 0.039432 -20.069052
v 4.607784 0.068004 -20.057213
v 4.607989 0.079842 -20.028643
v 4.608195 0.068004 -20.000072
v 4.608280 0.039432 -19.988234
v 4.608195 0.010860 -20.000072
v 4.607989 -0.000978 -20.028643
v 4.607784 0.010860 -20.057213
v 4.701368 0.039432 -20.069052
v 4.701368 0.068004 -20.057215
v 4.701368 0.079842 -20.028643
v 4.701368 0.068004 -20.000071
v 4.701368 0.039432 -19.988234
v 4.701368 0.010860 -20.000071
v 4.701368 -0.000978 -20.028643
v 4.701368 0.010860 -20.057215
v 4.791296 0.039432 -20.069052
v 4.791296 0.068004 -20.057215
v 4.791296 0.079842 -20.028643
v 4.791296 0.068004 -20.000071
v 4.791296 0.039432 -19.988234
v 4.791296 0.010860 -20.000071
v 4.791296 -0.000978 -20.028643
v 4.791296 0.010860 -20.057215
v 4.878050 0.039432 -20.069052
v 4.878050 0.068004 -20.057215
v 4.878050 0.079842 -20.028643
v 4.878050 0.068004 -20.000071
v 4.878050 0.039432 -19.988234
v 4.878050 0.010860 -20.000071
v 4.878050 -0.000978 -20.028643
v 4.878050 0.010860 -20.057215
v 4.961909 0.039432 -20.069052
v 4.961909 0.068004 -20.057215
v 4.961909 0.079842 -20.028643
v 4.961909 0.068004 -20.000071
v 4.961909 0.039432 -19.988234
v 4.961909 0.010860 -20.000071
v 4.961909 -0.000978 -20.028643
v 4.961909 0.010860 -20.057215
v 5.043151 0.039432 -20.069052
v 5.043151 0.068004 -20.057215
v 5.043151 0.079842 -20.028643
v 5.043151 0.068004 -20.000071
v 5.043151 0.039432 -19.988234
v 5.043151 0.010860 -20.000071
v 5.043151 -0.000978 -20.028643
v 5.043151 0.010860 -20.057215
v 5.122055 0.039432 -20.069052
v 5.122055 0.068004 -20.057215
v 5.122055 0.079842 -20.028643
v 5.122055 0.068004 -20.000071
v 5.122055 0.039432 -19.988234
v 5.122055 0.010860 -20.000071
v 5.122055 -0.000978 -20.028643
v 5.122055 0.010860 -20.057215
v 5.198897 0.039432 -20.069052
v 5.198897 0.068004 -20.057215
v 5.198897 0.079842 -20.028643
v 5.198897 0.068004 -20.000071
v 5.198897 0.039432 -19.988234
v 5.198897 0.010860 -20.000071
v 5.198897 -0.000978 -20.028643
v 5.198897 0.010860 -20.057215
v 5.273956 0.039432 -20.069052
v 5.273956 0.068004 -20.057215
v 5.273956 0.079842 -20.028643
v 5.273956 0.068004 -20.000071
v 5.273956 0.039432 -19.988234
v 5.273956 0.010860 -20.000071
v 5.273956 -0.000978 -20.028643
v 5.273956 0.010860 -20.057215
v 5.347511 0.039432 -20.069052
v 5.347511 0.068004 -20.057215
v 5.347511 0.079842 -20.028643
v 5.347511 0.068004 -20.000071
v 5.347511 0.039432 -19.988234
v 5.347511 0.010860 -20.000071
v 5.347511 -0.000978 -20.028643
v 5.347511 0.010860 -20.057215
v 5.419838 0.039432 -20.069052
v 5.419838 0.068004 -20.057215
v 5.419838 0.079842 -20.028643
v 5.419838 0.068004 -20.000071
v 5.419838 0.039432 -19.988234
v 5.419838 0.010860 -20.000071
v 5.419838 -0.000978 -20.028643
v 5.419838 0.010860 -20.057215
v 5.491217 0.039432 -20.069052
v 5.491217 0.068004 -20.057215
v 5.491217 0.079842 -20.028643
v 5.491217 0.068004 -20.000071
v 5.491217 0.039432 -19.988234
v 5.491217 0.010860 -20.000071
v 5.491217 -0.000978 -20.028643
v 5.491217 0.010860 -20.057215
v 5.561926 0.039432 -20.069052
v 5.561926 0.068004 -20.057215
v 5.561926 0.079842 -20.028643
v 5.561926 0.068004 -20.000071
v 5.561926 0.039432 -19.988234
v 5.561926 0.010860 -20.000071
v 5.561926 -0.000978 -20.028643
v 5.561926 0.010860 -20.057215
v 5.671595 0.039432 -20.069052
v 5.671595 0.068004 -20.057215
v 5.671595 0.079842 -20.028643
v 5.671595 0.068004 -20.000071
v 5.671595 0.039432 -19.988234
v 5.671595 0.010860 -20.000071
v 5.671595 -0.000978 -20.028643
v 5.671595 0.010860 -20.057215
v 5.810886 0.039432 -20.069052
v 5.810886 0.068004 -20.057215
v 5.810886 0.079842 -20.028643
v 5.810886 0.068004 -20.000071
v 5.810886 0.039432 -19.988234
v 5.810886 0.010860 -20.000071
v 5.810886 -0.000978 -20.028643
v 5.810886 0.010860 -20.057215
v 5.974178 0.039432 -20.069052
v 5.974178 0.068004 -20.057215
v 5.974178 0.079842 -20.028643
v 5.974178 0.068004 -20.000071
v 5.974178 0.039432 -19.988234
v 5.974178 0.010860 -20.000071
v 5.974178 -0.000978 -20.028643
v 5.974178 0.010860 -20.057215
v 6.155849 0.039432 -20.069052
v 6.155849 0.068004 -20.057215
v 6.155849 0.079842 -20.028643
v 6.155849 0.068004 -20.000071
v 6.155849 0.039432 -19.988234
v 6.155849 0.010860 -20.000071
v 6.155849 -0.000978 -20.028643
v 6.155849 0.010860 -20.057215
v 6.350277 0.039432 -20.069052
v 6.350277 0.068004 -20.057215
v 6.350277 0.079842 -20.028643
v 6.350277 0.068004 -20.000071
v 6.350277 0.039432 -19.988234
v 6.350277 0.010860 -20.000071
v 6.350277 -0.000978 -20.028643
v 6.350277 0.010860 -20.057215
v 6.551842 0.039432 -20.069052
v 6.551842 0.068004 -20.057215
v 6.551842 0.079842 -20.028643
v 6.551842 0.068004 -20.000071
v 6.551842 0.039432 -19.988234
v 6.551842 0.010860 -20.000071
v 6.551842 -0.000978 -20.028643
v 6.551842 0.010860 -20.057215
v 6.754921 0.039432 -20.069052
v 6.754921 0.068004 -20.057215
v 6.754921 0.079842 -20.028643
v 6.754921 0.068004 -20.000071
v 6.754921 0.039432 -19.988234
v 6.754921 0.010860 -20.000071
v 6.754921 -0.000978 -20.028643
v 6.754921 0.010860 -20.057215
v 6.953894 0.039432 -20.069052
v 6.953894 0.068004 -20.057215
v 6.953894 0.079842 -20.028643
v 6.953894 0.068004 -20.000071
v 6.953894 0.039432 -19.988234
v 6.953894 0.010860 -20.000071
v 6.953894 -0.000978 -20.028643
v 6.953894 0.010860 -20.057215
v 7.143139 0.039432 -20.069052
v 7.143139 0.068004 -20.057215
v 7.143139 0.079842 -20.028643
v 7.143139 0.068004 -20.000071
v 7.143139 0.039432 -19.988234
v 7.143139 0.010860 -20.000071
v 7.143139 -0.000978 -20.028643
v 7.143139 0.010860 -20.057215
v 7.317034 0.039432 -20.069052
v 7.317034 0.068004 -20.057215
v 7.317034 0.079842 -20.028643
v 7.317034 0.068004 -20.000071
v 7.317034 0.039432 -19.988234
v 7.317034 0.010860 -20.000071
v 7.317034 -0.000978 -20.028643
v 7.317034 0.010860 -20.057215
v 7.469958 0.039432 -20.069052
v 7.469958 0.068004 -20.057215
v 7.469958 0.079842 -20.028643
v 7.469958 0.068004 -20.000071
v 7.469958 0.039432 -19.988234
v 7.469958 0.010860 -20.000071
v 7.469958 -0.000978 -20.028643
v 7.469958 0.010860 -20.057215
v 7.595947 0.039431 -20.069052
v 7.595836 0.068002 -20.057213
v 7.595991 0.079841 -20.028641
v 7.596321 0.068004 -20.000071
v 7.596633 0.039433 -19.988234
v 7.596745 0.010862 -20.000072
v 7.596590 -0.000977 -20.028645
v 7.596260 0.010860 -20.057215
v 7.635476 0.040011 -20.069717
v 7.634925 0.068574 -20.057869
v 7.635509 0.080421 -20.029306
v 7.636887 0.068606 -20.000759
v 7.638250 0.040057 -19.988945
v 7.638801 0.011494 -20.000793
v 7.638217 -0.000353 -20.029356
v 7.636840 0.011462 -20.057903
v 7.670824 0.041855 -20.071548
v 7.669429 0.070371 -20.059656
v 7.670485 0.082244 -20.031118
v 7.673375 0.070513 -20.002649
v 7.676405 0.042057 -19.990921
v 7.677800 0.013542 -20.002813
v 7.676744 0.001668 -20.031351
v 7.673854 0.013399 -20.059820
v 7.702414 0.045123 -20.074301
v 7.699744 0.073500 -20.062298
v 7.701090 0.085405 -20.033785
v 7.705664 0.073856 -20.005463
v 7.710786 0.045626 -19.993917
v 7.713456 0.017248 -20.005920
v 7.712111 0.005343 -20.034433
v 7.707537 0.016892 -20.062756
v 7.730337 0.049969 -20.077740
v 7.725844 0.078019 -20.065512
v 7.727227 0.089931 -20.037004
v 7.733678 0.078718 -20.008913
v 7.741416 0.050958 -19.997688
v 7.745908 0.022908 -20.009916
v 7.744525 0.010996 -20.038424
v 7.738074 0.022208 -20.066515
v 7.754704 0.056555 -20.081629
v 7.747723 0.083913 -20.069006
v 7.748810 0.095742 -20.040451
v 7.757331 0.085106 -20.012690
v 7.768292 0.058244 -20.001978
v 7.775273 0.030886 -20.014601
v 7.774186 0.019057 -20.043156
v 7.765665 0.029693 -20.070917
v 7.775658 0.065068 -20.085752
v 7.765465 0.091087 -20.072502
v 7.765848 0.102623 -20.043810
v 7.776587 0.092911 -20.016481
v 7.791387 0.067648 -20.006521
v 7.801579 0.041629 -20.019772
v 7.801196 0.030092 -20.048464
v 7.790458 0.039804 -20.075792
v 7.793367 0.075749 -20.089907
v 7.779362 0.099422 -20.075769
v 7.778617 0.110265 -20.046814
v 7.791575 0.101918 -20.020002
v 7.810641 0.079279 -20.011034
v 7.824647 0.055605 -20.025171
v 7.825392 0.044763 -20.054127
v 7.812434 0.053109 -20.080938
v 7.807972 0.088921 -20.093891
v 7.789987 0.108962 -20.078682
v 7.787822 0.118508 -20.049343
v 7.802753 0.111962 -20.023064
v 7.826028 0.093165 -20.015228
v 7.844014 0.073124 -20.030437
v 7.846179 0.063577 -20.059776
v 7.831248 0.070123 -20.086056
v 7.819504 0.104950 -20.097483
v 7.798055 0.120173 -20.081215
v 7.794476 0.127752 -20.051445
v 7.810871 0.123242 -20.025610
v 7.837629 0.109290 -20.018843
v 7.859078 0.094067 -20.035110
v 7.862657 0.086489 -20.064880
v 7.846262 0.090999 -20.090715
v 7.827866 0.124134 -20.100416
v 7.804030 0.133954 -20.083330
v 7.799363 0.139069 -20.053188
v 7.816606 0.136481 -20.027645
v 7.845653 0.127709 -20.021658
v 7.869488 0.117889 -20.038744
v 7.874156 0.112774 -20.068886
v 7.856912 0.115362 -20.094429
v 7.832922 0.146614 -20.102385
v 7.807871 0.151222 -20.084843
v 7.802594 0.153722 -20.054472
v 7.820190 0.152648 -20.029062
v 7.850345 0.148631 -20.023493
v 7.875396 0.144023 -20.041035
v 7.880673 0.141523 -20.071405
v 7.863076 0.142597 -20.096815
v 7.834599 0.172132 -20.103100
v 7.809237 0.173201 -20.085432
v 7.803793 0.173800 -20.054995
v 7.821465 0.173578 -20.029613
v 7.851892 0.172664 -20.024155
v 7.877254 0.171595 -20.041822
v 7.882698 0.170996 -20.072260
v 7.865026 0.171218 -20.097641
v 7.834603 0.281038 -20.103100
v 7.809224 0.281037 -20.085426
v 7.803771 0.281037 -20.054983
v 7.821445 0.281037 -20.029604
v 7.851888 0.281037 -20.024151
v 7.877267 0.281037 -20.041824
v 7.882720 0.281037 -20.072268
v 7.865046 0.281038 -20.097647
v 7.834603 0.477889 -20.103098
v 7.809224 0.477889 -20.085424
v 7.803771 0.477889 -20.054981
v 7.821445 0.477889 -20.029602
v 7.851888 0.477889 -20.024149
v 7.877267 0.477889 -20.041822
v 7.882720 0.477889 -20.072266
v 7.865046 0.477889 -20.097645
v 7.834604 0.746014 -20.103096
v 7.809225 0.746013 -20.085423
v 7.803771 0.746013 -20.054979
v 7.821446 0.746013 -20.029600
v 7.851888 0.746013 -20.024147
v 7.877267 0.746013 -20.041821
v 7.882721 0.746013 -20.072264
v 7.865046 0.746013 -20.097643
v 7.834604 1.068469 -20.103092
v 7.809225 1.068469 -20.085419
v 7.803771 1.068469 -20.054976
v 7.821446 1.068468 -20.029596
v 7.851889 1.068468 -20.024143
v 7.877268 1.068469 -20.041817
v 7.882721 1.068469 -20.072260
v 7.865047 1.068469 -20.097639
v 7.834605 1.428316 -20.103088
v 7.809226 1.428315 -20.085415
v 7.803772 1.428315 -20.054972
v 7.821447 1.428315 -20.029593
v 7.851889 1.428315 -20.024139
v 7.877268 1.428315 -20.041813
v 7.882722 1.428315 -20.072256
v 7.865047 1.428316 -20.097635
v 7.834605 1.808612 -20.103085
v 7.809226 1.808612 -20.085411
v 7.803772 1.808612 -20.054968
v 7.821447 1.808611 -20.029589
v 7.851890 1.808611 -20.024136
v 7.877269 1.808611 -20.041809
v 7.882722 1.808612 -20.072252
v 7.865047 1.808612 -20.097631
v 7.834606 2.192417 -20.103083
v 7.809227 2.192417 -20.085409
v 7.803773 2.192417 -20.054966
v 7.821448 2.192417 -20.029587
v 7.851890 2.192417 -20.024134
v 7.877269 2.192417 -20.041807
v 7.882723 2.192417 -20.072250
v 7.865048 2.192417 -20.097630
v 7.834606 2.562792 -20.103081
v 7.809227 2.562792 -20.085407
v 7.803773 2.562791 -20.054964
v 7.821448 2.562791 -20.029585
v 7.851891 2.562791 -20.024132
v 7.877270 2.562791 -20.041805
v 7.882723 2.562791 -20.072248
v 7.865048 2.562792 -20.097628
v 7.834607 2.902794 -20.103079
v 7.809227 2.902794 -20.085405
v 7.803774 2.902793 -20.054962
v 7.821449 2.902793 -20.029583
v 7.851891 2.902793 -20.024130
v 7.877270 2.902793 -20.041803
v 7.882724 2.902793 -20.072247
v 7.865049 2.902794 -20.097626
v 7.834607 3.195483 -20.103077
v 7.809228 3.195483 -20.085403
v 7.803774 3.195483 -20.054960
v 7.821449 3.195482 -20.029581
v 7.851892 3.195482 -20.024128
v 7.877271 3.195482 -20.041801
v 7.882724 3.195483 -20.072245
v 7.865049 3.195483 -20.097624
v 7.834607 3.423919 -20.103075
v 7.809228 3.423919 -20.085402
v 7.803774 3.423918 -20.054958
v 7.821449 3.423918 -20.029579
v 7.851892 3.423918 -20.024126
v 7.877271 3.423918 -20.041800
v 7.882724 3.423918 -20.072243
v 7.865049 3.423919 -20.097622
v 7.834593 3.573304 -20.103014
v 7.809223 3.571939 -20.085379
v 7.803782 3.570118 -20.054989
v 7.821465 3.568908 -20.029644
v 7.851907 3.569016 -20.024187
v 7.877276 3.570381 -20.041822
v 7.882718 3.572202 -20.072212
v 7.865034 3.573412 -20.097557
v 7.832876 3.632581 -20.095907
v 7.807674 3.626734 -20.078962
v 7.802455 3.618934 -20.049494
v 7.820286 3.613750 -20.024763
v 7.850715 3.614217 -20.019251
v 7.875917 3.620063 -20.036196
v 7.881136 3.627863 -20.065664
v 7.863305 3.633047 -20.090395
v 7.827950 3.683188 -20.075512
v 7.803324 3.671434 -20.060955
v 7.798875 3.655752 -20.034672
v 7.817217 3.645329 -20.012058
v 7.847600 3.646267 -20.006355
v 7.872226 3.658021 -20.020912
v 7.876675 3.673702 -20.047195
v 7.858332 3.684126 -20.069809
v 7.820549 3.722937 -20.044868
v 7.796768 3.706545 -20.033812
v 7.793447 3.684675 -20.012197
v 7.812539 3.670139 -19.992687
v 7.842854 3.671446 -19.986706
v 7.866634 3.687839 -19.997763
v 7.869956 3.709708 -20.019377
v 7.850863 3.724245 -20.038887
v 7.811678 3.752984 -20.008142
v 7.788698 3.733789 -20.000401
v 7.786444 3.708180 -19.983208
v 7.806246 3.691158 -19.966635
v 7.836497 3.692689 -19.960390
v 7.859478 3.711884 -19.968132
v 7.861731 3.737494 -19.985325
v 7.841929 3.754515 -20.001898
v 7.802181 3.776014 -19.968822
v 7.779747 3.755444 -19.963341
v 7.778221 3.728000 -19.949163
v 7.798508 3.709759 -19.934595
v 7.828715 3.711401 -19.928169
v 7.851149 3.731971 -19.933651
v 7.852674 3.759414 -19.947828
v 7.832388 3.777656 -19.962397
v 7.792663 3.794909 -19.929420
v 7.770461 3.773859 -19.924896
v 7.769245 3.745775 -19.912001
v 7.789737 3.727109 -19.898285
v 7.819926 3.728789 -19.891781
v 7.842128 3.749838 -19.896305
v 7.843344 3.777922 -19.909201
v 7.822852 3.796588 -19.922916
v 7.783653 3.812080 -19.892120
v 7.761360 3.791213 -19.887218
v 7.760022 3.763372 -19.873816
v 7.780433 3.744867 -19.859764
v 7.810629 3.746532 -19.853291
v 7.832922 3.767399 -19.858192
v 7.834260 3.795240 -19.871595
v 7.813849 3.813745 -19.885647
v 7.775690 3.829355 -19.859148
v 7.752965 3.809470 -19.852465
v 7.751053 3.782940 -19.836685
v 7.771082 3.765306 -19.821053
v 7.801313 3.766893 -19.814722
v 7.824037 3.786778 -19.821405
v 7.825949 3.813308 -19.837185
v 7.805920 3.830942 -19.852818
v 7.769274 3.847910 -19.832588
v 7.745787 3.830361 -19.822746
v 7.742857 3.806948 -19.802752
v 7.762209 3.791387 -19.784319
v 7.792501 3.792787 -19.778240
v 7.815988 3.810335 -19.788082
v 7.818918 3.833748 -19.808077
v 7.799566 3.849310 -19.826509
v 7.764670 3.868616 -19.813524
v 7.740247 3.855505 -19.799809
v 7.736069 3.838012 -19.774649
v 7.754592 3.826385 -19.752781
v 7.784958 3.827431 -19.747011
v 7.809381 3.840543 -19.760727
v 7.813559 3.858035 -19.785887
v 7.795036 3.869662 -19.807755
v 7.761782 3.893775 -19.801567
v 7.736638 3.887039 -19.784866
v 7.731498 3.878052 -19.755724
v 7.749382 3.872078 -19.731209
v 7.779805 3.872615 -19.725677
v 7.804949 3.879351 -19.742378
v 7.810089 3.888339 -19.771521
v 7.792205 3.894313 -19.796036
v 7.760672 3.930418 -19.796988
v 7.735307 3.928854 -19.779362
v 7.729874 3.926736 -19.748989
v 7.747564 3.925305 -19.723661
v 7.778007 3.925399 -19.718210
v 7.803371 3.926964 -19.735836
v 7.808804 3.929082 -19.766209
v 7.791114 3.930513 -19.791536
v 7.760754 3.964415 -19.797070
v 7.735387 3.964722 -19.779379
v 7.729951 3.964787 -19.748934
v 7.747639 3.964574 -19.723566
v 7.778082 3.964205 -19.718128
v 7.803449 3.963898 -19.735819
v 7.808886 3.963833 -19.766264
v 7.791198 3.964047 -19.791632
v 7.761487 3.997607 -19.797070
v 7.736146 3.998793 -19.779379
v 7.730716 3.999048 -19.748934
v 7.748385 3.998220 -19.723566
v 7.778798 3.996797 -19.718128
v 7.804139 3.995611 -19.735819
v 7.809569 3.995357 -19.766264
v 7.791900 3.996184 -19.791632
v 7.763636 4.027511 -19.797070
v 7.738441 4.030475 -19.779379
v 7.733042 4.031110 -19.748934
v 7.750610 4.029043 -19.723566
v 7.780847 4.025486 -19.718128
v 7.806042 4.022522 -19.735819
v 7.811441 4.021887 -19.766264
v 7.793873 4.023953 -19.791632
v 7.768024 4.054148 -19.797070
v 7.743365 4.060110 -19.779379
v 7.738081 4.061387 -19.748934
v 7.755275 4.057230 -19.723566
v 7.784868 4.050076 -19.718128
v 7.809526 4.044115 -19.735819
v 7.814811 4.042837 -19.766264
v 7.797617 4.046994 -19.791632
v 7.775581 4.077507 -19.797070
v 7.752440 4.087902 -19.779379
v 7.747480 4.090130 -19.748934
v 7.763617 4.082881 -19.723566
v 7.791389 4.070406 -19.718128
v 7.814530 4.060011 -19.735819
v 7.819489 4.057783 -19.766264
v 7.803353 4.065032 -19.791632
v 7.787317 4.097351 -19.797070
v 7.767492 4.113179 -19.779379
v 7.763243 4.116571 -19.748934
v 7.777067 4.105535 -19.723566
v 7.800860 4.086539 -19.718128
v 7.820686 4.070711 -19.735819
v 7.824934 4.067319 -19.766264
v 7.811110 4.078356 -19.791632
v 7.804018 4.113089 -19.797070
v 7.789465 4.133869 -19.779379
v 7.786346 4.138322 -19.748934
v 7.796494 4.123833 -19.723566
v 7.813958 4.098895 -19.718128
v 7.828510 4.078115 -19.735819
v 7.831629 4.073661 -19.766264
v 7.821482 4.088151 -19.791632
v 7.825973 4.124161 -19.797070
v 7.817372 4.148027 -19.779379
v 7.815528 4.153141 -19.748934
v 7.821526 4.136500 -19.723566
v 7.831849 4.107858 -19.718128
v 7.840450 4.083992 -19.735819
v 7.842293 4.078877 -19.766264
v 7.836296 4.095519 -19.791632
v 7.853385 4.130492 -19.797070
v 7.849861 4.155615 -19.779379
v 7.849106 4.160999 -19.748934
v 7.851563 4.143481 -19.723566
v 7.855793 4.113331 -19.718128
v 7.859317 4.088208 -19.735819
v 7.860072 4.082824 -19.766264
v 7.857615 4.100342 -19.791632
v 7.886807 4.132276 -19.797070
v 7.886970 4.157644 -19.779379
v 7.887005 4.163081 -19.748934
v 7.886891 4.145392 -19.723566
v 7.886696 4.114947 -19.718128
v 7.886533 4.089579 -19.735819
v 7.886498 4.084142 -19.766264
v 7.886612 4.101831 -19.791632
v 7.927044 4.129639 -19.797070
v 7.929725 4.154866 -19.779379
v 7.930300 4.160272 -19.748934
v 7.928431 4.142682 -19.723566
v 7.925214 4.112407 -19.718128
v 7.922533 4.087180 -19.735819
v 7.921957 4.081774 -19.766264
v 7.923827 4.099364 -19.791632
v 7.974686 4.122635 -19.797071
v 7.978308 4.147745 -19.779383
v 7.979084 4.153125 -19.748936
v 7.976560 4.135617 -19.723568
v 7.972214 4.105484 -19.718130
v 7.968593 4.080374 -19.735819
v 7.967816 4.074994 -19.766266
v 7.970341 4.092502 -19.791634
v 8.173481 4.094551 -19.797071
v 8.176701 4.119714 -19.779383
v 8.177390 4.125107 -19.748936
v 8.175145 4.107561 -19.723568
v 8.171282 4.077362 -19.718130
v 8.168062 4.052198 -19.735819
v 8.167373 4.046805 -19.766266
v 8.169618 4.064351 -19.791634
v 8.551736 4.051188 -19.797071
v 8.554436 4.076412 -19.779381
v 8.555014 4.081818 -19.748936
v 8.553131 4.064229 -19.723568
v 8.549891 4.033957 -19.718130
v 8.547192 4.008732 -19.735821
v 8.546614 4.003326 -19.766266
v 8.548496 4.020915 -19.791634
v 9.107684 3.995913 -19.797071
v 9.110041 4.021172 -19.779383
v 9.110546 4.026585 -19.748936
v 9.108903 4.008972 -19.723568
v 9.106074 3.978658 -19.718130
v 9.103718 3.953399 -19.735819
v 9.103212 3.947986 -19.766266
v 9.104856 3.965599 -19.791634
v 9.839416 3.932111 -19.797071
v 9.841481 3.957396 -19.779383
v 9.841923 3.962814 -19.748936
v 9.840484 3.945184 -19.723568
v 9.838006 3.914840 -19.718130
v 9.835940 3.889555 -19.735819
v 9.835499 3.884136 -19.766266
v 9.836938 3.901767 -19.791634
v 10.745052 3.863162 -19.797071
v 10.746846 3.888468 -19.779381
v 10.747231 3.893891 -19.748936
v 10.745980 3.876246 -19.723568
v 10.743828 3.845876 -19.718130
v 10.742034 3.820571 -19.735821
v 10.741650 3.815148 -19.766266
v 10.742900 3.832793 -19.791634
v 11.822723 3.792445 -19.797071
v 11.824255 3.817768 -19.779383
v 11.824583 3.823195 -19.748936
v 11.823515 3.805538 -19.723568
v 11.821676 3.775148 -19.718130
v 11.820145 3.749825 -19.735819
v 11.819817 3.744399 -19.766266
v 11.820885 3.762055 -19.791634
v 13.070559 3.723339 -19.797071
v 13.071834 3.748676 -19.779383
v 13.072106 3.754105 -19.748936
v 13.071218 3.736439 -19.723568
v 13.069687 3.706032 -19.718130
v 13.068412 3.680695 -19.735819
v 13.068139 3.675265 -19.766266
v 13.069028 3.692932 -19.791634
v 14.486688 3.659221 -19.797071
v 14.487708 3.684570 -19.779383
v 14.487927 3.690002 -19.748936
v 14.487216 3.672327 -19.723568
v 14.485991 3.641906 -19.718130
v 14.484971 3.616558 -19.735819
v 14.484752 3.611125 -19.766266
v 14.485463 3.628800 -19.791634
v 16.069246 3.603471 -19.797071
v 16.070013 3.628829 -19.779383
v 16.070177 3.634263 -19.748936
v 16.069643 3.616581 -19.723568
v 16.068724 3.586150 -19.718130
v 16.067957 3.560792 -19.735819
v 16.067793 3.555358 -19.766266
v 16.068327 3.573040 -19.791634
v 17.816364 3.559467 -19.797071
v 17.816875 3.584831 -19.779383
v 17.816984 3.590266 -19.748936
v 17.816628 3.572580 -19.723568
v 17.816013 3.542141 -19.718130
v 17.815502 3.516777 -19.735819
v 17.815393 3.511342 -19.766266
v 17.815750 3.529027 -19.791634
v 19.726171 3.530586 -19.797071
v 19.726427 3.555954 -19.779383
v 19.726480 3.561390 -19.748936
v 19.726303 3.543702 -19.723568
v 19.725996 3.513258 -19.718130
v 19.725740 3.487891 -19.735819
v 19.725687 3.482454 -19.766266
v 19.725864 3.500143 -19.791634
v 21.796806 3.520209 -19.797070
v 21.796804 3.545578 -19.779381
v 21.796804 3.551014 -19.748934
v 21.796804 3.533325 -19.723566
v 21.796806 3.502880 -19.718128
v 21.796808 3.477511 -19.735817
v 21.796808 3.472074 -19.766264
v 21.796808 3.489763 -19.791632
v 24.153025 3.532233 -19.797070
v 24.152765 3.557600 -19.779381
v 24.152710 3.563037 -19.748934
v 24.152891 3.545348 -19.723566
v 24.153204 3.514904 -19.718128
v 24.153463 3.489537 -19.735817
v 24.153519 3.484101 -19.766264
v 24.153337 3.501789 -19.791632
v 26.314774 3.565475 -19.797070
v 26.314255 3.590839 -19.779381
v 26.314144 3.596274 -19.748934
v 26.314505 3.578589 -19.723566
v 26.315128 3.548150 -19.718128
v 26.315647 3.522786 -19.735817
v 26.315758 3.517351 -19.766264
v 26.315397 3.535036 -19.791632
v 28.281170 3.615693 -19.797070
v 28.280396 3.641050 -19.779381
v 28.280230 3.646484 -19.748934
v 28.280769 3.628803 -19.723566
v 28.281700 3.598372 -19.718128
v 28.282475 3.573014 -19.735817
v 28.282640 3.567580 -19.766264
v 28.282101 3.585261 -19.791632
v 30.051334 3.678641 -19.797070
v 30.050308 3.703989 -19.779381
v 30.050089 3.709421 -19.748934
v 30.050804 3.691746 -19.723566
v 30.052036 3.661326 -19.718128
v 30.053062 3.635978 -19.735817
v 30.053282 3.630546 -19.766264
v 30.052567 3.648220 -19.791632
v 31.624384 3.750076 -19.797070
v 31.623112 3.775413 -19.779381
v 31.622839 3.780843 -19.748934
v 31.623726 3.763176 -19.723566
v 31.625254 3.732769 -19.718128
v 31.626526 3.707432 -19.735817
v 31.626799 3.702002 -19.766264
v 31.625912 3.719669 -19.791632
v 32.999443 3.825755 -19.797070
v 32.997929 3.851079 -19.779381
v 32.997608 3.856506 -19.748934
v 32.998661 3.838848 -19.723566
v 33.000473 3.808457 -19.718128
v 33.001987 3.783133 -19.735817
v 33.002308 3.777706 -19.766264
v 33.001255 3.795363 -19.791632
v 34.175621 3.901433 -19.797070
v 34.173882 3.926742 -19.779381
v 34.173508 3.932166 -19.748934
v 34.174721 3.914519 -19.723566
v 34.176811 3.884145 -19.718128
v 34.178551 3.858836 -19.735817
v 34.178925 3.853412 -19.766264
v 34.177711 3.871059 -19.791632
v 35.152050 3.972867 -19.797070
v 35.150101 3.998161 -19.779381
v 35.149681 4.003582 -19.748934
v 35.151043 3.985945 -19.723566
v 35.153385 3.955589 -19.718128
v 35.155334 3.930295 -19.735817
v 35.155754 3.924875 -19.766264
v 35.154392 3.942512 -19.791632
v 35.927849 4.035814 -19.797070
v 35.925720 4.061093 -19.779381
v 35.925262 4.066510 -19.748934
v 35.926746 4.048884 -19.723566
v 35.929306 4.018546 -19.718128
v 35.931435 3.993267 -19.735817
v 35.931892 3.987849 -19.766264
v 35.930408 4.005476 -19.791632
v 36.502155 4.086030 -19.797070
v 36.499920 4.111300 -19.779381
v 36.499443 4.116716 -19.748934
v 36.500999 4.099096 -19.723566
v 36.503681 4.068769 -19.718128
v 36.505917 4.043498 -19.735817
v 36.506393 4.038083 -19.766264
v 36.504837 4.055703 -19.791632
v 36.874161 4.119280 -19.797070
v 36.872131 4.144567 -19.779381
v 36.871693 4.149987 -19.748934
v 36.873112 4.132354 -19.723566
v 36.875549 4.102006 -19.718128
v 36.877579 4.076719 -19.735817
v 36.878017 4.071300 -19.766264
v 36.876598 4.088933 -19.791632
v 37.043510 4.131332 -19.797070
v 37.043510 4.156701 -19.779381
v 37.043510 4.162138 -19.748934
v 37.043510 4.144449 -19.723566
v 37.043510 4.114003 -19.718128
v 37.043510 4.088634 -19.735817
v 37.043510 4.083198 -19.766264
v 37.043510 4.100887 -19.791632
vn -0.9985 0.0526 -0.0114
vn -0.9987 0.0463 -0.0203
vn -0.7342 -0.6178 0.2816
vn -0.7266 -0.6709 0.1481
vn -0.6734 0.7221 -0.1583
vn -0.6834 0.6659 -0.2992
vn 0.0000 0.9768 -0.2141
vn 0.0000 0.9122 -0.4098
vn 0.6734 0.7221 -0.1583
vn 0.6834 0.6659 -0.2992
vn 0.9985 0.0526 -0.0114
vn 0.9987 0.0463 -0.0203
vn 0.7266 -0.6709 0.1481
vn 0.7342 -0.6177 0.2816
vn 0.0000 -0.9764 0.2158
vn 0.0000 -0.9094 0.4158
vn -0.9994 0.0256 -0.0241
vn -0.7246 -0.4892 0.4855
vn -0.6896 0.5177 -0.5064
vn 0.0000 0.7150 -0.6991
vn 0.6896 0.5177 -0.5064
vn 0.9994 0.0256 -0.0241
vn 0.7246 -0.4892 0.4855
vn 0.0000 -0.7088 0.7054
vn -0.9998 0.0111 -0.0168
vn -0.7169 -0.3726 0.5893
vn -0.6968 0.3854 -0.6049
vn 0.0000 0.5375 -0.8433
vn 0.6968 0.3854 -0.6049
vn 0.9998 0.0111 -0.0168
vn 0.7169 -0.3726 0.5893
vn 0.0000 -0.5340 0.8455
vn -0.9999 0.0045 -0.0092
vn -0.7121 -0.2991 0.6351
vn -0.7019 0.3042 -0.6440
vn 0.0000 0.4271 -0.9042
vn 0.7019 0.3042 -0.6440
vn 0.9999 0.0045 -0.0092
vn 0.7121 -0.2991 0.6351
vn 0.0000 -0.4260 0.9047
vn -1.0000 0.0013 -0.0032
vn -0.7088 -0.2645 0.6540
vn -0.7053 0.2659 -0.6571
vn 0.0000 0.3752 -0.9269
vn 0.7053 0.2659 -0.6571
vn 1.0000 0.0013 -0.0032
vn 0.7088 -0.2645 0.6540
vn 0.0000 -0.3749 0.9270
vn -1.0000 -0.0007 0.0018
vn -0.7060 -0.2616 0.6580
vn -0.7081 0.2608 -0.6562
vn 0.0000 0.3693 -0.9293
vn 0.7081 0.2608 -0.6562
vn 1.0000 -0.0007 0.0018
vn 0.7060 -0.2616 0.6580
vn 0.0000 -0.3695 0.9292
vn -1.0000 -0.0031 0.0069
vn -0.7032 -0.2886 0.6497
vn -0.7108 0.2852 -0.6429
vn 0.0000 0.4054 -0.9141
vn 0.7108 0.2852 -0.6429
vn 1.0000 -0.0031 0.0069
vn 0.7032 -0.2886 0.6497
vn 0.0000 -0.4060 0.9138
vn -0.9999 -0.0072 0.0126
vn -0.6998 -0.3482 0.6237
vn -0.7143 0.3404 -0.6115
vn 0.0000 0.4862 -0.8738
vn 0.7143 0.3404 -0.6115
vn 0.9999 -0.0072 0.0126
vn 0.6998 -0.3482 0.6237
vn 0.0000 -0.4876 0.8730
vn -0.9997 -0.0150 0.0186
vn -0.6952 -0.4450 0.5645
vn -0.7190 0.4288 -0.5470
vn 0.0000 0.6166 -0.7873
vn 0.7190 0.4288 -0.5470
vn 0.9997 -0.0150 0.0186
vn 0.6952 -0.4450 0.5645
vn 0.0000 -0.6192 0.7852
vn -0.9994 -0.0278 0.0212
vn -0.6901 -0.5713 0.4442
vn -0.7251 0.5422 -0.4246
vn 0.0000 0.7869 -0.6171
vn 0.7250 0.5422 -0.4246
vn 0.9994 -0.0278 0.0212
vn 0.6901 -0.5713 0.4442
vn 0.0000 -0.7895 0.6137
vn -0.9991 -0.0399 0.0145
vn -0.6877 -0.6832 0.2454
vn -0.7305 0.6432 -0.2295
vn 0.0000 0.9420 -0.3357
vn 0.7305 0.6432 -0.2295
vn 0.9991 -0.0399 0.0145
vn 0.6877 -0.6832 0.2454
vn 0.0000 -0.9411 0.3381
vn -0.9998 -0.0204 0.0024
vn -0.6964 -0.7148 0.0629
vn -0.7169 0.6948 -0.0563
vn 0.0000 0.9968 -0.0797
vn 0.7169 0.6948 -0.0563
vn 0.9998 -0.0204 0.0024
vn 0.6964 -0.7148 0.0629
vn 0.0000 -0.9961 0.0880
vn -1.0000 0.0000 0.0003
vn -0.7067 -0.7075 0.0010
vn -0.7067 0.7075 0.0012
vn 0.0000 1.0000 0.0020
vn 0.7067 0.7075 0.0012
vn 1.0000 0.0000 0.0003
vn 0.7067 -0.7075 0.0010
vn 0.0000 -1.0000 0.0017
vn -1.0000 0.0000 0.0000
vn -0.7071 -0.7071 0.0000
vn -0.7071 0.7071 0.0000
vn 0.0000 1.0000 0.0000
vn 0.7071 0.7071 0.0000
vn 1.0000 0.0000 0.0000
vn 0.7071 -0.7071 0.0000
vn 0.0000 -1.0000 0.0000
vn -1.0000 0.0000 -0.0001
vn -0.7071 -0.7071 -0.0001
vn -0.7071 0.7071 -0.0001
vn 0.7071 0.7071 -0.0001
vn 1.0000 0.0000 -0.0001
vn 0.7071 -0.7071 -0.0001
vn -0.9998 0.0000 -0.0215
vn -0.7096 -0.7045 -0.0152
vn -0.7096 0.7045 -0.0152
vn -0.0050 1.0000 -0.0002
vn 0.7045 0.7095 0.0141
vn 0.9998 0.0000 0.0199
vn 0.7045 -0.7095 0.0141
vn -0.0050 -1.0000 -0.0002
vn -0.9954 0.0000 -0.0957
vn -0.7102 -0.7007 -0.0681
vn -0.7102 0.7007 -0.0681
vn -0.0128 0.9999 -0.0015
vn 0.6975 0.7136 0.0651
vn 0.9957 0.0000 0.0926
vn 0.6975 -0.7136 0.0651
vn -0.0128 -0.9999 -0.0015
vn -0.9757 0.0000 -0.2188
vn -0.6983 -0.6984 -0.1564
vn -0.6983 0.6984 -0.1564
vn -0.0169 0.9998 -0.0041
vn 0.6819 0.7158 0.1502
vn 0.9767 0.0000 0.2145
vn 0.6820 -0.7158 0.1502
vn -0.0169 -0.9998 -0.0041
vn -0.9272 0.0000 -0.3744
vn -0.6657 -0.6962 -0.2687
vn -0.6657 0.6961 -0.2687
vn -0.0205 0.9997 -0.0087
vn 0.6463 0.7184 0.2574
vn 0.9293 0.0000 0.3692
vn 0.6463 -0.7184 0.2574
vn -0.0205 -0.9997 -0.0087
vn -0.8358 0.0000 -0.5490
vn -0.6014 -0.6945 -0.3949
vn -0.6014 0.6945 -0.3949
vn -0.0216 0.9996 -0.0145
vn 0.5807 0.7205 0.3789
vn 0.8378 0.0000 0.5460
vn 0.5806 -0.7206 0.3789
vn -0.0216 -0.9996 -0.0145
vn -0.6998 0.0000 -0.7143
vn -0.5037 -0.6942 -0.5142
vn -0.5037 0.6942 -0.5142
vn -0.0187 0.9996 -0.0190
vn 0.4841 0.7210 0.4957
vn 0.6984 0.0000 0.7156
vn 0.4841 -0.7210 0.4957
vn -0.0187 -0.9996 -0.0190
vn -0.5388 0.0000 -0.8424
vn -0.3870 -0.6955 -0.6054
vn -0.3870 0.6955 -0.6054
vn -0.0132 0.9997 -0.0199
vn 0.3715 0.7193 0.5870
vn 0.5340 0.0000 0.8454
vn 0.3716 -0.7193 0.5870
vn -0.0132 -0.9997 -0.0199
vn -0.3828 0.0000 -0.9238
vn -0.2741 -0.6976 -0.6619
vn -0.2741 0.6976 -0.6619
vn -0.0077 0.9998 -0.0175
vn 0.2640 0.7166 0.6455
vn 0.3779 0.0000 0.9258
vn 0.2640 -0.7166 0.6455
vn -0.0077 -0.9998 -0.0175
vn -0.2525 0.0000 -0.9676
vn -0.1802 -0.7000 -0.6910
vn -0.1802 0.7000 -0.6910
vn -0.0038 0.9999 -0.0137
vn 0.1748 0.7142 0.6778
vn 0.2493 0.0000 0.9684
vn 0.1748 -0.7142 0.6778
vn -0.0038 -0.9999 -0.0137
vn -0.1537 0.0000 -0.9881
vn -0.1094 -0.7020 -0.7037
vn -0.1094 0.7020 -0.7037
vn -0.0017 0.9999 -0.0100
vn 0.1068 0.7121 0.6938
vn 0.1520 0.0000 0.9884
vn 0.1068 -0.7121 0.6938
vn -0.0017 -0.9999 -0.0100
vn -0.0829 0.0000 -0.9966
vn -0.0588 -0.7035 -0.7082
vn -0.0588 0.7035 -0.7082
vn -0.0006 1.0000 -0.0070
vn 0.0578 0.7106 0.7012
vn 0.0821 0.0000 0.9966
vn 0.0578 -0.7106 0.7012
vn -0.0006 -1.0000 -0.0070
vn -0.0342 0.0000 -0.9994
vn -0.0242 -0.7047 -0.7091
vn -0.0242 0.7047 -0.7091
vn -0.0002 1.0000 -0.0048
vn 0.0238 0.7095 0.7043
vn 0.0338 0.0000 0.9994
vn 0.0238 -0.7095 0.7043
vn -0.0002 -1.0000 -0.0048
vn -0.0073 0.0000 -1.0000
vn -0.0051 -0.7062 -0.7080
vn -0.0051 0.7062 -0.7080
vn 0.0000 1.0000 -0.0017
vn 0.0050 0.7080 0.7062
vn 0.0071 0.0000 1.0000
vn 0.0050 -0.7080 0.7062
vn 0.0000 -1.0000 -0.0017
vn 0.0000 0.0000 -1.0000
vn 0.0000 -0.7071 -0.7071
vn 0.0000 0.7071 -0.7071
vn 0.0000 0.7071 0.7071
vn 0.0000 0.0000 1.0000
vn 0.0000 -0.7071 0.7071
vn -0.0084 -0.0018 -0.9999
vn -0.0007 -0.7090 -0.7052
vn -0.0111 0.7072 -0.7069
vn -0.0073 1.0000 0.0020
vn 0.0008 0.7052 0.7090
vn 0.0085 -0.0018 0.9999
vn 0.0114 -0.7069 0.7072
vn 0.0075 -1.0000 0.0020
vn -0.0341 -0.0052 -0.9994
vn -0.0002 -0.7115 -0.7027
vn -0.0477 0.7062 -0.7064
vn -0.0332 0.9994 0.0049
vn 0.0009 0.7027 0.7114
vn 0.0345 -0.0039 0.9994
vn 0.0481 -0.7065 0.7061
vn 0.0338 -0.9994 0.0036
vn -0.0685 -0.0087 -0.9976
vn 0.0067 -0.7119 -0.7022
vn -0.1034 0.7023 -0.7043
vn -0.0769 0.9970 0.0071
vn -0.0051 0.7015 0.7126
vn 0.0696 -0.0036 0.9976
vn 0.1038 -0.7042 0.7024
vn 0.0779 -0.9969 0.0013
vn -0.1024 -0.0145 -0.9946
vn 0.0248 -0.7110 -0.7027
vn -0.1693 0.6941 -0.6997
vn -0.1355 0.9907 0.0122
vn -0.0215 0.6987 0.7151
vn 0.1048 -0.0020 0.9945
vn 0.1700 -0.6980 0.6955
vn 0.1372 -0.9905 -0.0039
vn -0.1346 -0.0231 -0.9906
vn 0.0574 -0.7064 -0.7054
vn -0.2474 0.6786 -0.6915
vn -0.2126 0.9769 0.0215
vn -0.0514 0.6920 0.7201
vn 0.1395 0.0015 0.9902
vn 0.2490 -0.6853 0.6844
vn 0.2152 -0.9765 -0.0136
vn -0.1633 -0.0347 -0.9859
vn 0.1081 -0.6939 -0.7119
vn -0.3392 0.6512 -0.6788
vn -0.3118 0.9494 0.0371
vn -0.0979 0.6773 0.7291
vn 0.1728 0.0072 0.9849
vn 0.3423 -0.6610 0.6677
vn 0.3156 -0.9484 -0.0299
vn -0.1862 -0.0486 -0.9813
vn 0.1793 -0.6660 -0.7241
vn -0.4438 0.6054 -0.6607
vn -0.4344 0.8986 0.0605
vn -0.1635 0.6481 0.7438
vn 0.2029 0.0155 0.9791
vn 0.4494 -0.6185 0.6445
vn 0.4393 -0.8966 -0.0548
vn -0.2002 -0.0620 -0.9778
vn 0.2686 -0.6125 -0.7434
vn -0.5554 0.5340 -0.6374
vn -0.5758 0.8123 0.0923
vn -0.2465 0.5951 0.7649
vn 0.2269 0.0256 0.9736
vn 0.5645 -0.5501 0.6153
vn 0.5804 -0.8094 -0.0887
vn -0.2047 -0.0698 -0.9763
vn 0.3652 -0.5250 -0.7687
vn -0.6618 0.4342 -0.6111
vn -0.7206 0.6810 0.1298
vn -0.3385 0.5100 0.7907
vn 0.2419 0.0353 0.9697
vn 0.6745 -0.4519 0.5838
vn 0.7228 -0.6790 -0.1284
vn -0.2023 -0.0670 -0.9770
vn 0.4510 -0.4044 -0.7956
vn -0.7468 0.3142 -0.5860
vn -0.8442 0.5097 0.1657
vn -0.4236 0.3929 0.8162
vn 0.2461 0.0403 0.9684
vn 0.7626 -0.3307 0.5559
vn 0.8433 -0.5109 -0.1667
vn -0.1982 -0.0522 -0.9788
vn 0.5106 -0.2649 -0.8180
vn -0.8010 0.1922 -0.5669
vn -0.9267 0.3226 0.1924
vn -0.4861 0.2571 0.8352
vn 0.2421 0.0362 0.9696
vn 0.8184 -0.2044 0.5371
vn 0.9246 -0.3267 -0.1958
vn -0.1965 -0.0284 -0.9801
vn 0.5401 -0.1270 -0.8319
vn -0.8268 0.0851 -0.5559
vn -0.9673 0.1470 0.2066
vn -0.5204 0.1209 0.8453
vn 0.2350 0.0214 0.9717
vn 0.8436 -0.0924 0.5290
vn 0.9651 -0.1534 -0.2120
vn -0.2057 -0.0073 -0.9786
vn 0.5433 -0.0305 -0.8390
vn -0.8381 0.0186 -0.5452
vn -0.9767 0.0323 0.2122
vn -0.5354 0.0274 0.8441
vn 0.2221 0.0059 0.9750
vn 0.8456 -0.0210 0.5334
vn 0.9759 -0.0364 -0.2152
vn -0.2138 0.0000 -0.9769
vn 0.5395 -0.0000 -0.8419
vn -0.8420 -0.0000 -0.5395
vn -0.9768 -0.0001 0.2139
vn -0.5395 -0.0001 0.8419
vn 0.2138 -0.0000 0.9769
vn 0.8420 -0.0000 0.5395
vn 0.9768 -0.0001 -0.2139
vn -0.2138 0.0000 -0.9768
vn 0.5395 0.0000 -0.8420
vn -0.8419 0.0000 -0.5395
vn -0.9768 0.0000 0.2138
vn -0.5395 0.0000 0.8419
vn 0.8419 0.0000 0.5395
vn 0.9768 0.0000 -0.2138
vn 0.9768 0.0000 -0.2139
vn -0.9768 0.0000 0.2139
vn 0.2138 0.0000 0.9768
vn -0.5395 0.0000 0.8420
vn -0.2137 0.0002 -0.9769
vn 0.5394 0.0002 -0.8420
vn -0.8419 0.0000 -0.5396
vn -0.9768 0.0001 0.2140
vn -0.5394 0.0002 0.8420
vn 0.2137 0.0002 0.9769
vn 0.8419 0.0000 0.5396
vn 0.9768 0.0001 -0.2140
vn -0.2076 0.0553 -0.9766
vn 0.5348 0.0580 -0.8430
vn -0.8345 0.0208 -0.5506
vn -0.9792 -0.0242 0.2011
vn -0.5426 -0.0528 0.8383
vn 0.2196 -0.0503 0.9743
vn 0.8491 -0.0178 0.5279
vn 0.9737 0.0274 -0.2261
vn -0.2078 0.2306 -0.9506
vn 0.5238 0.2416 -0.8168
vn -0.8278 0.0905 -0.5535
vn -0.9800 -0.1024 0.1702
vn -0.5427 -0.2350 0.8063
vn 0.2363 -0.2229 0.9457
vn 0.8614 -0.0741 0.5025
vn 0.9667 0.1178 -0.2270
vn -0.2296 0.4591 -0.8581
vn 0.5000 0.4810 -0.7201
vn -0.8362 0.1807 -0.5178
vn -0.9698 -0.2078 0.1274
vn -0.5189 -0.4792 0.7078
vn 0.2588 -0.4543 0.8524
vn 0.8690 -0.1503 0.4714
vn 0.9550 0.2352 -0.1804
vn -0.2646 0.6392 -0.7221
vn 0.4670 0.6699 -0.5770
vn -0.8518 0.2482 -0.4613
vn -0.9532 -0.2940 0.0697
vn -0.4819 -0.6695 0.5652
vn 0.2884 -0.6352 0.7165
vn 0.8770 -0.2140 0.4301
vn 0.9397 0.3246 -0.1071
vn -0.2992 0.7479 -0.5925
vn 0.4366 0.7845 -0.4403
vn -0.8678 0.2845 -0.4074
vn -0.9364 -0.3506 0.0156
vn -0.4463 -0.7837 0.4319
vn 0.3151 -0.7443 0.5888
vn 0.8836 -0.2575 0.3910
vn 0.9264 0.3747 -0.0367
vn -0.3241 0.8007 -0.5037
vn 0.4165 0.8406 -0.3461
vn -0.8795 0.2981 -0.3708
vn -0.9239 -0.3819 -0.0212
vn -0.4217 -0.8398 0.3419
vn 0.3324 -0.7983 0.5022
vn 0.8874 -0.2829 0.3639
vn 0.9183 0.3956 0.0117
vn -0.3365 0.8184 -0.4658
vn 0.4092 0.8599 -0.3052
vn -0.8861 0.2987 -0.3544
vn -0.9173 -0.3966 -0.0354
vn -0.4101 -0.8597 0.3045
vn 0.3380 -0.8179 0.4656
vn 0.8875 -0.2959 0.3533
vn 0.9163 0.3991 0.0338
vn -0.3363 0.8103 -0.4798
vn 0.4150 0.8521 -0.3189
vn -0.8880 0.2898 -0.3571
vn -0.9167 -0.3989 -0.0244
vn -0.4117 -0.8526 0.3217
vn 0.3310 -0.8119 0.4809
vn 0.8830 -0.2997 0.3612
vn 0.9203 0.3899 0.0304
vn -0.3236 0.7715 -0.5477
vn 0.4349 0.8121 -0.3890
vn -0.8858 0.2692 -0.3780
vn -0.9223 -0.3862 0.0146
vn -0.4269 -0.8126 0.3967
vn 0.3103 -0.7745 0.5512
vn 0.8728 -0.2925 0.3906
vn 0.9308 0.3654 0.0021
vn -0.2992 0.6808 -0.6685
vn 0.4690 0.7176 -0.5148
vn -0.8802 0.2303 -0.4148
vn -0.9343 -0.3468 0.0827
vn -0.4554 -0.7168 0.5280
vn 0.2762 -0.6839 0.6753
vn 0.8567 -0.2649 0.4425
vn 0.9475 0.3160 -0.0486
vn -0.2680 0.5078 -0.8187
vn 0.5110 0.5360 -0.6720
vn -0.8727 0.1667 -0.4588
vn -0.9505 -0.2629 0.1654
vn -0.4913 -0.5358 0.6867
vn 0.2365 -0.5115 0.8260
vn 0.8382 -0.2023 0.5065
vn 0.9666 0.2311 -0.1104
vn -0.2415 0.2562 -0.9359
vn 0.5424 0.2703 -0.7954
vn -0.8648 0.0838 -0.4951
vn -0.9646 -0.1368 0.2256
vn -0.5203 -0.2786 0.8072
vn 0.2086 -0.2660 0.9411
vn 0.8265 -0.1055 0.5529
vn 0.9800 0.1166 -0.1610
vn -0.2210 0.0570 -0.9736
vn 0.5428 0.0590 -0.8378
vn -0.8504 0.0211 -0.5257
vn -0.9731 -0.0315 0.2281
vn -0.5340 -0.0685 0.8427
vn 0.2066 -0.0660 0.9762
vn 0.8333 -0.0257 0.5522
vn 0.9796 0.0264 -0.1993
vn -0.2164 0.0016 -0.9763
vn 0.5371 -0.0075 -0.8434
vn -0.8428 0.0100 -0.5381
vn -0.9767 0.0116 0.2141
vn -0.5406 0.0056 0.8412
vn 0.2118 -0.0034 0.9773
vn 0.8414 -0.0103 0.5403
vn 0.9765 -0.0121 -0.2152
vn -0.2199 0.0104 -0.9754
vn 0.5342 -0.0248 -0.8450
vn -0.8431 0.0399 -0.5362
vn -0.9759 0.0462 0.2131
vn -0.5427 0.0256 0.8395
vn 0.2084 -0.0096 0.9780
vn 0.8397 -0.0388 0.5417
vn 0.9754 -0.0450 -0.2156
vn -0.2234 0.0266 -0.9743
vn 0.5277 -0.0613 -0.8472
vn -0.8396 0.0998 -0.5339
vn -0.9704 0.1155 0.2121
vn -0.5431 0.0645 0.8372
vn 0.2025 -0.0235 0.9790
vn 0.8335 -0.0967 0.5439
vn 0.9698 -0.1123 -0.2167
vn -0.2250 0.0551 -0.9728
vn 0.5120 -0.1219 -0.8503
vn -0.8232 0.2014 -0.5307
vn -0.9495 0.2324 0.2106
vn -0.5361 0.1310 0.8339
vn 0.1918 -0.0455 0.9803
vn 0.8145 -0.1932 0.5470
vn 0.9497 -0.2247 -0.2181
vn -0.2183 0.0993 -0.9708
vn 0.4754 -0.2101 -0.8543
vn -0.7738 0.3512 -0.5271
vn -0.8904 0.4043 0.2090
vn -0.5079 0.2303 0.8301
vn 0.1726 -0.0760 0.9821
vn 0.7637 -0.3359 0.5512
vn 0.8934 -0.3917 -0.2200
vn -0.1921 0.1543 -0.9691
vn 0.4023 -0.3184 -0.8583
vn -0.6642 0.5328 -0.5244
vn -0.7629 0.6122 0.2077
vn -0.4385 0.3517 0.8270
vn 0.1419 -0.1121 0.9835
vn 0.6524 -0.5149 0.5560
vn 0.7658 -0.6034 -0.2225
vn -0.1422 0.2023 -0.9689
vn 0.2928 -0.4202 -0.8589
vn -0.4895 0.6970 -0.5240
vn -0.5623 0.8004 0.2076
vn -0.3234 0.4605 0.8266
vn 0.1027 -0.1476 0.9837
vn 0.4745 -0.6819 0.5567
vn 0.5564 -0.8004 -0.2228
vn -0.0829 0.2273 -0.9703
vn 0.1731 -0.4880 -0.8555
vn -0.2909 0.7990 -0.5262
vn -0.3348 0.9189 0.2086
vn -0.1912 0.5254 0.8291
vn 0.0621 -0.1756 0.9825
vn 0.2774 -0.7860 0.5525
vn 0.3238 -0.9200 -0.2206
vn -0.0332 0.2321 -0.9721
vn 0.0712 -0.5192 -0.8516
vn -0.1199 0.8398 -0.5295
vn -0.1383 0.9678 0.2101
vn -0.0781 0.5483 0.8326
vn 0.0262 -0.1925 0.9809
vn 0.1129 -0.8285 0.5484
vn 0.1313 -0.9669 -0.2188
vn 0.0012 0.2282 -0.9736
vn -0.0040 -0.5288 -0.8487
vn 0.0044 0.8464 -0.5325
vn 0.0050 0.9774 0.2114
vn 0.0029 0.5492 0.8356
vn -0.0016 -0.2006 0.9796
vn -0.0067 -0.8381 0.5455
vn -0.0079 -0.9760 -0.2174
vn 0.0234 0.2225 -0.9746
vn -0.0565 -0.5290 -0.8467
vn 0.0887 0.8404 -0.5346
vn 0.1026 0.9718 0.2124
vn 0.0574 0.5429 0.8378
vn -0.0218 -0.2039 0.9787
vn -0.0892 -0.8347 0.5435
vn -0.1039 -0.9707 -0.2165
vn 0.0304 0.2116 -0.9769
vn -0.0772 -0.5341 -0.8419
vn 0.1199 0.8335 -0.5393
vn 0.1391 0.9667 0.2145
vn 0.0768 0.5331 0.8425
vn -0.0308 -0.2129 0.9766
vn -0.1205 -0.8339 0.5386
vn -0.1397 -0.9667 -0.2142
vn 0.0268 0.2096 -0.9774
vn -0.0687 -0.5369 -0.8408
vn 0.1068 0.8345 -0.5405
vn 0.1239 0.9687 0.2151
vn 0.0681 0.5324 0.8437
vn -0.0276 -0.2157 0.9761
vn -0.1070 -0.8364 0.5376
vn -0.1239 -0.9690 -0.2138
vn 0.0226 0.2114 -0.9771
vn -0.0575 -0.5373 -0.8414
vn 0.0896 0.8369 -0.5398
vn 0.1039 0.9711 0.2148
vn 0.0572 0.5347 0.8431
vn -0.0230 -0.2149 0.9763
vn -0.0897 -0.8380 0.5382
vn -0.1039 -0.9713 -0.2140
vn 0.0198 0.2120 -0.9771
vn -0.0502 -0.5377 -0.8416
vn 0.0782 0.8382 -0.5397
vn 0.0907 0.9724 0.2147
vn 0.0500 0.5357 0.8429
vn -0.0201 -0.2149 0.9764
vn -0.0783 -0.8390 0.5383
vn -0.0907 -0.9726 -0.2141
vn 0.0173 0.2124 -0.9770
vn -0.0439 -0.5382 -0.8416
vn 0.0685 0.8391 -0.5396
vn 0.0795 0.9734 0.2147
vn 0.0438 0.5363 0.8429
vn -0.0175 -0.2149 0.9764
vn -0.0686 -0.8399 0.5384
vn -0.0795 -0.9735 -0.2141
vn 0.0150 0.2126 -0.9770
vn -0.0381 -0.5386 -0.8417
vn 0.0595 0.8398 -0.5396
vn 0.0690 0.9742 0.2147
vn 0.0380 0.5368 0.8428
vn -0.0152 -0.2151 0.9765
vn -0.0596 -0.8405 0.5384
vn -0.0690 -0.9743 -0.2141
vn 0.0128 0.2128 -0.9770
vn -0.0326 -0.5389 -0.8417
vn 0.0508 0.8404 -0.5396
vn 0.0590 0.9749 0.2147
vn 0.0325 0.5372 0.8428
vn -0.0130 -0.2152 0.9765
vn -0.0509 -0.8411 0.5385
vn -0.0590 -0.9750 -0.2141
vn 0.0107 0.2129 -0.9770
vn -0.0271 -0.5392 -0.8417
vn 0.0423 0.8408 -0.5396
vn 0.0491 0.9754 0.2147
vn 0.0270 0.5375 0.8428
vn -0.0108 -0.2153 0.9765
vn -0.0423 -0.8415 0.5385
vn -0.0491 -0.9756 -0.2141
vn 0.0085 0.2130 -0.9770
vn -0.0217 -0.5395 -0.8417
vn 0.0338 0.8412 -0.5396
vn 0.0393 0.9759 0.2147
vn 0.0216 0.5377 0.8428
vn -0.0087 -0.2154 0.9765
vn -0.0339 -0.8419 0.5385
vn -0.0393 -0.9760 -0.2141
vn 0.0064 0.2131 -0.9770
vn -0.0163 -0.5397 -0.8417
vn 0.0254 0.8415 -0.5396
vn 0.0295 0.9762 0.2147
vn 0.0162 0.5379 0.8428
vn -0.0065 -0.2154 0.9765
vn -0.0254 -0.8422 0.5385
vn -0.0295 -0.9763 -0.2141
vn 0.0043 0.2132 -0.9770
vn -0.0109 -0.5398 -0.8417
vn 0.0169 0.8417 -0.5396
vn 0.0197 0.9765 0.2147
vn 0.0108 0.5381 0.8428
vn -0.0043 -0.2155 0.9765
vn -0.0170 -0.8424 0.5385
vn -0.0197 -0.9766 -0.2141
vn 0.0021 0.2132 -0.9770
vn -0.0054 -0.5399 -0.8417
vn 0.0085 0.8419 -0.5396
vn 0.0098 0.9766 0.2147
vn 0.0054 0.5381 0.8428
vn -0.0022 -0.2156 0.9765
vn -0.0085 -0.8426 0.5385
vn -0.0098 -0.9767 -0.2141
vn 0.0000 0.2132 -0.9770
vn 0.0000 -0.5399 -0.8417
vn -0.0000 0.8419 -0.5396
vn -0.0000 0.9767 0.2147
vn 0.0000 0.5382 0.8428
vn 0.0000 -0.2156 0.9765
vn 0.0000 -0.8426 0.5385
vn 0.0000 -0.9768 -0.2141
vn -0.0022 0.2132 -0.9770
vn 0.0055 -0.5399 -0.8417
vn -0.0086 0.8419 -0.5396
vn -0.0100 0.9766 0.2147
vn -0.0055 0.5381 0.8428
vn 0.0022 -0.2156 0.9765
vn 0.0086 -0.8426 0.5385
vn 0.0100 -0.9767 -0.2141
vn -0.0043 0.2131 -0.9770
vn 0.0110 -0.5398 -0.8417
vn -0.0172 0.8417 -0.5396
vn -0.0200 0.9765 0.2147
vn -0.0110 0.5380 0.8428
vn 0.0044 -0.2155 0.9765
vn 0.0172 -0.8424 0.5385
vn 0.0200 -0.9766 -0.2141
vn -0.0065 0.2131 -0.9770
vn 0.0165 -0.5397 -0.8417
vn -0.0257 0.8415 -0.5396
vn -0.0298 0.9762 0.2147
vn -0.0164 0.5379 0.8428
vn 0.0066 -0.2154 0.9765
vn 0.0257 -0.8422 0.5385
vn 0.0298 -0.9763 -0.2141
vn -0.0086 0.2130 -0.9770
vn 0.0218 -0.5394 -0.8417
vn -0.0340 0.8412 -0.5396
vn -0.0395 0.9759 0.2147
vn -0.0218 0.5377 0.8428
vn 0.0087 -0.2153 0.9765
vn 0.0341 -0.8419 0.5385
vn 0.0395 -0.9760 -0.2142
vn -0.0107 0.2130 -0.9770
vn 0.0271 -0.5392 -0.8417
vn -0.0422 0.8409 -0.5396
vn -0.0490 0.9754 0.2147
vn -0.0270 0.5375 0.8428
vn 0.0108 -0.2152 0.9765
vn 0.0422 -0.8415 0.5385
vn 0.0490 -0.9756 -0.2142
vn -0.0127 0.2129 -0.9770
vn 0.0321 -0.5389 -0.8417
vn -0.0501 0.8404 -0.5395
vn -0.0582 0.9749 0.2147
vn -0.0320 0.5373 0.8428
vn 0.0128 -0.2151 0.9765
vn 0.0502 -0.8411 0.5385
vn 0.0582 -0.9750 -0.2142
vn -0.0146 0.2129 -0.9770
vn 0.0370 -0.5385 -0.8418
vn -0.0577 0.8400 -0.5395
vn -0.0670 0.9744 0.2146
vn -0.0369 0.5370 0.8427
vn 0.0148 -0.2149 0.9765
vn 0.0578 -0.8406 0.5386
vn 0.0670 -0.9745 -0.2142
vn -0.0164 0.2128 -0.9769
vn 0.0415 -0.5381 -0.8418
vn -0.0648 0.8395 -0.5395
vn -0.0751 0.9738 0.2146
vn -0.0414 0.5368 0.8427
vn 0.0165 -0.2147 0.9765
vn 0.0648 -0.8401 0.5386
vn 0.0751 -0.9739 -0.2142
vn -0.0179 0.2129 -0.9769
vn 0.0453 -0.5377 -0.8419
vn -0.0707 0.8391 -0.5394
vn -0.0820 0.9732 0.2146
vn -0.0452 0.5366 0.8426
vn 0.0180 -0.2143 0.9766
vn 0.0707 -0.8395 0.5387
vn 0.0820 -0.9733 -0.2142
vn -0.0188 0.2133 -0.9768
vn 0.0475 -0.5371 -0.8422
vn -0.0742 0.8389 -0.5391
vn -0.0860 0.9729 0.2145
vn -0.0475 0.5368 0.8424
vn 0.0189 -0.2138 0.9767
vn 0.0742 -0.8390 0.5389
vn 0.0860 -0.9729 -0.2144
vn -0.0173 0.2159 -0.9763
vn 0.0432 -0.5359 -0.8431
vn -0.0673 0.8403 -0.5379
vn -0.0780 0.9737 0.2138
vn -0.0432 0.5390 0.8412
vn 0.0171 -0.2117 0.9772
vn 0.0676 -0.8390 0.5398
vn 0.0784 -0.9735 -0.2148
vn -0.0163 0.2305 -0.9729
vn 0.0377 -0.5257 -0.8498
vn -0.0599 0.8454 -0.5307
vn -0.0690 0.9751 0.2106
vn -0.0390 0.5503 0.8340
vn 0.0142 -0.1975 0.9802
vn 0.0599 -0.8353 0.5465
vn 0.0699 -0.9734 -0.2178
s 1
f 1//1 9//2 16//3 8//4
f 2//5 10//6 9//2 1//1
f 3//7 11//8 10//6 2//5
f 4//9 12//10 11//8 3//7
f 5//11 13//12 12//10 4//9
f 6//13 14//14 13//12 5//11
f 7//15 15//16 14//14 6//13
f 8//4 16//3 15//16 7//15
f 9//2 17//17 24//18 16//3
f 10//6 18//19 17//17 9//2
f 11//8 19//20 18//19 10//6
f 12//10 20//21 19//20 11//8
f 13//12 21//22 20//21 12//10
f 14//14 22//23 21//22 13//12
f 15//16 23//24 22//23 14//14
f 16//3 24//18 23//24 15//16
f 17//17 25//25 32//26 24//18
f 18//19 26//27 25//25 17//17
f 19//20 27//28 26//27 18//19
f 20//21 28//29 27//28 19//20
f 21//22 29//30 28//29 20//21
f 22//23 30//31 29//30 21//22
f 23//24 31//32 30//31 22//23
f 24//18 32//26 31//32 23//24
f 25//25 33//33 40//34 32//26
f 26//27 34//35 33//33 25//25
f 27//28 35//36 34//35 26//27
f 28//29 36//37 35//36 27//28
f 29//30 37//38 36//37 28//29
f 30//31 38//39 37//38 29//30
f 31//32 39//40 38//39 30//31
f 32//26 40//34 39//40 31//32
f 33//33 41//41 48//42 40//34
f 34//35 42//43 41//41 33//33
f 35//36 43//44 42//43 34//35
f 36//37 44//45 43//44 35//36
f 37//38 45//46 44//45 36//37
f 38//39 46//47 45//46 37//38
f 39//40 47//48 46//47 38//39
f 40//34 48//42 47//48 39//40
f 41//41 49//49 56//50 48//42
f 42//43 50//51 49//49 41//41
f 43//44 51//52 50//51 42//43
f 44//45 52//53 51//52 43//44
f 45//46 53//54 52//53 44//45
f 46//47 54//55 53//54 45//46
f 47//48 55//56 54//55 46//47
f 48//42 56//50 55//56 47//48
f 49//49 57//57 64//58 56//50
f 50//51 58//59 57//57 49//49
f 51//52 59//60 58//59 50//51
f 52//53 60//61 59//60 51//52
f 53//54 61//62 60//61 52//53
f 54//55 62//63 61//62 53//54
f 55//56 63//64 62//63 54//55
f 56//50 64//58 63//64 55//56
f 57//57 65//65 72//66 64//58
f 58//59 66//67 65//65 57//57
f 59//60 67//68 66//67 58//59
f 60//61 68//69 67//68 59//60
f 61//62 69//70 68//69 60//61
f 62//63 70//71 69//70 61//62
f 63//64 71//72 70//71 62//63
f 64//58 72//66 71//72 63//64
f 65//65 73//73 80//74 72//66
f 66//67 74//75 73//73 65//65
f 67//68 75//76 74//75 66//67
f 68//69 76//77 75//76 67//68
f 69//70 77//78 76//77 68//69
f 70//71 78//79 77//78 69//70
f 71//72 79//80 78//79 70//71
f 72//66 80//74 79//80 71//72
f 73//73 81//81 88//82 80//74
f 74//75 82//83 81//81 73//73
f 75//76 83//84 82//83 74//75
f 76//77 84//85 83//84 75//76
f 77//78 85//86 84//85 76//77
f 78//79 86//87 85//86 77//78
f 79//80 87//88 86//87 78//79
f 80//74 88//82 87//88 79//80
f 81//81 89//89 96//90 88//82
f 82//83 90//91 89//89 81//81
f 83//84 91//92 90//91 82//83
f 84//85 92//93 91//92 83//84
f 85//86 93//94 92//93 84//85
f 86//87 94//95 93//94 85//86
f 87//88 95//96 94//95 86//87
f 88//82 96//90 95//96 87//88
f 89//89 97//97 104//98 96//90
f 90//91 98//99 97//97 89//89
f 91//92 99//100 98//99 90//91
f 92//93 100//101 99//100 91//92
f 93//94 101//102 100//101 92//93
f 94//95 102//103 101//102 93//94
f 95//96 103//104 102//103 94//95
f 96//90 104//98 103//104 95//96
f 97//97 105//105 112//106 104//98
f 98//99 106//107 105//105 97//97
f 99//100 107//108 106//107 98//99
f 100//101 108//109 107//108 99//100
f 101//102 109//110 108//109 100//101
f 102//103 110//111 109//110 101//102
f 103//104 111//112 110//111 102//103
f 104//98 112//106 111//112 103//104
f 105//105 113//113 120//114 112//106
f 106//107 114//115 113//113 105//105
f 107//108 115//116 114//115 106//107
f 108//109 116//117 115//116 107//108
f 109//110 117//118 116//117 108//109
f 110//111 118//119 117//118 109//110
f 111//112 119//120 118//119 110//111
f 112//106 120//114 119//120 111//112
f 113//113 121//113 128//114 120//114
f 114//115 122//115 121//113 113//113
f 115//116 123//116 122//115 114//115
f 116//117 124//117 123//116 115//116
f 117//118 125//118 124//117 116//117
f 118//119 126//119 125//118 117//118
f 119//120 127//120 126//119 118//119
f 120//114 128//114 127//120 119//120
f 121//113 129//113 136//114 128//114
f 122//115 130//115 129//113 121//113
f 123//116 131//116 130//115 122//115
f 124//117 132//117 131//116 123//116
f 125//118 133//118 132//117 124//117
f 126//119 134//119 133//118 125//118
f 127//120 135//120 134//119 126//119
f 128//114 136//114 135//120 127//120
f 129//113 137//113 144//114 136//114
f 130//115 138//115 137//113 129//113
f 131//116 139//116 138//115 130//115
f 132//117 140//117 139//116 131//116
f 133//118 141//118 140//117 132//117
f 134//119 142//119 141//118 133//118
f 135//120 143//120 142//119 134//119
f 136//114 144//114 143//120 135//120
f 137//113 145//113 152//114 144//114
f 138//115 146//115 145//113 137//113
f 139//116 147//116 146//115 138//115
f 140//117 148//117 147//116 139//116
f 141//118 149//118 148//117 140//117
f 142//119 150//119 149//118 141//118
f 143//120 151//120 150//119 142//119
f 144//114 152//114 151//120 143//120
f 145//113 153//113 160//114 152//114
f 146//115 154//115 153//113 145//113
f 147//116 155//116 154//115 146//115
f 148//117 156//117 155//116 147//116
f 149//118 157//118 156//117 148//117
f 150//119 158//119 157//118 149//118
f 151//120 159//120 158//119 150//119
f 152//114 160//114 159//120 151//120
f 153//113 161//113 168//114 160//114
f 154//115 162//115 161//113 153//113
f 155//116 163//116 162//115 154//115
f 156//117 164//117 163//116 155//116
f 157//118 165//118 164//117 156//117
f 158//119 166//119 165//118 157//118
f 159//120 167//120 166//119 158//119
f 160//114 168//114 167//120 159//120
f 161//113 169//113 176//114 168//114
f 162//115 170//115 169//113 161//113
f 163//116 171//116 170//115 162//115
f 164//117 172//117 171//116 163//116
f 165//118 173//118 172//117 164//117
f 166//119 174//119 173//118 165//118
f 167//120 175//120 174//119 166//119
f 168//114 176//114 175//120 167//120
f 169//113 177//113 184//114 176//114
f 170//115 178//115 177//113 169//113
f 171//116 179//116 178//115 170//115
f 172//117 180//117 179//116 171//116
f 173//118 181//118 180//117 172//117
f 174//119 182//119 181//118 173//118
f 175//120 183//120 182//119 174//119
f 176//114 184//114 183//120 175//120
f 177//113 185//121 192//122 184//114
f 178//115 186//123 185//121 177//113
f 179//116 187//116 186//123 178//115
f 180//117 188//124 187//116 179//116
f 181//118 189//125 188//124 180//117
f 182//119 190//126 189//125 181//118
f 183//120 191//120 190//126 182//119
f 184//114 192//122 191//120 183//120
f 185//121 193//127 200//128 192//122
f 186//123 194//129 193//127 185//121
f 187//116 195//130 194//129 186//123
f 188//124 196//131 195//130 187//116
f 189//125 197//132 196//131 188//124
f 190//126 198//133 197//132 189//125
f 191//120 199//134 198//133 190//126
f 192//122 200//128 199//134 191//120
f 193//127 201//135 208//136 200//128
f 194//129 202//137 201//135 193//127
f 195//130 203//138 202//137 194//129
f 196//131 204//139 203//138 195//130
f 197//132 205//140 204//139 196//131
f 198//133 206//141 205//140 197//132
f 199//134 207//142 206//141 198//133
f 200//128 208//136 207//142 199//134
f 201//135 209//143 216//144 208//136
f 202//137 210//145 209//143 201//135
f 203//138 211//146 210//145 202//137
f 204//139 212//147 211//146 203//138
f 205//140 213//148 212//147 204//139
f 206//141 214//149 213//148 205//140
f 207//142 215//150 214//149 206//141
f 208//136 216//144 215//150 207//142
f 209//143 217//151 224//152 216//144
f 210//145 218//153 217//151 209//143
f 211//146 219//154 218//153 210//145
f 212//147 220//155 219//154 211//146
f 213//148 221//156 220//155 212//147
f 214//149 222//157 221//156 213//148
f 215//150 223//158 222//157 214//149
f 216//144 224//152 223//158 215//150
f 217//151 225//159 232//160 224//152
f 218//153 226//161 225//159 217//151
f 219//154 227//162 226//161 218//153
f 220//155 228//163 227//162 219//154
f 221//156 229//164 228//163 220//155
f 222//157 230//165 229//164 221//156
f 223//158 231//166 230//165 222//157
f 224//152 232//160 231//166 223//158
f 225//159 233//167 240//168 232//160
f 226//161 234//169 233//167 225//159
f 227//162 235//170 234//169 226//161
f 228//163 236//171 235//170 227//162
f 229//164 237//172 236//171 228//163
f 230//165 238//173 237//172 229//164
f 231//166 239//174 238//173 230//165
f 232//160 240//168 239//174 231//166
f 233//167 241//175 248//176 240//168
f 234//169 242//177 241//175 233//167
f 235//170 243//178 242//177 234//169
f 236//171 244//179 243//178 235//170
f 237//172 245//180 244//179 236//171
f 238//173 246//181 245//180 237//172
f 239//174 247//182 246//181 238//173
f 240//168 248//176 247//182 239//174
f 241//175 249//183 256//184 248//176
f 242//177 250//185 249//183 241//175
f 243//178 251//186 250//185 242//177
f 244//179 252//187 251//186 243//178
f 245//180 253//188 252//187 244//179
f 246//181 254//189 253//188 245//180
f 247//182 255//190 254//189 246//181
f 248//176 256//184 255//190 247//182
f 249//183 257//191 264//192 256//184
f 250//185 258//193 257//191 249//183
f 251//186 259//194 258//193 250//185
f 252//187 260//195 259//194 251//186
f 253//188 261//196 260//195 252//187
f 254//189 262//197 261//196 253//188
f 255//190 263//198 262//197 254//189
f 256//184 264//192 263//198 255//190
f 257//191 265//199 272//200 264//192
f 258//193 266//201 265//199 257//191
f 259//194 267//202 266//201 258//193
f 260//195 268//203 267//202 259//194
f 261//196 269//204 268//203 260//195
f 262//197 270//205 269//204 261//196
f 263//198 271//206 270//205 262//197
f 264//192 272//200 271//206 263//198
f 265//199 273//207 280//208 272//200
f 266//201 274//209 273//207 265//199
f 267//202 275//210 274//209 266//201
f 268//203 276//211 275//210 267//202
f 269//204 277//212 276//211 268//203
f 270//205 278//213 277//212 269//204
f 271//206 279//214 278//213 270//205
f 272//200 280//208 279//214 271//206
f 273//207 281//215 288//216 280//208
f 274//209 282//217 281//215 273//207
f 275//210 283//218 282//217 274//209
f 276//211 284//219 283//218 275//210
f 277//212 285//220 284//219 276//211
f 278//213 286//221 285//220 277//212
f 279//214 287//222 286//221 278//213
f 280//208 288//216 287//222 279//214
f 281//215 289//223 296//224 288//216
f 282//217 290//225 289//223 281//215
f 283//218 291//226 290//225 282//217
f 284//219 292//227 291//226 283//218
f 285//220 293//228 292//227 284//219
f 286//221 294//229 293//228 285//220
f 287//222 295//230 294//229 286//221
f 288//216 296//224 295//230 287//222
f 289//223 297//231 304//232 296//224
f 290//225 298//233 297//231 289//223
f 291//226 299//116 298//233 290//225
f 292//227 300//234 299//116 291//226
f 293//228 301//235 300//234 292//227
f 294//229 302//236 301//235 293//228
f 295//230 303//120 302//236 294//229
f 296//224 304//232 303//120 295//230
f 297//231 305//231 312//232 304//232
f 298//233 306//233 305//231 297//231
f 299//116 307//116 306//233 298//233
f 300//234 308//234 307//116 299//116
f 301//235 309//235 308//234 300//234
f 302//236 310//236 309//235 301//235
f 303//120 311//120 310//236 302//236
f 304//232 312//232 311//120 303//120
f 305//231 313//231 320//232 312//232
f 306//233 314//233 313//231 305//231
f 307//116 315//116 314//233 306//233
f 308//234 316//234 315//116 307//116
f 309//235 317//235 316//234 308//234
f 310//236 318//236 317//235 309//235
f 311//120 319//120 318//236 310//236
f 312//232 320//232 319//120 311//120
f 313//231 321//231 328//232 320//232
f 314//233 322//233 321//231 313//231
f 315//116 323//116 322//233 314//233
f 316//234 324//234 323//116 315//116
f 317//235 325//235 324//234 316//234
f 318//236 326//236 325//235 317//235
f 319//120 327//120 326//236 318//236
f 320//232 328//232 327//120 319//120
f 321//231 329//231 336//232 328//232
f 322//233 330//233 329//231 321//231
f 323//116 331//116 330//233 322//233
f 324//234 332//234 331//116 323//116
f 325//235 333//235 332//234 324//234
f 326//236 334//236 333//235 325//235
f 327//120 335//120 334//236 326//236
f 328//232 336//232 335//120 327//120
f 329//231 337//231 344//232 336//232
f 330//233 338//233 337//231 329//231
f 331//116 339//116 338//233 330//233
f 332//234 340//234 339//116 331//116
f 333//235 341//235 340//234 332//234
f 334//236 342//236 341//235 333//235
f 335//120 343//120 342//236 334//236
f 336//232 344//232 343//120 335//120
f 337//231 345//231 352//232 344//232
f 338//233 346//233 345//231 337//231
f 339//116 347//116 346//233 338//233
f 340//234 348//234 347//116 339//116
f 341//235 349//235 348//234 340//234
f 342//236 350//236 349//235 341//235
f 343//120 351//120 350//236 342//236
f 344//232 352//232 351//120 343//120
f 345//231 353//231 360//232 352//232
f 346//233 354//233 353//231 345//231
f 347//116 355//116 354//233 346//233
f 348//234 356//234 355//116 347//116
f 349//235 357//235 356//234 348//234
f 350//236 358//236 357//235 349//235
f 351//120 359//120 358//236 350//236
f 352//232 360//232 359//120 351//120
f 353//231 361//231 368//232 360//232
f 354//233 362//233 361//231 353//231
f 355//116 363//116 362//233 354//233
f 356//234 364//234 363//116 355//116
f 357//235 365//235 364//234 356//234
f 358//236 366//236 365//235 357//235
f 359//120 367//120 366//236 358//236
f 360//232 368//232 367//120 359//120
f 361//231 369//231 376//232 368//232
f 362//233 370//233 369//231 361//231
f 363//116 371//116 370//233 362//233
f 364//234 372//234 371//116 363//116
f 365//235 373//235 372//234 364//234
f 366//236 374//236 373//235 365//235
f 367//120 375//120 374//236 366//236
f 368//232 376//232 375//120 367//120
f 369//231 377//231 384//232 376//232
f 370//233 378//233 377//231 369//231
f 371//116 379//116 378//233 370//233
f 372//234 380//234 379//116 371//116
f 373//235 381//235 380//234 372//234
f 374//236 382//236 381//235 373//235
f 375//120 383//120 382//236 374//236
f 376//232 384//232 383//120 375//120
f 377//231 385//231 392//232 384//232
f 378//233 386//233 385//231 377//231
f 379//116 387//116 386//233 378//233
f 380//234 388//234 387//116 379//116
f 381//235 389//235 388//234 380//234
f 382//236 390//236 389//235 381//235
f 383//120 391//120 390//236 382//236
f 384//232 392//232 391//120 383//120
f 385//231 393//231 400//232 392//232
f 386//233 394//233 393//231 385//231
f 387//116 395//116 394//233 386//233
f 388//234 396//234 395//116 387//116
f 389//235 397//235 396//234 388//234
f 390//236 398//236 397//235 389//235
f 391//120 399//120 398//236 390//236
f 392//232 400//232 399//120 391//120
f 393//231 401//231 408//232 400//232
f 394//233 402//233 401//231 393//231
f 395//116 403//116 402//233 394//233
f 396//234 404//234 403//116 395//116
f 397//235 405//235 404//234 396//234
f 398//236 406//236 405//235 397//235
f 399//120 407//120 406//236 398//236
f 400//232 408//232 407//120 399//120
f 401//231 409//231 416//232 408//232
f 402//233 410//233 409//231 401//231
f 403//116 411//116 410//233 402//233
f 404//234 412//234 411//116 403//116
f 405//235 413//235 412//234 404//234
f 406//236 414//236 413//235 405//235
f 407//120 415//120 414//236 406//236
f 408//232 416//232 415//120 407//120
f 409//231 417//231 424//232 416//232
f 410//233 418//233 417//231 409//231
f 411//116 419//116 418//233 410//233
f 412//234 420//234 419//116 411//116
f 413//235 421//235 420//234 412//234
f 414//236 422//236 421//235 413//235
f 415//120 423//120 422//236 414//236
f 416//232 424//232 423//120 415//120
f 417//231 425//231 432//232 424//232
f 418//233 426//233 425//231 417//231
f 419//116 427//116 426//233 418//233
f 420//234 428//234 427//116 419//116
f 421//235 429//235 428//234 420//234
f 422//236 430//236 429//235 421//235
f 423//120 431//120 430//236 422//236
f 424//232 432//232 431//120 423//120
f 425//231 433//231 440//232 432//232
f 426//233 434//233 433//231 425//231
f 427//116 435//116 434//233 426//233
f 428//234 436//234 435//116 427//116
f 429//235 437//235 436//234 428//234
f 430//236 438//236 437//235 429//235
f 431//120 439//120 438//236 430//236
f 432//232 440//232 439//120 431//120
f 433//231 441//231 448//232 440//232
f 434//233 442//233 441//231 433//231
f 435//116 443//116 442//233 434//233
f 436//234 444//234 443//116 435//116
f 437//235 445//235 444//234 436//234
f 438//236 446//236 445//235 437//235
f 439//120 447//120 446//236 438//236
f 440//232 448//232 447//120 439//120
f 441//231 449//231 456//232 448//232
f 442//233 450//233 449//231 441//231
f 443//116 451//116 450//233 442//233
f 444//234 452//234 451//116 443//116
f 445//235 453//235 452//234 444//234
f 446//236 454//236 453//235 445//235
f 447//120 455//120 454//236 446//236
f 448//232 456//232 455//120 447//120
f 449//231 457//231 464//232 456//232
f 450//233 458//233 457//231 449//231
f 451//116 459//116 458//233 450//233
f 452//234 460//234 459//116 451//116
f 453//235 461//235 460//234 452//234
f 454//236 462//236 461//235 453//235
f 455//120 463//120 462//236 454//236
f 456//232 464//232 463//120 455//120
f 457//231 465//231 472//232 464//232
f 458//233 466//233 465//231 457//231
f 459//116 467//116 466//233 458//233
f 460//234 468//234 467//116 459//116
f 461//235 469//235 468//234 460//234
f 462//236 470//236 469//235 461//235
f 463//120 471//120 470//236 462//236
f 464//232 472//232 471//120 463//120
f 465//231 473//231 480//232 472//232
f 466//233 474//233 473//231 465//231
f 467//116 475//116 474//233 466//233
f 468//234 476//234 475//116 467//116
f 469//235 477//235 476//234 468//234
f 470//236 478//236 477//235 469//235
f 471//120 479//120 478//236 470//236
f 472//232 480//232 479//120 471//120
f 473//231 481//237 488//238 480//232
f 474//233 482//239 481//237 473//231
f 475//116 483//240 482//239 474//233
f 476//234 484//241 483//240 475//116
f 477//235 485//242 484//241 476//234
f 478//236 486//243 485//242 477//235
f 479//120 487//244 486//243 478//236
f 480//232 488//238 487//244 479//120
f 481//237 489//245 496//246 488//238
f 482//239 490//247 489//245 481//237
f 483//240 491//248 490//247 482//239
f 484//241 492//249 491//248 483//240
f 485//242 493//250 492//249 484//241
f 486//243 494//251 493//250 485//242
f 487//244 495//252 494//251 486//243
f 488//238 496//246 495//252 487//244
f 489//245 497//253 504//254 496//246
f 490//247 498//255 497//253 489//245
f 491//248 499//256 498//255 490//247
f 492//249 500//257 499//256 491//248
f 493//250 501//258 500//257 492//249
f 494//251 502//259 501//258 493//250
f 495//252 503//260 502//259 494//251
f 496//246 504//254 503//260 495//252
f 497//253 505//261 512//262 504//254
f 498//255 506//263 505//261 497//253
f 499//256 507//264 506//263 498//255
f 500//257 508//265 507//264 499//256
f 501//258 509//266 508//265 500//257
f 502//259 510//267 509//266 501//258
f 503//260 511//268 510//267 502//259
f 504//254 512//262 511//268 503//260
f 505//261 513//269 520//270 512//262
f 506//263 514//271 513//269 505//261
f 507//264 515//272 514//271 506//263
f 508//265 516//273 515//272 507//264
f 509//266 517//274 516//273 508//265
f 510//267 518//275 517//274 509//266
f 511//268 519//276 518//275 510//267
f 512//262 520//270 519//276 511//268
f 513//269 521//277 528//278 520//270
f 514//271 522//279 521//277 513//269
f 515//272 523//280 522//279 514//271
f 516//273 524//281 523//280 515//272
f 517//274 525//282 524//281 516//273
f 518//275 526//283 525//282 517//274
f 519//276 527//284 526//283 518//275
f 520//270 528//278 527//284 519//276
f 521//277 529//285 536//286 528//278
f 522//279 530//287 529//285 521//277
f 523//280 531//288 530//287 522//279
f 524//281 532//289 531//288 523//280
f 525//282 533//290 532//289 524//281
f 526//283 534//291 533//290 525//282
f 527//284 535//292 534//291 526//283
f 528//278 536//286 535//292 527//284
f 529//285 537//293 544//294 536//286
f 530//287 538//295 537//293 529//285
f 531//288 539//296 538//295 530//287
f 532//289 540//297 539//296 531//288
f 533//290 541//298 540//297 532//289
f 534//291 542//299 541//298 533//290
f 535//292 543//300 542//299 534//291
f 536//286 544//294 543//300 535//292
f 537//293 545//301 552//302 544//294
f 538//295 546//303 545//301 537//293
f 539//296 547//304 546//303 538//295
f 540//297 548//305 547//304 539//296
f 541//298 549//306 548//305 540//297
f 542//299 550//307 549//306 541//298
f 543//300 551//308 550//307 542//299
f 544//294 552//302 551//308 543//300
f 545//301 553//309 560//310 552//302
f 546//303 554//311 553//309 545//301
f 547//304 555//312 554//311 546//303
f 548//305 556//313 555//312 547//304
f 549//306 557//314 556//313 548//305
f 550//307 558//315 557//314 549//306
f 551//308 559//316 558//315 550//307
f 552//302 560//310 559//316 551//308
f 553//309 561//317 568//318 560//310
f 554//311 562//319 561//317 553//309
f 555//312 563//320 562//319 554//311
f 556//313 564//321 563//320 555//312
f 557//314 565//322 564//321 556//313
f 558//315 566//323 565//322 557//314
f 559//316 567//324 566//323 558//315
f 560//310 568//318 567//324 559//316
f 561//317 569//325 576//326 568//318
f 562//319 570//327 569//325 561//317
f 563//320 571//328 570//327 562//319
f 564//321 572//329 571//328 563//320
f 565//322 573//330 572//329 564//321
f 566//323 574//331 573//330 565//322
f 567//324 575//332 574//331 566//323
f 568//318 576//326 575//332 567//324
f 569//325 577//333 584//334 576//326
f 570//327 578//335 577//333 569//325
f 571//328 579//336 578//335 570//327
f 572//329 580//337 579//336 571//328
f 573//330 581//338 580//337 572//329
f 574//331 582//339 581//338 573//330
f 575//332 583//340 582//339 574//331
f 576//326 584//334 583//340 575//332
f 577//333 585//341 592//342 584//334
f 578//335 586//343 585//341 577//333
f 579//336 587//344 586//343 578//335
f 580//337 588//345 587//344 579//336
f 581//338 589//346 588//345 580//337
f 582//339 590//347 589//346 581//338
f 583//340 591//348 590//347 582//339
f 584//334 592//342 591//348 583//340
f 585//341 593//349 600//350 592//342
f 586//343 594//351 593//349 585//341
f 587//344 595//352 594//351 586//343
f 588//345 596//353 595//352 587//344
f 589//346 597//346 596//353 588//345
f 590//347 598//354 597//346 589//346
f 591//348 599//355 598//354 590//347
f 592//342 600//350 599//355 591//348
f 593//349 601//349 608//350 600//350
f 594//351 602//351 601//349 593//349
f 595//352 603//352 602//351 594//351
f 596//353 604//353 603//352 595//352
f 597//346 605//346 604//353 596//353
f 598//354 606//354 605//346 597//346
f 599//355 607//356 606//354 598//354
f 600//350 608//350 607//356 599//355
f 601//349 609//349 616//350 608//350
f 602//351 610//351 609//349 601//349
f 603//352 611//357 610//351 602//351
f 604//353 612//353 611//357 603//352
f 605//346 613//358 612//353 604//353
f 606//354 614//354 613//358 605//346
f 607//356 615//356 614//354 606//354
f 608//350 616//350 615//356 607//356
f 609//349 617//349 624//350 616//350
f 610//351 618//351 617//349 609//349
f 611//357 619//352 618//351 610//351
f 612//353 620//353 619//352 611//357
f 613//358 621//358 620//353 612//353
f 614//354 622//354 621//358 613//358
f 615//356 623//356 622//354 614//354
f 616//350 624//350 623//356 615//356
f 617//349 625//341 632//342 624//350
f 618//351 626//351 625//341 617//349
f 619//352 627//352 626//351 618//351
f 620//353 628//359 627//352 619//352
f 621//358 629//358 628//359 620//353
f 622//354 630//354 629//358 621//358
f 623//356 631//355 630//354 622//354
f 624//350 632//342 631//355 623//356
f 625//341 633//349 640//342 632//342
f 626//351 634//351 633//349 625//341
f 627//352 635//352 634//351 626//351
f 628//359 636//359 635//352 627//352
f 629//358 637//358 636//359 628//359
f 630//354 638//354 637//358 629//358
f 631//355 639//355 638//354 630//354
f 632//342 640//342 639//355 631//355
f 633//349 641//349 648//350 640//342
f 634//351 642//351 641//349 633//349
f 635//352 643//352 642//351 634//351
f 636//359 644//359 643//352 635//352
f 637//358 645//358 644//359 636//359
f 638//354 646//354 645//358 637//358
f 639//355 647//355 646//354 638//354
f 640//342 648//350 647//355 639//355
f 641//349 649//349 656//350 648//350
f 642//351 650//351 649//349 641//349
f 643//352 651//352 650//351 642//351
f 644//359 652//359 651//352 643//352
f 645//358 653//358 652//359 644//359
f 646//354 654//354 653//358 645//358
f 647//355 655//355 654//354 646//354
f 648//350 656//350 655//355 647//355
f 649//349 657//341 664//342 656//350
f 650//351 658//351 657//341 649//349
f 651//352 659//352 658//351 650//351
f 652//359 660//359 659//352 651//352
f 653//358 661//358 660//359 652//359
f 654//354 662//354 661//358 653//358
f 655//355 663//355 662//354 654//354
f 656//350 664//342 663//355 655//355
f 657//341 665//360 672//361 664//342
f 658//351 666//362 665//360 657//341
f 659//352 667//363 666//362 658//351
f 660//359 668//364 667//363 659//352
f 661//358 669//365 668//364 660//359
f 662//354 670//366 669//365 661//358
f 663//355 671//367 670//366 662//354
f 664//342 672//361 671//367 663//355
f 665//360 673//368 680//369 672//361
f 666//362 674//370 673//368 665//360
f 667//363 675//371 674//370 666//362
f 668//364 676//372 675//371 667//363
f 669//365 677//373 676//372 668//364
f 670//366 678//374 677//373 669//365
f 671//367 679//375 678//374 670//366
f 672//361 680//369 679//375 671//367
f 673//368 681//376 688//377 680//369
f 674//370 682//378 681//376 673//368
f 675//371 683//379 682//378 674//370
f 676//372 684//380 683//379 675//371
f 677//373 685//381 684//380 676//372
f 678//374 686//382 685//381 677//373
f 679//375 687//383 686//382 678//374
f 680//369 688//377 687//383 679//375
f 681//376 689//384 696//385 688//377
f 682//378 690//386 689//384 681//376
f 683//379 691//387 690//386 682//378
f 684//380 692//388 691//387 683//379
f 685//381 693//389 692//388 684//380
f 686//382 694//390 693//389 685//381
f 687//383 695//391 694//390 686//382
f 688//377 696//385 695//391 687//383
f 689//384 697//392 704//393 696//385
f 690//386 698//394 697//392 689//384
f 691//387 699//395 698//394 690//386
f 692//388 700//396 699//395 691//387
f 693//389 701//397 700//396 692//388
f 694//390 702//398 701//397 693//389
f 695//391 703//399 702//398 694//390
f 696//385 704//393 703//399 695//391
f 697//392 705//400 712//401 704//393
f 698//394 706//402 705//400 697//392
f 699//395 707//403 706//402 698//394
f 700//396 708//404 707//403 699//395
f 701//397 709//405 708//404 700//396
f 702//398 710//406 709//405 701//397
f 703//399 711//407 710//406 702//398
f 704//393 712//401 711//407 703//399
f 705//400 713//408 720//409 712//401
f 706//402 714//410 713//408 705//400
f 707//403 715//411 714//410 706//402
f 708//404 716//412 715//411 707//403
f 709//405 717//413 716//412 708//404
f 710//406 718//414 717//413 709//405
f 711//407 719//415 718//414 710//406
f 712//401 720//409 719//415 711//407
f 713//408 721//416 728//417 720//409
f 714//410 722//418 721//416 713//408
f 715//411 723//419 722//418 714//410
f 716//412 724//420 723//419 715//411
f 717//413 725//421 724//420 716//412
f 718//414 726//422 725//421 717//413
f 719//415 727//423 726//422 718//414
f 720//409 728//417 727//423 719//415
f 721//416 729//424 736//425 728//417
f 722//418 730//426 729//424 721//416
f 723//419 731//427 730//426 722//418
f 724//420 732//428 731//427 723//419
f 725//421 733//429 732//428 724//420
f 726//422 734//430 733//429 725//421
f 727//423 735//431 734//430 726//422
f 728//417 736//425 735//431 727//423
f 729//424 737//432 744//433 736//425
f 730//426 738//434 737//432 729//424
f 731//427 739//435 738//434 730//426
f 732//428 740//436 739//435 731//427
f 733//429 741//437 740//436 732//428
f 734//430 742//438 741//437 733//429
f 735//431 743//439 742//438 734//430
f 736//425 744//433 743//439 735//431
f 737//432 745//440 752//441 744//433
f 738//434 746//442 745//440 737//432
f 739//435 747//443 746//442 738//434
f 740//436 748//444 747//443 739//435
f 741//437 749//445 748//444 740//436
f 742//438 750//446 749//445 741//437
f 743//439 751//447 750//446 742//438
f 744//433 752//441 751//447 743//439
f 745//440 753//448 760//449 752//441
f 746//442 754//450 753//448 745//440
f 747//443 755//451 754//450 746//442
f 748//444 756//452 755//451 747//443
f 749//445 757//453 756//452 748//444
f 750//446 758//454 757//453 749//445
f 751//447 759//455 758//454 750//446
f 752//441 760//449 759//455 751//447
f 753//448 761//456 768//457 760//449
f 754//450 762//458 761//456 753//448
f 755//451 763//459 762//458 754//450
f 756//452 764//460 763//459 755//451
f 757//453 765//461 764//460 756//452
f 758//454 766//462 765//461 757//453
f 759//455 767//463 766//462 758//454
f 760//449 768//457 767//463 759//455
f 761//456 769//464 776//465 768//457
f 762//458 770//466 769//464 761//456
f 763//459 771//467 770//466 762//458
f 764//460 772//468 771//467 763//459
f 765//461 773//469 772//468 764//460
f 766//462 774//470 773//469 765//461
f 767//463 775//471 774//470 766//462
f 768//457 776//465 775//471 767//463
f 769//464 777//472 784//473 776//465
f 770//466 778//474 777//472 769//464
f 771//467 779//475 778//474 770//466
f 772//468 780//476 779//475 771//467
f 773//469 781//477 780//476 772//468
f 774//470 782//478 781//477 773//469
f 775//471 783//479 782//478 774//470
f 776//465 784//473 783//479 775//471
f 777//472 785//480 792//481 784//473
f 778//474 786//482 785//480 777//472
f 779//475 787//483 786//482 778//474
f 780//476 788//484 787//483 779//475
f 781//477 789//485 788//484 780//476
f 782//478 790//486 789//485 781//477
f 783//479 791//487 790//486 782//478
f 784//473 792//481 791//487 783//479
f 785//480 793//488 800//489 792//481
f 786//482 794//490 793//488 785//480
f 787//483 795//491 794//490 786//482
f 788//484 796//492 795//491 787//483
f 789//485 797//493 796//492 788//484
f 790//486 798//494 797//493 789//485
f 791//487 799//495 798//494 790//486
f 792//481 800//489 799//495 791//487
f 793//488 801//496 808//497 800//489
f 794//490 802//498 801//496 793//488
f 795//491 803//499 802//498 794//490
f 796//492 804//500 803//499 795//491
f 797//493 805//501 804//500 796//492
f 798//494 806//502 805//501 797//493
f 799//495 807//503 806//502 798//494
f 800//489 808//497 807//503 799//495
f 801//496 809//504 816//505 808//497
f 802//498 810//506 809//504 801//496
f 803//499 811//507 810//506 802//498
f 804//500 812//508 811//507 803//499
f 805//501 813//509 812//508 804//500
f 806//502 814//510 813//509 805//501
f 807//503 815//511 814//510 806//502
f 808//497 816//505 815//511 807//503
f 809//504 817//512 824//513 816//505
f 810//506 818//514 817//512 809//504
f 811//507 819//515 818//514 810//506
f 812//508 820//516 819//515 811//507
f 813//509 821//517 820//516 812//508
f 814//510 822//518 821//517 813//509
f 815//511 823//519 822//518 814//510
f 816//505 824//513 823//519 815//511
f 817//512 825//520 832//521 824//513
f 818//514 826//522 825//520 817//512
f 819//515 827//523 826//522 818//514
f 820//516 828//524 827//523 819//515
f 821//517 829//525 828//524 820//516
f 822//518 830//526 829//525 821//517
f 823//519 831//527 830//526 822//518
f 824//513 832//521 831//527 823//519
f 825//520 833//528 840//529 832//521
f 826//522 834//530 833//528 825//520
f 827//523 835//531 834//530 826//522
f 828//524 836//532 835//531 827//523
f 829//525 837//533 836//532 828//524
f 830//526 838//534 837//533 829//525
f 831//527 839//535 838//534 830//526
f 832//521 840//529 839//535 831//527
f 833//528 841//536 848//537 840//529
f 834//530 842//538 841//536 833//528
f 835//531 843//539 842//538 834//530
f 836//532 844//540 843//539 835//531
f 837//533 845//541 844//540 836//532
f 838//534 846//542 845//541 837//533
f 839//535 847//543 846//542 838//534
f 840//529 848//537 847//543 839//535
f 841//536 849//544 856//545 848//537
f 842//538 850//546 849//544 841//536
f 843//539 851//547 850//546 842//538
f 844//540 852//548 851//547 843//539
f 845//541 853//549 852//548 844//540
f 846//542 854//550 853//549 845//541
f 847//543 855//551 854//550 846//542
f 848//537 856//545 855//551 847//543
f 849//544 857//552 864//553 856//545
f 850//546 858//554 857//552 849//544
f 851//547 859//555 858//554 850//546
f 852//548 860//556 859//555 851//547
f 853//549 861//557 860//556 852//548
f 854//550 862//558 861//557 853//549
f 855//551 863//559 862//558 854//550
f 856//545 864//553 863//559 855//551
f 857//552 865//560 872//561 864//553
f 858//554 866//562 865//560 857//552
f 859//555 867//563 866//562 858//554
f 860//556 868//564 867//563 859//555
f 861//557 869//565 868//564 860//556
f 862//558 870//566 869//565 861//557
f 863//559 871//567 870//566 862//558
f 864//553 872//561 871//567 863//559
f 865//560 873//568 880//569 872//561
f 866//562 874//570 873//568 865//560
f 867//563 875//571 874//570 866//562
f 868//564 876//572 875//571 867//563
f 869//565 877//573 876//572 868//564
f 870//566 878//574 877//573 869//565
f 871//567 879//575 878//574 870//566
f 872//561 880//569 879//575 871//567
f 873//568 881//576 888//577 880//569
f 874//570 882//578 881//576 873//568
f 875//571 883//579 882//578 874//570
f 876//572 884//580 883//579 875//571
f 877//573 885//581 884//580 876//572
f 878//574 886//582 885//581 877//573
f 879//575 887//583 886//582 878//574
f 880//569 888//577 887//583 879//575
f 881//576 889//584 896//585 888//577
f 882//578 890//586 889//584 881//576
f 883//579 891//587 890//586 882//578
f 884//580 892//588 891//587 883//579
f 885//581 893//589 892//588 884//580
f 886//582 894//590 893//589 885//581
f 887//583 895//591 894//590 886//582
f 888//577 896//585 895//591 887//583
f 889//584 897//592 904//593 896//585
f 890//586 898//594 897//592 889//584
f 891//587 899//595 898//594 890//586
f 892//588 900//596 899//595 891//587
f 893//589 901//597 900//596 892//588
f 894//590 902//598 901//597 893//589
f 895//591 903//599 902//598 894//590
f 896//585 904//593 903//599 895//591
f 897//592 905//600 912//601 904//593
f 898//594 906//602 905//600 897//592
f 899//595 907//603 906//602 898//594
f 900//596 908//604 907//603 899//595
f 901//597 909//605 908//604 900//596
f 902//598 910//606 909//605 901//597
f 903//599 911//607 910//606 902//598
f 904//593 912//601 911//607 903//599
f 905//600 913//608 920//609 912//601
f 906//602 914//610 913//608 905//600
f 907//603 915//611 914//610 906//602
f 908//604 916//612 915//611 907//603
f 909//605 917//613 916//612 908//604
f 910//606 918//614 917//613 909//605
f 911//607 919//615 918//614 910//606
f 912//601 920//609 919//615 911//607
f 913//608 921//616 928//617 920//609
f 914//610 922//618 921//616 913//608
f 915//611 923//619 922//618 914//610
f 916//612 924//620 923//619 915//611
f 917//613 925//621 924//620 916//612
f 918//614 926//622 925//621 917//613
f 919//615 927//623 926//622 918//614
f 920//609 928//617 927//623 919//615
f 921//616 929//624 936//625 928//617
f 922//618 930//626 929//624 921//616
f 923//619 931//627 930//626 922//618
f 924//620 932//628 931//627 923//619
f 925//621 933//629 932//628 924//620
f 926//622 934//630 933//629 925//621
f 927//623 935//631 934//630 926//622
f 928//617 936//625 935//631 927//623
f 929//624 937//632 944//633 936//625
f 930//626 938//634 937//632 929//624
f 931//627 939//635 938//634 930//626
f 932//628 940//636 939//635 931//627
f 933//629 941//637 940//636 932//628
f 934//630 942//638 941//637 933//629
f 935//631 943//639 942//638 934//630
f 936//625 944//633 943//639 935//631
f 937//632 945//640 952//641 944//633
f 938//634 946//642 945//640 937//632
f 939//635 947//643 946//642 938//634
f 940//636 948//644 947//643 939//635
f 941//637 949//645 948//644 940//636
f 942//638 950//646 949//645 941//637
f 943//639 951//647 950//646 942//638
f 944//633 952//641 951//647 943//639
f 945//640 953//648 960//649 952//641
f 946//642 954//650 953//648 945//640
f 947//643 955//651 954//650 946//642
f 948//644 956//652 955//651 947//643
f 949//645 957//653 956//652 948//644
f 950//646 958//654 957//653 949//645
f 951//647 959//655 958//654 950//646
f 952//641 960//649 959//655 951//647
f 953//648 961//656 968//657 960//649
f 954//650 962//658 961//656 953//648
f 955//651 963//659 962//658 954//650
f 956//652 964//660 963//659 955//651
f 957//653 965//661 964//660 956//652
f 958//654 966//662 965//661 957//653
f 959//655 967//663 966//662 958//654
f 960//649 968//657 967//663 959//655
f 961//656 969//664 976//665 968//657
f 962//658 970//666 969//664 961//656
f 963//659 971//667 970//666 962//658
f 964//660 972//668 971//667 963//659
f 965//661 973//669 972//668 964//660
f 966//662 974//670 973//669 965//661
f 967//663 975//671 974//670 966//662
f 968//657 976//665 975//671 967//663
f 969//664 977//672 984//673 976//665
f 970//666 978//674 977//672 969//664
f 971//667 979//675 978//674 970//666
f 972//668 980//676 979//675 971//667
f 973//669 981//677 980//676 972//668
f 974//670 982//678 981//677 973//669
f 975//671 983//679 982//678 974//670
f 976//665 984//673 983//679 975//671
f 977//672 985//680 992//681 984//673
f 978//674 986//682 985//680 977//672
f 979//675 987//683 986//682 978//674
f 980//676 988//684 987//683 979//675
f 981//677 989//685 988//684 980//676
f 982//678 990//686 989//685 981//677
f 983//679 991//687 990//686 982//678
f 984//673 992//681 991//687 983//679
f 985//680 993//688 1000//689 992//681
f 986//682 994//690 993//688 985//680
f 987//683 995//691 994//690 986//682
f 988//684 996//692 995//691 987//683
f 989//685 997//693 996//692 988//684
f 990//686 998//694 997//693 989//685
f 991//687 999//695 998//694 990//686
f 992//681 1000//689 999//695 991//687
f 993//688 1001//696 1008//697 1000//689
f 994//690 1002//698 1001//696 993//688
f 995//691 1003//699 1002//698 994//690
f 996//692 1004//700 1003//699 995//691
f 997//693 1005//701 1004//700 996//692
f 998//694 1006//702 1005//701 997//693
f 999//695 1007//703 1006//702 998//694
f 1000//689 1008//697 1007//703 999//695
f 1001//696 1009//704 1016//705 1008//697
f 1002//698 1010//706 1009//704 1001//696
f 1003//699 1011//707 1010//706 1002//698
f 1004//700 1012//708 1011//707 1003//699
f 1005//701 1013//709 1012//708 1004//700
f 1006//702 1014//710 1013//709 1005//701
f 1007//703 1015//711 1014//710 1006//702
f 1008//697 1016//705 1015//711 1007//703
f 1009//704 1017//712 1024//713 1016//705
f 1010//706 1018//714 1017//712 1009//704
f 1011//707 1019//715 1018//714 1010//706
f 1012//708 1020//716 1019//715 1011//707
f 1013//709 1021//717 1020//716 1012//708
f 1014//710 1022//718 1021//717 1013//709
f 1015//711 1023//719 1022//718 1014//710
f 1016//705 1024//713 1023//719 1015//711
f 1017//712 1025//720 1032//721 1024//713
f 1018//714 1026//722 1025//720 1017//712
f 1019//715 1027//723 1026//722 1018//714
f 1020//716 1028//724 1027//723 1019//715
f 1021//717 1029//725 1028//724 1020//716
f 1022//718 1030//726 1029//725 1021//717
f 1023//719 1031//727 1030//726 1022//718
f 1024//713 1032//721 1031//727 1023//719
f 1025//720 1033//728 1040//729 1032//721
f 1026//722 1034//730 1033//728 1025//720
f 1027//723 1035//731 1034//730 1026//722
f 1028//724 1036//732 1035//731 1027//723
f 1029//725 1037//733 1036//732 1028//724
f 1030//726 1038//734 1037//733 1029//725
f 1031//727 1039//735 1038//734 1030//726
f 1032//721 1040//729 1039//735 1031//727
f 1033//728 1041//736 1048//737 1040//729
f 1034//730 1042//738 1041//736 1033//728
f 1035//731 1043//739 1042//738 1034//730
f 1036//732 1044//740 1043//739 1035//731
f 1037//733 1045//741 1044//740 1036//732
f 1038//734 1046//742 1045//741 1037//733
f 1039//735 1047//743 1046//742 1038//734
f 1040//729 1048//737 1047//743 1039//735
f 1041//736 1049//744 1056//745 1048//737
f 1042//738 1050//746 1049//744 1041//736
f 1043//739 1051//747 1050//746 1042//738
f 1044//740 1052//748 1051//747 1043//739
f 1045//741 1053//749 1052//748 1044//740
f 1046//742 1054//750 1053//749 1045//741
f 1047//743 1055//751 1054//750 1046//742
f 1048//737 1056//745 1055//751 1047//743
f 1049//744 1057//752 1064//753 1056//745
f 1050//746 1058//754 1057//752 1049//744
f 1051//747 1059//755 1058//754 1050//746
f 1052//748 1060//756 1059//755 1051//747
f 1053//749 1061//757 1060//756 1052//748
f 1054//750 1062//758 1061//757 1053//749
f 1055//751 1063//759 1062//758 1054//750
f 1056//745 1064//753 1063//759 1055//751
