# Blender v2.79 (sub 0) OBJ File: 'FirstRoom.blend'
# www.blender.org
v 2.830076 0.798655 -18.616901
v 2.841915 0.827227 -18.616901
v 2.870486 0.839065 -18.616901
v 2.899058 0.827227 -18.616901
v 2.910897 0.798655 -18.616901
v 2.899058 0.770084 -18.616901
v 2.870486 0.758245 -18.616901
v 2.841915 0.770084 -18.616901
v 2.830077 0.783717 -18.684832
v 2.841915 0.809748 -18.696609
v 2.870486 0.820534 -18.701488
v 2.899058 0.809748 -18.696609
v 2.910896 0.783717 -18.684832
v 2.899058 0.757685 -18.673054
v 2.870486 0.746900 -18.668175
v 2.841915 0.757685 -18.673054
v 2.830076 0.742417 -18.741089
v 2.841915 0.762773 -18.761139
v 2.870486 0.771207 -18.769445
v 2.899058 0.762773 -18.761139
v 2.910897 0.742417 -18.741089
v 2.899058 0.722061 -18.721039
v 2.870486 0.713627 -18.712732
v 2.841915 0.722061 -18.721039
v 2.830076 0.680027 -18.788364
v 2.841915 0.695339 -18.812487
v 2.870486 0.701683 -18.822481
v 2.899058 0.695339 -18.812487
v 2.910897 0.680027 -18.788364
v 2.899058 0.664715 -18.764242
v 2.870486 0.658371 -18.754248
v 2.841915 0.664715 -18.764242
v 2.830076 0.601820 -18.829351
v 2.841915 0.614008 -18.855192
v 2.870486 0.619059 -18.865900
v 2.899058 0.614008 -18.855192
v 2.910897 0.601820 -18.829351
v 2.899058 0.589631 -18.803511
v 2.870486 0.584581 -18.792803
v 2.841915 0.589631 -18.803511
v 2.830076 0.513068 -18.866743
v 2.841915 0.523784 -18.893229
v 2.870486 0.528224 -18.904203
v 2.899058 0.523784 -18.893229
v 2.910897 0.513068 -18.866743
v 2.899058 0.502352 -18.840258
v 2.870486 0.497912 -18.829283
v 2.841915 0.502352 -18.840258
v 2.830076 0.419044 -18.903231
v 2.841915 0.429599 -18.929781
v 2.870486 0.433972 -18.940783
v 2.899058 0.429599 -18.929781
v 2.910897 0.419044 -18.903231
v 2.899058 0.408489 -18.876680
v 2.870486 0.404115 -18.865679
v 2.841915 0.408489 -18.876680
v 2.830076 0.325020 -18.941507
v 2.841915 0.336612 -18.967621
v 2.870486 0.341415 -18.978441
v 2.899058 0.336612 -18.967621
v 2.910897 0.325020 -18.941507
v 2.899058 0.313427 -18.915394
v 2.870486 0.308624 -18.904573
v 2.841915 0.313427 -18.915394
v 2.830076 0.236268 -18.984266
v 2.841915 0.250181 -19.009222
v 2.870486 0.255946 -19.019562
v 2.899058 0.250181 -19.009222
v 2.910897 0.236268 -18.984266
v 2.899058 0.222355 -18.959311
v 2.870486 0.216590 -18.948971
v 2.841915 0.222355 -18.959311
v 2.830076 0.158061 -19.034201
v 2.841915 0.175719 -19.056664
v 2.870486 0.183035 -19.065969
v 2.899058 0.175719 -19.056664
v 2.910897 0.158061 -19.034201
v 2.899058 0.140403 -19.011738
v 2.870486 0.133086 -19.002432
v 2.841915 0.140403 -19.011738
v 2.830076 0.095671 -19.094002
v 2.841915 0.118197 -19.111578
v 2.870486 0.127530 -19.118860
v 2.899058 0.118197 -19.111578
v 2.910897 0.095671 -19.094002
v 2.899058 0.073145 -19.076426
v 2.870486 0.063812 -19.069143
v 2.841915 0.073145 -19.076426
v 2.830076 0.054371 -19.166363
v 2.841915 0.081271 -19.175993
v 2.870486 0.092416 -19.179981
v 2.899058 0.081271 -19.175993
v 2.910897 0.054370 -19.166363
v 2.899058 0.027470 -19.156733
v 2.870486 0.016325 -19.152744
v 2.841915 0.027470 -19.156733
v 2.830076 0.039432 -19.253977
v 2.841915 0.067902 -19.256386
v 2.870486 0.079698 -19.257385
v 2.899058 0.067902 -19.256386
v 2.910896 0.039432 -19.253977
v 2.899058 0.010962 -19.251568
v 2.870486 -0.000834 -19.250568
v 2.841914 0.010962 -19.251568
v 2.830076 0.039432 -19.300821
v 2.841915 0.068004 -19.300821
v 2.870486 0.079842 -19.300821
v 2.899058 0.068004 -19.300821
v 2.910896 0.039432 -19.300821
v 2.899058 0.010860 -19.300821
v 2.870486 -0.000978 -19.300821
v 2.841914 0.010860 -19.300821
v 2.830076 0.039432 -19.355236
v 2.841915 0.068004 -19.355236
v 2.870486 0.079842 -19.355236
v 2.899058 0.068004 -19.355236
v 2.910896 0.039432 -19.355236
v 2.899058 0.010860 -19.355236
v 2.870486 -0.000978 -19.355236
v 2.841914 0.010860 -19.355236
v 2.830076 0.039432 -19.415710
v 2.841915 0.068004 -19.415710
v 2.870486 0.079842 -19.415710
v 2.899058 0.068004 -19.415710
v 2.910896 0.039432 -19.415710
v 2.899058 0.010860 -19.415710
v 2.870486 -0.000978 -19.415710
v 2.841914 0.010860 -19.415710
v 2.830076 0.039432 -19.480734
v 2.841915 0.068004 -19.480734
v 2.870486 0.079842 -19.480734
v 2.899058 0.068004 -19.480734
v 2.910896 0.039432 -19.480734
v 2.899058 0.010860 -19.480734
v 2.870486 -0.000978 -19.480734
v 2.841914 0.010860 -19.480734
v 2.830076 0.039432 -19.548794
v 2.841915 0.068004 -19.548794
v 2.870486 0.079842 -19.548794
v 2.899058 0.068004 -19.548794
v 2.910896 0.039432 -19.548794
v 2.899058 0.010860 -19.548794
v 2.870486 -0.000978 -19.548794
v 2.841914 0.010860 -19.548794
v 2.830076 0.039432 -19.618382
v 2.841915 0.068004 -19.618382
v 2.870486 0.079842 -19.618382
v 2.899058 0.068004 -19.618382
v 2.910896 0.039432 -19.618382
v 2.899058 0.010860 -19.618382
v 2.870486 -0.000978 -19.618382
v 2.841914 0.010860 -19.618382
v 2.830076 0.039432 -19.687983
v 2.841915 0.068004 -19.687983
v 2.870486 0.079842 -19.687983
v 2.899058 0.068004 -19.687983
v 2.910896 0.039432 -19.687983
v 2.899058 0.010860 -19.687983
v 2.870486 -0.000978 -19.687983
v 2.841914 0.010860 -19.687983
v 2.830076 0.039432 -19.756088
v 2.841915 0.068004 -19.756088
v 2.870486 0.079842 -19.756088
v 2.899058 0.068004 -19.756088
v 2.910896 0.039432 -19.756088
v 2.899058 0.010860 -19.756088
v 2.870486 -0.000978 -19.756088
v 2.841914 0.010860 -19.756088
v 2.830076 0.039432 -19.821186
v 2.841915 0.068004 -19.821186
v 2.870486 0.079842 -19.821186
v 2.899058 0.068004 -19.821186
v 2.910896 0.039432 -19.821186
v 2.899058 0.010860 -19.821186
v 2.870486 -0.000978 -19.821186
v 2.841914 0.010860 -19.821186
v 2.830076 0.039432 -19.881767
v 2.841915 0.068004 -19.881767
v 2.870486 0.079842 -19.881767
v 2.899058 0.068004 -19.881767
v 2.910896 0.039432 -19.881767
v 2.899058 0.010860 -19.881767
v 2.870486 -0.000978 -19.881767
v 2.841914 0.010860 -19.881767
v 2.830076 0.039432 -19.936317
v 2.841915 0.068004 -19.936317
v 2.870486 0.079842 -19.936317
v 2.899058 0.068004 -19.936317
v 2.910896 0.039432 -19.936317
v 2.899058 0.010860 -19.936317
v 2.870486 -0.000978 -19.936317
v 2.841914 0.010860 -19.936317
v 2.830081 0.039432 -19.983919
v 2.841918 0.068004 -19.983746
v 2.870486 0.079842 -19.983330
v 2.899055 0.068004 -19.982914
v 2.910892 0.039432 -19.982740
v 2.899055 0.010860 -19.982914
v 2.870486 -0.000978 -19.983330
v 2.841918 0.010860 -19.983746
v 2.830980 0.039432 -20.013775
v 2.842790 0.068004 -20.012953
v 2.871293 0.079842 -20.010971
v 2.899796 0.068004 -20.008989
v 2.911605 0.039432 -20.008167
v 2.899796 0.010860 -20.008989
v 2.871293 -0.000978 -20.010971
v 2.842790 0.010860 -20.012953
v 2.834028 0.039432 -20.041056
v 2.845694 0.068004 -20.039045
v 2.873852 0.079842 -20.034197
v 2.902009 0.068004 -20.029348
v 2.913675 0.039432 -20.027338
v 2.902009 0.010860 -20.029348
v 2.873852 -0.000978 -20.034197
v 2.845694 0.010860 -20.039045
v 2.840002 0.039432 -20.066063
v 2.851243 0.068004 -20.062351
v 2.878373 0.079842 -20.053391
v 2.905504 0.068004 -20.044430
v 2.916745 0.039432 -20.040718
v 2.905504 0.010860 -20.044430
v 2.878373 -0.000978 -20.053391
v 2.851243 0.010860 -20.062351
v 2.850030 0.039432 -20.089069
v 2.860294 0.068004 -20.083172
v 2.885067 0.079842 -20.068937
v 2.909841 0.068004 -20.054703
v 2.920105 0.039432 -20.048805
v 2.909841 0.010860 -20.054703
v 2.885067 -0.000978 -20.068937
v 2.860294 0.010860 -20.083172
v 2.864983 0.039432 -20.109194
v 2.873526 0.068004 -20.100998
v 2.894145 0.079842 -20.081219
v 2.914763 0.068004 -20.061440
v 2.923306 0.039432 -20.053244
v 2.914763 0.010860 -20.061440
v 2.894145 -0.000978 -20.081219
v 2.873526 0.010860 -20.100998
v 2.884299 0.039432 -20.124825
v 2.890602 0.068004 -20.114803
v 2.905815 0.079842 -20.090618
v 2.921027 0.068004 -20.066433
v 2.927330 0.039432 -20.056412
v 2.921027 0.010860 -20.066433
v 2.905815 -0.000978 -20.090618
v 2.890602 0.010860 -20.114803
v 2.906201 0.039432 -20.135393
v 2.910327 0.068004 -20.124298
v 2.920288 0.079842 -20.097519
v 2.930248 0.068004 -20.070740
v 2.934375 0.039432 -20.059645
v 2.930248 0.010860 -20.070740
v 2.920288 -0.000978 -20.097519
v 2.910327 0.010860 -20.124298
v 2.929473 0.039432 -20.141855
v 2.931905 0.068004 -20.130268
v 2.937773 0.079842 -20.102306
v 2.943642 0.068004 -20.074345
v 2.946074 0.039432 -20.062757
v 2.943642 0.010860 -20.074345
v 2.937773 -0.000978 -20.102306
v 2.931905 0.010860 -20.130268
v 2.954105 0.039432 -20.145535
v 2.955387 0.068004 -20.133766
v 2.958482 0.079842 -20.105362
v 2.961577 0.068004 -20.076958
v 2.962860 0.039432 -20.065189
v 2.961577 0.010860 -20.076958
v 2.958482 -0.000978 -20.105362
v 2.955387 0.010860 -20.133766
v 2.980658 0.039432 -20.147430
v 2.981234 0.068004 -20.135607
v 2.982624 0.079842 -20.107069
v 2.984015 0.068004 -20.078531
v 2.984591 0.039432 -20.066708
v 2.984015 0.010860 -20.078531
v 2.982624 -0.000978 -20.107069
v 2.981234 0.010860 -20.135607
v 3.009765 0.039432 -20.148218
v 3.009954 0.068004 -20.136381
v 3.010409 0.079842 -20.107813
v 3.010865 0.068004 -20.079245
v 3.011054 0.039432 -20.067408
v 3.010865 0.010860 -20.079245
v 3.010409 -0.000978 -20.107813
v 3.009954 0.010860 -20.136381
v 3.041944 0.039432 -20.148384
v 3.041975 0.068004 -20.136547
v 3.042048 0.079842 -20.107975
v 3.042121 0.068004 -20.079403
v 3.042151 0.039432 -20.067566
v 3.042121 0.010860 -20.079403
v 3.042048 -0.000978 -20.107975
v 3.041975 0.010860 -20.136547
v 3.156719 0.039432 -20.148384
v 3.156719 0.068004 -20.136547
v 3.156719 0.079842 -20.107975
v 3.156719 0.068004 -20.079403
v 3.156719 0.039432 -20.067566
v 3.156719 0.010860 -20.079403
v 3.156719 -0.000978 -20.107975
v 3.156719 0.010860 -20.136547
v 3.381948 0.039432 -20.148384
v 3.381948 0.068004 -20.136547
v 3.381948 0.079842 -20.107975
v 3.381948 0.068004 -20.079403
v 3.381948 0.039432 -20.067566
v 3.381948 0.010860 -20.079403
v 3.381948 -0.000978 -20.107975
v 3.381948 0.010860 -20.136547
v 3.698903 0.039432 -20.148384
v 3.698903 0.068004 -20.136547
v 3.698903 0.079842 -20.107975
v 3.698903 0.068004 -20.079403
v 3.698903 0.039432 -20.067566
v 3.698903 0.010860 -20.079403
v 3.698903 -0.000978 -20.107975
v 3.698903 0.010860 -20.136547
v 4.088751 0.039432 -20.148384
v 4.088751 0.068004 -20.136547
v 4.088751 0.079842 -20.107975
v 4.088751 0.068004 -20.079403
v 4.088751 0.039432 -20.067566
v 4.088751 0.010860 -20.079403
v 4.088751 -0.000978 -20.107975
v 4.088751 0.010860 -20.136547
v 4.532659 0.039432 -20.148384
v 4.532659 0.068004 -20.136547
v 4.532659 0.079842 -20.107975
v 4.532659 0.068004 -20.079403
v 4.532659 0.039432 -20.067566
v 4.532659 0.010860 -20.079403
v 4.532659 -0.000978 -20.107975
v 4.532659 0.010860 -20.136547
v 5.011796 0.039432 -20.148384
v 5.011796 0.068004 -20.136547
v 5.011796 0.079842 -20.107975
v 5.011796 0.068004 -20.079403
v 5.011796 0.039432 -20.067566
v 5.011796 0.010860 -20.079403
v 5.011796 -0.000978 -20.107975
v 5.011796 0.010860 -20.136547
v 5.507329 0.039432 -20.148384
v 5.507329 0.068004 -20.136547
v 5.507329 0.079842 -20.107975
v 5.507329 0.068004 -20.079403
v 5.507329 0.039432 -20.067566
v 5.507329 0.010860 -20.079403
v 5.507329 -0.000978 -20.107975
v 5.507329 0.010860 -20.136547
v 6.000426 0.039432 -20.148384
v 6.000426 0.068004 -20.136547
v 6.000426 0.079842 -20.107975
v 6.000426 0.068004 -20.079403
v 6.000426 0.039432 -20.067566
v 6.000426 0.010860 -20.079403
v 6.000426 -0.000978 -20.107975
v 6.000426 0.010860 -20.136547
v 6.472255 0.039432 -20.148384
v 6.472255 0.068004 -20.136547
v 6.472255 0.079842 -20.107975
v 6.472255 0.068004 -20.079403
v 6.472255 0.039432 -20.067566
v 6.472255 0.010860 -20.079403
v 6.472255 -0.000978 -20.107975
v 6.472255 0.010860 -20.136547
v 6.903984 0.039432 -20.148384
v 6.903984 0.068004 -20.136547
v 6.903984 0.079842 -20.107975
v 6.903984 0.068004 -20.079403
v 6.903984 0.039432 -20.067566
v 6.903984 0.010860 -20.079403
v 6.903984 -0.000978 -20.107975
v 6.903984 0.010860 -20.136547
v 7.276779 0.039432 -20.148384
v 7.276779 0.068004 -20.136547
v 7.276779 0.079842 -20.107975
v 7.276779 0.068004 -20.079403
v 7.276779 0.039432 -20.067566
v 7.276779 0.010860 -20.079403
v 7.276779 -0.000978 -20.107975
v 7.276779 0.010860 -20.136547
v 7.571809 0.039432 -20.148384
v 7.571406 0.068001 -20.136547
v 7.571239 0.079838 -20.107975
v 7.571406 0.068001 -20.079403
v 7.571809 0.039432 -20.067566
v 7.572212 0.010863 -20.079403
v 7.572379 -0.000974 -20.107975
v 7.572212 0.010863 -20.136547
v 7.612896 0.040592 -20.148384
v 7.611052 0.069104 -20.136547
v 7.610288 0.080917 -20.107975
v 7.611052 0.069104 -20.079403
v 7.612896 0.040592 -20.067566
v 7.614740 0.012079 -20.079403
v 7.615504 0.000266 -20.107975
v 7.614740 0.012079 -20.136547
v 7.648316 0.044180 -20.148384
v 7.644001 0.072424 -20.136547
v 7.642214 0.084126 -20.107975
v 7.644002 0.072424 -20.079403
v 7.648316 0.044180 -20.067566
v 7.652631 0.015936 -20.079403
v 7.654419 0.004233 -20.107975
v 7.652631 0.015936 -20.136547
v 7.678469 0.050362 -20.148384
v 7.670819 0.077890 -20.136547
v 7.667649 0.089296 -20.107975
v 7.670819 0.077890 -20.079403
v 7.678469 0.050362 -20.067566
v 7.686119 0.022833 -20.079403
v 7.689288 0.011427 -20.107975
v 7.686119 0.022833 -20.136547
v 7.703753 0.059302 -20.148384
v 7.691869 0.085285 -20.136547
v 7.686945 0.096051 -20.107975
v 7.691869 0.085285 -20.079403
v 7.703753 0.059302 -20.067566
v 7.715636 0.033319 -20.079403
v 7.720560 0.022553 -20.107975
v 7.715636 0.033319 -20.136547
v 7.724567 0.071165 -20.148384
v 7.707886 0.094361 -20.136547
v 7.700974 0.103972 -20.107975
v 7.707886 0.094361 -20.079403
v 7.724567 0.071165 -20.067566
v 7.741248 0.047968 -20.079403
v 7.748160 0.038357 -20.107975
v 7.741248 0.047968 -20.136547
v 7.741311 0.086115 -20.148384
v 7.720066 0.105219 -20.136547
v 7.711263 0.113135 -20.107975
v 7.720066 0.105219 -20.079403
v 7.741311 0.086115 -20.067566
v 7.762557 0.067011 -20.079403
v 7.771359 0.059095 -20.107975
v 7.762557 0.067011 -20.136547
v 7.754384 0.104318 -20.148384
v 7.729649 0.118619 -20.136547
v 7.719401 0.124545 -20.107975
v 7.729649 0.118619 -20.079403
v 7.754384 0.104318 -20.067566
v 7.779119 0.090017 -20.079403
v 7.789367 0.084091 -20.107975
v 7.779119 0.090017 -20.136547
v 7.764185 0.125938 -20.148384
v 7.737316 0.135653 -20.136547
v 7.726183 0.139679 -20.107975
v 7.737316 0.135653 -20.079403
v 7.764185 0.125938 -20.067566
v 7.791054 0.116222 -20.079403
v 7.802187 0.112196 -20.107975
v 7.791054 0.116222 -20.136547
v 7.771113 0.151139 -20.148384
v 7.743172 0.157108 -20.136547
v 7.731596 0.159582 -20.107975
v 7.743172 0.157108 -20.079403
v 7.771113 0.151139 -20.067566
v 7.799055 0.145169 -20.079403
v 7.810631 0.142695 -20.107975
v 7.799055 0.145169 -20.136547
v 7.775568 0.180086 -20.148384
v 7.747177 0.183293 -20.136547
v 7.735414 0.184622 -20.107975
v 7.747177 0.183293 -20.079403
v 7.775568 0.180086 -20.067566
v 7.803959 0.176879 -20.079403
v 7.815722 0.175550 -20.107975
v 7.803959 0.176879 -20.136547
v 7.777948 0.212944 -20.148384
v 7.749406 0.214250 -20.136547
v 7.737580 0.214790 -20.107975
v 7.749406 0.214250 -20.079403
v 7.777948 0.212944 -20.067566
v 7.806490 0.211639 -20.079403
v 7.818316 0.211098 -20.107975
v 7.806490 0.211639 -20.136547
v 7.778653 0.249878 -20.148384
v 7.750082 0.250151 -20.136547
v 7.738245 0.250264 -20.107975
v 7.750083 0.250151 -20.079403
v 7.778653 0.249878 -20.067566
v 7.807224 0.249606 -20.079403
v 7.819061 0.249493 -20.107975
v 7.807223 0.249606 -20.136547
v 7.778654 0.473724 -20.148384
v 7.750082 0.473724 -20.136547
v 7.738244 0.473724 -20.107975
v 7.750082 0.473724 -20.079403
v 7.778654 0.473724 -20.067566
v 7.807225 0.473724 -20.079403
v 7.819064 0.473724 -20.107975
v 7.807225 0.473724 -20.136547
v 7.778654 0.742574 -20.148384
v 7.750082 0.742574 -20.136547
v 7.738244 0.742574 -20.107975
v 7.750082 0.742574 -20.079403
v 7.778654 0.742574 -20.067566
v 7.807226 0.742574 -20.079403
v 7.819064 0.742574 -20.107975
v 7.807226 0.742574 -20.136547
v 7.778655 1.045815 -20.148384
v 7.750083 1.045815 -20.136547
v 7.738245 1.045815 -20.107975
v 7.750083 1.045815 -20.079403
v 7.778655 1.045815 -20.067566
v 7.807226 1.045815 -20.079403
v 7.819065 1.045815 -20.107975
v 7.807226 1.045815 -20.136547
v 7.778655 1.372830 -20.148384
v 7.750083 1.372830 -20.136547
v 7.738245 1.372830 -20.107975
v 7.750083 1.372830 -20.079403
v 7.778655 1.372830 -20.067566
v 7.807227 1.372830 -20.079403
v 7.819065 1.372830 -20.107975
v 7.807227 1.372830 -20.136547
v 7.778655 1.713007 -20.148384
v 7.750083 1.713007 -20.136547
v 7.738245 1.713007 -20.107975
v 7.750083 1.713007 -20.079403
v 7.778655 1.713007 -20.067566
v 7.807227 1.713007 -20.079403
v 7.819065 1.713007 -20.107975
v 7.807227 1.713007 -20.136547
v 7.778655 2.055732 -20.148384
v 7.750083 2.055732 -20.136547
v 7.738245 2.055732 -20.107975
v 7.750083 2.055732 -20.079403
v 7.778655 2.055732 -20.067566
v 7.807227 2.055732 -20.079403
v 7.819065 2.055732 -20.107975
v 7.807227 2.055732 -20.136547
v 7.778655 2.390388 -20.148384
v 7.750083 2.390388 -20.136547
v 7.738245 2.390388 -20.107975
v 7.750083 2.390388 -20.079403
v 7.778655 2.390388 -20.067566
v 7.807227 2.390388 -20.079403
v 7.819065 2.390388 -20.107975
v 7.807227 2.390388 -20.136547
v 7.778655 2.706363 -20.148384
v 7.750083 2.706363 -20.136547
v 7.738245 2.706363 -20.107975
v 7.750083 2.706363 -20.079403
v 7.778655 2.706363 -20.067566
v 7.807227 2.706363 -20.079403
v 7.819065 2.706363 -20.107975
v 7.807227 2.706363 -20.136547
v 7.778655 2.993042 -20.148384
v 7.750083 2.993042 -20.136547
v 7.738245 2.993042 -20.107975
v 7.750083 2.993042 -20.079403
v 7.778655 2.993042 -20.067566
v 7.807227 2.993042 -20.079403
v 7.819065 2.993042 -20.107975
v 7.807227 2.993042 -20.136547
v 7.778655 3.239811 -20.148384
v 7.750083 3.239811 -20.136547
v 7.738245 3.239811 -20.107975
v 7.750083 3.239811 -20.079403
v 7.778655 3.239811 -20.067566
v 7.807227 3.239811 -20.079403
v 7.819065 3.239811 -20.107975
v 7.807227 3.239811 -20.136547
v 7.778655 3.436055 -20.148384
v 7.750083 3.436055 -20.136547
v 7.738245 3.436055 -20.107975
v 7.750083 3.436055 -20.079403
v 7.778655 3.436055 -20.067566
v 7.807227 3.436055 -20.079403
v 7.819065 3.436055 -20.107975
v 7.807227 3.436055 -20.136547
v 7.778654 3.572446 -20.148365
v 7.750082 3.572013 -20.136534
v 7.738245 3.571081 -20.107977
v 7.750084 3.570195 -20.079418
v 7.778656 3.569875 -20.067585
v 7.807228 3.570307 -20.079416
v 7.819065 3.571239 -20.107973
v 7.807226 3.572125 -20.136532
v 7.778450 3.623216 -20.145056
v 7.749886 3.621433 -20.133335
v 7.738063 3.617591 -20.105017
v 7.749917 3.613939 -20.076687
v 7.778493 3.612617 -20.064936
v 7.807058 3.614400 -20.076656
v 7.818881 3.618243 -20.104975
v 7.807027 3.621894 -20.133305
v 7.777877 3.669335 -20.135736
v 7.749335 3.665750 -20.124380
v 7.737561 3.658023 -20.096846
v 7.749459 3.650680 -20.069260
v 7.778053 3.648021 -20.057779
v 7.806595 3.651607 -20.069136
v 7.818369 3.659334 -20.096670
v 7.806471 3.666677 -20.124256
v 7.777009 3.710019 -20.121620
v 7.748501 3.704794 -20.110826
v 7.736802 3.693533 -20.084505
v 7.748771 3.682832 -20.058073
v 7.777390 3.678958 -20.047009
v 7.805898 3.684183 -20.057802
v 7.817598 3.695444 -20.084124
v 7.805628 3.706145 -20.110556
v 7.775935 3.745795 -20.104160
v 7.747466 3.739266 -20.093992
v 7.735849 3.725197 -20.069021
v 7.747898 3.711826 -20.043871
v 7.776546 3.706986 -20.033272
v 7.805015 3.713514 -20.043440
v 7.816631 3.727584 -20.068411
v 7.804583 3.740954 -20.093561
v 7.774751 3.777405 -20.084923
v 7.746314 3.770011 -20.075272
v 7.734766 3.754075 -20.051414
v 7.746880 3.738932 -20.027323
v 7.775551 3.733449 -20.017105
v 7.803988 3.740844 -20.026756
v 7.815536 3.756779 -20.050613
v 7.803423 3.771923 -20.074705
v 7.773550 3.805783 -20.065386
v 7.745129 3.797998 -20.056000
v 7.733615 3.781219 -20.032709
v 7.745762 3.765275 -20.009157
v 7.774446 3.759502 -19.999136
v 7.802867 3.767288 -20.008522
v 7.814380 3.784066 -20.031813
v 7.802233 3.800010 -20.055365
v 7.772409 3.831923 -20.046839
v 7.743984 3.824238 -20.037382
v 7.732461 3.807675 -20.013943
v 7.744599 3.791935 -19.990250
v 7.773280 3.786237 -19.980177
v 7.801705 3.793922 -19.989634
v 7.813228 3.810485 -20.013073
v 7.801089 3.826225 -20.036766
v 7.771393 3.856782 -20.030329
v 7.742943 3.849717 -20.020472
v 7.731368 3.834491 -19.996168
v 7.743455 3.820022 -19.971653
v 7.772117 3.814783 -19.961283
v 7.800567 3.821848 -19.971140
v 7.812143 3.837074 -19.995443
v 7.800055 3.851543 -20.019958
v 7.770550 3.881310 -20.016623
v 7.742061 3.875417 -20.006128
v 7.730401 3.862716 -19.980453
v 7.742409 3.850646 -19.954634
v 7.771041 3.846277 -19.943792
v 7.799531 3.852170 -19.954287
v 7.811191 3.864871 -19.979961
v 7.799183 3.876940 -20.005781
v 7.769909 3.906641 -20.006197
v 7.741378 3.902440 -19.995024
v 7.729628 3.893388 -19.967886
v 7.741550 3.884786 -19.940676
v 7.770152 3.881672 -19.929331
v 7.798683 3.885872 -19.940504
v 7.810433 3.894924 -19.967642
v 7.798511 3.903526 -19.994852
v 7.769493 3.934299 -19.999428
v 7.740931 3.932151 -19.987761
v 7.729115 3.927521 -19.959557
v 7.740975 3.923122 -19.931335
v 7.769555 3.921530 -19.919624
v 7.798116 3.923678 -19.931292
v 7.809932 3.928307 -19.959496
v 7.798072 3.932706 -19.987717
v 7.769314 3.967686 -19.996920
v 7.740751 3.967440 -19.985064
v 7.728931 3.966415 -19.956503
v 7.740788 3.965212 -19.927965
v 7.769366 3.964535 -19.916162
v 7.797929 3.964782 -19.928019
v 7.809749 3.965807 -19.956579
v 7.797893 3.967010 -19.985117
v 7.770034 4.004585 -19.996950
v 7.741519 4.006022 -19.985062
v 7.729747 4.006616 -19.956469
v 7.741621 4.006018 -19.927919
v 7.770177 4.004578 -19.916132
v 7.798691 4.003140 -19.928020
v 7.810464 4.002547 -19.956614
v 7.798590 4.003145 -19.985163
v 7.772568 4.035856 -19.996950
v 7.744270 4.039649 -19.985062
v 7.732587 4.041215 -19.956469
v 7.744370 4.039636 -19.927919
v 7.772710 4.035837 -19.916132
v 7.801007 4.032043 -19.928020
v 7.812690 4.030477 -19.956614
v 7.800907 4.032057 -19.985163
v 7.777227 4.060660 -19.996950
v 7.749726 4.068330 -19.985062
v 7.738371 4.071496 -19.956469
v 7.749824 4.068302 -19.927919
v 7.777365 4.060622 -19.916132
v 7.804866 4.052952 -19.928020
v 7.816221 4.049786 -19.956614
v 7.804769 4.052979 -19.985163
v 7.784369 4.079735 -19.996950
v 7.759145 4.093110 -19.985062
v 7.748731 4.098631 -19.956469
v 7.759235 4.093062 -19.927919
v 7.784496 4.079668 -19.916132
v 7.809721 4.066293 -19.928020
v 7.820135 4.060771 -19.956614
v 7.809631 4.066341 -19.985163
v 7.794353 4.093814 -19.996950
v 7.773932 4.113767 -19.985062
v 7.765501 4.122005 -19.956469
v 7.774004 4.113696 -19.927919
v 7.794456 4.093714 -19.916132
v 7.814877 4.073761 -19.928020
v 7.823308 4.065523 -19.956614
v 7.814805 4.073832 -19.985163
v 7.807532 4.103627 -19.996950
v 7.793855 4.128688 -19.985062
v 7.788208 4.139035 -19.956469
v 7.793903 4.128599 -19.927919
v 7.807601 4.103501 -19.916132
v 7.821279 4.078440 -19.928020
v 7.826926 4.068093 -19.956614
v 7.821230 4.078529 -19.985163
v 7.824256 4.109906 -19.996950
v 7.816825 4.137473 -19.985062
v 7.813758 4.148854 -19.956469
v 7.816852 4.137375 -19.927919
v 7.824293 4.109768 -19.916132
v 7.831724 4.082201 -19.928020
v 7.834791 4.070820 -19.956614
v 7.831697 4.082299 -19.985163
v 7.844876 4.113390 -19.996950
v 7.841674 4.141761 -19.985062
v 7.840353 4.153474 -19.956469
v 7.841686 4.141661 -19.927919
v 7.844892 4.113248 -19.916132
v 7.848094 4.084877 -19.928020
v 7.849415 4.073164 -19.956614
v 7.848082 4.084978 -19.985163
v 7.869748 4.114819 -19.996950
v 7.868877 4.143356 -19.985062
v 7.868517 4.155138 -19.956469
v 7.868880 4.143255 -19.927919
v 7.869753 4.114676 -19.916132
v 7.870624 4.086138 -19.928020
v 7.870984 4.074356 -19.956614
v 7.870621 4.086239 -19.985163
v 7.899230 4.114927 -19.996950
v 7.899374 4.143478 -19.985062
v 7.899434 4.155265 -19.956469
v 7.899374 4.143376 -19.927919
v 7.899230 4.114784 -19.916132
v 7.899086 4.086234 -19.928020
v 7.899026 4.074446 -19.956614
v 7.899086 4.086335 -19.985163
v 7.933679 4.114453 -19.996950
v 7.933990 4.143002 -19.985062
v 7.934119 4.154789 -19.956469
v 7.933990 4.142900 -19.927919
v 7.933677 4.114310 -19.916132
v 7.933365 4.085761 -19.928020
v 7.933236 4.073974 -19.956614
v 7.933366 4.085862 -19.985163
v 7.972731 4.114140 -19.996944
v 7.973338 4.142685 -19.985058
v 7.974010 4.154466 -19.956470
v 7.974355 4.142571 -19.927923
v 7.974170 4.113979 -19.916138
v 7.973563 4.085433 -19.928024
v 7.972890 4.073653 -19.956612
v 7.972546 4.085547 -19.985159
v 7.989968 4.113820 -19.997534
v 7.992018 4.142326 -19.985714
v 7.994653 4.154053 -19.957218
v 7.996330 4.142123 -19.928734
v 7.996068 4.113533 -19.916945
v 7.994019 4.085027 -19.928764
v 7.991384 4.073300 -19.957260
v 7.989706 4.085230 -19.985744
v 8.005880 4.112846 -19.999371
v 8.010197 4.141210 -19.987823
v 8.015816 4.152750 -19.959686
v 8.019445 4.140697 -19.931437
v 8.018961 4.112121 -19.919621
v 8.014645 4.083757 -19.931168
v 8.009026 4.072217 -19.959305
v 8.005396 4.084270 -19.987555
v 8.020798 4.111223 -20.002550
v 8.027649 4.139307 -19.991556
v 8.036677 4.150470 -19.964165
v 8.042593 4.138165 -19.936415
v 8.041933 4.109607 -19.924559
v 8.035082 4.081523 -19.935553
v 8.026053 4.070360 -19.962944
v 8.020138 4.082665 -19.990694
v 8.034498 4.108963 -20.007128
v 8.044111 4.136586 -19.997076
v 8.056915 4.147119 -19.970968
v 8.065409 4.134383 -19.944094
v 8.064619 4.105847 -19.932196
v 8.055006 4.078225 -19.942247
v 8.042202 4.067692 -19.968355
v 8.033709 4.080428 -19.995230
v 8.046887 4.106069 -20.013172
v 8.059374 4.133014 -20.004539
v 8.076156 4.142609 -19.980400
v 8.087403 4.129224 -19.954887
v 8.086530 4.100708 -19.942947
v 8.074043 4.073763 -19.951580
v 8.057261 4.064168 -19.975719
v 8.046014 4.077553 -20.001232
v 8.058010 4.102494 -20.020847
v 8.073287 4.128539 -20.014154
v 8.093971 4.136874 -19.992725
v 8.107948 4.122608 -19.969112
v 8.107033 4.094106 -19.957142
v 8.091756 4.068061 -19.963835
v 8.071072 4.059726 -19.985264
v 8.057095 4.073992 -20.008877
v 8.067988 4.098113 -20.030493
v 8.085738 4.123073 -20.026194
v 8.109910 4.129877 -20.008141
v 8.126346 4.114531 -19.986906
v 8.125422 4.086033 -19.974928
v 8.107673 4.061073 -19.979227
v 8.083501 4.054269 -19.997280
v 8.067065 4.069615 -20.018515
v 8.076873 4.092721 -20.042637
v 8.096588 4.116494 -20.041012
v 8.123552 4.121613 -20.026758
v 8.141972 4.105071 -20.008221
v 8.141061 4.076564 -19.996262
v 8.121346 4.052791 -19.997887
v 8.094381 4.047672 -20.012140
v 8.075962 4.064214 -20.030678
v 8.084524 4.086076 -20.057919
v 8.105621 4.108664 -20.059021
v 8.134562 4.112087 -20.048668
v 8.154393 4.094333 -20.032919
v 8.153503 4.065809 -20.021000
v 8.132406 4.043221 -20.019897
v 8.103466 4.039798 -20.030251
v 8.083634 4.057552 -20.046000
v 8.090592 4.077969 -20.076925
v 8.112532 4.099452 -20.080614
v 8.142682 4.101291 -20.073977
v 8.163383 4.082398 -20.060898
v 8.162513 4.053847 -20.049040
v 8.140574 4.032363 -20.045351
v 8.110423 4.030525 -20.051989
v 8.089723 4.049418 -20.065067
v 8.094602 4.068244 -20.100124
v 8.116955 4.088756 -20.106133
v 8.147704 4.089189 -20.102846
v 8.168837 4.069282 -20.092188
v 8.167979 4.040701 -20.080402
v 8.145626 4.020190 -20.074394
v 8.114877 4.019757 -20.077681
v 8.093744 4.039664 -20.088339
v 8.096045 4.056835 -20.127790
v 8.118512 4.076504 -20.135839
v 8.149428 4.075715 -20.135517
v 8.170681 4.054921 -20.127007
v 8.169828 4.026309 -20.115297
v 8.147361 4.006640 -20.107248
v 8.116445 4.007429 -20.107571
v 8.095192 4.028223 -20.116081
vn -0.9985 0.0526 -0.0114
vn -0.9987 0.0463 -0.0203
vn -0.7342 -0.6177 0.2816
vn -0.7266 -0.6709 0.1481
vn -0.6734 0.7221 -0.1583
vn -0.6834 0.6659 -0.2992
vn 0.0000 0.9768 -0.2141
vn 0.0000 0.9122 -0.4098
vn 0.6734 0.7221 -0.1583
vn 0.6834 0.6659 -0.2992
vn 0.9985 0.0526 -0.0114
vn 0.9987 0.0463 -0.0203
vn 0.7266 -0.6709 0.1481
vn 0.7342 -0.6177 0.2816
vn 0.0000 -0.9764 0.2158
vn 0.0000 -0.9094 0.4158
vn -0.9994 0.0256 -0.0241
vn -0.7246 -0.4892 0.4855
vn -0.6896 0.5176 -0.5064
vn 0.0000 0.7150 -0.6991
vn 0.6896 0.5176 -0.5064
vn 0.9994 0.0255 -0.0241
vn 0.7246 -0.4892 0.4855
vn 0.0000 -0.7088 0.7054
vn -0.9998 0.0111 -0.0168
vn -0.7169 -0.3726 0.5893
vn -0.6968 0.3854 -0.6049
vn 0.0000 0.5375 -0.8433
vn 0.6968 0.3854 -0.6049
vn 0.9998 0.0111 -0.0168
vn 0.7169 -0.3726 0.5893
vn 0.0000 -0.5340 0.8455
vn -0.9999 0.0045 -0.0092
vn -0.7121 -0.2991 0.6351
vn -0.7019 0.3042 -0.6440
vn 0.0000 0.4271 -0.9042
vn 0.7019 0.3042 -0.6440
vn 0.9999 0.0045 -0.0092
vn 0.7121 -0.2991 0.6351
vn 0.0000 -0.4260 0.9047
vn -1.0000 0.0013 -0.0032
vn -0.7088 -0.2645 0.6540
vn -0.7053 0.2659 -0.6571
vn 0.0000 0.3752 -0.9269
vn 0.7053 0.2659 -0.6571
vn 1.0000 0.0013 -0.0032
vn 0.7088 -0.2645 0.6540
vn 0.0000 -0.3749 0.9270
vn -1.0000 -0.0007 0.0018
vn -0.7060 -0.2616 0.6580
vn -0.7081 0.2608 -0.6562
vn 0.0000 0.3693 -0.9293
vn 0.7081 0.2608 -0.6562
vn 1.0000 -0.0007 0.0018
vn 0.7060 -0.2616 0.6580
vn 0.0000 -0.3695 0.9292
vn -1.0000 -0.0031 0.0069
vn -0.7032 -0.2886 0.6497
vn -0.7108 0.2852 -0.6429
vn 0.0000 0.4054 -0.9141
vn 0.7108 0.2852 -0.6429
vn 1.0000 -0.0031 0.0069
vn 0.7032 -0.2886 0.6497
vn 0.0000 -0.4060 0.9138
vn -0.9999 -0.0072 0.0126
vn -0.6998 -0.3482 0.6237
vn -0.7143 0.3404 -0.6115
vn 0.0000 0.4862 -0.8738
vn 0.7143 0.3404 -0.6115
vn 0.9999 -0.0072 0.0126
vn 0.6998 -0.3482 0.6237
vn 0.0000 -0.4876 0.8730
vn -0.9997 -0.0150 0.0186
vn -0.6952 -0.4450 0.5645
vn -0.7190 0.4288 -0.5470
vn 0.0000 0.6166 -0.7873
vn 0.7190 0.4288 -0.5470
vn 0.9997 -0.0150 0.0186
vn 0.6952 -0.4450 0.5645
vn 0.0000 -0.6192 0.7852
vn -0.9994 -0.0278 0.0212
vn -0.6901 -0.5713 0.4442
vn -0.7251 0.5422 -0.4246
vn 0.0000 0.7869 -0.6171
vn 0.7251 0.5422 -0.4246
vn 0.9994 -0.0278 0.0212
vn 0.6901 -0.5713 0.4442
vn 0.0000 -0.7895 0.6137
vn -0.9991 -0.0399 0.0145
vn -0.6877 -0.6832 0.2454
vn -0.7305 0.6432 -0.2295
vn 0.0000 0.9420 -0.3357
vn 0.7305 0.6432 -0.2295
vn 0.9991 -0.0399 0.0145
vn 0.6877 -0.6832 0.2454
vn 0.0000 -0.9411 0.3381
vn -0.9998 -0.0204 0.0023
vn -0.6964 -0.7149 0.0626
vn -0.7168 0.6949 -0.0566
vn 0.0000 0.9967 -0.0804
vn 0.7168 0.6949 -0.0567
vn 0.9998 -0.0204 0.0023
vn 0.6964 -0.7149 0.0626
vn 0.0000 -0.9962 0.0876
vn -1.0000 0.0000 0.0002
vn -0.7067 -0.7074 0.0007
vn -0.7067 0.7074 0.0008
vn 0.0000 1.0000 0.0014
vn 0.7067 0.7074 0.0008
vn 1.0000 0.0000 0.0002
vn 0.7067 -0.7074 0.0007
vn 0.0000 -1.0000 0.0012
vn -1.0000 0.0000 0.0000
vn -0.7071 -0.7071 0.0000
vn -0.7071 0.7071 0.0000
vn 0.0000 1.0000 0.0000
vn 0.7071 0.7071 0.0000
vn 1.0000 0.0000 0.0000
vn 0.7071 -0.7071 0.0000
vn 0.0000 -1.0000 0.0000
vn -0.9999 0.0000 -0.0150
vn -0.7089 -0.7053 -0.0106
vn -0.7089 0.7053 -0.0106
vn -0.0035 1.0000 -0.0001
vn 0.7053 0.7088 0.0100
vn 0.9999 0.0000 0.0140
vn 0.7053 -0.7088 0.0100
vn -0.0035 -1.0000 -0.0001
vn -0.9975 0.0000 -0.0704
vn -0.7102 -0.7022 -0.0501
vn -0.7102 0.7022 -0.0501
vn -0.0098 0.9999 -0.0009
vn 0.7006 0.7120 0.0479
vn 0.9977 0.0000 0.0680
vn 0.7006 -0.7120 0.0479
vn -0.0098 -0.9999 -0.0009
vn -0.9851 0.0000 -0.1717
vn -0.7039 -0.6996 -0.1225
vn -0.7039 0.6996 -0.1225
vn -0.0145 0.9999 -0.0029
vn 0.6899 0.7143 0.1170
vn 0.9860 0.0000 0.1664
vn 0.6899 -0.7143 0.1170
vn -0.0145 -0.9999 -0.0029
vn -0.9485 0.0000 -0.3167
vn -0.6807 -0.6965 -0.2270
vn -0.6807 0.6965 -0.2270
vn -0.0200 0.9998 -0.0074
vn 0.6625 0.7176 0.2147
vn 0.9518 0.0000 0.3066
vn 0.6625 -0.7176 0.2147
vn -0.0200 -0.9998 -0.0074
vn -0.8655 0.0000 -0.5009
vn -0.6236 -0.6935 -0.3606
vn -0.6236 0.6935 -0.3606
vn -0.0239 0.9996 -0.0146
vn 0.6026 0.7215 0.3409
vn 0.8715 0.0000 0.4903
vn 0.6026 -0.7215 0.3409
vn -0.0239 -0.9996 -0.0146
vn -0.7215 0.0000 -0.6923
vn -0.5207 -0.6922 -0.4996
vn -0.5207 0.6922 -0.4996
vn -0.0225 0.9995 -0.0216
vn 0.4978 0.7241 0.4774
vn 0.7218 0.0000 0.6921
vn 0.4978 -0.7241 0.4774
vn -0.0226 -0.9995 -0.0216
vn -0.5350 0.0000 -0.8448
vn -0.3853 -0.6934 -0.6088
vn -0.3853 0.6934 -0.6088
vn -0.0158 0.9996 -0.0236
vn 0.3644 0.7218 0.5883
vn 0.5244 0.0000 0.8514
vn 0.3644 -0.7219 0.5883
vn -0.0158 -0.9996 -0.0236
vn -0.3520 0.0000 -0.9360
vn -0.2524 -0.6963 -0.6718
vn -0.2523 0.6963 -0.6718
vn -0.0084 0.9998 -0.0199
vn 0.2385 0.7177 0.6542
vn 0.3406 0.0000 0.9402
vn 0.2385 -0.7177 0.6542
vn -0.0083 -0.9998 -0.0199
vn -0.2077 0.0000 -0.9782
vn -0.1482 -0.6997 -0.6989
vn -0.1482 0.6997 -0.6989
vn -0.0035 0.9999 -0.0143
vn 0.1415 0.7143 0.6854
vn 0.2014 0.0000 0.9795
vn 0.1416 -0.7143 0.6854
vn -0.0035 -0.9999 -0.0143
vn -0.1093 0.0000 -0.9940
vn -0.0777 -0.7024 -0.7075
vn -0.0777 0.7024 -0.7075
vn -0.0012 0.9999 -0.0092
vn 0.0753 0.7116 0.6985
vn 0.1069 0.0000 0.9943
vn 0.0753 -0.7116 0.6985
vn -0.0012 -0.9999 -0.0092
vn -0.0490 0.0000 -0.9988
vn -0.0348 -0.7044 -0.7089
vn -0.0348 0.7044 -0.7089
vn -0.0003 1.0000 -0.0053
vn 0.0340 0.7097 0.7036
vn 0.0482 0.0000 0.9988
vn 0.0340 -0.7097 0.7036
vn -0.0003 -1.0000 -0.0053
vn -0.0161 0.0000 -0.9998
vn -0.0114 -0.7058 -0.7083
vn -0.0114 0.7058 -0.7083
vn -0.0001 1.0000 -0.0026
vn 0.0111 0.7084 0.7057
vn 0.0158 0.0000 0.9998
vn 0.0112 -0.7084 0.7057
vn -0.0001 -1.0000 -0.0026
vn -0.0026 0.0000 -1.0000
vn -0.0018 -0.7068 -0.7074
vn -0.0018 0.7068 -0.7074
vn 0.0000 1.0000 -0.0006
vn 0.0018 0.7074 0.7068
vn 0.0025 0.0000 1.0000
vn 0.0018 -0.7074 0.7068
vn 0.0000 -1.0000 -0.0006
vn 0.0000 0.0000 -1.0000
vn 0.0000 -0.7071 -0.7071
vn 0.0000 0.7071 -0.7071
vn 0.0000 0.7071 0.7071
vn 0.0000 0.0000 1.0000
vn 0.0000 -0.7071 0.7071
vn 0.0001 -0.0034 -1.0000
vn 0.0101 -0.7088 -0.7053
vn -0.0098 0.7053 -0.7088
vn -0.0139 0.9999 0.0000
vn -0.0098 0.7053 0.7088
vn 0.0001 -0.0034 1.0000
vn 0.0101 -0.7088 0.7053
vn 0.0143 -0.9999 0.0000
vn 0.0006 -0.0088 -0.9999
vn 0.0462 -0.7100 -0.7027
vn -0.0450 0.7012 -0.7115
vn -0.0640 0.9979 0.0000
vn -0.0450 0.7012 0.7115
vn 0.0006 -0.0088 0.9999
vn 0.0462 -0.7100 0.7027
vn 0.0650 -0.9979 0.0000
vn 0.0020 -0.0121 -0.9999
vn 0.1082 -0.7049 -0.7009
vn -0.1053 0.6929 -0.7132
vn -0.1500 0.9887 0.0000
vn -0.1053 0.6929 0.7132
vn 0.0020 -0.0121 0.9999
vn 0.1082 -0.7049 0.7009
vn 0.1518 -0.9884 0.0000
vn 0.0048 -0.0161 -0.9998
vn 0.1923 -0.6890 -0.6988
vn -0.1859 0.6734 -0.7155
vn -0.2658 0.9640 0.0000
vn -0.1860 0.6734 0.7155
vn 0.0047 -0.0161 0.9998
vn 0.1923 -0.6890 0.6988
vn 0.2691 -0.9631 0.0000
vn 0.0093 -0.0196 -0.9998
vn 0.2994 -0.6522 -0.6964
vn -0.2880 0.6335 -0.7181
vn -0.4132 0.9106 0.0000
vn -0.2880 0.6335 0.7181
vn 0.0093 -0.0196 0.9998
vn 0.2994 -0.6522 0.6964
vn 0.4174 -0.9087 0.0000
vn 0.0152 -0.0207 -0.9997
vn 0.4205 -0.5836 -0.6946
vn -0.4040 0.5638 -0.7204
vn -0.5820 0.8131 0.0000
vn -0.4040 0.5638 0.7204
vn 0.0152 -0.0207 0.9997
vn 0.4205 -0.5836 0.6946
vn 0.5847 -0.8112 0.0000
vn 0.0197 -0.0179 -0.9996
vn 0.5350 -0.4815 -0.6942
vn -0.5155 0.4630 -0.7210
vn -0.7441 0.6681 0.0000
vn -0.5155 0.4630 0.7210
vn 0.0198 -0.0179 0.9996
vn 0.5350 -0.4814 0.6942
vn 0.7433 -0.6689 0.0000
vn 0.0206 -0.0123 -0.9997
vn 0.6216 -0.3606 -0.6954
vn -0.6021 0.3462 -0.7194
vn -0.8672 0.4978 0.0000
vn -0.6021 0.3462 0.7194
vn 0.0206 -0.0123 0.9997
vn 0.6216 -0.3606 0.6954
vn 0.8649 -0.5020 0.0000
vn 0.0179 -0.0069 -0.9998
vn 0.6734 -0.2447 -0.6976
vn -0.6563 0.2356 -0.7167
vn -0.9414 0.3373 0.0000
vn -0.6563 0.2356 0.7167
vn 0.0179 -0.0069 0.9998
vn 0.6734 -0.2447 0.6976
vn 0.9398 -0.3417 0.0000
vn 0.0137 -0.0032 -0.9999
vn 0.6981 -0.1499 -0.7001
vn -0.6847 0.1453 -0.7141
vn -0.9783 0.2072 0.0000
vn -0.6848 0.1453 0.7141
vn 0.0137 -0.0032 0.9999
vn 0.6981 -0.1499 0.7001
vn 0.9777 -0.2102 0.0000
vn 0.0097 -0.0012 -0.9999
vn 0.7074 -0.0803 -0.7022
vn -0.6978 0.0783 -0.7120
vn -0.9937 0.1114 0.0000
vn -0.6978 0.0783 0.7120
vn 0.0097 -0.0012 0.9999
vn 0.7074 -0.0803 0.7022
vn 0.9936 -0.1129 0.0000
vn 0.0065 -0.0003 -1.0000
vn 0.7096 -0.0327 -0.7038
vn -0.7031 0.0319 -0.7103
vn -0.9990 0.0453 0.0000
vn -0.7031 0.0319 0.7103
vn 0.0064 -0.0003 1.0000
vn 0.7096 -0.0327 0.7038
vn 0.9989 -0.0460 0.0000
vn 0.0023 -0.0000 -1.0000
vn 0.7082 -0.0068 -0.7059
vn -0.7059 0.0066 -0.7082
vn -0.9999 0.0094 0.0000
vn -0.7059 0.0067 0.7082
vn 0.0023 -0.0000 1.0000
vn 0.7082 -0.0068 0.7059
vn 0.9999 -0.0097 0.0000
vn 0.7071 0.0000 -0.7071
vn -0.7071 0.0000 -0.7071
vn -0.7071 0.0000 0.7071
vn 0.7071 0.0000 0.7071
vn 0.0000 0.0001 -1.0000
vn 0.0000 0.0001 1.0000
vn 0.0004 0.0325 -0.9995
vn 0.7033 0.0244 -0.7104
vn -0.7029 0.0216 -0.7109
vn -0.9999 -0.0016 -0.0078
vn -0.7106 -0.0233 0.7032
vn 0.0005 -0.0310 0.9995
vn 0.7111 -0.0205 0.7028
vn 0.9999 0.0023 -0.0077
vn 0.0004 0.1317 -0.9913
vn 0.6992 0.0997 -0.7079
vn -0.6989 0.0885 -0.7096
vn -0.9998 -0.0058 -0.0169
vn -0.7147 -0.0970 0.6926
vn 0.0016 -0.1304 0.9915
vn 0.7165 -0.0854 0.6923
vn 0.9998 0.0103 -0.0158
vn -0.0012 0.2635 -0.9646
vn 0.6979 0.1997 -0.6878
vn -0.7000 0.1773 -0.6918
vn -0.9998 -0.0119 -0.0180
vn -0.7133 -0.1961 0.6728
vn 0.0032 -0.2640 0.9645
vn 0.7174 -0.1726 0.6749
vn 0.9997 0.0205 -0.0137
vn -0.0038 0.3839 -0.9234
vn 0.6968 0.2906 -0.6558
vn -0.7026 0.2579 -0.6632
vn -0.9997 -0.0181 -0.0183
vn -0.7105 -0.2863 0.6428
vn 0.0056 -0.3849 0.9229
vn 0.7180 -0.2521 0.6487
vn 0.9995 0.0291 -0.0088
vn -0.0068 0.4796 -0.8774
vn 0.6961 0.3624 -0.6197
vn -0.7062 0.3213 -0.6308
vn -0.9995 -0.0242 -0.0175
vn -0.7068 -0.3584 0.6099
vn 0.0083 -0.4808 0.8767
vn 0.7181 -0.3159 0.6201
vn 0.9994 0.0349 -0.0024
vn -0.0094 0.5434 -0.8394
vn 0.6964 0.4096 -0.5892
vn -0.7101 0.3627 -0.6035
vn -0.9994 -0.0298 -0.0156
vn -0.7028 -0.4069 0.5834
vn 0.0103 -0.5443 0.8388
vn 0.7172 -0.3591 0.5972
vn 0.9993 0.0371 0.0041
vn -0.0109 0.5725 -0.8198
vn 0.6980 0.4302 -0.5725
vn -0.7135 0.3805 -0.5883
vn -0.9993 -0.0343 -0.0125
vn -0.6995 -0.4295 0.5712
vn 0.0112 -0.5727 0.8196
vn 0.7153 -0.3796 0.5868
vn 0.9993 0.0361 0.0097
vn -0.0110 0.5656 -0.8246
vn 0.7008 0.4236 -0.5740
vn -0.7162 0.3741 -0.5891
vn -0.9993 -0.0369 -0.0075
vn -0.6971 -0.4251 0.5773
vn 0.0105 -0.5650 0.8250
vn 0.7121 -0.3762 0.5927
vn 0.9994 0.0327 0.0139
vn -0.0096 0.5205 -0.8538
vn 0.7048 0.3884 -0.5936
vn -0.7180 0.3425 -0.6059
vn -0.9993 -0.0367 -0.0008
vn -0.6959 -0.3917 0.6018
vn 0.0083 -0.5190 0.8547
vn 0.7081 -0.3472 0.6149
vn 0.9995 0.0272 0.0171
vn -0.0070 0.4346 -0.9006
vn 0.7094 0.3232 -0.6263
vn -0.7188 0.2846 -0.6342
vn -0.9994 -0.0327 0.0070
vn -0.6958 -0.3275 0.6392
vn 0.0052 -0.4326 0.9015
vn 0.7035 -0.2906 0.6485
vn 0.9996 0.0205 0.0193
vn -0.0042 0.3098 -0.9508
vn 0.7136 0.2298 -0.6618
vn -0.7189 0.2022 -0.6650
vn -0.9996 -0.0244 0.0143
vn -0.6965 -0.2339 0.6784
vn 0.0019 -0.3083 0.9513
vn 0.6996 -0.2077 0.6836
vn 0.9997 0.0135 0.0204
vn -0.0020 0.1570 -0.9876
vn 0.7162 0.1166 -0.6881
vn -0.7185 0.1025 -0.6879
vn -0.9997 -0.0129 0.0186
vn -0.6977 -0.1203 0.7062
vn -0.0003 -0.1588 0.9873
vn 0.6977 -0.1070 0.7084
vn 0.9998 0.0065 0.0201
vn -0.0038 0.0374 -0.9993
vn 0.7097 0.0212 -0.7042
vn -0.7136 0.0320 -0.6998
vn -0.9999 0.0071 0.0103
vn -0.7033 -0.0231 0.7105
vn -0.0022 -0.0403 0.9992
vn 0.7012 -0.0337 0.7121
vn 0.9999 -0.0079 0.0086
vn -0.0090 0.0002 -0.9999
vn 0.7012 -0.0352 -0.7120
vn -0.7110 0.0361 -0.7022
vn -0.9987 0.0509 0.0017
vn -0.7086 0.0358 0.7046
vn -0.0058 0.0001 1.0000
vn 0.7037 -0.0352 0.7096
vn 0.9987 -0.0497 -0.0018
vn -0.0143 0.0023 -0.9999
vn 0.6936 -0.0915 -0.7145
vn -0.7083 0.0960 -0.6994
vn -0.9909 0.1346 0.0017
vn -0.7058 0.0957 0.7019
vn -0.0108 0.0018 0.9999
vn 0.6961 -0.0919 0.7120
vn 0.9915 -0.1303 -0.0018
vn -0.0216 0.0070 -0.9997
vn 0.6712 -0.1826 -0.7184
vn -0.6916 0.1956 -0.6952
vn -0.9621 0.2726 0.0017
vn -0.6893 0.1950 0.6977
vn -0.0182 0.0061 0.9998
vn 0.6737 -0.1832 0.7159
vn 0.9654 -0.2606 -0.0018
vn -0.0287 0.0168 -0.9994
vn 0.6130 -0.3159 -0.7241
vn -0.6374 0.3418 -0.6905
vn -0.8810 0.4731 0.0017
vn -0.6352 0.3407 0.6930
vn -0.0255 0.0151 0.9995
vn 0.6154 -0.3171 0.7216
vn 0.8909 -0.4542 -0.0018
vn -0.0284 0.0282 -0.9992
vn 0.4896 -0.4766 -0.7301
vn -0.5187 0.5076 -0.6880
vn -0.7146 0.6995 0.0017
vn -0.5170 0.5059 0.6905
vn -0.0259 0.0257 0.9993
vn 0.4915 -0.4785 0.7276
vn 0.7170 -0.6970 -0.0019
vn -0.0184 0.0309 -0.9993
vn 0.3219 -0.6073 -0.7263
vn -0.3498 0.6342 -0.6895
vn -0.4834 0.8754 0.0017
vn -0.3487 0.6321 0.6920
vn -0.0167 0.0278 0.9995
vn 0.3232 -0.6096 0.7238
vn 0.4642 -0.8857 -0.0018
vn -0.0078 0.0238 -0.9997
vn 0.1741 -0.6724 -0.7194
vn -0.1907 0.6941 -0.6941
vn -0.2655 0.9641 0.0017
vn -0.1900 0.6918 0.6966
vn -0.0069 0.0204 0.9998
vn 0.1748 -0.6749 0.7169
vn 0.2477 -0.9688 -0.0018
vn -0.0023 0.0150 -0.9999
vn 0.0761 -0.6952 -0.7147
vn -0.0819 0.7104 -0.6990
vn -0.1148 0.9934 0.0017
vn -0.0815 0.7080 0.7015
vn -0.0018 0.0115 0.9999
vn 0.0763 -0.6978 0.7122
vn 0.1078 -0.9941 -0.0018
vn -0.0004 0.0083 -0.9999
vn 0.0208 -0.7024 -0.7115
vn -0.0222 0.7113 -0.7025
vn -0.0314 0.9995 0.0018
vn -0.0222 0.7088 0.7050
vn -0.0003 0.0047 1.0000
vn 0.0209 -0.7049 0.7090
vn 0.0294 -0.9995 -0.0018
vn -0.0000 0.0039 -1.0000
vn -0.0037 -0.7048 -0.7094
vn 0.0034 0.7094 -0.7047
vn 0.0048 1.0000 0.0018
vn 0.0034 0.7069 0.7073
vn 0.0000 0.0003 1.0000
vn -0.0037 -0.7073 0.7069
vn -0.0052 -1.0000 -0.0018
vn 0.0000 0.0011 -1.0000
vn -0.0077 -0.7061 -0.7080
vn 0.0077 0.7079 -0.7062
vn 0.0109 0.9999 0.0018
vn 0.0078 0.7054 0.7087
vn 0.0000 -0.0024 1.0000
vn -0.0077 -0.7086 0.7055
vn -0.0109 -0.9999 -0.0018
vn -0.0170 0.0032 -0.9998
vn -0.0215 -0.7070 -0.7068
vn -0.0025 0.7112 -0.7029
vn 0.0142 0.9999 0.0062
vn 0.0231 0.7041 0.7097
vn 0.0184 -0.0005 0.9998
vn 0.0031 -0.7055 0.7086
vn -0.0135 -0.9999 0.0024
vn -0.0742 0.0088 -0.9972
vn -0.0807 -0.7064 -0.7031
vn -0.0236 0.7164 -0.6973
vn 0.0415 0.9991 0.0100
vn 0.0829 0.7017 0.7076
vn 0.0764 0.0013 0.9971
vn 0.0258 -0.7017 0.7120
vn -0.0393 -0.9992 0.0093
vn -0.1606 0.0146 -0.9869
vn -0.1728 -0.7013 -0.6916
vn -0.0527 0.7194 -0.6926
vn 0.0861 0.9962 0.0065
vn 0.1746 0.6953 0.6972
vn 0.1628 -0.0035 0.9866
vn 0.0573 -0.7025 0.7094
vn -0.0819 -0.9965 0.0161
vn -0.2597 0.0262 -0.9653
vn -0.2764 -0.6906 -0.6683
vn -0.0878 0.7246 -0.6836
vn 0.1351 0.9908 -0.0022
vn 0.2789 0.6831 0.6749
vn 0.2629 -0.0140 0.9647
vn 0.0960 -0.7054 0.7022
vn -0.1276 -0.9914 0.0281
vn -0.3703 0.0453 -0.9278
vn -0.3904 -0.6723 -0.6290
vn -0.1282 0.7327 -0.6684
vn 0.1879 0.9820 -0.0182
vn 0.3937 0.6632 0.6365
vn 0.3746 -0.0320 0.9266
vn 0.1412 -0.7116 0.6882
vn -0.1759 -0.9833 0.0467
vn -0.4879 0.0735 -0.8698
vn -0.5100 -0.6448 -0.5692
vn -0.1722 0.7443 -0.6452
vn 0.2423 0.9692 -0.0432
vn 0.5138 0.6343 0.5776
vn 0.4927 -0.0594 0.8682
vn 0.1905 -0.7221 0.6650
vn -0.2250 -0.9716 0.0730
vn -0.6039 0.1113 -0.7892
vn -0.6271 -0.6075 -0.4874
vn -0.2166 0.7595 -0.6134
vn 0.2944 0.9525 -0.0780
vn 0.6311 0.5960 0.4964
vn 0.6088 -0.0967 0.7873
vn 0.2400 -0.7373 0.6315
vn -0.2719 -0.9563 0.1070
vn -0.7081 0.1570 -0.6884
vn -0.7315 -0.5618 -0.3863
vn -0.2575 0.7776 -0.5737
vn 0.3397 0.9326 -0.1217
vn 0.7355 0.5501 0.3956
vn 0.7130 -0.1425 0.6865
vn 0.2848 -0.7569 0.5882
vn -0.3133 -0.9381 0.1474
vn -0.7918 0.2069 -0.5746
vn -0.8147 -0.5114 -0.2731
vn -0.2917 0.7973 -0.5284
vn 0.3749 0.9113 -0.1705
vn 0.8188 0.4999 0.2821
vn 0.7965 -0.1933 0.5729
vn 0.3206 -0.7792 0.5386
vn -0.3466 -0.9183 0.1914
vn -0.8512 0.2571 -0.4576
vn -0.8735 -0.4606 -0.1577
vn -0.3171 0.8172 -0.4812
vn 0.3985 0.8903 -0.2202
vn 0.8776 0.4498 0.1656
vn 0.8557 -0.2448 0.4558
vn 0.3454 -0.8023 0.4868
vn -0.3706 -0.8984 0.2356
vn -0.8877 0.3038 -0.3460
vn -0.9094 -0.4131 -0.0482
vn -0.3339 0.8360 -0.4353
vn 0.4119 0.8713 -0.2669
vn 0.9134 0.4032 0.0547
vn 0.8920 -0.2933 0.3439
vn 0.3598 -0.8242 0.4372
vn -0.3861 -0.8798 0.2772
vn -0.9059 0.3452 -0.2451
vn -0.9273 -0.3710 0.0502
vn -0.3433 0.8530 -0.3932
vn 0.4175 0.8548 -0.3082
vn 0.9310 0.3621 -0.0452
vn 0.9098 -0.3365 0.2429
vn 0.3661 -0.8438 0.3923
vn -0.3947 -0.8632 0.3146
vn -0.9103 0.3638 -0.1975
vn -0.9315 -0.3508 0.0960
vn -0.3468 0.8605 -0.3730
vn 0.4181 0.8473 -0.3273
vn 0.9349 0.3428 -0.0919
vn 0.9137 -0.3564 0.1953
vn 0.3670 -0.8529 0.3712
vn -0.3979 -0.8553 0.3319
s 1
f 1//1 9//2 16//3 8//4
f 2//5 10//6 9//2 1//1
f 3//7 11//8 10//6 2//5
f 4//9 12//10 11//8 3//7
f 5//11 13//12 12//10 4//9
f 6//13 14//14 13//12 5//11
f 7//15 15//16 14//14 6//13
f 8//4 16//3 15//16 7//15
f 9//2 17//17 24//18 16//3
f 10//6 18//19 17//17 9//2
f 11//8 19//20 18//19 10//6
f 12//10 20//21 19//20 11//8
f 13//12 21//22 20//21 12//10
f 14//14 22//23 21//22 13//12
f 15//16 23//24 22//23 14//14
f 16//3 24//18 23//24 15//16
f 17//17 25//25 32//26 24//18
f 18//19 26//27 25//25 17//17
f 19//20 27//28 26//27 18//19
f 20//21 28//29 27//28 19//20
f 21//22 29//30 28//29 20//21
f 22//23 30//31 29//30 21//22
f 23//24 31//32 30//31 22//23
f 24//18 32//26 31//32 23//24
f 25//25 33//33 40//34 32//26
f 26//27 34//35 33//33 25//25
f 27//28 35//36 34//35 26//27
f 28//29 36//37 35//36 27//28
f 29//30 37//38 36//37 28//29
f 30//31 38//39 37//38 29//30
f 31//32 39//40 38//39 30//31
f 32//26 40//34 39//40 31//32
f 33//33 41//41 48//42 40//34
f 34//35 42//43 41//41 33//33
f 35//36 43//44 42//43 34//35
f 36//37 44//45 43//44 35//36
f 37//38 45//46 44//45 36//37
f 38//39 46//47 45//46 37//38
f 39//40 47//48 46//47 38//39
f 40//34 48//42 47//48 39//40
f 41//41 49//49 56//50 48//42
f 42//43 50//51 49//49 41//41
f 43//44 51//52 50//51 42//43
f 44//45 52//53 51//52 43//44
f 45//46 53//54 52//53 44//45
f 46//47 54//55 53//54 45//46
f 47//48 55//56 54//55 46//47
f 48//42 56//50 55//56 47//48
f 49//49 57//57 64//58 56//50
f 50//51 58//59 57//57 49//49
f 51//52 59//60 58//59 50//51
f 52//53 60//61 59//60 51//52
f 53//54 61//62 60//61 52//53
f 54//55 62//63 61//62 53//54
f 55//56 63//64 62//63 54//55
f 56//50 64//58 63//64 55//56
f 57//57 65//65 72//66 64//58
f 58//59 66//67 65//65 57//57
f 59//60 67//68 66//67 58//59
f 60//61 68//69 67//68 59//60
f 61//62 69//70 68//69 60//61
f 62//63 70//71 69//70 61//62
f 63//64 71//72 70//71 62//63
f 64//58 72//66 71//72 63//64
f 65//65 73//73 80//74 72//66
f 66//67 74//75 73//73 65//65
f 67//68 75//76 74//75 66//67
f 68//69 76//77 75//76 67//68
f 69//70 77//78 76//77 68//69
f 70//71 78//79 77//78 69//70
f 71//72 79//80 78//79 70//71
f 72//66 80//74 79//80 71//72
f 73//73 81//81 88//82 80//74
f 74//75 82//83 81//81 73//73
f 75//76 83//84 82//83 74//75
f 76//77 84//85 83//84 75//76
f 77//78 85//86 84//85 76//77
f 78//79 86//87 85//86 77//78
f 79//80 87//88 86//87 78//79
f 80//74 88//82 87//88 79//80
f 81//81 89//89 96//90 88//82
f 82//83 90//91 89//89 81//81
f 83//84 91//92 90//91 82//83
f 84//85 92//93 91//92 83//84
f 85//86 93//94 92//93 84//85
f 86//87 94//95 93//94 85//86
f 87//88 95//96 94//95 86//87
f 88//82 96//90 95//96 87//88
f 89//89 97//97 104//98 96//90
f 90//91 98//99 97//97 89//89
f 91//92 99//100 98//99 90//91
f 92//93 100//101 99//100 91//92
f 93//94 101//102 100//101 92//93
f 94//95 102//103 101//102 93//94
f 95//96 103//104 102//103 94//95
f 96//90 104//98 103//104 95//96
f 97//97 105//105 112//106 104//98
f 98//99 106//107 105//105 97//97
f 99//100 107//108 106//107 98//99
f 100//101 108//109 107//108 99//100
f 101//102 109//110 108//109 100//101
f 102//103 110//111 109//110 101//102
f 103//104 111//112 110//111 102//103
f 104//98 112//106 111//112 103//104
f 105//105 113//113 120//114 112//106
f 106//107 114//115 113//113 105//105
f 107//108 115//116 114//115 106//107
f 108//109 116//117 115//116 107//108
f 109//110 117//118 116//117 108//109
f 110//111 118//119 117//118 109//110
f 111//112 119//120 118//119 110//111
f 112//106 120//114 119//120 111//112
f 113//113 121//113 128//114 120//114
f 114//115 122//115 121//113 113//113
f 115//116 123//116 122//115 114//115
f 116//117 124//117 123//116 115//116
f 117//118 125//118 124//117 116//117
f 118//119 126//119 125//118 117//118
f 119//120 127//120 126//119 118//119
f 120//114 128//114 127//120 119//120
f 121//113 129//113 136//114 128//114
f 122//115 130//115 129//113 121//113
f 123//116 131//116 130//115 122//115
f 124//117 132//117 131//116 123//116
f 125//118 133//118 132//117 124//117
f 126//119 134//119 133//118 125//118
f 127//120 135//120 134//119 126//119
f 128//114 136//114 135//120 127//120
f 129//113 137//113 144//114 136//114
f 130//115 138//115 137//113 129//113
f 131//116 139//116 138//115 130//115
f 132//117 140//117 139//116 131//116
f 133//118 141//118 140//117 132//117
f 134//119 142//119 141//118 133//118
f 135//120 143//120 142//119 134//119
f 136//114 144//114 143//120 135//120
f 137//113 145//113 152//114 144//114
f 138//115 146//115 145//113 137//113
f 139//116 147//116 146//115 138//115
f 140//117 148//117 147//116 139//116
f 141//118 149//118 148//117 140//117
f 142//119 150//119 149//118 141//118
f 143//120 151//120 150//119 142//119
f 144//114 152//114 151//120 143//120
f 145//113 153//113 160//114 152//114
f 146//115 154//115 153//113 145//113
f 147//116 155//116 154//115 146//115
f 148//117 156//117 155//116 147//116
f 149//118 157//118 156//117 148//117
f 150//119 158//119 157//118 149//118
f 151//120 159//120 158//119 150//119
f 152//114 160//114 159//120 151//120
f 153//113 161//113 168//114 160//114
f 154//115 162//115 161//113 153//113
f 155//116 163//116 162//115 154//115
f 156//117 164//117 163//116 155//116
f 157//118 165//118 164//117 156//117
f 158//119 166//119 165//118 157//118
f 159//120 167//120 166//119 158//119
f 160//114 168//114 167//120 159//120
f 161//113 169//113 176//114 168//114
f 162//115 170//115 169//113 161//113
f 163//116 171//116 170//115 162//115
f 164//117 172//117 171//116 163//116
f 165//118 173//118 172//117 164//117
f 166//119 174//119 173//118 165//118
f 167//120 175//120 174//119 166//119
f 168//114 176//114 175//120 167//120
f 169//113 177//113 184//114 176//114
f 170//115 178//115 177//113 169//113
f 171//116 179//116 178//115 170//115
f 172//117 180//117 179//116 171//116
f 173//118 181//118 180//117 172//117
f 174//119 182//119 181//118 173//118
f 175//120 183//120 182//119 174//119
f 176//114 184//114 183//120 175//120
f 177//113 185//113 192//114 184//114
f 178//115 186//115 185//113 177//113
f 179//116 187//116 186//115 178//115
f 180//117 188//117 187//116 179//116
f 181//118 189//118 188//117 180//117
f 182//119 190//119 189//118 181//118
f 183//120 191//120 190//119 182//119
f 184//114 192//114 191//120 183//120
f 185//113 193//121 200//122 192//114
f 186//115 194//123 193//121 185//113
f 187//116 195//124 194//123 186//115
f 188//117 196//125 195//124 187//116
f 189//118 197//126 196//125 188//117
f 190//119 198//127 197//126 189//118
f 191//120 199//128 198//127 190//119
f 192//114 200//122 199//128 191//120
f 193//121 201//129 208//130 200//122
f 194//123 202//131 201//129 193//121
f 195//124 203//132 202//131 194//123
f 196//125 204//133 203//132 195//124
f 197//126 205//134 204//133 196//125
f 198//127 206//135 205//134 197//126
f 199//128 207//136 206//135 198//127
f 200//122 208//130 207//136 199//128
f 201//129 209//137 216//138 208//130
f 202//131 210//139 209//137 201//129
f 203//132 211//140 210//139 202//131
f 204//133 212//141 211//140 203//132
f 205//134 213//142 212//141 204//133
f 206//135 214//143 213//142 205//134
f 207//136 215//144 214//143 206//135
f 208//130 216//138 215//144 207//136
f 209//137 217//145 224//146 216//138
f 210//139 218//147 217//145 209//137
f 211//140 219//148 218//147 210//139
f 212//141 220//149 219//148 211//140
f 213//142 221//150 220//149 212//141
f 214//143 222//151 221//150 213//142
f 215//144 223//152 222//151 214//143
f 216//138 224//146 223//152 215//144
f 217//145 225//153 232//154 224//146
f 218//147 226//155 225//153 217//145
f 219//148 227//156 226//155 218//147
f 220//149 228//157 227//156 219//148
f 221//150 229//158 228//157 220//149
f 222//151 230//159 229//158 221//150
f 223//152 231//160 230//159 222//151
f 224//146 232//154 231//160 223//152
f 225//153 233//161 240//162 232//154
f 226//155 234//163 233//161 225//153
f 227//156 235//164 234//163 226//155
f 228//157 236//165 235//164 227//156
f 229//158 237//166 236//165 228//157
f 230//159 238//167 237//166 229//158
f 231//160 239//168 238//167 230//159
f 232//154 240//162 239//168 231//160
f 233//161 241//169 248//170 240//162
f 234//163 242//171 241//169 233//161
f 235//164 243//172 242//171 234//163
f 236//165 244//173 243//172 235//164
f 237//166 245//174 244//173 236//165
f 238//167 246//175 245//174 237//166
f 239//168 247//176 246//175 238//167
f 240//162 248//170 247//176 239//168
f 241//169 249//177 256//178 248//170
f 242//171 250//179 249//177 241//169
f 243//172 251//180 250//179 242//171
f 244//173 252//181 251//180 243//172
f 245//174 253//182 252//181 244//173
f 246//175 254//183 253//182 245//174
f 247//176 255//184 254//183 246//175
f 248//170 256//178 255//184 247//176
f 249//177 257//185 264//186 256//178
f 250//179 258//187 257//185 249//177
f 251//180 259//188 258//187 250//179
f 252//181 260//189 259//188 251//180
f 253//182 261//190 260//189 252//181
f 254//183 262//191 261//190 253//182
f 255//184 263//192 262//191 254//183
f 256//178 264//186 263//192 255//184
f 257//185 265//193 272//194 264//186
f 258//187 266//195 265//193 257//185
f 259//188 267//196 266//195 258//187
f 260//189 268//197 267//196 259//188
f 261//190 269//198 268//197 260//189
f 262//191 270//199 269//198 261//190
f 263//192 271//200 270//199 262//191
f 264//186 272//194 271//200 263//192
f 265//193 273//201 280//202 272//194
f 266//195 274//203 273//201 265//193
f 267//196 275//204 274//203 266//195
f 268//197 276//205 275//204 267//196
f 269//198 277//206 276//205 268//197
f 270//199 278//207 277//206 269//198
f 271//200 279//208 278//207 270//199
f 272//194 280//202 279//208 271//200
f 273//201 281//209 288//210 280//202
f 274//203 282//211 281//209 273//201
f 275//204 283//212 282//211 274//203
f 276//205 284//213 283//212 275//204
f 277//206 285//214 284//213 276//205
f 278//207 286//215 285//214 277//206
f 279//208 287//216 286//215 278//207
f 280//202 288//210 287//216 279//208
f 281//209 289//217 296//218 288//210
f 282//211 290//219 289//217 281//209
f 283//212 291//220 290//219 282//211
f 284//213 292//221 291//220 283//212
f 285//214 293//222 292//221 284//213
f 286//215 294//223 293//222 285//214
f 287//216 295//224 294//223 286//215
f 288//210 296//218 295//224 287//216
f 289//217 297//225 304//226 296//218
f 290//219 298//227 297//225 289//217
f 291//220 299//116 298//227 290//219
f 292//221 300//228 299//116 291//220
f 293//222 301//229 300//228 292//221
f 294//223 302//230 301//229 293//222
f 295//224 303//120 302//230 294//223
f 296//218 304//226 303//120 295//224
f 297//225 305//225 312//226 304//226
f 298//227 306//227 305//225 297//225
f 299//116 307//116 306//227 298//227
f 300//228 308//228 307//116 299//116
f 301//229 309//229 308//228 300//228
f 302//230 310//230 309//229 301//229
f 303//120 311//120 310//230 302//230
f 304//226 312//226 311//120 303//120
f 305//225 313//225 320//226 312//226
f 306//227 314//227 313//225 305//225
f 307//116 315//116 314//227 306//227
f 308//228 316//228 315//116 307//116
f 309//229 317//229 316//228 308//228
f 310//230 318//230 317//229 309//229
f 311//120 319//120 318//230 310//230
f 312//226 320//226 319//120 311//120
f 313//225 321//225 328//226 320//226
f 314//227 322//227 321//225 313//225
f 315//116 323//116 322//227 314//227
f 316//228 324//228 323//116 315//116
f 317//229 325//229 324//228 316//228
f 318//230 326//230 325//229 317//229
f 319//120 327//120 326//230 318//230
f 320//226 328//226 327//120 319//120
f 321//225 329//225 336//226 328//226
f 322//227 330//227 329//225 321//225
f 323//116 331//116 330//227 322//227
f 324//228 332//228 331//116 323//116
f 325//229 333//229 332//228 324//228
f 326//230 334//230 333//229 325//229
f 327//120 335//120 334//230 326//230
f 328//226 336//226 335//120 327//120
f 329//225 337//225 344//226 336//226
f 330//227 338//227 337//225 329//225
f 331//116 339//116 338//227 330//227
f 332//228 340//228 339//116 331//116
f 333//229 341//229 340//228 332//228
f 334//230 342//230 341//229 333//229
f 335//120 343//120 342//230 334//230
f 336//226 344//226 343//120 335//120
f 337//225 345//225 352//226 344//226
f 338//227 346//227 345//225 337//225
f 339//116 347//116 346//227 338//227
f 340//228 348//228 347//116 339//116
f 341//229 349//229 348//228 340//228
f 342//230 350//230 349//229 341//229
f 343//120 351//120 350//230 342//230
f 344//226 352//226 351//120 343//120
f 345//225 353//225 360//226 352//226
f 346//227 354//227 353//225 345//225
f 347//116 355//116 354//227 346//227
f 348//228 356//228 355//116 347//116
f 349//229 357//229 356//228 348//228
f 350//230 358//230 357//229 349//229
f 351//120 359//120 358//230 350//230
f 352//226 360//226 359//120 351//120
f 353//225 361//225 368//226 360//226
f 354//227 362//227 361//225 353//225
f 355//116 363//116 362//227 354//227
f 356//228 364//228 363//116 355//116
f 357//229 365//229 364//228 356//228
f 358//230 366//230 365//229 357//229
f 359//120 367//120 366//230 358//230
f 360//226 368//226 367//120 359//120
f 361//225 369//225 376//226 368//226
f 362//227 370//227 369//225 361//225
f 363//116 371//116 370//227 362//227
f 364//228 372//228 371//116 363//116
f 365//229 373//229 372//228 364//228
f 366//230 374//230 373//229 365//229
f 367//120 375//120 374//230 366//230
f 368//226 376//226 375//120 367//120
f 369//225 377//225 384//226 376//226
f 370//227 378//227 377//225 369//225
f 371//116 379//116 378//227 370//227
f 372//228 380//228 379//116 371//116
f 373//229 381//229 380//228 372//228
f 374//230 382//230 381//229 373//229
f 375//120 383//120 382//230 374//230
f 376//226 384//226 383//120 375//120
f 377//225 385//231 392//232 384//226
f 378//227 386//233 385//231 377//225
f 379//116 387//234 386//233 378//227
f 380//228 388//235 387//234 379//116
f 381//229 389//236 388//235 380//228
f 382//230 390//237 389//236 381//229
f 383//120 391//238 390//237 382//230
f 384//226 392//232 391//238 383//120
f 385//231 393//239 400//240 392//232
f 386//233 394//241 393//239 385//231
f 387//234 395//242 394//241 386//233
f 388//235 396//243 395//242 387//234
f 389//236 397//244 396//243 388//235
f 390//237 398//245 397//244 389//236
f 391//238 399//246 398//245 390//237
f 392//232 400//240 399//246 391//238
f 393//239 401//247 408//248 400//240
f 394//241 402//249 401//247 393//239
f 395//242 403//250 402//249 394//241
f 396//243 404//251 403//250 395//242
f 397//244 405//252 404//251 396//243
f 398//245 406//253 405//252 397//244
f 399//246 407//254 406//253 398//245
f 400//240 408//248 407//254 399//246
f 401//247 409//255 416//256 408//248
f 402//249 410//257 409//255 401//247
f 403//250 411//258 410//257 402//249
f 404//251 412//259 411//258 403//250
f 405//252 413//260 412//259 404//251
f 406//253 414//261 413//260 405//252
f 407//254 415//262 414//261 406//253
f 408//248 416//256 415//262 407//254
f 409//255 417//263 424//264 416//256
f 410//257 418//265 417//263 409//255
f 411//258 419//266 418//265 410//257
f 412//259 420//267 419//266 411//258
f 413//260 421//268 420//267 412//259
f 414//261 422//269 421//268 413//260
f 415//262 423//270 422//269 414//261
f 416//256 424//264 423//270 415//262
f 417//263 425//271 432//272 424//264
f 418//265 426//273 425//271 417//263
f 419//266 427//274 426//273 418//265
f 420//267 428//275 427//274 419//266
f 421//268 429//276 428//275 420//267
f 422//269 430//277 429//276 421//268
f 423//270 431//278 430//277 422//269
f 424//264 432//272 431//278 423//270
f 425//271 433//279 440//280 432//272
f 426//273 434//281 433//279 425//271
f 427//274 435//282 434//281 426//273
f 428//275 436//283 435//282 427//274
f 429//276 437//284 436//283 428//275
f 430//277 438//285 437//284 429//276
f 431//278 439//286 438//285 430//277
f 432//272 440//280 439//286 431//278
f 433//279 441//287 448//288 440//280
f 434//281 442//289 441//287 433//279
f 435//282 443//290 442//289 434//281
f 436//283 444//291 443//290 435//282
f 437//284 445//292 444//291 436//283
f 438//285 446//293 445//292 437//284
f 439//286 447//294 446//293 438//285
f 440//280 448//288 447//294 439//286
f 441//287 449//295 456//296 448//288
f 442//289 450//297 449//295 441//287
f 443//290 451//298 450//297 442//289
f 444//291 452//299 451//298 443//290
f 445//292 453//300 452//299 444//291
f 446//293 454//301 453//300 445//292
f 447//294 455//302 454//301 446//293
f 448//288 456//296 455//302 447//294
f 449//295 457//303 464//304 456//296
f 450//297 458//305 457//303 449//295
f 451//298 459//306 458//305 450//297
f 452//299 460//307 459//306 451//298
f 453//300 461//308 460//307 452//299
f 454//301 462//309 461//308 453//300
f 455//302 463//310 462//309 454//301
f 456//296 464//304 463//310 455//302
f 457//303 465//311 472//312 464//304
f 458//305 466//313 465//311 457//303
f 459//306 467//314 466//313 458//305
f 460//307 468//315 467//314 459//306
f 461//308 469//316 468//315 460//307
f 462//309 470//317 469//316 461//308
f 463//310 471//318 470//317 462//309
f 464//304 472//312 471//318 463//310
f 465//311 473//319 480//320 472//312
f 466//313 474//321 473//319 465//311
f 467//314 475//322 474//321 466//313
f 468//315 476//323 475//322 467//314
f 469//316 477//324 476//323 468//315
f 470//317 478//325 477//324 469//316
f 471//318 479//326 478//325 470//317
f 472//312 480//320 479//326 471//318
f 473//319 481//327 488//328 480//320
f 474//321 482//329 481//327 473//319
f 475//322 483//330 482//329 474//321
f 476//323 484//331 483//330 475//322
f 477//324 485//332 484//331 476//323
f 478//325 486//333 485//332 477//324
f 479//326 487//334 486//333 478//325
f 480//320 488//328 487//334 479//326
f 481//327 489//225 496//335 488//328
f 482//329 490//336 489//225 481//327
f 483//330 491//113 490//336 482//329
f 484//331 492//337 491//113 483//330
f 485//332 493//229 492//337 484//331
f 486//333 494//338 493//229 485//332
f 487//334 495//118 494//338 486//333
f 488//328 496//335 495//118 487//334
f 489//225 497//225 504//335 496//335
f 490//336 498//336 497//225 489//225
f 491//113 499//113 498//336 490//336
f 492//337 500//337 499//113 491//113
f 493//229 501//229 500//337 492//337
f 494//338 502//338 501//229 493//229
f 495//118 503//118 502//338 494//338
f 496//335 504//335 503//118 495//118
f 497//225 505//225 512//335 504//335
f 498//336 506//336 505//225 497//225
f 499//113 507//113 506//336 498//336
f 500//337 508//337 507//113 499//113
f 501//229 509//229 508//337 500//337
f 502//338 510//338 509//229 501//229
f 503//118 511//118 510//338 502//338
f 504//335 512//335 511//118 503//118
f 505//225 513//225 520//335 512//335
f 506//336 514//336 513//225 505//225
f 507//113 515//113 514//336 506//336
f 508//337 516//337 515//113 507//113
f 509//229 517//229 516//337 508//337
f 510//338 518//338 517//229 509//229
f 511//118 519//118 518//338 510//338
f 512//335 520//335 519//118 511//118
f 513//225 521//225 528//335 520//335
f 514//336 522//336 521//225 513//225
f 515//113 523//113 522//336 514//336
f 516//337 524//337 523//113 515//113
f 517//229 525//229 524//337 516//337
f 518//338 526//338 525//229 517//229
f 519//118 527//118 526//338 518//338
f 520//335 528//335 527//118 519//118
f 521//225 529//225 536//335 528//335
f 522//336 530//336 529//225 521//225
f 523//113 531//113 530//336 522//336
f 524//337 532//337 531//113 523//113
f 525//229 533//229 532//337 524//337
f 526//338 534//338 533//229 525//229
f 527//118 535//118 534//338 526//338
f 528//335 536//335 535//118 527//118
f 529//225 537//225 544//335 536//335
f 530//336 538//336 537//225 529//225
f 531//113 539//113 538//336 530//336
f 532//337 540//337 539//113 531//113
f 533//229 541//229 540//337 532//337
f 534//338 542//338 541//229 533//229
f 535//118 543//118 542//338 534//338
f 536//335 544//335 543//118 535//118
f 537//225 545//225 552//335 544//335
f 538//336 546//336 545//225 537//225
f 539//113 547//113 546//336 538//336
f 540//337 548//337 547//113 539//113
f 541//229 549//229 548//337 540//337
f 542//338 550//338 549//229 541//229
f 543//118 551//118 550//338 542//338
f 544//335 552//335 551//118 543//118
f 545//225 553//225 560//335 552//335
f 546//336 554//336 553//225 545//225
f 547//113 555//113 554//336 546//336
f 548//337 556//337 555//113 547//113
f 549//229 557//229 556//337 548//337
f 550//338 558//338 557//229 549//229
f 551//118 559//118 558//338 550//338
f 552//335 560//335 559//118 551//118
f 553//225 561//225 568//335 560//335
f 554//336 562//336 561//225 553//225
f 555//113 563//113 562//336 554//336
f 556//337 564//337 563//113 555//113
f 557//229 565//229 564//337 556//337
f 558//338 566//338 565//229 557//229
f 559//118 567//118 566//338 558//338
f 560//335 568//335 567//118 559//118
f 561//225 569//339 576//335 568//335
f 562//336 570//336 569//339 561//225
f 563//113 571//113 570//336 562//336
f 564//337 572//337 571//113 563//113
f 565//229 573//340 572//337 564//337
f 566//338 574//338 573//340 565//229
f 567//118 575//118 574//338 566//338
f 568//335 576//335 575//118 567//118
f 569//339 577//341 584//342 576//335
f 570//336 578//343 577//341 569//339
f 571//113 579//344 578//343 570//336
f 572//337 580//345 579//344 571//113
f 573//340 581//346 580//345 572//337
f 574//338 582//347 581//346 573//340
f 575//118 583//348 582//347 574//338
f 576//335 584//342 583//348 575//118
f 577//341 585//349 592//350 584//342
f 578//343 586//351 585//349 577//341
f 579//344 587//352 586//351 578//343
f 580//345 588//353 587//352 579//344
f 581//346 589//354 588//353 580//345
f 582//347 590//355 589//354 581//346
f 583//348 591//356 590//355 582//347
f 584//342 592//350 591//356 583//348
f 585//349 593//357 600//358 592//350
f 586//351 594//359 593//357 585//349
f 587//352 595//360 594//359 586//351
f 588//353 596//361 595//360 587//352
f 589//354 597//362 596//361 588//353
f 590//355 598//363 597//362 589//354
f 591//356 599//364 598//363 590//355
f 592//350 600//358 599//364 591//356
f 593//357 601//365 608//366 600//358
f 594//359 602//367 601//365 593//357
f 595//360 603//368 602//367 594//359
f 596//361 604//369 603//368 595//360
f 597//362 605//370 604//369 596//361
f 598//363 606//371 605//370 597//362
f 599//364 607//372 606//371 598//363
f 600//358 608//366 607//372 599//364
f 601//365 609//373 616//374 608//366
f 602//367 610//375 609//373 601//365
f 603//368 611//376 610//375 602//367
f 604//369 612//377 611//376 603//368
f 605//370 613//378 612//377 604//369
f 606//371 614//379 613//378 605//370
f 607//372 615//380 614//379 606//371
f 608//366 616//374 615//380 607//372
f 609//373 617//381 624//382 616//374
f 610//375 618//383 617//381 609//373
f 611//376 619//384 618//383 610//375
f 612//377 620//385 619//384 611//376
f 613//378 621//386 620//385 612//377
f 614//379 622//387 621//386 613//378
f 615//380 623//388 622//387 614//379
f 616//374 624//382 623//388 615//380
f 617//381 625//389 632//390 624//382
f 618//383 626//391 625//389 617//381
f 619//384 627//392 626//391 618//383
f 620//385 628//393 627//392 619//384
f 621//386 629//394 628//393 620//385
f 622//387 630//395 629//394 621//386
f 623//388 631//396 630//395 622//387
f 624//382 632//390 631//396 623//388
f 625//389 633//397 640//398 632//390
f 626//391 634//399 633//397 625//389
f 627//392 635//400 634//399 626//391
f 628//393 636//401 635//400 627//392
f 629//394 637//402 636//401 628//393
f 630//395 638//403 637//402 629//394
f 631//396 639//404 638//403 630//395
f 632//390 640//398 639//404 631//396
f 633//397 641//405 648//406 640//398
f 634//399 642//407 641//405 633//397
f 635//400 643//408 642//407 634//399
f 636//401 644//409 643//408 635//400
f 637//402 645//410 644//409 636//401
f 638//403 646//411 645//410 637//402
f 639//404 647//412 646//411 638//403
f 640//398 648//406 647//412 639//404
f 641//405 649//413 656//414 648//406
f 642//407 650//415 649//413 641//405
f 643//408 651//416 650//415 642//407
f 644//409 652//417 651//416 643//408
f 645//410 653//418 652//417 644//409
f 646//411 654//419 653//418 645//410
f 647//412 655//420 654//419 646//411
f 648//406 656//414 655//420 647//412
f 649//413 657//421 664//422 656//414
f 650//415 658//423 657//421 649//413
f 651//416 659//424 658//423 650//415
f 652//417 660//425 659//424 651//416
f 653//418 661//426 660//425 652//417
f 654//419 662//427 661//426 653//418
f 655//420 663//428 662//427 654//419
f 656//414 664//422 663//428 655//420
f 657//421 665//429 672//430 664//422
f 658//423 666//431 665//429 657//421
f 659//424 667//432 666//431 658//423
f 660//425 668//433 667//432 659//424
f 661//426 669//434 668//433 660//425
f 662//427 670//435 669//434 661//426
f 663//428 671//436 670//435 662//427
f 664//422 672//430 671//436 663//428
f 665//429 673//437 680//438 672//430
f 666//431 674//439 673//437 665//429
f 667//432 675//440 674//439 666//431
f 668//433 676//441 675//440 667//432
f 669//434 677//442 676//441 668//433
f 670//435 678//443 677//442 669//434
f 671//436 679//444 678//443 670//435
f 672//430 680//438 679//444 671//436
f 673//437 681//445 688//446 680//438
f 674//439 682//447 681//445 673//437
f 675//440 683//448 682//447 674//439
f 676//441 684//449 683//448 675//440
f 677//442 685//450 684//449 676//441
f 678//443 686//451 685//450 677//442
f 679//444 687//452 686//451 678//443
f 680//438 688//446 687//452 679//444
f 681//445 689//453 696//454 688//446
f 682//447 690//455 689//453 681//445
f 683//448 691//456 690//455 682//447
f 684//449 692//457 691//456 683//448
f 685//450 693//458 692//457 684//449
f 686//451 694//459 693//458 685//450
f 687//452 695//460 694//459 686//451
f 688//446 696//454 695//460 687//452
f 689//453 697//461 704//462 696//454
f 690//455 698//463 697//461 689//453
f 691//456 699//464 698//463 690//455
f 692//457 700//465 699//464 691//456
f 693//458 701//466 700//465 692//457
f 694//459 702//467 701//466 693//458
f 695//460 703//468 702//467 694//459
f 696//454 704//462 703//468 695//460
f 697//461 705//469 712//470 704//462
f 698//463 706//471 705//469 697//461
f 699//464 707//472 706//471 698//463
f 700//465 708//473 707//472 699//464
f 701//466 709//474 708//473 700//465
f 702//467 710//475 709//474 701//466
f 703//468 711//476 710//475 702//467
f 704//462 712//470 711//476 703//468
f 705//469 713//477 720//478 712//470
f 706//471 714//479 713//477 705//469
f 707//472 715//480 714//479 706//471
f 708//473 716//481 715//480 707//472
f 709//474 717//482 716//481 708//473
f 710//475 718//483 717//482 709//474
f 711//476 719//484 718//483 710//475
f 712//470 720//478 719//484 711//476
f 713//477 721//485 728//486 720//478
f 714//479 722//487 721//485 713//477
f 715//480 723//488 722//487 714//479
f 716//481 724//489 723//488 715//480
f 717//482 725//490 724//489 716//481
f 718//483 726//491 725//490 717//482
f 719//484 727//492 726//491 718//483
f 720//478 728//486 727//492 719//484
f 721//485 729//493 736//494 728//486
f 722//487 730//495 729//493 721//485
f 723//488 731//496 730//495 722//487
f 724//489 732//497 731//496 723//488
f 725//490 733//498 732//497 724//489
f 726//491 734//499 733//498 725//490
f 727//492 735//500 734//499 726//491
f 728//486 736//494 735//500 727//492
f 729//493 737//501 744//502 736//494
f 730//495 738//503 737//501 729//493
f 731//496 739//504 738//503 730//495
f 732//497 740//505 739//504 731//496
f 733//498 741//506 740//505 732//497
f 734//499 742//507 741//506 733//498
f 735//500 743//508 742//507 734//499
f 736//494 744//502 743//508 735//500
f 737//501 745//509 752//510 744//502
f 738//503 746//511 745//509 737//501
f 739//504 747//512 746//511 738//503
f 740//505 748//513 747//512 739//504
f 741//506 749//514 748//513 740//505
f 742//507 750//515 749//514 741//506
f 743//508 751//516 750//515 742//507
f 744//502 752//510 751//516 743//508
f 745//509 753//517 760//518 752//510
f 746//511 754//519 753//517 745//509
f 747//512 755//520 754//519 746//511
f 748//513 756//521 755//520 747//512
f 749//514 757//522 756//521 748//513
f 750//515 758//523 757//522 749//514
f 751//516 759//524 758//523 750//515
f 752//510 760//518 759//524 751//516
f 753//517 761//525 768//526 760//518
f 754//519 762//527 761//525 753//517
f 755//520 763//528 762//527 754//519
f 756//521 764//529 763//528 755//520
f 757//522 765//530 764//529 756//521
f 758//523 766//531 765//530 757//522
f 759//524 767//532 766//531 758//523
f 760//518 768//526 767//532 759//524
f 761//525 769//533 776//534 768//526
f 762//527 770//535 769//533 761//525
f 763//528 771//536 770//535 762//527
f 764//529 772//537 771//536 763//528
f 765//530 773//538 772//537 764//529
f 766//531 774//539 773//538 765//530
f 767//532 775//540 774//539 766//531
f 768//526 776//534 775//540 767//532
f 769//533 777//541 784//542 776//534
f 770//535 778//543 777//541 769//533
f 771//536 779//544 778//543 770//535
f 772//537 780//545 779//544 771//536
f 773//538 781//546 780//545 772//537
f 774//539 782//547 781//546 773//538
f 775//540 783//548 782//547 774//539
f 776//534 784//542 783//548 775//540
f 777//541 785//549 792//550 784//542
f 778//543 786//551 785//549 777//541
f 779//544 787//552 786//551 778//543
f 780//545 788//553 787//552 779//544
f 781//546 789//554 788//553 780//545
f 782//547 790//555 789//554 781//546
f 783//548 791//556 790//555 782//547
f 784//542 792//550 791//556 783//548
f 785//549 793//557 800//558 792//550
f 786//551 794//559 793//557 785//549
f 787//552 795//560 794//559 786//551
f 788//553 796//561 795//560 787//552
f 789//554 797//562 796//561 788//553
f 790//555 798//563 797//562 789//554
f 791//556 799//564 798//563 790//555
f 792//550 800//558 799//564 791//556
f 793//557 801//565 808//566 800//558
f 794//559 802//567 801//565 793//557
f 795//560 803//568 802//567 794//559
f 796//561 804//569 803//568 795//560
f 797//562 805//570 804//569 796//561
f 798//563 806//571 805//570 797//562
f 799//564 807//572 806//571 798//563
f 800//558 808//566 807//572 799//564
f 801//565 809//573 816//574 808//566
f 802//567 810//575 809//573 801//565
f 803//568 811//576 810//575 802//567
f 804//569 812//577 811//576 803//568
f 805//570 813//578 812//577 804//569
f 806//571 814//579 813//578 805//570
f 807//572 815//580 814//579 806//571
f 808//566 816//574 815//580 807//572
f 809//573 817//581 824//582 816//574
f 810//575 818//583 817//581 809//573
f 811//576 819//584 818//583 810//575
f 812//577 820//585 819//584 811//576
f 813//578 821//586 820//585 812//577
f 814//579 822//587 821//586 813//578
f 815//580 823//588 822//587 814//579
f 816//574 824//582 823//588 815//580
f 817//581 825//589 832//590 824//582
f 818//583 826//591 825//589 817//581
f 819//584 827//592 826//591 818//583
f 820//585 828//593 827//592 819//584
f 821//586 829//594 828//593 820//585
f 822//587 830//595 829//594 821//586
f 823//588 831//596 830//595 822//587
f 824//582 832//590 831//596 823//588
f 825//589 833//597 840//598 832//590
f 826//591 834//599 833//597 825//589
f 827//592 835//600 834//599 826//591
f 828//593 836//601 835//600 827//592
f 829//594 837//602 836//601 828//593
f 830//595 838//603 837//602 829//594
f 831//596 839//604 838//603 830//595
f 832//590 840//598 839//604 831//596
f 833//597 841//605 848//606 840//598
f 834//599 842//607 841//605 833//597
f 835//600 843//608 842//607 834//599
f 836//601 844//609 843//608 835//600
f 837//602 845//610 844//609 836//601
f 838//603 846//611 845//610 837//602
f 839//604 847//612 846//611 838//603
f 840//598 848//606 847//612 839//604
f 841//605 849//613 856//614 848//606
f 842//607 850//615 849//613 841//605
f 843//608 851//616 850//615 842//607
f 844//609 852//617 851//616 843//608
f 845//610 853//618 852//617 844//609
f 846//611 854//619 853//618 845//610
f 847//612 855//620 854//619 846//611
f 848//606 856//614 855//620 847//612
f 849//613 857//621 864//622 856//614
f 850//615 858//623 857//621 849//613
f 851//616 859//624 858//623 850//615
f 852//617 860//625 859//624 851//616
f 853//618 861//626 860//625 852//617
f 854//619 862//627 861//626 853//618
f 855//620 863//628 862//627 854//619
f 856//614 864//622 863//628 855//620
f 857//621 865//629 872//630 864//622
f 858//623 866//631 865//629 857//621
f 859//624 867//632 866//631 858//623
f 860//625 868//633 867//632 859//624
f 861//626 869//634 868//633 860//625
f 862//627 870//635 869//634 861//626
f 863//628 871//636 870//635 862//627
f 864//622 872//630 871//636 863//628
