# Blender v2.79 (sub 0) OBJ File: 'FirstRoom.blend'
# www.blender.org
v 1.079083 6.682832 -1.079081
v 1.079083 0.000000 -1.079081
v 1.079083 6.682832 -1.351633
v 1.079083 0.000000 -1.351633
v 1.351635 6.682832 -1.079081
v 1.351635 0.000000 -1.079081
v 1.351635 6.682832 -1.351633
v 1.351635 0.000000 -1.351633
v 1.079083 6.682832 1.351613
v 1.079083 -0.000000 1.351613
v 1.079083 6.682832 1.079062
v 1.079083 -0.000000 1.079062
v 1.351635 6.682832 1.351613
v 1.351634 -0.000000 1.351613
v 1.351635 6.682832 1.079062
v 1.351634 -0.000000 1.079062
v -1.351619 6.682832 1.351613
v -1.351619 -0.000000 1.351613
v -1.351619 6.682832 1.079062
v -1.351619 -0.000000 1.079062
v -1.079067 6.682832 1.351613
v -1.079068 -0.000000 1.351613
v -1.079067 6.682832 1.079062
v -1.079068 -0.000000 1.079062
v -1.351619 6.682832 -1.079081
v -1.351619 -0.000000 -1.079081
v -1.351619 6.682832 -1.351633
v -1.351619 -0.000000 -1.351633
v -1.079067 6.682832 -1.079081
v -1.079068 -0.000000 -1.079081
v -1.079067 6.682832 -1.351633
v -1.079068 -0.000000 -1.351633
v 1.312936 2.909791 1.126739
v 1.260332 3.055498 1.126739
v 1.187853 3.194122 1.126739
v 1.096640 3.323478 1.126739
v 0.988133 3.441524 1.126739
v 0.864042 3.546400 1.126739
v 0.726325 3.636452 1.126739
v 0.577153 3.710259 1.126739
v 0.418880 3.766658 1.126739
v 0.254000 3.804759 1.126739
v 0.085114 3.823960 1.126739
v -0.085113 3.823960 1.126739
v -0.253999 3.804759 1.126739
v -0.418879 3.766658 1.126739
v -0.577153 3.710260 1.126739
v -0.726324 3.636453 1.126739
v -0.864042 3.546401 1.126739
v -0.988133 3.441525 1.126739
v -1.096640 3.323479 1.126739
v -1.187853 3.194123 1.126739
v -1.260332 3.055499 1.126739
v -1.312936 2.909793 1.126739
v -1.122278 2.865736 1.126739
v -1.077313 2.990283 1.126739
v -1.015359 3.108777 1.126739
v -0.937392 3.219348 1.126739
v -0.844641 3.320252 1.126739
v -0.738570 3.409899 1.126739
v -0.620851 3.486874 1.126739
v -0.493341 3.549963 1.126739
v -0.358051 3.598171 1.126739
v -0.217114 3.630739 1.126739
v -0.072753 3.647152 1.126739
v 0.072755 3.647152 1.126739
v 0.217116 3.630739 1.126739
v 0.358052 3.598171 1.126739
v 0.493343 3.549962 1.126739
v 0.620852 3.486873 1.126739
v 0.738571 3.409898 1.126739
v 0.844642 3.320251 1.126739
v 0.937392 3.219347 1.126739
v 1.015359 3.108776 1.126739
v 1.077313 2.990282 1.126739
v 1.122278 2.865734 1.126739
v -1.122278 2.865736 1.303898
v -1.077313 2.990283 1.303898
v -1.015359 3.108777 1.303898
v -0.937392 3.219348 1.303898
v -0.844641 3.320252 1.303898
v -0.738570 3.409899 1.303898
v -0.620851 3.486874 1.303898
v -0.493341 3.549963 1.303898
v -0.358051 3.598171 1.303898
v -0.217114 3.630739 1.303898
v -0.072753 3.647152 1.303898
v 0.072755 3.647152 1.303898
v 0.217116 3.630739 1.303898
v 0.358052 3.598171 1.303898
v 0.493343 3.549962 1.303898
v 0.620852 3.486873 1.303898
v 0.738571 3.409898 1.303898
v 0.844642 3.320251 1.303898
v 0.937392 3.219347 1.303898
v 1.015359 3.108776 1.303898
v 1.077313 2.990282 1.303898
v 1.122278 2.865734 1.303898
v -1.312935 2.909793 1.303898
v -1.260332 3.055500 1.303898
v -1.187853 3.194124 1.303898
v -1.096640 3.323479 1.303898
v -0.988132 3.441525 1.303898
v -0.864042 3.546402 1.303898
v -0.726324 3.636453 1.303898
v -0.577152 3.710260 1.303898
v -0.418878 3.766658 1.303898
v -0.253999 3.804759 1.303898
v -0.085113 3.823960 1.303898
v 0.085115 3.823960 1.303898
v 0.254000 3.804759 1.303898
v 0.418880 3.766658 1.303898
v 0.577154 3.710259 1.303898
v 0.726326 3.636452 1.303898
v 0.864043 3.546400 1.303898
v 0.988133 3.441524 1.303898
v 1.096641 3.323477 1.303898
v 1.187853 3.194122 1.303898
v 1.260332 3.055498 1.303898
v 1.312936 2.909791 1.303898
v 1.312936 2.909791 -1.303921
v 1.260332 3.055498 -1.303921
v 1.187853 3.194122 -1.303921
v 1.096640 3.323478 -1.303921
v 0.988133 3.441524 -1.303921
v 0.864042 3.546400 -1.303921
v 0.726325 3.636452 -1.303921
v 0.577153 3.710259 -1.303921
v 0.418880 3.766658 -1.303921
v 0.254000 3.804759 -1.303921
v 0.085114 3.823960 -1.303921
v -0.085113 3.823960 -1.303921
v -0.253999 3.804759 -1.303921
v -0.418879 3.766658 -1.303921
v -0.577153 3.710260 -1.303921
v -0.726324 3.636453 -1.303921
v -0.864042 3.546401 -1.303921
v -0.988133 3.441525 -1.303921
v -1.096640 3.323479 -1.303921
v -1.187853 3.194123 -1.303921
v -1.260332 3.055499 -1.303921
v -1.312936 2.909793 -1.303921
v -1.122278 2.865736 -1.303921
v -1.077313 2.990283 -1.303921
v -1.015359 3.108777 -1.303921
v -0.937392 3.219348 -1.303921
v -0.844641 3.320252 -1.303921
v -0.738570 3.409899 -1.303921
v -0.620851 3.486874 -1.303921
v -0.493341 3.549963 -1.303921
v -0.358051 3.598171 -1.303921
v -0.217114 3.630739 -1.303921
v -0.072753 3.647152 -1.303921
v 0.072755 3.647152 -1.303921
v 0.217116 3.630739 -1.303921
v 0.358052 3.598171 -1.303921
v 0.493343 3.549962 -1.303921
v 0.620852 3.486873 -1.303921
v 0.738571 3.409898 -1.303921
v 0.844642 3.320251 -1.303921
v 0.937392 3.219347 -1.303921
v 1.015359 3.108776 -1.303921
v 1.077313 2.990282 -1.303921
v 1.122278 2.865734 -1.303921
v -1.122278 2.865736 -1.126762
v -1.077313 2.990283 -1.126762
v -1.015359 3.108777 -1.126762
v -0.937392 3.219348 -1.126762
v -0.844641 3.320252 -1.126762
v -0.738570 3.409899 -1.126762
v -0.620851 3.486874 -1.126762
v -0.493341 3.549963 -1.126762
v -0.358051 3.598171 -1.126762
v -0.217114 3.630739 -1.126762
v -0.072753 3.647152 -1.126762
v 0.072755 3.647152 -1.126762
v 0.217116 3.630739 -1.126762
v 0.358052 3.598171 -1.126763
v 0.493343 3.549962 -1.126763
v 0.620852 3.486873 -1.126763
v 0.738571 3.409898 -1.126763
v 0.844642 3.320251 -1.126763
v 0.937392 3.219347 -1.126763
v 1.015359 3.108776 -1.126763
v 1.077313 2.990282 -1.126763
v 1.122278 2.865734 -1.126763
v -1.312935 2.909793 -1.126762
v -1.260332 3.055500 -1.126762
v -1.187853 3.194124 -1.126762
v -1.096640 3.323479 -1.126762
v -0.988132 3.441525 -1.126762
v -0.864042 3.546402 -1.126762
v -0.726324 3.636453 -1.126762
v -0.577152 3.710260 -1.126762
v -0.418878 3.766658 -1.126762
v -0.253999 3.804759 -1.126762
v -0.085113 3.823960 -1.126762
v 0.085115 3.823960 -1.126762
v 0.254000 3.804759 -1.126763
v 0.418880 3.766658 -1.126763
v 0.577154 3.710259 -1.126763
v 0.726326 3.636452 -1.126763
v 0.864043 3.546400 -1.126763
v 0.988133 3.441524 -1.126763
v 1.096641 3.323477 -1.126763
v 1.187853 3.194122 -1.126763
v 1.260332 3.055498 -1.126763
v 1.312936 2.909791 -1.126763
v -1.303912 2.909791 -1.312947
v -1.303912 3.055498 -1.260344
v -1.303911 3.194122 -1.187865
v -1.303911 3.323478 -1.096652
v -1.303911 3.441524 -0.988145
v -1.303911 3.546400 -0.864054
v -1.303911 3.636452 -0.726337
v -1.303911 3.710259 -0.577165
v -1.303911 3.766658 -0.418891
v -1.303911 3.804759 -0.254011
v -1.303911 3.823960 -0.085126
v -1.303911 3.823960 0.085102
v -1.303911 3.804759 0.253988
v -1.303911 3.766658 0.418867
v -1.303911 3.710260 0.577141
v -1.303911 3.636453 0.726313
v -1.303911 3.546401 0.864030
v -1.303911 3.441525 0.988121
v -1.303911 3.323479 1.096628
v -1.303911 3.194123 1.187841
v -1.303911 3.055499 1.260321
v -1.303911 2.909793 1.312924
v -1.303911 2.865736 1.122266
v -1.303911 2.990283 1.077302
v -1.303911 3.108777 1.015347
v -1.303911 3.219348 0.937380
v -1.303911 3.320252 0.844629
v -1.303911 3.409899 0.738558
v -1.303911 3.486874 0.620839
v -1.303911 3.549963 0.493330
v -1.303911 3.598171 0.358039
v -1.303911 3.630739 0.217103
v -1.303911 3.647152 0.072742
v -1.303911 3.647152 -0.072766
v -1.303911 3.630739 -0.217127
v -1.303911 3.598171 -0.358064
v -1.303911 3.549962 -0.493354
v -1.303911 3.486873 -0.620864
v -1.303911 3.409898 -0.738582
v -1.303911 3.320251 -0.844653
v -1.303911 3.219347 -0.937404
v -1.303911 3.108776 -1.015371
v -1.303912 2.990282 -1.077325
v -1.303912 2.865734 -1.122289
v -1.126753 2.865736 1.122266
v -1.126753 2.990283 1.077302
v -1.126753 3.108777 1.015347
v -1.126753 3.219348 0.937380
v -1.126753 3.320252 0.844629
v -1.126753 3.409899 0.738558
v -1.126753 3.486874 0.620839
v -1.126753 3.549963 0.493330
v -1.126753 3.598171 0.358039
v -1.126753 3.630739 0.217103
v -1.126753 3.647152 0.072742
v -1.126753 3.647152 -0.072766
v -1.126753 3.630739 -0.217127
v -1.126753 3.598171 -0.358064
v -1.126753 3.549962 -0.493354
v -1.126753 3.486873 -0.620864
v -1.126753 3.409898 -0.738582
v -1.126753 3.320251 -0.844653
v -1.126753 3.219347 -0.937404
v -1.126753 3.108776 -1.015371
v -1.126753 2.990282 -1.077325
v -1.126753 2.865734 -1.122289
v -1.126753 2.909793 1.312924
v -1.126753 3.055500 1.260321
v -1.126753 3.194124 1.187841
v -1.126753 3.323479 1.096628
v -1.126753 3.441525 0.988121
v -1.126753 3.546402 0.864030
v -1.126753 3.636453 0.726313
v -1.126753 3.710260 0.577141
v -1.126753 3.766658 0.418867
v -1.126753 3.804759 0.253987
v -1.126753 3.823960 0.085101
v -1.126753 3.823960 -0.085126
v -1.126753 3.804759 -0.254012
v -1.126753 3.766658 -0.418892
v -1.126753 3.710259 -0.577166
v -1.126753 3.636452 -0.726337
v -1.126753 3.546400 -0.864054
v -1.126753 3.441524 -0.988145
v -1.126753 3.323477 -1.096652
v -1.126753 3.194122 -1.187865
v -1.126753 3.055498 -1.260344
v -1.126753 2.909791 -1.312947
v 1.126749 2.909791 -1.312947
v 1.126749 3.055498 -1.260344
v 1.126749 3.194122 -1.187865
v 1.126749 3.323478 -1.096652
v 1.126749 3.441524 -0.988145
v 1.126749 3.546400 -0.864054
v 1.126749 3.636452 -0.726337
v 1.126749 3.710259 -0.577165
v 1.126749 3.766658 -0.418891
v 1.126749 3.804759 -0.254011
v 1.126749 3.823960 -0.085126
v 1.126749 3.823960 0.085102
v 1.126749 3.804759 0.253988
v 1.126749 3.766658 0.418867
v 1.126749 3.710260 0.577141
v 1.126749 3.636453 0.726313
v 1.126749 3.546401 0.864030
v 1.126749 3.441525 0.988121
v 1.126749 3.323479 1.096628
v 1.126749 3.194123 1.187841
v 1.126749 3.055499 1.260321
v 1.126749 2.909793 1.312924
v 1.126749 2.865736 1.122266
v 1.126749 2.990283 1.077302
v 1.126749 3.108777 1.015347
v 1.126749 3.219348 0.937380
v 1.126749 3.320252 0.844629
v 1.126749 3.409899 0.738558
v 1.126749 3.486874 0.620839
v 1.126749 3.549963 0.493330
v 1.126749 3.598171 0.358039
v 1.126749 3.630739 0.217103
v 1.126749 3.647152 0.072742
v 1.126749 3.647152 -0.072766
v 1.126749 3.630739 -0.217127
v 1.126749 3.598171 -0.358064
v 1.126749 3.549962 -0.493354
v 1.126749 3.486873 -0.620864
v 1.126749 3.409898 -0.738582
v 1.126749 3.320251 -0.844653
v 1.126749 3.219347 -0.937404
v 1.126749 3.108776 -1.015371
v 1.126749 2.990282 -1.077325
v 1.126749 2.865734 -1.122289
v 1.303908 2.865736 1.122266
v 1.303908 2.990283 1.077302
v 1.303908 3.108777 1.015347
v 1.303908 3.219348 0.937380
v 1.303908 3.320252 0.844629
v 1.303908 3.409899 0.738558
v 1.303908 3.486874 0.620839
v 1.303908 3.549963 0.493330
v 1.303908 3.598171 0.358039
v 1.303908 3.630739 0.217103
v 1.303907 3.647152 0.072742
v 1.303907 3.647152 -0.072766
v 1.303907 3.630739 -0.217127
v 1.303907 3.598171 -0.358064
v 1.303907 3.549962 -0.493354
v 1.303907 3.486873 -0.620864
v 1.303907 3.409898 -0.738582
v 1.303907 3.320251 -0.844653
v 1.303907 3.219347 -0.937404
v 1.303907 3.108776 -1.015371
v 1.303907 2.990282 -1.077325
v 1.303907 2.865734 -1.122289
v 1.303908 2.909793 1.312924
v 1.303908 3.055500 1.260321
v 1.303908 3.194124 1.187841
v 1.303908 3.323479 1.096628
v 1.303908 3.441525 0.988121
v 1.303908 3.546402 0.864030
v 1.303908 3.636453 0.726313
v 1.303908 3.710260 0.577141
v 1.303908 3.766658 0.418867
v 1.303908 3.804759 0.253987
v 1.303907 3.823960 0.085101
v 1.303907 3.823960 -0.085126
v 1.303907 3.804759 -0.254012
v 1.303907 3.766658 -0.418892
v 1.303907 3.710259 -0.577166
v 1.303907 3.636452 -0.726337
v 1.303907 3.546400 -0.864054
v 1.303907 3.441524 -0.988145
v 1.303907 3.323477 -1.096652
v 1.303907 3.194122 -1.187865
v 1.303907 3.055498 -1.260344
v 1.303907 2.909791 -1.312947
v 1.593750 4.136301 1.303917
v -1.593750 4.136301 1.303917
v 1.593750 4.136301 1.126758
v -1.593750 4.136301 1.126758
v 1.593750 3.959143 1.303917
v -1.593750 3.959142 1.303917
v 1.593750 3.959143 1.126758
v -1.593750 3.959142 1.126758
v 1.593750 4.136301 -1.126762
v -1.593750 4.136301 -1.126762
v 1.593750 4.136301 -1.303921
v -1.593750 4.136301 -1.303921
v 1.593750 3.959143 -1.126762
v -1.593750 3.959142 -1.126762
v 1.593750 3.959143 -1.303921
v -1.593750 3.959142 -1.303921
v 1.593750 6.461010 -1.126762
v -1.593750 6.461010 -1.126762
v 1.593750 6.461010 -1.303921
v -1.593750 6.461010 -1.303921
v 1.593750 6.283852 -1.126762
v -1.593750 6.283852 -1.126762
v 1.593750 6.283852 -1.303921
v -1.593750 6.283852 -1.303921
v 1.593750 6.461010 1.303917
v -1.593750 6.461010 1.303917
v 1.593750 6.461010 1.126758
v -1.593750 6.461010 1.126758
v 1.593750 6.283852 1.303917
v -1.593750 6.283852 1.303917
v 1.593750 6.283852 1.126758
v -1.593750 6.283852 1.126758
v -1.448041 6.862484 1.448037
v -0.302034 7.823421 0.302031
v -1.448041 6.862484 -1.448058
v -0.302034 7.823421 -0.302051
v 1.448058 6.862484 1.448037
v 0.302049 7.823421 0.302031
v 1.448058 6.862484 -1.448058
v 0.302049 7.823421 -0.302051
v -1.448041 6.589932 -1.448058
v -1.448041 6.589932 1.448037
v 1.448058 6.589932 -1.448058
v 1.448058 6.589932 1.448037
v -1.126760 4.136301 -1.593752
v -1.126760 4.136301 1.593748
v -1.303919 4.136301 -1.593752
v -1.303919 4.136301 1.593748
v -1.126760 3.959143 -1.593752
v -1.126760 3.959142 1.593748
v -1.303919 3.959143 -1.593752
v -1.303919 3.959142 1.593748
v 1.303919 4.136301 -1.593752
v 1.303919 4.136301 1.593748
v 1.126760 4.136301 -1.593752
v 1.126760 4.136301 1.593748
v 1.303919 3.959143 -1.593752
v 1.303919 3.959142 1.593748
v 1.126760 3.959143 -1.593752
v 1.126760 3.959142 1.593748
v 1.303919 6.461010 -1.593752
v 1.303919 6.461010 1.593748
v 1.126760 6.461010 -1.593752
v 1.126760 6.461010 1.593748
v 1.303919 6.283852 -1.593752
v 1.303919 6.283852 1.593748
v 1.126760 6.283852 -1.593752
v 1.126760 6.283852 1.593748
v -1.126760 6.461010 -1.593752
v -1.126760 6.461010 1.593748
v -1.303919 6.461010 -1.593752
v -1.303919 6.461010 1.593748
v -1.126760 6.283852 -1.593752
v -1.126760 6.283852 1.593748
v -1.303919 6.283852 -1.593752
v -1.303919 6.283852 1.593748
v 0.000022 6.135341 1.366756
v 0.000021 6.135341 -1.366798
v -0.180486 6.117562 1.366756
v -0.180487 6.117562 -1.366798
v -0.354057 6.064910 1.366756
v -0.354058 6.064910 -1.366798
v -0.514021 5.979407 1.366756
v -0.514022 5.979408 -1.366798
v -0.654231 5.864341 1.366756
v -0.654232 5.864341 -1.366798
v -0.769298 5.724131 1.366756
v -0.769299 5.724131 -1.366798
v -0.854801 5.564167 1.366756
v -0.854802 5.564167 -1.366798
v -0.907453 5.390596 1.366756
v -0.907454 5.390596 -1.366798
v -0.925231 5.210088 1.366756
v -0.925232 5.210088 -1.366798
v -0.907453 5.029580 1.366756
v -0.907454 5.029580 -1.366798
v -0.854801 4.856009 1.366756
v -0.854802 4.856009 -1.366798
v -0.769298 4.696045 1.366756
v -0.769299 4.696045 -1.366798
v -0.654231 4.555835 1.366756
v -0.654232 4.555835 -1.366798
v -0.514021 4.440768 1.366756
v -0.514022 4.440768 -1.366798
v -0.354057 4.355265 1.366756
v -0.354058 4.355265 -1.366798
v -0.180486 4.302613 1.366756
v -0.180487 4.302613 -1.366798
v 0.000022 4.284835 1.366756
v 0.000021 4.284835 -1.366798
v 0.180530 4.302613 1.366756
v 0.180529 4.302613 -1.366798
v 0.354101 4.355266 1.366756
v 0.354100 4.355266 -1.366798
v 0.514065 4.440768 1.366756
v 0.514064 4.440768 -1.366798
v 0.654275 4.555835 1.366756
v 0.654274 4.555836 -1.366798
v 0.769342 4.696045 1.366756
v 0.769341 4.696045 -1.366798
v 0.854844 4.856009 1.366756
v 0.854844 4.856009 -1.366798
v 0.907497 5.029581 1.366756
v 0.907496 5.029581 -1.366798
v 0.925275 5.210089 1.366756
v 0.925274 5.210089 -1.366798
v 0.907496 5.390597 1.366756
v 0.907495 5.390597 -1.366798
v 0.854844 5.564168 1.366756
v 0.854843 5.564168 -1.366798
v 0.769341 5.724132 1.366756
v 0.769340 5.724132 -1.366798
v 0.654274 5.864342 1.366756
v 0.654273 5.864342 -1.366798
v 0.514064 5.979408 1.366756
v 0.514063 5.979408 -1.366798
v 0.354100 6.064911 1.366756
v 0.354099 6.064911 -1.366798
v 0.180528 6.117563 1.366756
v 0.180527 6.117563 -1.366798
v 0.000022 6.135341 1.079068
v 0.000021 6.135341 -1.079083
v -0.180487 6.117562 -1.079082
v -0.180486 6.117562 1.079068
v -0.354058 6.064910 -1.079082
v -0.354057 6.064910 1.079068
v -0.514022 5.979407 -1.079082
v -0.514022 5.979407 1.079068
v -0.654232 5.864341 -1.079082
v -0.654231 5.864341 1.079068
v -0.769299 5.724131 -1.079082
v -0.769298 5.724131 1.079068
v -0.854801 5.564167 -1.079082
v -0.854801 5.564167 1.079068
v -0.907454 5.390596 -1.079082
v -0.907453 5.390596 1.079068
v -0.925232 5.210088 -1.079082
v -0.925231 5.210088 1.079068
v -0.907454 5.029580 -1.079082
v -0.907453 5.029580 1.079068
v -0.854802 4.856009 -1.079082
v -0.854801 4.856009 1.079068
v -0.769299 4.696045 -1.079082
v -0.769298 4.696045 1.079068
v -0.654232 4.555835 -1.079082
v -0.654231 4.555835 1.079068
v -0.514022 4.440768 -1.079082
v -0.514022 4.440768 1.079068
v -0.354058 4.355265 -1.079082
v -0.354057 4.355265 1.079068
v -0.180487 4.302613 -1.079082
v -0.180486 4.302613 1.079068
v 0.000021 4.284835 -1.079082
v 0.000022 4.284835 1.079068
v 0.180529 4.302613 -1.079082
v 0.180530 4.302613 1.079068
v 0.354100 4.355266 -1.079083
v 0.354101 4.355266 1.079068
v 0.514064 4.440768 -1.079083
v 0.514065 4.440768 1.079068
v 0.654274 4.555835 -1.079083
v 0.654275 4.555835 1.079068
v 0.769341 4.696045 -1.079083
v 0.769342 4.696045 1.079068
v 0.854844 4.856009 -1.079083
v 0.854844 4.856009 1.079068
v 0.907496 5.029581 -1.079083
v 0.907496 5.029581 1.079068
v 0.925274 5.210089 -1.079083
v 0.925275 5.210089 1.079068
v 0.907495 5.390597 -1.079083
v 0.907496 5.390597 1.079068
v 0.854843 5.564168 -1.079083
v 0.854844 5.564168 1.079068
v 0.769340 5.724132 -1.079083
v 0.769341 5.724132 1.079068
v 0.654273 5.864342 -1.079083
v 0.654274 5.864342 1.079068
v 0.514063 5.979408 -1.079083
v 0.514064 5.979408 1.079068
v 0.354099 6.064911 -1.079083
v 0.354099 6.064911 1.079068
v 0.180528 6.117563 -1.079083
v 0.180528 6.117562 1.079068
v 1.366798 6.135341 -0.000022
v -1.366755 6.135341 -0.000020
v 1.366798 6.117562 0.180486
v -1.366755 6.117562 0.180488
v 1.366798 6.064910 0.354057
v -1.366755 6.064910 0.354059
v 1.366799 5.979407 0.514021
v -1.366755 5.979408 0.514023
v 1.366799 5.864341 0.654231
v -1.366755 5.864341 0.654232
v 1.366799 5.724131 0.769298
v -1.366755 5.724131 0.769300
v 1.366799 5.564167 0.854801
v -1.366755 5.564167 0.854802
v 1.366799 5.390596 0.907453
v -1.366755 5.390596 0.907454
v 1.366799 5.210088 0.925231
v -1.366755 5.210088 0.925233
v 1.366799 5.029580 0.907453
v -1.366755 5.029580 0.907454
v 1.366799 4.856009 0.854801
v -1.366755 4.856009 0.854802
v 1.366799 4.696045 0.769298
v -1.366755 4.696045 0.769300
v 1.366799 4.555835 0.654231
v -1.366755 4.555835 0.654232
v 1.366799 4.440768 0.514021
v -1.366755 4.440768 0.514023
v 1.366798 4.355265 0.354057
v -1.366755 4.355265 0.354058
v 1.366798 4.302613 0.180486
v -1.366755 4.302613 0.180487
v 1.366798 4.284835 -0.000022
v -1.366755 4.284835 -0.000021
v 1.366798 4.302613 -0.180530
v -1.366756 4.302613 -0.180529
v 1.366798 4.355266 -0.354101
v -1.366756 4.355266 -0.354100
v 1.366798 4.440768 -0.514065
v -1.366756 4.440768 -0.514064
v 1.366798 4.555835 -0.654275
v -1.366756 4.555836 -0.654274
v 1.366798 4.696045 -0.769342
v -1.366756 4.696045 -0.769341
v 1.366798 4.856009 -0.854844
v -1.366756 4.856009 -0.854843
v 1.366798 5.029581 -0.907497
v -1.366756 5.029581 -0.907495
v 1.366798 5.210089 -0.925275
v -1.366756 5.210089 -0.925274
v 1.366798 5.390597 -0.907496
v -1.366756 5.390597 -0.907495
v 1.366798 5.564168 -0.854844
v -1.366756 5.564168 -0.854842
v 1.366798 5.724132 -0.769341
v -1.366756 5.724132 -0.769340
v 1.366798 5.864342 -0.654274
v -1.366756 5.864342 -0.654272
v 1.366798 5.979408 -0.514064
v -1.366756 5.979408 -0.514062
v 1.366798 6.064911 -0.354100
v -1.366756 6.064911 -0.354098
v 1.366798 6.117563 -0.180528
v -1.366756 6.117563 -0.180527
v 1.079110 6.135341 -0.000022
v -1.079040 6.135341 -0.000021
v -1.079040 6.117562 0.180487
v 1.079111 6.117562 0.180486
v -1.079040 6.064910 0.354058
v 1.079111 6.064910 0.354058
v -1.079040 5.979407 0.514023
v 1.079111 5.979407 0.514022
v -1.079040 5.864341 0.654232
v 1.079111 5.864341 0.654231
v -1.079040 5.724131 0.769299
v 1.079111 5.724131 0.769298
v -1.079040 5.564167 0.854802
v 1.079111 5.564167 0.854801
v -1.079040 5.390596 0.907454
v 1.079111 5.390596 0.907453
v -1.079040 5.210088 0.925233
v 1.079111 5.210088 0.925232
v -1.079040 5.029580 0.907454
v 1.079111 5.029580 0.907453
v -1.079040 4.856009 0.854802
v 1.079111 4.856009 0.854801
v -1.079040 4.696045 0.769299
v 1.079111 4.696045 0.769298
v -1.079040 4.555835 0.654232
v 1.079111 4.555835 0.654231
v -1.079040 4.440768 0.514022
v 1.079111 4.440768 0.514022
v -1.079040 4.355265 0.354058
v 1.079111 4.355265 0.354057
v -1.079040 4.302613 0.180487
v 1.079111 4.302613 0.180486
v -1.079040 4.284835 -0.000021
v 1.079110 4.284835 -0.000022
v -1.079040 4.302613 -0.180529
v 1.079110 4.302613 -0.180530
v -1.079040 4.355266 -0.354100
v 1.079110 4.355266 -0.354101
v -1.079040 4.440768 -0.514064
v 1.079110 4.440768 -0.514065
v -1.079040 4.555835 -0.654274
v 1.079110 4.555835 -0.654275
v -1.079041 4.696045 -0.769341
v 1.079110 4.696045 -0.769342
v -1.079041 4.856009 -0.854843
v 1.079110 4.856009 -0.854844
v -1.079041 5.029581 -0.907495
v 1.079110 5.029581 -0.907496
v -1.079041 5.210089 -0.925274
v 1.079110 5.210089 -0.925275
v -1.079041 5.390597 -0.907495
v 1.079110 5.390597 -0.907496
v -1.079041 5.564168 -0.854843
v 1.079110 5.564168 -0.854844
v -1.079041 5.724132 -0.769340
v 1.079110 5.724132 -0.769341
v -1.079040 5.864342 -0.654272
v 1.079110 5.864342 -0.654274
v -1.079040 5.979408 -0.514063
v 1.079110 5.979408 -0.514064
v -1.079040 6.064911 -0.354098
v 1.079110 6.064911 -0.354099
v -1.079040 6.117563 -0.180527
v 1.079110 6.117562 -0.180528
v -1.126760 3.959142 1.126758
v -1.126760 6.461010 1.126758
v -1.126760 3.959142 -1.126762
v -1.126760 6.461010 -1.126762
v 1.126760 3.959142 1.126758
v 1.126760 6.461010 1.126758
v 1.126760 3.959142 -1.126762
v 1.126760 6.461010 -1.126762
s off
f 3 2 1
f 7 4 3
f 5 8 7
f 1 6 5
f 11 10 9
f 15 12 11
f 13 16 15
f 9 14 13
f 19 18 17
f 23 20 19
f 21 24 23
f 17 22 21
f 27 26 25
f 31 28 27
f 29 32 31
f 25 30 29
f 33 119 120
f 34 118 119
f 35 117 118
f 36 116 117
f 37 115 116
f 38 114 115
f 39 113 114
f 40 112 113
f 41 111 112
f 42 110 111
f 43 109 110
f 44 108 109
f 45 107 108
f 46 106 107
f 47 105 106
f 48 104 105
f 49 103 104
f 50 102 103
f 51 101 102
f 52 100 101
f 53 99 100
f 120 97 98
f 119 96 97
f 118 95 96
f 117 94 95
f 116 93 94
f 115 92 93
f 114 91 92
f 113 90 91
f 112 89 90
f 111 88 89
f 88 109 87
f 87 108 86
f 86 107 85
f 85 106 84
f 84 105 83
f 83 104 82
f 82 103 81
f 81 102 80
f 80 101 79
f 79 100 78
f 78 99 77
f 98 75 76
f 97 74 75
f 96 73 74
f 95 72 73
f 94 71 72
f 93 70 71
f 92 69 70
f 91 68 69
f 90 67 68
f 89 66 67
f 88 65 66
f 87 64 65
f 86 63 64
f 85 62 63
f 84 61 62
f 83 60 61
f 82 59 60
f 81 58 59
f 80 57 58
f 79 56 57
f 78 55 56
f 33 75 34
f 34 74 35
f 35 73 36
f 36 72 37
f 37 71 38
f 38 70 39
f 39 69 40
f 40 68 41
f 41 67 42
f 42 66 43
f 43 65 44
f 65 45 44
f 64 46 45
f 63 47 46
f 62 48 47
f 61 49 48
f 60 50 49
f 59 51 50
f 58 52 51
f 57 53 52
f 56 54 53
f 121 207 208
f 122 206 207
f 123 205 206
f 124 204 205
f 125 203 204
f 126 202 203
f 127 201 202
f 128 200 201
f 129 199 200
f 130 198 199
f 131 197 198
f 132 196 197
f 133 195 196
f 134 194 195
f 135 193 194
f 136 192 193
f 137 191 192
f 138 190 191
f 139 189 190
f 140 188 189
f 141 187 188
f 208 185 186
f 207 184 185
f 206 183 184
f 205 182 183
f 204 181 182
f 203 180 181
f 202 179 180
f 201 178 179
f 200 177 178
f 199 176 177
f 176 197 175
f 175 196 174
f 174 195 173
f 173 194 172
f 172 193 171
f 171 192 170
f 170 191 169
f 169 190 168
f 168 189 167
f 167 188 166
f 166 187 165
f 186 163 164
f 185 162 163
f 184 161 162
f 183 160 161
f 182 159 160
f 181 158 159
f 180 157 158
f 179 156 157
f 178 155 156
f 177 154 155
f 176 153 154
f 175 152 153
f 174 151 152
f 173 150 151
f 172 149 150
f 171 148 149
f 170 147 148
f 169 146 147
f 168 145 146
f 167 144 145
f 166 143 144
f 121 163 122
f 122 162 123
f 123 161 124
f 124 160 125
f 125 159 126
f 126 158 127
f 127 157 128
f 128 156 129
f 129 155 130
f 130 154 131
f 131 153 132
f 153 133 132
f 152 134 133
f 151 135 134
f 150 136 135
f 149 137 136
f 148 138 137
f 147 139 138
f 146 140 139
f 145 141 140
f 144 142 141
f 209 295 296
f 210 294 295
f 211 293 294
f 212 292 293
f 213 291 292
f 214 290 291
f 215 289 290
f 216 288 289
f 217 287 288
f 218 286 287
f 219 285 286
f 220 284 285
f 221 283 284
f 222 282 283
f 223 281 282
f 224 280 281
f 225 279 280
f 226 278 279
f 227 277 278
f 228 276 277
f 229 275 276
f 296 273 274
f 295 272 273
f 294 271 272
f 293 270 271
f 292 269 270
f 291 268 269
f 290 267 268
f 289 266 267
f 288 265 266
f 287 264 265
f 264 285 263
f 263 284 262
f 262 283 261
f 261 282 260
f 260 281 259
f 259 280 258
f 258 279 257
f 257 278 256
f 256 277 255
f 255 276 254
f 254 275 253
f 274 251 252
f 273 250 251
f 272 249 250
f 271 248 249
f 270 247 248
f 269 246 247
f 268 245 246
f 267 244 245
f 266 243 244
f 265 242 243
f 264 241 242
f 263 240 241
f 262 239 240
f 261 238 239
f 260 237 238
f 259 236 237
f 258 235 236
f 257 234 235
f 256 233 234
f 255 232 233
f 254 231 232
f 209 251 210
f 210 250 211
f 211 249 212
f 212 248 213
f 213 247 214
f 214 246 215
f 215 245 216
f 216 244 217
f 217 243 218
f 218 242 219
f 219 241 220
f 241 221 220
f 240 222 221
f 239 223 222
f 238 224 223
f 237 225 224
f 236 226 225
f 235 227 226
f 234 228 227
f 233 229 228
f 232 230 229
f 297 383 384
f 298 382 383
f 299 381 382
f 300 380 381
f 301 379 380
f 302 378 379
f 303 377 378
f 304 376 377
f 305 375 376
f 306 374 375
f 307 373 374
f 308 372 373
f 309 371 372
f 310 370 371
f 311 369 370
f 312 368 369
f 313 367 368
f 314 366 367
f 315 365 366
f 316 364 365
f 317 363 364
f 384 361 362
f 383 360 361
f 382 359 360
f 381 358 359
f 380 357 358
f 379 356 357
f 378 355 356
f 377 354 355
f 376 353 354
f 375 352 353
f 352 373 351
f 351 372 350
f 350 371 349
f 349 370 348
f 348 369 347
f 347 368 346
f 346 367 345
f 345 366 344
f 344 365 343
f 343 364 342
f 342 363 341
f 362 339 340
f 361 338 339
f 360 337 338
f 359 336 337
f 358 335 336
f 357 334 335
f 356 333 334
f 355 332 333
f 354 331 332
f 353 330 331
f 352 329 330
f 351 328 329
f 350 327 328
f 349 326 327
f 348 325 326
f 347 324 325
f 346 323 324
f 345 322 323
f 344 321 322
f 343 320 321
f 342 319 320
f 297 339 298
f 298 338 299
f 299 337 300
f 300 336 301
f 301 335 302
f 302 334 303
f 303 333 304
f 304 332 305
f 305 331 306
f 306 330 307
f 307 329 308
f 329 309 308
f 328 310 309
f 327 311 310
f 326 312 311
f 325 313 312
f 324 314 313
f 323 315 314
f 322 316 315
f 321 317 316
f 320 318 317
f 387 386 385
f 391 388 387
f 389 392 391
f 385 390 389
f 390 388 392
f 385 391 387
f 395 394 393
f 399 396 395
f 397 400 399
f 393 398 397
f 398 396 400
f 393 399 395
f 403 402 401
f 407 404 403
f 405 408 407
f 401 406 405
f 406 404 408
f 401 407 403
f 411 410 409
f 415 412 411
f 413 416 415
f 409 414 413
f 414 412 416
f 409 415 411
f 417 420 419
f 419 424 423
f 423 422 421
f 422 417 421
f 423 425 419
f 420 422 424
f 427 426 425
f 419 426 417
f 421 427 423
f 417 428 421
f 431 430 429
f 435 432 431
f 433 436 435
f 429 434 433
f 434 432 436
f 429 435 431
f 439 438 437
f 443 440 439
f 441 444 443
f 437 442 441
f 442 440 444
f 437 443 439
f 447 446 445
f 451 448 447
f 449 452 451
f 445 450 449
f 450 448 452
f 445 451 447
f 455 454 453
f 459 456 455
f 457 460 459
f 453 458 457
f 458 456 460
f 453 459 455
f 470 468 518
f 519 521 467
f 598 596 646
f 647 649 595
f 718 719 717
f 720 723 719
f 724 721 723
f 722 717 721
f 723 717 719
f 720 722 724
f 3 4 2
f 7 8 4
f 5 6 8
f 1 2 6
f 11 12 10
f 15 16 12
f 13 14 16
f 9 10 14
f 19 20 18
f 23 24 20
f 21 22 24
f 17 18 22
f 27 28 26
f 31 32 28
f 29 30 32
f 25 26 30
f 33 34 119
f 34 35 118
f 35 36 117
f 36 37 116
f 37 38 115
f 38 39 114
f 39 40 113
f 40 41 112
f 41 42 111
f 42 43 110
f 43 44 109
f 44 45 108
f 45 46 107
f 46 47 106
f 47 48 105
f 48 49 104
f 49 50 103
f 50 51 102
f 51 52 101
f 52 53 100
f 53 54 99
f 120 119 97
f 119 118 96
f 118 117 95
f 117 116 94
f 116 115 93
f 115 114 92
f 114 113 91
f 113 112 90
f 112 111 89
f 111 110 88
f 88 110 109
f 87 109 108
f 86 108 107
f 85 107 106
f 84 106 105
f 83 105 104
f 82 104 103
f 81 103 102
f 80 102 101
f 79 101 100
f 78 100 99
f 98 97 75
f 97 96 74
f 96 95 73
f 95 94 72
f 94 93 71
f 93 92 70
f 92 91 69
f 91 90 68
f 90 89 67
f 89 88 66
f 88 87 65
f 87 86 64
f 86 85 63
f 85 84 62
f 84 83 61
f 83 82 60
f 82 81 59
f 81 80 58
f 80 79 57
f 79 78 56
f 78 77 55
f 33 76 75
f 34 75 74
f 35 74 73
f 36 73 72
f 37 72 71
f 38 71 70
f 39 70 69
f 40 69 68
f 41 68 67
f 42 67 66
f 43 66 65
f 65 64 45
f 64 63 46
f 63 62 47
f 62 61 48
f 61 60 49
f 60 59 50
f 59 58 51
f 58 57 52
f 57 56 53
f 56 55 54
f 121 122 207
f 122 123 206
f 123 124 205
f 124 125 204
f 125 126 203
f 126 127 202
f 127 128 201
f 128 129 200
f 129 130 199
f 130 131 198
f 131 132 197
f 132 133 196
f 133 134 195
f 134 135 194
f 135 136 193
f 136 137 192
f 137 138 191
f 138 139 190
f 139 140 189
f 140 141 188
f 141 142 187
f 208 207 185
f 207 206 184
f 206 205 183
f 205 204 182
f 204 203 181
f 203 202 180
f 202 201 179
f 201 200 178
f 200 199 177
f 199 198 176
f 176 198 197
f 175 197 196
f 174 196 195
f 173 195 194
f 172 194 193
f 171 193 192
f 170 192 191
f 169 191 190
f 168 190 189
f 167 189 188
f 166 188 187
f 186 185 163
f 185 184 162
f 184 183 161
f 183 182 160
f 182 181 159
f 181 180 158
f 180 179 157
f 179 178 156
f 178 177 155
f 177 176 154
f 176 175 153
f 175 174 152
f 174 173 151
f 173 172 150
f 172 171 149
f 171 170 148
f 170 169 147
f 169 168 146
f 168 167 145
f 167 166 144
f 166 165 143
f 121 164 163
f 122 163 162
f 123 162 161
f 124 161 160
f 125 160 159
f 126 159 158
f 127 158 157
f 128 157 156
f 129 156 155
f 130 155 154
f 131 154 153
f 153 152 133
f 152 151 134
f 151 150 135
f 150 149 136
f 149 148 137
f 148 147 138
f 147 146 139
f 146 145 140
f 145 144 141
f 144 143 142
f 209 210 295
f 210 211 294
f 211 212 293
f 212 213 292
f 213 214 291
f 214 215 290
f 215 216 289
f 216 217 288
f 217 218 287
f 218 219 286
f 219 220 285
f 220 221 284
f 221 222 283
f 222 223 282
f 223 224 281
f 224 225 280
f 225 226 279
f 226 227 278
f 227 228 277
f 228 229 276
f 229 230 275
f 296 295 273
f 295 294 272
f 294 293 271
f 293 292 270
f 292 291 269
f 291 290 268
f 290 289 267
f 289 288 266
f 288 287 265
f 287 286 264
f 264 286 285
f 263 285 284
f 262 284 283
f 261 283 282
f 260 282 281
f 259 281 280
f 258 280 279
f 257 279 278
f 256 278 277
f 255 277 276
f 254 276 275
f 274 273 251
f 273 272 250
f 272 271 249
f 271 270 248
f 270 269 247
f 269 268 246
f 268 267 245
f 267 266 244
f 266 265 243
f 265 264 242
f 264 263 241
f 263 262 240
f 262 261 239
f 261 260 238
f 260 259 237
f 259 258 236
f 258 257 235
f 257 256 234
f 256 255 233
f 255 254 232
f 254 253 231
f 209 252 251
f 210 251 250
f 211 250 249
f 212 249 248
f 213 248 247
f 214 247 246
f 215 246 245
f 216 245 244
f 217 244 243
f 218 243 242
f 219 242 241
f 241 240 221
f 240 239 222
f 239 238 223
f 238 237 224
f 237 236 225
f 236 235 226
f 235 234 227
f 234 233 228
f 233 232 229
f 232 231 230
f 297 298 383
f 298 299 382
f 299 300 381
f 300 301 380
f 301 302 379
f 302 303 378
f 303 304 377
f 304 305 376
f 305 306 375
f 306 307 374
f 307 308 373
f 308 309 372
f 309 310 371
f 310 311 370
f 311 312 369
f 312 313 368
f 313 314 367
f 314 315 366
f 315 316 365
f 316 317 364
f 317 318 363
f 384 383 361
f 383 382 360
f 382 381 359
f 381 380 358
f 380 379 357
f 379 378 356
f 378 377 355
f 377 376 354
f 376 375 353
f 375 374 352
f 352 374 373
f 351 373 372
f 350 372 371
f 349 371 370
f 348 370 369
f 347 369 368
f 346 368 367
f 345 367 366
f 344 366 365
f 343 365 364
f 342 364 363
f 362 361 339
f 361 360 338
f 360 359 337
f 359 358 336
f 358 357 335
f 357 356 334
f 356 355 333
f 355 354 332
f 354 353 331
f 353 352 330
f 352 351 329
f 351 350 328
f 350 349 327
f 349 348 326
f 348 347 325
f 347 346 324
f 346 345 323
f 345 344 322
f 344 343 321
f 343 342 320
f 342 341 319
f 297 340 339
f 298 339 338
f 299 338 337
f 300 337 336
f 301 336 335
f 302 335 334
f 303 334 333
f 304 333 332
f 305 332 331
f 306 331 330
f 307 330 329
f 329 328 309
f 328 327 310
f 327 326 311
f 326 325 312
f 325 324 313
f 324 323 314
f 323 322 315
f 322 321 316
f 321 320 317
f 320 319 318
f 387 388 386
f 391 392 388
f 389 390 392
f 385 386 390
f 390 386 388
f 385 389 391
f 395 396 394
f 399 400 396
f 397 398 400
f 393 394 398
f 398 394 396
f 393 397 399
f 403 404 402
f 407 408 404
f 405 406 408
f 401 402 406
f 406 402 404
f 401 405 407
f 411 412 410
f 415 416 412
f 413 414 416
f 409 410 414
f 414 410 412
f 409 413 415
f 417 418 420
f 419 420 424
f 423 424 422
f 422 418 417
f 423 427 425
f 420 418 422
f 427 428 426
f 419 425 426
f 421 428 427
f 417 426 428
f 431 432 430
f 435 436 432
f 433 434 436
f 429 430 434
f 434 430 432
f 429 433 435
f 439 440 438
f 443 444 440
f 441 442 444
f 437 438 442
f 442 438 440
f 437 441 443
f 447 448 446
f 451 452 448
f 449 450 452
f 445 446 450
f 450 446 448
f 445 449 451
f 455 456 454
f 459 460 456
f 457 458 460
f 453 454 458
f 458 454 456
f 453 457 459
f 466 464 524
f 464 462 524
f 524 522 466
f 522 520 466
f 520 518 468
f 466 520 468
f 518 516 470
f 516 514 472
f 470 516 472
f 514 512 476
f 512 510 478
f 510 508 480
f 508 506 482
f 506 504 482
f 504 502 484
f 482 504 484
f 502 500 486
f 500 498 488
f 486 500 488
f 498 496 490
f 496 494 492
f 490 496 492
f 490 488 498
f 486 484 502
f 482 480 508
f 480 478 510
f 478 476 512
f 476 474 514
f 474 472 514
f 523 461 463
f 463 465 523
f 465 467 521
f 523 465 521
f 467 469 517
f 469 471 515
f 471 473 515
f 473 475 513
f 515 473 513
f 475 477 509
f 477 479 507
f 479 481 507
f 481 483 505
f 507 481 505
f 483 485 501
f 485 487 499
f 487 489 499
f 489 491 497
f 499 489 497
f 491 493 495
f 495 497 491
f 499 501 485
f 501 503 483
f 503 505 483
f 507 509 477
f 509 511 475
f 511 513 475
f 515 517 469
f 517 519 467
f 594 592 650
f 592 590 652
f 650 592 652
f 650 648 594
f 648 646 596
f 594 648 596
f 646 644 598
f 644 642 600
f 598 644 600
f 642 640 604
f 640 638 606
f 638 636 608
f 636 634 610
f 634 632 610
f 632 630 612
f 610 632 612
f 630 628 614
f 628 626 616
f 614 628 616
f 626 624 618
f 624 622 620
f 618 624 620
f 618 616 626
f 614 612 630
f 610 608 636
f 608 606 638
f 606 604 640
f 604 602 642
f 602 600 642
f 651 589 591
f 591 593 651
f 593 595 649
f 651 593 649
f 595 597 645
f 597 599 643
f 599 601 643
f 601 603 641
f 643 601 641
f 603 605 637
f 605 607 635
f 607 609 635
f 609 611 633
f 635 609 633
f 611 613 629
f 613 615 627
f 615 617 627
f 617 619 625
f 627 617 625
f 619 621 623
f 623 625 619
f 627 629 613
f 629 631 611
f 631 633 611
f 635 637 605
f 637 639 603
f 639 641 603
f 643 645 597
f 645 647 595
f 718 720 719
f 720 724 723
f 724 722 721
f 722 718 717
f 723 721 717
f 720 718 722
s 1
f 462 527 526
f 464 529 527
f 466 531 529
f 531 470 533
f 533 472 535
f 472 537 535
f 474 539 537
f 476 541 539
f 478 543 541
f 480 545 543
f 482 547 545
f 547 486 549
f 549 488 551
f 551 490 553
f 553 492 555
f 492 557 555
f 494 559 557
f 496 561 559
f 561 500 563
f 500 565 563
f 502 567 565
f 504 569 567
f 506 571 569
f 508 573 571
f 510 575 573
f 512 577 575
f 514 579 577
f 516 581 579
f 581 520 583
f 520 585 583
f 522 587 585
f 524 526 587
f 523 525 461
f 586 523 521
f 519 586 521
f 517 584 519
f 580 517 515
f 578 515 513
f 576 513 511
f 574 511 509
f 572 509 507
f 570 507 505
f 503 570 505
f 566 503 501
f 564 501 499
f 497 564 499
f 560 497 495
f 558 495 493
f 556 493 491
f 554 491 489
f 552 489 487
f 550 487 485
f 548 485 483
f 546 483 481
f 544 481 479
f 542 479 477
f 540 477 475
f 538 475 473
f 536 473 471
f 469 536 471
f 532 469 467
f 530 467 465
f 528 465 463
f 525 463 461
f 654 592 655
f 592 657 655
f 594 659 657
f 659 598 661
f 598 663 661
f 600 665 663
f 602 667 665
f 604 669 667
f 606 671 669
f 608 673 671
f 673 612 675
f 675 614 677
f 677 616 679
f 679 618 681
f 618 683 681
f 620 685 683
f 622 687 685
f 624 689 687
f 689 628 691
f 628 693 691
f 693 632 695
f 632 697 695
f 634 699 697
f 636 701 699
f 638 703 701
f 640 705 703
f 642 707 705
f 707 646 709
f 646 711 709
f 648 713 711
f 713 652 715
f 715 590 654
f 651 653 589
f 649 716 651
f 647 714 649
f 710 647 645
f 643 710 645
f 706 643 641
f 704 641 639
f 702 639 637
f 700 637 635
f 633 700 635
f 696 633 631
f 694 631 629
f 627 694 629
f 625 692 627
f 623 690 625
f 686 623 621
f 684 621 619
f 617 684 619
f 680 617 615
f 613 680 615
f 676 613 611
f 609 676 611
f 672 609 607
f 670 607 605
f 668 605 603
f 666 603 601
f 599 666 601
f 662 599 597
f 660 597 595
f 658 595 593
f 656 593 591
f 589 656 591
f 462 464 527
f 464 466 529
f 466 468 531
f 531 468 470
f 533 470 472
f 472 474 537
f 474 476 539
f 476 478 541
f 478 480 543
f 480 482 545
f 482 484 547
f 547 484 486
f 549 486 488
f 551 488 490
f 553 490 492
f 492 494 557
f 494 496 559
f 496 498 561
f 561 498 500
f 500 502 565
f 502 504 567
f 504 506 569
f 506 508 571
f 508 510 573
f 510 512 575
f 512 514 577
f 514 516 579
f 516 518 581
f 581 518 520
f 520 522 585
f 522 524 587
f 524 462 526
f 523 588 525
f 586 588 523
f 519 584 586
f 517 582 584
f 580 582 517
f 578 580 515
f 576 578 513
f 574 576 511
f 572 574 509
f 570 572 507
f 503 568 570
f 566 568 503
f 564 566 501
f 497 562 564
f 560 562 497
f 558 560 495
f 556 558 493
f 554 556 491
f 552 554 489
f 550 552 487
f 548 550 485
f 546 548 483
f 544 546 481
f 542 544 479
f 540 542 477
f 538 540 475
f 536 538 473
f 469 534 536
f 532 534 469
f 530 532 467
f 528 530 465
f 525 528 463
f 654 590 592
f 592 594 657
f 594 596 659
f 659 596 598
f 598 600 663
f 600 602 665
f 602 604 667
f 604 606 669
f 606 608 671
f 608 610 673
f 673 610 612
f 675 612 614
f 677 614 616
f 679 616 618
f 618 620 683
f 620 622 685
f 622 624 687
f 624 626 689
f 689 626 628
f 628 630 693
f 693 630 632
f 632 634 697
f 634 636 699
f 636 638 701
f 638 640 703
f 640 642 705
f 642 644 707
f 707 644 646
f 646 648 711
f 648 650 713
f 713 650 652
f 715 652 590
f 651 716 653
f 649 714 716
f 647 712 714
f 710 712 647
f 643 708 710
f 706 708 643
f 704 706 641
f 702 704 639
f 700 702 637
f 633 698 700
f 696 698 633
f 694 696 631
f 627 692 694
f 625 690 692
f 623 688 690
f 686 688 623
f 684 686 621
f 617 682 684
f 680 682 617
f 613 678 680
f 676 678 613
f 609 674 676
f 672 674 609
f 670 672 607
f 668 670 605
f 666 668 603
f 599 664 666
f 662 664 599
f 660 662 597
f 658 660 595
f 656 658 593
f 589 653 656
