# Blender v2.79 (sub 0) OBJ File: 'FirstRoom.blend'
# www.blender.org
v 1.903081 2.261317 0.081555
v 1.903081 2.424426 0.081555
v 1.903081 2.261317 -0.081555
v 1.903081 2.424426 -0.081555
v 0.790343 2.489789 -0.081555
v 0.790343 2.652899 -0.081555
v 0.790343 2.489789 0.081555
v 0.790343 2.652899 0.081555
v 1.704075 2.465287 -0.081555
v 1.704075 2.302177 0.081555
v 1.704075 2.302177 -0.081555
v 1.704075 2.465287 0.081555
v 1.903081 1.593526 0.081555
v 1.903081 1.593526 -0.081555
v 1.704075 1.593526 0.081555
v 1.704075 1.593526 -0.081555
v -1.903081 2.261317 0.081555
v -1.903081 2.424426 0.081555
v -1.903081 2.261317 -0.081555
v -1.903081 2.424426 -0.081555
v -0.790343 2.489789 -0.081555
v -0.790343 2.652899 -0.081555
v -0.790343 2.489789 0.081555
v -0.790343 2.652899 0.081555
v -1.704075 2.465287 -0.081555
v -1.704075 2.302177 0.081555
v -1.704075 2.302177 -0.081555
v -1.704075 2.465287 0.081555
v 0.000000 2.489789 -0.081555
v 0.000000 2.652899 -0.081555
v 0.000000 2.489789 0.081555
v 0.000000 2.652899 0.081555
v -1.903081 1.593526 0.081555
v -1.903081 1.593526 -0.081555
v -1.704075 1.593526 0.081555
v -1.704075 1.593526 -0.081555
s off
f 11 4 3
f 4 1 3
f 1 14 3
f 6 12 9
f 5 31 29
f 12 7 10
f 30 5 29
f 2 10 1
f 9 2 4
f 11 7 5
f 5 9 11
f 8 31 7
f 30 8 6
f 14 15 16
f 11 15 10
f 1 15 13
f 3 16 11
f 27 20 25
f 17 20 19
f 34 17 19
f 28 22 25
f 31 21 29
f 23 28 26
f 21 30 29
f 26 18 17
f 18 25 20
f 23 27 21
f 21 25 22
f 31 24 23
f 24 30 22
f 35 34 36
f 35 27 26
f 17 35 26
f 36 19 27
f 11 9 4
f 4 2 1
f 1 13 14
f 6 8 12
f 5 7 31
f 12 8 7
f 30 6 5
f 2 12 10
f 9 12 2
f 11 10 7
f 5 6 9
f 8 32 31
f 30 32 8
f 14 13 15
f 11 16 15
f 1 10 15
f 3 14 16
f 27 19 20
f 17 18 20
f 34 33 17
f 28 24 22
f 31 23 21
f 23 24 28
f 21 22 30
f 26 28 18
f 18 28 25
f 23 26 27
f 21 27 25
f 31 32 24
f 24 32 30
f 35 33 34
f 35 36 27
f 17 33 35
f 36 34 19
