# Blender v2.79 (sub 0) OBJ File: 'FirstRoom.blend'
# www.blender.org
v 1.903081 2.261317 0.081555
v 1.903081 2.424426 0.081555
v 1.903081 2.261317 -0.081555
v 1.903081 2.424426 -0.081555
v 0.790343 2.489789 -0.081555
v 0.790343 2.652899 -0.081555
v 0.790343 2.489789 0.081555
v 0.790343 2.652899 0.081555
v 1.704075 2.465287 -0.081555
v 1.704075 2.302177 0.081555
v 1.704075 2.302177 -0.081555
v 1.704075 2.465287 0.081555
v 1.903081 1.593526 0.081555
v 1.903081 1.593526 -0.081555
v 1.704075 1.593526 0.081555
v 1.704075 1.593526 -0.081555
v -1.903081 2.261317 0.081555
v -1.903081 2.424426 0.081555
v -1.903081 2.261317 -0.081555
v -1.903081 2.424426 -0.081555
v -0.790343 2.489789 -0.081555
v -0.790343 2.652899 -0.081555
v -0.790343 2.489789 0.081555
v -0.790343 2.652899 0.081555
v -1.704075 2.465287 -0.081555
v -1.704075 2.302177 0.081555
v -1.704075 2.302177 -0.081555
v -1.704075 2.465287 0.081555
v 0.000000 2.489789 -0.081555
v 0.000000 2.652899 -0.081555
v 0.000000 2.489789 0.081555
v 0.000000 2.652899 0.081555
v -1.903081 1.593526 0.081555
v -1.903081 1.593526 -0.081555
v -1.704075 1.593526 0.081555
v -1.704075 1.593526 -0.081555
vn -0.0000 0.0000 -1.0000
vn 1.0000 0.0000 0.0000
vn 0.2011 0.9796 0.0000
vn 0.0000 -1.0000 0.0000
vn -0.0000 0.0000 1.0000
vn -0.2011 -0.9796 0.0000
vn 0.0000 1.0000 0.0000
vn -1.0000 0.0000 0.0000
vn -0.2011 0.9796 0.0000
vn 0.2011 -0.9796 0.0000
s off
f 11//1 4//1 3//1
f 4//2 1//2 3//2
f 1//2 14//2 3//2
f 6//3 12//3 9//3
f 5//4 31//4 29//4
f 12//5 7//5 10//5
f 30//1 5//1 29//1
f 2//5 10//5 1//5
f 9//3 2//3 4//3
f 11//6 7//6 5//6
f 5//1 9//1 11//1
f 8//5 31//5 7//5
f 30//7 8//7 6//7
f 14//4 15//4 16//4
f 11//8 15//8 10//8
f 1//5 15//5 13//5
f 3//1 16//1 11//1
f 27//1 20//1 25//1
f 17//8 20//8 19//8
f 34//8 17//8 19//8
f 28//9 22//9 25//9
f 31//4 21//4 29//4
f 23//5 28//5 26//5
f 21//1 30//1 29//1
f 26//5 18//5 17//5
f 18//9 25//9 20//9
f 23//10 27//10 21//10
f 21//1 25//1 22//1
f 31//5 24//5 23//5
f 24//7 30//7 22//7
f 35//4 34//4 36//4
f 35//2 27//2 26//2
f 17//5 35//5 26//5
f 36//1 19//1 27//1
f 11//1 9//1 4//1
f 4//2 2//2 1//2
f 1//2 13//2 14//2
f 6//3 8//3 12//3
f 5//4 7//4 31//4
f 12//5 8//5 7//5
f 30//1 6//1 5//1
f 2//5 12//5 10//5
f 9//3 12//3 2//3
f 11//6 10//6 7//6
f 5//1 6//1 9//1
f 8//5 32//5 31//5
f 30//7 32//7 8//7
f 14//4 13//4 15//4
f 11//8 16//8 15//8
f 1//5 10//5 15//5
f 3//1 14//1 16//1
f 27//1 19//1 20//1
f 17//8 18//8 20//8
f 34//8 33//8 17//8
f 28//9 24//9 22//9
f 31//4 23//4 21//4
f 23//5 24//5 28//5
f 21//1 22//1 30//1
f 26//5 28//5 18//5
f 18//9 28//9 25//9
f 23//10 26//10 27//10
f 21//1 27//1 25//1
f 31//5 32//5 24//5
f 24//7 32//7 30//7
f 35//4 33//4 34//4
f 35//2 36//2 27//2
f 17//5 33//5 35//5
f 36//1 34//1 19//1
