# Blender v2.79 (sub 0) OBJ File: 'FirstRoom.blend'
# www.blender.org
v -0.716629 0.924289 -0.370342
v -0.716629 1.124628 -0.370342
v -0.716629 0.924289 -0.427436
v -0.716629 1.124628 -0.427436
v 0.092780 0.924289 -0.370342
v 0.092780 1.124628 -0.370342
v 0.092780 0.924289 -0.427436
v 0.092780 1.124628 -0.427436
v 1.000000 0.000000 0.500000
v 1.000000 1.800000 0.500000
v -1.000000 0.000000 0.500000
v -1.000000 1.800000 0.500000
v 1.000000 -0.000000 -0.500000
v 1.000000 1.800000 -0.500000
v -1.000000 -0.000000 -0.500000
v -1.000000 1.800000 -0.500000
v -0.916630 1.724967 -0.500000
v -0.916630 0.075033 -0.500000
v 0.916630 0.075033 -0.500000
v 0.916630 1.724967 -0.500000
v -0.916630 1.724967 -0.370341
v -0.916630 0.075033 -0.370341
v 0.916630 0.075033 -0.370341
v 0.916630 1.724967 -0.370341
v -0.716630 1.324628 -0.370342
v -0.716630 1.524967 -0.370342
v -0.716630 1.324628 -0.427436
v -0.716630 1.524967 -0.427436
v 0.716630 1.324628 -0.370342
v 0.716630 1.524967 -0.370342
v 0.716630 1.324628 -0.427436
v 0.716630 1.524967 -0.427436
v 0.192779 0.924288 -0.370342
v 0.192779 1.124628 -0.370342
v 0.192779 0.924288 -0.427436
v 0.192779 1.124628 -0.427436
v 0.716630 0.924288 -0.370342
v 0.716630 1.124628 -0.370342
v 0.716630 0.924288 -0.427436
v 0.716630 1.124628 -0.427436
s off
f 2 3 1
f 4 7 3
f 8 5 7
f 7 1 3
f 4 6 8
f 10 11 9
f 12 15 11
f 14 17 16
f 14 9 13
f 16 10 14
f 19 24 20
f 16 18 15
f 13 20 14
f 15 19 13
f 21 23 22
f 18 23 19
f 17 24 21
f 17 22 18
f 26 27 25
f 28 31 27
f 31 30 29
f 31 25 27
f 28 30 32
f 33 36 35
f 36 39 35
f 40 37 39
f 39 33 35
f 36 38 40
f 2 4 3
f 4 8 7
f 8 6 5
f 7 5 1
f 4 2 6
f 10 12 11
f 12 16 15
f 14 20 17
f 14 10 9
f 16 12 10
f 19 23 24
f 16 17 18
f 13 19 20
f 15 18 19
f 21 24 23
f 18 22 23
f 17 20 24
f 17 21 22
f 26 28 27
f 28 32 31
f 31 32 30
f 31 29 25
f 28 26 30
f 33 34 36
f 36 40 39
f 40 38 37
f 39 37 33
f 36 34 38
