# Blender v2.79 (sub 0) OBJ File: 'FirstRoom.blend'
# www.blender.org
v 8.137119 0.000001 -7.015665
v 8.137119 2.035012 -7.015665
v 8.062119 0.000001 -7.015665
v 8.062119 2.035012 -7.015665
v 8.137119 0.000001 -16.104221
v 8.137119 2.035012 -16.104221
v 8.062119 0.000001 -16.104221
v 8.062119 2.035012 -16.104221
v 11.877606 0.000000 -13.154504
v 11.877606 0.434550 -13.154504
v 11.877606 0.000000 -11.201619
v 11.877606 0.434550 -11.201619
v 10.627606 0.000000 -13.154504
v 10.627606 0.434550 -13.154504
v 10.627606 0.000000 -11.201619
v 10.627606 0.434550 -11.201619
v 11.721356 0.434550 -13.009784
v 11.721356 0.434550 -11.385268
v 10.783856 0.434550 -11.385268
v 10.783856 0.434550 -13.009784
v 11.721356 0.274695 -13.009784
v 11.721356 0.274695 -11.385268
v 10.783856 0.274695 -11.385268
v 10.783856 0.274695 -13.009784
v -4.953068 0.000000 -5.418015
v -4.953068 0.434550 -5.418015
v -4.953068 0.000000 -10.418015
v -4.953068 0.434550 -10.418015
v -3.703068 0.000000 -5.418015
v -3.703068 0.434550 -5.418015
v -3.703068 0.000000 -10.418016
v -3.703068 0.434550 -10.418016
v -4.796818 0.434550 -5.562736
v -4.796818 0.434550 -10.234366
v -3.859318 0.434550 -10.234367
v -3.859318 0.434550 -5.562736
v -4.796818 0.274695 -5.562736
v -4.796818 0.274695 -10.234366
v -3.859318 0.274695 -10.234367
v -3.859318 0.274695 -5.562736
v 32.055954 -1.999999 -6.859140
v 32.055954 0.000001 -6.859140
v 32.055958 -1.999999 -28.058430
v 32.055958 0.000001 -28.058430
v 47.765564 -1.999999 -6.859141
v 47.765564 0.000001 -6.859141
v 47.765564 -1.999999 -28.058430
v 47.765564 0.000001 -28.058430
v -44.923302 -1.999999 -4.795561
v -44.923302 0.000001 -4.795561
v -44.923302 -1.999999 -25.994854
v -44.923302 0.000001 -25.994854
v -29.213690 -1.999999 -4.795562
v -29.213690 0.000001 -4.795562
v -29.213690 -1.999999 -25.994854
v -29.213690 0.000001 -25.994854
v -10.134304 -1.999999 -30.892254
v -10.134304 0.000001 -30.892254
v -10.134302 -1.999999 -52.091545
v -10.134302 0.000001 -52.091545
v 5.575305 -1.999999 -30.892254
v 5.575305 0.000001 -30.892254
v 5.575308 -1.999999 -52.091545
v 5.575308 0.000001 -52.091545
v 5.350070 0.859302 -0.962501
v 5.350070 2.894303 -0.962501
v 5.350070 0.859302 -1.037500
v 5.350070 2.894303 -1.037500
v 6.962499 0.859302 -0.962502
v 6.962499 2.894303 -0.962502
v 6.962499 0.859302 -1.037501
v 6.962499 2.894303 -1.037501
v 0.025001 0.859302 -0.962501
v 0.025001 2.894303 -0.962501
v 0.025001 0.859302 -1.037500
v 0.025001 2.894303 -1.037500
v 4.000000 0.859302 -0.962502
v 4.000000 2.894303 -0.962502
v 4.000000 0.859302 -1.037501
v 4.000000 2.894303 -1.037501
v 0.024999 0.859302 8.037499
v 0.024999 2.894303 8.037499
v 0.024999 0.859302 7.962499
v 0.024999 2.894303 7.962499
v 6.962499 0.859302 8.037499
v 6.962499 2.894303 8.037499
v 6.962499 0.859302 7.962499
v 6.962499 2.894303 7.962499
v -0.050001 0.859302 -1.037501
v -0.050001 2.894303 -1.037501
v 0.024999 0.859302 -1.037501
v 0.024999 2.894303 -1.037501
v -0.050001 0.859302 8.037499
v -0.050001 2.894303 8.037499
v 0.024999 0.859302 8.037499
v 0.024999 2.894303 8.037499
v 7.037499 0.859302 8.037499
v 7.037499 2.894303 8.037499
v 6.962498 0.859302 8.037499
v 6.962498 2.894303 8.037499
v 7.037499 0.859302 -1.037501
v 7.037499 2.894303 -1.037501
v 6.962499 0.859302 -1.037501
v 6.962499 2.894303 -1.037501
v -9.278542 0.000001 -19.216700
v -9.278542 2.035012 -19.216700
v -9.278542 0.000001 -19.291700
v -9.278542 2.035012 -19.291700
v -4.486835 0.000001 -19.216700
v -4.486835 2.035012 -19.216700
v -4.486835 0.000001 -19.291700
v -4.486835 2.035012 -19.291700
v -2.102427 0.000001 -19.216700
v -2.102427 2.035012 -19.216700
v -2.102427 0.000001 -19.291700
v -2.102427 2.035012 -19.291700
v 9.973156 0.000001 -19.216702
v 9.973156 2.035012 -19.216702
v 9.973156 0.000001 -19.291702
v 9.973156 2.035012 -19.291702
v -8.375614 -1.999999 -11.154627
v -8.375614 0.000001 -11.154627
v -13.577929 -1.999999 -11.154627
v -13.577929 0.000001 -11.154627
v -8.375612 -1.999999 -21.324781
v -8.375612 0.000001 -21.324781
v -13.577927 -1.999999 -21.324781
v -13.577927 0.000001 -21.324781
v -5.928408 -1.999999 -21.324783
v -5.928408 0.000001 -21.324783
v -5.928408 -1.999999 -24.532806
v -5.928408 0.000001 -24.532806
v -0.568974 -1.999999 -21.324783
v -0.568974 0.000001 -21.324783
v -0.568974 -1.999999 -24.532806
v -0.568974 0.000001 -24.532806
v -2.090625 0.000002 9.946401
v -1.226305 0.859302 9.085631
v -2.090624 0.000002 -2.946403
v -1.226305 0.859302 -2.085633
v 9.090622 0.000002 9.946401
v 8.226303 0.859302 9.085631
v 9.090624 0.000002 -2.946403
v 8.226303 0.859302 -2.085633
v -8.375612 0.000001 -21.324783
v -8.375614 0.000001 12.238307
v 15.706731 0.000001 -21.324783
v 15.706728 0.000001 12.238307
v -8.375612 -1.999999 -21.324783
v -8.375614 -1.999999 12.238307
v 15.706731 -1.999999 -21.324783
v 15.706728 -1.999999 12.238307
s off
f 2 3 1
f 4 7 3
f 8 5 7
f 6 1 5
f 4 6 8
f 10 11 9
f 12 15 11
f 16 13 15
f 14 9 13
f 14 19 20
f 20 21 17
f 10 18 12
f 14 17 10
f 12 19 16
f 22 24 23
f 18 23 19
f 19 24 20
f 17 22 18
f 26 27 25
f 28 31 27
f 32 29 31
f 30 25 29
f 30 35 36
f 36 37 33
f 26 34 28
f 30 33 26
f 28 35 32
f 38 40 39
f 34 39 35
f 35 40 36
f 33 38 34
f 42 43 41
f 44 47 43
f 48 45 47
f 44 46 48
f 45 42 41
f 50 51 49
f 52 55 51
f 56 53 55
f 52 54 56
f 53 50 49
f 58 59 57
f 60 63 59
f 64 61 63
f 60 62 64
f 61 58 57
f 66 67 65
f 68 71 67
f 70 65 69
f 68 70 72
f 76 79 75
f 80 77 79
f 78 73 77
f 76 78 80
f 84 87 83
f 86 81 85
f 84 86 88
f 90 91 89
f 92 95 91
f 96 93 95
f 94 89 93
f 92 94 96
f 98 99 97
f 100 103 99
f 104 101 103
f 102 97 101
f 100 102 104
f 106 107 105
f 108 111 107
f 112 109 111
f 110 105 109
f 108 110 112
f 114 115 113
f 116 119 115
f 120 117 119
f 118 113 117
f 116 118 120
f 122 123 121
f 124 127 123
f 128 125 127
f 128 122 126
f 130 131 129
f 132 135 131
f 136 133 135
f 132 134 136
f 138 139 137
f 139 144 143
f 144 141 143
f 142 137 141
f 143 145 139
f 140 142 144
f 146 152 148
f 139 146 137
f 143 148 147
f 141 146 148
f 147 149 145
f 148 151 147
f 145 150 146
f 2 4 3
f 4 8 7
f 8 6 5
f 6 2 1
f 4 2 6
f 10 12 11
f 12 16 15
f 16 14 13
f 14 10 9
f 14 16 19
f 20 24 21
f 10 17 18
f 14 20 17
f 12 18 19
f 22 21 24
f 18 22 23
f 19 23 24
f 17 21 22
f 26 28 27
f 28 32 31
f 32 30 29
f 30 26 25
f 30 32 35
f 36 40 37
f 26 33 34
f 30 36 33
f 28 34 35
f 38 37 40
f 34 38 39
f 35 39 40
f 33 37 38
f 42 44 43
f 44 48 47
f 48 46 45
f 44 42 46
f 45 46 42
f 50 52 51
f 52 56 55
f 56 54 53
f 52 50 54
f 53 54 50
f 58 60 59
f 60 64 63
f 64 62 61
f 60 58 62
f 61 62 58
f 66 68 67
f 68 72 71
f 70 66 65
f 68 66 70
f 76 80 79
f 80 78 77
f 78 74 73
f 76 74 78
f 84 88 87
f 86 82 81
f 84 82 86
f 90 92 91
f 92 96 95
f 96 94 93
f 94 90 89
f 92 90 94
f 98 100 99
f 100 104 103
f 104 102 101
f 102 98 97
f 100 98 102
f 106 108 107
f 108 112 111
f 112 110 109
f 110 106 105
f 108 106 110
f 114 116 115
f 116 120 119
f 120 118 117
f 118 114 113
f 116 114 118
f 122 124 123
f 124 128 127
f 128 126 125
f 128 124 122
f 130 132 131
f 132 136 135
f 136 134 133
f 132 130 134
f 138 140 139
f 139 140 144
f 144 142 141
f 142 138 137
f 143 147 145
f 140 138 142
f 146 150 152
f 139 145 146
f 143 141 148
f 141 137 146
f 147 151 149
f 148 152 151
f 145 149 150
