ply
format ascii 1.0
comment Created by Blender 2.79 (sub 0) - www.blender.org, source file: 'FirstRoom.blend'
element vertex 24
property float x
property float y
property float z
property float nx
property float ny
property float nz
property uchar red
property uchar green
property uchar blue
element face 12
property list uchar uint vertex_indices
end_header
-0.013494 0.035130 -0.034415 -0.000001 0.019793 -0.999804 64 64 64
0.013494 0.510735 -0.025000 -0.000001 0.019793 -0.999804 64 64 64
0.013494 0.035130 -0.034415 -0.000001 0.019793 -0.999804 64 64 64
0.013494 0.035130 0.034415 0.000001 0.019793 0.999804 64 64 64
-0.013494 0.510735 0.025000 0.000001 0.019793 0.999804 64 64 64
-0.013494 0.035130 0.034415 0.000001 0.019793 0.999804 64 64 64
0.013494 0.035130 -0.034415 1.000000 0.000000 -0.000001 64 64 64
0.013494 0.510735 0.025000 1.000000 0.000000 -0.000001 64 64 64
0.013494 0.035130 0.034415 1.000000 0.000000 -0.000001 64 64 64
-0.013494 0.510735 -0.025000 0.000000 1.000000 -0.000000 64 64 64
0.013494 0.510735 0.025000 0.000000 1.000000 -0.000000 64 64 64
0.013494 0.510735 -0.025000 0.000000 1.000000 -0.000000 64 64 64
0.013494 0.035130 -0.034415 0.000000 -1.000000 0.000000 64 64 64
-0.013494 0.035130 0.034415 0.000000 -1.000000 0.000000 64 64 64
-0.013494 0.035130 -0.034415 0.000000 -1.000000 0.000000 64 64 64
-0.013494 0.035130 0.034415 -1.000000 -0.000000 0.000001 64 64 64
-0.013494 0.510735 -0.025000 -1.000000 -0.000000 0.000001 64 64 64
-0.013494 0.035130 -0.034415 -1.000000 -0.000000 0.000001 64 64 64
-0.013494 0.510735 -0.025000 -0.000001 0.019793 -0.999804 64 64 64
0.013494 0.510735 0.025000 0.000001 0.019793 0.999804 64 64 64
0.013494 0.510735 -0.025000 1.000000 -0.000000 -0.000001 64 64 64
-0.013494 0.510735 0.025000 0.000000 1.000000 0.000000 64 64 64
0.013494 0.035130 0.034415 0.000000 -1.000000 -0.000000 64 64 64
-0.013494 0.510735 0.025000 -1.000000 0.000000 0.000001 64 64 64
3 0 1 2
3 3 4 5
3 6 7 8
3 9 10 11
3 12 13 14
3 15 16 17
3 0 18 1
3 3 19 4
3 6 20 7
3 9 21 10
3 12 22 13
3 15 23 16
