# Blender v2.79 (sub 0) OBJ File: 'FirstRoom.blend'
# www.blender.org
v -0.107542 1.700000 0.107023
v -0.107542 1.300000 -0.108057
v -0.162567 0.000000 0.162566
v -0.162567 1.750000 0.162566
v -0.162567 0.000000 -0.162566
v -0.162567 1.750000 -0.162566
v 0.162567 0.000000 0.162566
v 0.162567 1.750000 0.162566
v 0.162567 0.000000 -0.162566
v 0.162567 1.750000 -0.162566
v -0.107542 1.300000 -0.162566
v -0.107542 1.300000 0.162566
v 0.107542 1.300000 -0.162566
v 0.107542 1.300000 0.162566
v -0.107542 1.700000 -0.162566
v -0.107542 1.700000 0.162566
v 0.107542 1.700000 -0.162566
v 0.107542 1.700000 0.162566
v 0.162567 1.300000 0.107023
v 0.107542 1.300000 0.107023
v 0.162567 1.300000 -0.108057
v 0.107542 1.300000 -0.108057
v 0.162567 1.700000 0.107023
v 0.107542 1.700000 0.107023
v 0.162567 1.700000 -0.108057
v 0.107542 1.700000 -0.108057
v -0.107542 1.700000 -0.108057
v -0.107542 1.300000 0.107023
v -0.162567 1.300000 -0.108057
v -0.162567 1.300000 0.107023
v -0.162567 1.700000 0.107023
v -0.162567 1.700000 -0.108057
vn -0.0000 0.0000 -1.0000
vn 1.0000 0.0000 0.0000
vn -0.0000 0.0000 1.0000
vn 0.0000 1.0000 0.0000
vn 0.0000 -1.0000 0.0000
vn -1.0000 0.0000 0.0000
s off
f 13//1 10//1 9//1
f 10//2 21//2 9//2
f 8//3 14//3 7//3
f 6//4 8//4 10//4
f 15//2 2//2 11//2
f 10//1 15//1 6//1
f 4//3 18//3 8//3
f 13//4 2//4 22//4
f 20//4 12//4 14//4
f 12//2 1//2 16//2
f 10//2 23//2 25//2
f 1//5 26//5 24//5
f 25//5 24//5 26//5
f 26//5 15//5 17//5
f 1//5 18//5 16//5
f 18//6 20//6 14//6
f 22//4 28//4 20//4
f 22//4 19//4 21//4
f 23//1 20//1 24//1
f 25//3 22//3 21//3
f 22//6 17//6 13//6
f 9//2 19//2 7//2
f 19//2 8//2 7//2
f 2//4 30//4 28//4
f 1//5 32//5 27//5
f 28//1 31//1 1//1
f 32//3 2//3 27//3
f 6//6 31//6 4//6
f 4//6 30//6 3//6
f 6//6 29//6 32//6
f 30//6 5//6 3//6
f 5//1 13//1 9//1
f 6//1 11//1 5//1
f 14//3 3//3 7//3
f 12//3 4//3 3//3
f 13//1 17//1 10//1
f 10//2 25//2 21//2
f 8//3 18//3 14//3
f 6//4 4//4 8//4
f 15//2 27//2 2//2
f 10//1 17//1 15//1
f 4//3 16//3 18//3
f 13//4 11//4 2//4
f 20//4 28//4 12//4
f 12//2 28//2 1//2
f 10//2 8//2 23//2
f 1//5 27//5 26//5
f 25//5 23//5 24//5
f 26//5 27//5 15//5
f 1//5 24//5 18//5
f 18//6 24//6 20//6
f 22//4 2//4 28//4
f 22//4 20//4 19//4
f 23//1 19//1 20//1
f 25//3 26//3 22//3
f 22//6 26//6 17//6
f 9//2 21//2 19//2
f 19//2 23//2 8//2
f 2//4 29//4 30//4
f 1//5 31//5 32//5
f 28//1 30//1 31//1
f 32//3 29//3 2//3
f 6//6 32//6 31//6
f 4//6 31//6 30//6
f 6//6 5//6 29//6
f 30//6 29//6 5//6
f 5//1 11//1 13//1
f 6//1 15//1 11//1
f 14//3 12//3 3//3
f 12//3 16//3 4//3
