# Blender v2.79 (sub 0) OBJ File: 'FirstRoom.blend'
# www.blender.org
v -0.107542 1.700000 0.107023
v -0.107542 1.300000 -0.108057
v -0.162567 0.000000 0.162566
v -0.162567 1.750000 0.162566
v -0.162567 0.000000 -0.162566
v -0.162567 1.750000 -0.162566
v 0.162567 0.000000 0.162566
v 0.162567 1.750000 0.162566
v 0.162567 0.000000 -0.162566
v 0.162567 1.750000 -0.162566
v -0.107542 1.300000 -0.162566
v -0.107542 1.300000 0.162566
v 0.107542 1.300000 -0.162566
v 0.107542 1.300000 0.162566
v -0.107542 1.700000 -0.162566
v -0.107542 1.700000 0.162566
v 0.107542 1.700000 -0.162566
v 0.107542 1.700000 0.162566
v 0.162567 1.300000 0.107023
v 0.107542 1.300000 0.107023
v 0.162567 1.300000 -0.108057
v 0.107542 1.300000 -0.108057
v 0.162567 1.700000 0.107023
v 0.107542 1.700000 0.107023
v 0.162567 1.700000 -0.108057
v 0.107542 1.700000 -0.108057
v -0.107542 1.700000 -0.108057
v -0.107542 1.300000 0.107023
v -0.162567 1.300000 -0.108057
v -0.162567 1.300000 0.107023
v -0.162567 1.700000 0.107023
v -0.162567 1.700000 -0.108057
s off
f 13 10 9
f 10 21 9
f 8 14 7
f 6 8 10
f 15 2 11
f 10 15 6
f 4 18 8
f 13 2 22
f 20 12 14
f 12 1 16
f 10 23 25
f 1 26 24
f 25 24 26
f 26 15 17
f 1 18 16
f 18 20 14
f 22 28 20
f 22 19 21
f 23 20 24
f 25 22 21
f 22 17 13
f 9 19 7
f 19 8 7
f 2 30 28
f 1 32 27
f 28 31 1
f 32 2 27
f 6 31 4
f 4 30 3
f 6 29 32
f 30 5 3
f 5 13 9
f 6 11 5
f 14 3 7
f 12 4 3
f 13 17 10
f 10 25 21
f 8 18 14
f 6 4 8
f 15 27 2
f 10 17 15
f 4 16 18
f 13 11 2
f 20 28 12
f 12 28 1
f 10 8 23
f 1 27 26
f 25 23 24
f 26 27 15
f 1 24 18
f 18 24 20
f 22 2 28
f 22 20 19
f 23 19 20
f 25 26 22
f 22 26 17
f 9 21 19
f 19 23 8
f 2 29 30
f 1 31 32
f 28 30 31
f 32 29 2
f 6 32 31
f 4 31 30
f 6 5 29
f 30 29 5
f 5 11 13
f 6 15 11
f 14 12 3
f 12 16 4
