ply
format ascii 1.0
comment Created by Blender 2.79 (sub 0) - www.blender.org, source file: 'FirstRoom.blend'
element vertex 394
property float x
property float y
property float z
property float nx
property float ny
property float nz
property uchar red
property uchar green
property uchar blue
element face 178
property list uchar uint vertex_indices
end_header
-3.602740 0.000000 -4.875201 -1.000000 -0.000000 0.000000 255 255 255
-3.602740 3.420001 -4.695200 -1.000000 -0.000000 0.000000 255 255 255
-3.602740 3.600001 -4.875201 -1.000000 -0.000000 0.000000 255 255 255
3.622737 3.600001 -4.875201 0.000000 0.000000 -1.000000 255 255 255
3.422736 0.261579 -4.875201 0.000000 0.000000 -1.000000 255 255 255
3.422736 3.400001 -4.875201 0.000000 0.000000 -1.000000 255 255 255
3.622737 3.600001 4.875200 1.000000 0.000000 -0.000000 255 255 255
3.622737 3.400001 -4.675200 1.000000 0.000000 -0.000000 255 255 255
3.622737 3.600001 -4.875201 1.000000 0.000000 -0.000000 255 255 255
3.622737 0.000000 4.875200 -0.000000 0.000000 1.000000 255 255 255
-3.402740 0.200000 4.875200 -0.000000 0.000000 1.000000 255 255 255
-3.602740 0.000000 4.875200 -0.000000 0.000000 1.000000 255 255 255
-3.602740 3.600001 -4.875201 0.000000 1.000000 -0.000000 255 255 255
3.622737 3.600001 4.875200 0.000000 1.000000 -0.000000 255 255 255
3.622737 3.600001 -4.875201 0.000000 1.000000 -0.000000 255 255 255
-3.602740 0.180000 -4.695200 -0.000000 0.000000 1.000000 255 255 255
-3.422740 3.420001 -4.695200 -0.000000 0.000000 1.000000 255 255 255
-3.602740 3.420001 -4.695200 -0.000000 0.000000 1.000000 255 255 255
-3.602740 3.600001 4.875200 -1.000000 0.000000 0.000000 255 255 255
-3.602740 0.180001 4.695200 -1.000000 0.000000 0.000000 255 255 255
-3.602740 0.000000 4.875200 -1.000000 0.000000 0.000000 255 255 255
-3.602740 3.420001 4.695200 -1.000000 0.000000 -0.000000 255 255 255
-3.602740 0.180000 -4.695200 -1.000000 0.000000 0.000000 255 255 255
-3.422740 3.420001 4.695200 -1.000000 0.000000 -0.000000 255 152 23
-3.422740 0.180000 -4.695200 -1.000000 0.000000 -0.000000 255 152 23
-3.422740 0.180001 4.695200 -1.000000 0.000000 -0.000000 255 152 23
-3.602740 3.420001 4.695200 0.000000 0.000000 -1.000000 255 255 255
-3.422740 0.180001 4.695200 0.000000 0.000000 -1.000000 255 255 255
-3.602740 0.180001 4.695200 0.000000 0.000000 -1.000000 255 255 255
-3.602740 3.420001 -4.695200 0.000000 -1.000000 0.000000 255 255 255
-3.422740 3.420001 4.695200 0.000000 -1.000000 0.000000 255 255 255
-3.602740 3.420001 4.695200 0.000000 -1.000000 0.000000 255 255 255
-3.602740 0.180001 4.695200 0.000000 1.000000 -0.000000 255 255 255
-3.422740 0.180000 -4.695200 0.000000 1.000000 -0.000000 255 255 255
-3.602740 0.180000 -4.695200 0.000000 1.000000 -0.000000 255 255 255
3.422737 0.200000 4.875200 -0.000000 1.000000 0.000000 255 255 255
-3.402740 0.200000 4.675200 -0.000000 1.000000 0.000000 255 255 255
-3.402740 0.200000 4.875200 -0.000000 1.000000 0.000000 255 255 255
-3.602740 3.600001 4.875200 0.000000 0.000000 1.000000 255 255 255
3.422737 3.400001 4.875200 0.000000 0.000000 1.000000 255 255 255
3.622737 3.600001 4.875200 0.000000 0.000000 1.000000 255 255 255
3.422737 0.200000 4.875200 -0.000000 0.000000 1.000000 255 255 255
-3.402740 3.400001 4.875200 0.000000 0.000000 1.000000 255 255 255
3.422737 3.400001 4.675200 0.000000 -0.000000 1.000000 255 152 23
-3.402740 0.200000 4.675200 0.000000 -0.000000 1.000000 255 152 23
3.422737 0.200000 4.675200 0.000000 -0.000000 1.000000 255 152 23
-3.402740 0.200000 4.875200 1.000000 0.000000 0.000000 255 255 255
-3.402740 3.400001 4.675200 1.000000 0.000000 0.000000 255 255 255
-3.402740 3.400001 4.875200 1.000000 0.000000 0.000000 255 255 255
-3.402740 3.400001 4.875200 -0.000000 -1.000000 -0.000000 255 255 255
3.422737 3.400001 4.675200 -0.000000 -1.000000 -0.000000 255 255 255
3.422737 3.400001 4.875200 -0.000000 -1.000000 -0.000000 255 255 255
3.422737 3.400001 4.875200 -1.000000 0.000000 0.000000 255 255 255
3.422737 0.200000 4.675200 -1.000000 0.000000 0.000000 255 255 255
3.422737 0.200000 4.875200 -1.000000 0.000000 0.000000 255 255 255
3.622737 0.261580 -4.675200 0.000000 1.000000 -0.000000 255 255 255
3.422737 0.261580 4.675200 0.000000 1.000000 -0.000000 255 255 255
3.622737 0.261580 4.675200 0.000000 1.000000 -0.000000 255 255 255
3.622737 0.261580 -4.675200 1.000000 -0.000000 0.000000 255 255 255
3.622737 0.000000 -4.875201 1.000000 -0.000000 0.000000 255 255 255
3.622737 0.261580 4.675200 1.000000 0.000000 -0.000000 255 255 255
3.622737 3.400001 4.675200 1.000000 0.000000 -0.000000 255 255 255
3.622737 0.000000 4.875200 1.000000 0.000000 0.000000 255 255 255
3.422737 3.400001 -4.675200 1.000000 -0.000000 0.000000 255 152 23
3.422737 0.261580 4.675200 1.000000 -0.000000 0.000000 255 152 23
3.422737 0.261580 -4.675200 1.000000 -0.000000 0.000000 255 152 23
3.622737 3.400001 4.675200 0.000000 -1.000000 0.000000 255 255 255
3.422737 3.400001 -4.675200 0.000000 -1.000000 0.000000 255 255 255
3.622737 3.400001 -4.675200 0.000000 -1.000000 0.000000 255 255 255
3.622737 3.400001 -4.675200 0.000000 -0.000000 1.000000 255 255 255
3.422737 0.261580 -4.675200 0.000000 -0.000000 1.000000 255 255 255
3.622737 0.261580 -4.675200 0.000000 -0.000000 1.000000 255 255 255
3.622737 0.261580 4.675200 -0.000000 -0.000000 -1.000000 255 255 255
3.422737 3.400001 4.675200 -0.000000 -0.000000 -1.000000 255 255 255
3.622737 3.400001 4.675200 -0.000000 -0.000000 -1.000000 255 255 255
3.422736 0.261579 -4.875201 -1.000000 -0.000000 0.000000 255 255 255
3.422736 3.400001 -4.675201 -1.000000 -0.000000 0.000000 255 255 255
3.422736 3.400001 -4.875201 -1.000000 -0.000000 0.000000 255 255 255
-3.602740 0.000000 -4.875201 -0.000000 0.000000 -1.000000 255 255 255
3.622737 0.000000 -4.875201 -0.000000 0.000000 -1.000000 255 255 255
-3.402739 3.400001 -4.875201 0.000000 0.000000 -1.000000 255 255 255
-3.602740 3.600001 -4.875201 0.000000 0.000000 -1.000000 255 255 255
-3.402739 0.261579 -4.875201 0.000000 0.000000 -1.000000 255 255 255
-3.402739 3.400001 -4.675201 0.000000 0.000000 -1.000000 255 152 23
3.422736 0.261579 -4.675201 0.000000 0.000000 -1.000000 255 152 23
-3.402739 0.261579 -4.675201 0.000000 0.000000 -1.000000 255 152 23
-3.402739 0.261579 -4.875201 0.000000 1.000000 -0.000000 255 255 255
3.422736 0.261579 -4.675201 0.000000 1.000000 -0.000000 255 255 255
3.422736 0.261579 -4.875201 0.000000 1.000000 -0.000000 255 255 255
3.422736 3.400001 -4.875201 0.000000 -1.000000 0.000000 255 255 255
-3.402739 3.400001 -4.675201 0.000000 -1.000000 0.000000 255 255 255
-3.402739 3.400001 -4.875201 0.000000 -1.000000 0.000000 255 255 255
-3.402739 3.400001 -4.875201 1.000000 -0.000000 0.000000 255 255 255
-3.402739 0.261579 -4.675201 1.000000 -0.000000 0.000000 255 255 255
-3.402739 0.261579 -4.875201 1.000000 -0.000000 0.000000 255 255 255
1.499274 0.200000 -4.675200 -0.402377 -0.915474 -0.000003 255 255 255
-3.402738 2.354577 -4.778290 -0.402377 -0.915474 -0.000003 255 255 255
1.499275 0.200000 -4.778290 -0.402377 -0.915474 -0.000003 255 255 255
1.834780 0.200001 -4.778290 0.000000 0.000000 -1.000000 255 255 255
-3.402738 2.354577 -4.778290 0.000000 0.000000 -1.000000 255 255 255
-3.402738 2.502042 -4.778290 0.000000 0.000000 -1.000000 255 255 255
-3.402737 2.502042 -4.675199 0.402377 0.915474 -0.000003 255 255 255
1.834780 0.200001 -4.778290 0.402377 0.915474 -0.000003 255 255 255
-3.402738 2.502042 -4.778290 0.402377 0.915474 -0.000003 255 255 255
-3.402738 1.848422 -4.675200 -0.206154 0.978519 -0.000001 255 255 255
3.422739 3.286412 -4.778290 -0.206154 0.978519 -0.000001 255 255 255
-3.402737 1.848422 -4.778290 -0.206154 0.978519 -0.000001 255 255 255
3.422741 3.148449 -4.675201 0.206154 -0.978519 -0.000001 255 255 255
-3.402740 1.710458 -4.778290 0.206154 -0.978519 -0.000001 255 255 255
3.422744 3.148450 -4.778290 0.206154 -0.978519 -0.000001 255 255 255
3.422744 3.148450 -4.778290 0.000000 -0.000000 -1.000000 255 255 255
-3.402737 1.848422 -4.778290 0.000000 -0.000000 -1.000000 255 255 255
3.422739 3.286412 -4.778290 0.000000 -0.000000 -1.000000 255 255 255
3.422736 2.305067 -4.675200 0.480154 -0.877184 0.000000 255 255 255
-0.496044 0.160002 -4.778290 0.480154 -0.877184 0.000000 255 255 255
3.422736 2.305067 -4.778290 0.480154 -0.877184 0.000000 255 255 255
-0.777207 0.160001 -4.778290 -0.480154 0.877184 -0.000003 255 255 255
3.422736 2.458969 -4.675200 -0.480154 0.877184 -0.000003 255 255 255
3.422738 2.458970 -4.778290 -0.480154 0.877184 -0.000003 255 255 255
3.422736 2.305067 -4.778290 0.000000 -0.000000 -1.000000 255 255 255
-0.777207 0.160001 -4.778290 0.000000 -0.000000 -1.000000 255 255 255
3.422738 2.458970 -4.778290 0.000000 -0.000000 -1.000000 255 255 255
0.098164 3.399999 -4.675200 0.578928 0.815378 -0.000001 255 255 255
3.422740 1.039511 -4.778290 0.578928 0.815378 -0.000001 255 255 255
0.098164 3.399999 -4.778290 0.578928 0.815378 -0.000001 255 255 255
3.422740 1.039510 -4.675200 1.000000 0.000000 -0.000009 255 255 255
3.422740 0.873944 -4.778290 1.000000 0.000000 -0.000009 255 255 255
3.422740 1.039511 -4.778290 1.000000 0.000000 -0.000009 255 255 255
3.422740 0.873944 -4.778290 -0.578928 -0.815378 -0.000000 255 255 255
-0.135025 3.399999 -4.675200 -0.578928 -0.815378 -0.000000 255 255 255
-0.135026 3.399999 -4.778290 -0.578928 -0.815378 -0.000000 255 255 255
-0.135026 3.399999 -4.778290 0.000000 0.000000 -1.000000 255 255 255
3.422740 1.039511 -4.778290 0.000000 0.000000 -1.000000 255 255 255
3.422740 0.873944 -4.778290 0.000000 0.000000 -1.000000 255 255 255
3.422737 3.420001 1.390552 -0.000001 0.815377 0.578930 255 255 255
3.525829 1.059506 4.715123 -0.000001 0.815377 0.578930 255 255 255
3.525828 3.420001 1.390552 -0.000001 0.815377 0.578930 255 255 255
3.422739 1.059505 4.715123 0.000005 -0.000006 1.000000 255 255 255
3.525829 0.893939 4.715122 0.000005 -0.000006 1.000000 255 255 255
3.525829 1.059506 4.715123 0.000005 -0.000006 1.000000 255 255 255
3.525829 0.893939 4.715122 0.000002 -0.815377 -0.578930 255 255 255
3.422737 3.420001 1.157363 0.000002 -0.815377 -0.578930 255 255 255
3.525828 3.420002 1.157362 0.000002 -0.815377 -0.578930 255 255 255
3.525828 3.420002 1.157362 1.000000 0.000000 -0.000000 255 255 255
3.525829 1.059506 4.715123 1.000000 0.000000 -0.000000 255 255 255
3.525829 0.893939 4.715122 1.000000 0.000000 -0.000000 255 255 255
3.525827 2.552206 -4.675281 0.000001 0.958392 0.285457 255 255 255
3.422739 0.180001 3.289151 0.000001 0.958392 0.285457 255 255 255
3.525829 0.179999 3.289157 0.000001 0.958392 0.285457 255 255 255
3.525829 0.180002 2.816223 -0.000000 -0.958392 -0.285457 255 255 255
3.422736 2.411345 -4.675278 -0.000000 -0.958392 -0.285457 255 255 255
3.525827 2.411345 -4.675282 -0.000000 -0.958392 -0.285457 255 255 255
3.525827 2.552206 -4.675281 1.000000 0.000000 -0.000000 255 255 255
3.525829 0.180002 2.816223 1.000000 0.000000 -0.000000 255 255 255
3.525827 2.411345 -4.675282 1.000000 0.000000 -0.000000 255 255 255
3.525830 3.420000 3.799070 0.000001 -0.964163 0.265313 255 255 255
3.422737 1.088079 -4.675276 0.000001 -0.964163 0.265313 255 255 255
3.525827 1.088079 -4.675277 0.000001 -0.964163 0.265313 255 255 255
3.422737 1.228096 -4.675276 -0.000002 0.964162 -0.265313 255 255 255
3.525830 3.420000 3.290236 -0.000002 0.964162 -0.265313 255 255 255
3.525827 1.228097 -4.675275 -0.000002 0.964162 -0.265313 255 255 255
3.525830 3.420000 3.290236 1.000000 0.000000 -0.000000 255 255 255
3.525827 1.088079 -4.675277 1.000000 0.000000 -0.000000 255 255 255
3.525827 1.228097 -4.675275 1.000000 0.000000 -0.000000 255 255 255
3.422739 2.325065 4.715123 0.000000 -0.877185 0.480153 255 255 255
3.525828 0.180002 0.796341 0.000000 -0.877185 0.480153 255 255 255
3.525829 2.325065 4.715123 0.000000 -0.877185 0.480153 255 255 255
3.525828 0.180001 0.515178 -0.000003 0.877185 -0.480153 255 255 255
3.422739 2.478966 4.715123 -0.000003 0.877185 -0.480153 255 255 255
3.525829 2.478967 4.715125 -0.000003 0.877185 -0.480153 255 255 255
3.525829 2.325065 4.715123 1.000000 0.000000 -0.000000 255 255 255
3.525828 0.180001 0.515178 1.000000 0.000000 -0.000000 255 255 255
3.525829 2.478967 4.715125 1.000000 0.000000 -0.000000 255 255 255
-0.078168 3.400001 4.675200 -0.578929 0.815378 0.000000 255 255 255
-3.402741 1.039509 4.778290 -0.578929 0.815378 0.000000 255 255 255
-0.078169 3.400000 4.778290 -0.578929 0.815378 0.000000 255 255 255
-3.402742 1.039509 4.675200 -1.000000 -0.000003 0.000005 255 255 255
-3.402741 0.873942 4.778290 -1.000000 -0.000003 0.000005 255 255 255
-3.402741 1.039509 4.778290 -1.000000 -0.000003 0.000005 255 255 255
-3.402741 0.873942 4.778290 0.578929 -0.815378 0.000000 255 255 255
0.155021 3.400001 4.675200 0.578929 -0.815378 0.000000 255 255 255
0.155022 3.400001 4.778290 0.578929 -0.815378 0.000000 255 255 255
0.155022 3.400001 4.778290 0.000000 -0.000000 1.000000 255 255 255
-3.402741 1.039509 4.778290 0.000000 -0.000000 1.000000 255 255 255
-3.402741 0.873942 4.778290 0.000000 -0.000000 1.000000 255 255 255
-3.402740 2.305068 4.675200 -0.480154 -0.877184 0.000000 255 255 255
0.516041 0.160003 4.778290 -0.480154 -0.877184 0.000000 255 255 255
-3.402740 2.305068 4.778291 -0.480154 -0.877184 0.000000 255 255 255
0.797204 0.160001 4.778290 0.480154 0.877184 0.000002 255 255 255
-3.402739 2.458969 4.675200 0.480154 0.877184 0.000002 255 255 255
-3.402741 2.458970 4.778291 0.480154 0.877184 0.000002 255 255 255
-3.402740 2.305068 4.778291 0.000000 0.000000 1.000000 255 255 255
0.797204 0.160001 4.778290 0.000000 0.000000 1.000000 255 255 255
-3.402741 2.458970 4.778291 0.000000 0.000000 1.000000 255 255 255
3.422735 1.848422 4.675200 0.206154 0.978519 0.000001 255 255 255
-3.402742 3.286413 4.778290 0.206154 0.978519 0.000001 255 255 255
3.422734 1.848422 4.778291 0.206154 0.978519 0.000001 255 255 255
-3.402744 3.148450 4.675200 -0.206154 -0.978519 0.000001 255 255 255
3.422737 1.710458 4.778291 -0.206154 -0.978519 0.000001 255 255 255
-3.402746 3.148450 4.778290 -0.206154 -0.978519 0.000001 255 255 255
-3.402746 3.148450 4.778290 -0.000000 0.000000 1.000000 255 255 255
3.422734 1.848422 4.778291 -0.000000 0.000000 1.000000 255 255 255
-3.402742 3.286413 4.778290 -0.000000 0.000000 1.000000 255 255 255
-1.479277 0.200001 4.675200 0.402377 -0.915474 0.000003 255 255 255
3.422735 2.354578 4.778291 0.402377 -0.915474 0.000003 255 255 255
-1.479278 0.200001 4.778290 0.402377 -0.915474 0.000003 255 255 255
-1.814783 0.200001 4.778290 -0.000000 0.000000 1.000000 255 255 255
3.422735 2.354578 4.778291 -0.000000 0.000000 1.000000 255 255 255
3.422735 2.502042 4.778291 -0.000000 0.000000 1.000000 255 255 255
3.422734 2.502042 4.675200 -0.402377 0.915474 0.000002 255 255 255
-1.814783 0.200001 4.778290 -0.402377 0.915474 0.000002 255 255 255
3.422735 2.502042 4.778291 -0.402377 0.915474 0.000002 255 255 255
-3.422741 2.325064 -4.695200 0.000000 -0.877185 -0.480153 255 255 255
-3.525832 0.180002 -0.776419 0.000000 -0.877185 -0.480153 255 255 255
-3.525832 2.325064 -4.695200 0.000000 -0.877185 -0.480153 255 255 255
-3.525832 0.180001 -0.495256 0.000001 0.877185 0.480153 255 255 255
-3.422741 2.478966 -4.695200 0.000001 0.877185 0.480153 255 255 255
-3.525832 2.478967 -4.695202 0.000001 0.877185 0.480153 255 255 255
-3.525832 2.325064 -4.695200 -1.000000 -0.000000 -0.000000 255 255 255
-3.525832 0.180001 -0.495256 -1.000000 -0.000000 -0.000000 255 255 255
-3.525832 2.478967 -4.695202 -1.000000 -0.000000 -0.000000 255 255 255
-3.525832 3.420000 -3.779148 -0.000000 -0.964163 -0.265313 255 255 255
-3.422741 1.088079 4.695199 -0.000000 -0.964163 -0.265313 255 255 255
-3.525832 1.088079 4.695199 -0.000000 -0.964163 -0.265313 255 255 255
-3.422741 1.228097 4.695199 -0.000002 0.964162 0.265313 255 255 255
-3.525832 3.420000 -3.270314 -0.000002 0.964162 0.265313 255 255 255
-3.525832 1.228097 4.695198 -0.000002 0.964162 0.265313 255 255 255
-3.525832 3.420000 -3.270314 -1.000000 -0.000000 -0.000000 255 255 255
-3.525832 1.088079 4.695199 -1.000000 -0.000000 -0.000000 255 255 255
-3.525832 1.228097 4.695198 -1.000000 -0.000000 -0.000000 255 255 255
-3.525832 2.552209 4.695203 -0.000001 0.958391 -0.285457 255 255 255
-3.422741 0.179999 -3.269228 -0.000001 0.958391 -0.285457 255 255 255
-3.525832 0.179997 -3.269235 -0.000001 0.958391 -0.285457 255 255 255
-3.525832 0.180000 -2.796301 0.000003 -0.958391 0.285457 255 255 255
-3.422741 2.411347 4.695200 0.000003 -0.958391 0.285457 255 255 255
-3.525832 2.411348 4.695203 0.000003 -0.958391 0.285457 255 255 255
-3.525832 2.552209 4.695203 -1.000000 0.000000 -0.000000 255 255 255
-3.525832 0.180000 -2.796301 -1.000000 0.000000 -0.000000 255 255 255
-3.525832 2.411348 4.695203 -1.000000 0.000000 -0.000000 255 255 255
-3.422741 3.420001 -1.370630 -0.000001 0.815377 -0.578930 255 255 255
-3.525832 1.059506 -4.695200 -0.000001 0.815377 -0.578930 255 255 255
-3.525832 3.420001 -1.370630 -0.000001 0.815377 -0.578930 255 255 255
-3.422741 1.059505 -4.695201 -0.000009 -0.000000 -1.000000 255 255 255
-3.525832 0.893938 -4.695200 -0.000009 -0.000000 -1.000000 255 255 255
-3.525832 1.059506 -4.695200 -0.000009 -0.000000 -1.000000 255 255 255
-3.525832 0.893938 -4.695200 -0.000002 -0.815377 0.578930 255 255 255
-3.422741 3.420001 -1.137441 -0.000002 -0.815377 0.578930 255 255 255
-3.525832 3.420002 -1.137440 -0.000002 -0.815377 0.578930 255 255 255
-3.525832 3.420002 -1.137440 -1.000000 0.000000 0.000000 255 255 255
-3.525832 1.059506 -4.695200 -1.000000 0.000000 0.000000 255 255 255
-3.525832 0.893938 -4.695200 -1.000000 0.000000 0.000000 255 255 255
-3.602740 3.600001 4.875200 0.000000 1.000000 -0.000000 255 255 255
-3.422740 0.180000 -4.695200 0.000000 0.000000 1.000000 255 255 255
-3.422740 3.420001 -4.695200 -1.000000 0.000000 0.000000 255 152 23
-3.422740 3.420001 4.695200 0.000000 0.000000 -1.000000 255 255 255
-3.422740 3.420001 -4.695200 0.000000 -1.000000 0.000000 255 255 255
-3.422740 0.180001 4.695200 0.000000 1.000000 -0.000000 255 255 255
3.422737 0.200000 4.675200 0.000000 1.000000 0.000000 255 255 255
-3.402740 3.400001 4.675200 0.000000 0.000000 1.000000 255 152 23
-3.402740 0.200000 4.675200 1.000000 0.000000 -0.000000 255 255 255
-3.402740 3.400001 4.675200 0.000000 -1.000000 0.000000 255 255 255
3.422737 3.400001 4.675200 -1.000000 0.000000 0.000000 255 255 255
3.422737 0.261580 -4.675200 0.000000 1.000000 -0.000000 255 255 255
3.422737 3.400001 4.675200 1.000000 -0.000000 0.000000 255 152 23
3.422737 3.400001 4.675200 0.000000 -1.000000 0.000000 255 255 255
3.422737 3.400001 -4.675200 0.000000 0.000000 1.000000 255 255 255
3.422737 0.261580 4.675200 0.000000 0.000000 -1.000000 255 255 255
3.422736 0.261579 -4.675201 -1.000000 -0.000000 -0.000000 255 255 255
3.422736 3.400001 -4.675201 0.000000 0.000000 -1.000000 255 152 23
-3.402739 0.261579 -4.675201 0.000000 1.000000 0.000000 255 255 255
3.422736 3.400001 -4.675201 0.000000 -1.000000 0.000000 255 255 255
-3.402739 3.400001 -4.675201 1.000000 -0.000000 0.000000 255 255 255
1.499274 0.200000 -4.675200 -0.402377 -0.915474 -0.000002 255 255 255
-3.402738 2.354577 -4.675199 -0.402377 -0.915474 -0.000002 255 255 255
-3.402738 2.354577 -4.778290 -0.402377 -0.915474 -0.000002 255 255 255
1.499275 0.200000 -4.778290 0.000000 0.000000 -1.000000 255 255 255
-3.402737 2.502042 -4.675199 0.402377 0.915474 0.000003 255 255 255
1.834780 0.200000 -4.675200 0.402377 0.915474 0.000003 255 255 255
1.834780 0.200001 -4.778290 0.402377 0.915474 0.000003 255 255 255
3.422741 3.286413 -4.675201 -0.206154 0.978519 -0.000001 255 255 255
3.422741 3.148449 -4.675201 0.206154 -0.978519 -0.000003 255 255 255
-3.402738 1.710458 -4.675200 0.206154 -0.978519 -0.000003 255 255 255
-3.402740 1.710458 -4.778290 0.206154 -0.978519 -0.000003 255 255 255
-3.402740 1.710458 -4.778290 0.000000 -0.000000 -1.000000 255 255 255
3.422736 2.305067 -4.675200 0.480154 -0.877184 0.000001 255 255 255
-0.496048 0.160001 -4.675200 0.480154 -0.877184 0.000001 255 255 255
-0.496044 0.160002 -4.778290 0.480154 -0.877184 0.000001 255 255 255
-0.777207 0.160001 -4.778290 -0.480154 0.877184 0.000001 255 255 255
-0.777208 0.160000 -4.675200 -0.480154 0.877184 0.000001 255 255 255
3.422736 2.458969 -4.675200 -0.480154 0.877184 0.000001 255 255 255
-0.496044 0.160002 -4.778290 0.000000 0.000000 -1.000000 255 255 255
0.098164 3.399999 -4.675200 0.578928 0.815378 0.000001 255 255 255
3.422740 1.039510 -4.675200 0.578928 0.815378 0.000001 255 255 255
3.422740 1.039511 -4.778290 0.578928 0.815378 0.000001 255 255 255
3.422740 1.039510 -4.675200 1.000000 0.000003 -0.000014 255 255 255
3.422741 0.873943 -4.675200 1.000000 0.000003 -0.000014 255 255 255
3.422740 0.873944 -4.778290 1.000000 0.000003 -0.000014 255 255 255
3.422740 0.873944 -4.778290 -0.578928 -0.815378 0.000001 255 255 255
3.422741 0.873943 -4.675200 -0.578928 -0.815378 0.000001 255 255 255
-0.135025 3.399999 -4.675200 -0.578928 -0.815378 0.000001 255 255 255
0.098164 3.399999 -4.778290 0.000000 0.000000 -1.000000 255 255 255
3.422737 3.420001 1.390552 -0.000005 0.815377 0.578930 255 255 255
3.422739 1.059505 4.715123 -0.000005 0.815377 0.578930 255 255 255
3.525829 1.059506 4.715123 -0.000005 0.815377 0.578930 255 255 255
3.422739 1.059505 4.715123 0.000014 -0.000000 1.000000 255 255 255
3.422739 0.893938 4.715123 0.000014 -0.000000 1.000000 255 255 255
3.525829 0.893939 4.715122 0.000014 -0.000000 1.000000 255 255 255
3.525829 0.893939 4.715122 -0.000001 -0.815377 -0.578930 255 255 255
3.422739 0.893938 4.715123 -0.000001 -0.815377 -0.578930 255 255 255
3.422737 3.420001 1.157363 -0.000001 -0.815377 -0.578930 255 255 255
3.525828 3.420002 1.157362 1.000000 -0.000001 -0.000001 255 255 255
3.525828 3.420001 1.390552 1.000000 -0.000001 -0.000001 255 255 255
3.525829 1.059506 4.715123 1.000000 -0.000001 -0.000001 255 255 255
3.422736 2.552206 -4.675278 0.000001 0.958392 0.285457 255 255 255
3.525829 0.180002 2.816223 -0.000001 -0.958392 -0.285457 255 255 255
3.422739 0.180001 2.816226 -0.000001 -0.958392 -0.285457 255 255 255
3.422736 2.411345 -4.675278 -0.000001 -0.958392 -0.285457 255 255 255
3.525827 2.552206 -4.675281 1.000000 0.000001 0.000000 255 255 255
3.525829 0.179999 3.289157 1.000000 0.000001 0.000000 255 255 255
3.525829 0.180002 2.816223 1.000000 0.000001 0.000000 255 255 255
3.525830 3.420000 3.799070 0.000000 -0.964162 0.265313 255 255 255
3.422740 3.420001 3.799073 0.000000 -0.964162 0.265313 255 255 255
3.422737 1.088079 -4.675276 0.000000 -0.964162 0.265313 255 255 255
3.422737 1.228096 -4.675276 0.000001 0.964162 -0.265313 255 255 255
3.422740 3.420001 3.290240 0.000001 0.964162 -0.265313 255 255 255
3.525830 3.420000 3.290236 0.000001 0.964162 -0.265313 255 255 255
3.525830 3.420000 3.799070 1.000000 0.000000 -0.000000 255 255 255
3.422739 2.325065 4.715123 -0.000001 -0.877185 0.480153 255 255 255
3.422738 0.180000 0.796338 -0.000001 -0.877185 0.480153 255 255 255
3.525828 0.180002 0.796341 -0.000001 -0.877185 0.480153 255 255 255
3.525828 0.180001 0.515178 -0.000001 0.877185 -0.480153 255 255 255
3.422737 0.180000 0.515178 -0.000001 0.877185 -0.480153 255 255 255
3.422739 2.478966 4.715123 -0.000001 0.877185 -0.480153 255 255 255
3.525829 2.325065 4.715123 1.000000 0.000001 -0.000001 255 255 255
3.525828 0.180002 0.796341 1.000000 0.000001 -0.000001 255 255 255
3.525828 0.180001 0.515178 1.000000 0.000001 -0.000001 255 255 255
-0.078168 3.400001 4.675200 -0.578929 0.815378 -0.000001 255 255 255
-3.402742 1.039509 4.675200 -0.578929 0.815378 -0.000001 255 255 255
-3.402741 1.039509 4.778290 -0.578929 0.815378 -0.000001 255 255 255
-3.402742 1.039509 4.675200 -1.000000 0.000003 0.000014 255 255 255
-3.402742 0.873941 4.675200 -1.000000 0.000003 0.000014 255 255 255
-3.402741 0.873942 4.778290 -1.000000 0.000003 0.000014 255 255 255
-3.402741 0.873942 4.778290 0.578929 -0.815378 -0.000001 255 255 255
-3.402742 0.873941 4.675200 0.578929 -0.815378 -0.000001 255 255 255
0.155021 3.400001 4.675200 0.578929 -0.815378 -0.000001 255 255 255
-0.078169 3.400000 4.778290 0.000000 0.000000 1.000000 255 255 255
-3.402740 2.305068 4.675200 -0.480154 -0.877184 -0.000001 255 255 255
0.516044 0.160001 4.675200 -0.480154 -0.877184 -0.000001 255 255 255
0.516041 0.160003 4.778290 -0.480154 -0.877184 -0.000001 255 255 255
0.797204 0.160001 4.778290 0.480154 0.877184 -0.000001 255 255 255
0.797204 0.160001 4.675200 0.480154 0.877184 -0.000001 255 255 255
-3.402739 2.458969 4.675200 0.480154 0.877184 -0.000001 255 255 255
0.516041 0.160003 4.778290 -0.000000 -0.000000 1.000000 255 255 255
-3.402744 3.286413 4.675200 0.206154 0.978519 0.000001 255 255 255
-3.402744 3.148450 4.675200 -0.206154 -0.978519 0.000002 255 255 255
3.422735 1.710458 4.675200 -0.206154 -0.978519 0.000002 255 255 255
3.422737 1.710458 4.778291 -0.206154 -0.978519 0.000002 255 255 255
3.422737 1.710458 4.778291 -0.000000 -0.000000 1.000000 255 255 255
-1.479277 0.200001 4.675200 0.402377 -0.915474 0.000002 255 255 255
3.422735 2.354577 4.675200 0.402377 -0.915474 0.000002 255 255 255
3.422735 2.354578 4.778291 0.402377 -0.915474 0.000002 255 255 255
-1.479278 0.200001 4.778290 -0.000000 -0.000000 1.000000 255 255 255
3.422734 2.502042 4.675200 -0.402377 0.915474 -0.000002 255 255 255
-1.814783 0.200001 4.675200 -0.402377 0.915474 -0.000002 255 255 255
-1.814783 0.200001 4.778290 -0.402377 0.915474 -0.000002 255 255 255
-3.422741 2.325064 -4.695200 0.000001 -0.877185 -0.480153 255 255 255
-3.422741 0.180000 -0.776416 0.000001 -0.877185 -0.480153 255 255 255
-3.525832 0.180002 -0.776419 0.000001 -0.877185 -0.480153 255 255 255
-3.422741 0.180000 -0.495255 0.000001 0.877185 0.480153 255 255 255
-3.525832 0.180002 -0.776419 -1.000000 0.000000 0.000000 255 255 255
-3.525832 3.420000 -3.779148 -0.000000 -0.964162 -0.265313 255 255 255
-3.422741 3.420001 -3.779151 -0.000000 -0.964162 -0.265313 255 255 255
-3.422741 1.088079 4.695199 -0.000000 -0.964162 -0.265313 255 255 255
-3.422741 1.228097 4.695199 0.000004 0.964162 0.265313 255 255 255
-3.422741 3.420001 -3.270318 0.000004 0.964162 0.265313 255 255 255
-3.525832 3.420000 -3.270314 0.000004 0.964162 0.265313 255 255 255
-3.525832 3.420000 -3.779148 -1.000000 0.000000 0.000000 255 255 255
-3.525832 2.552209 4.695203 -0.000002 0.958391 -0.285457 255 255 255
-3.422741 2.552208 4.695200 -0.000002 0.958391 -0.285457 255 255 255
-3.422741 0.179999 -3.269228 -0.000002 0.958391 -0.285457 255 255 255
-3.525832 0.180000 -2.796301 -0.000001 -0.958391 0.285457 255 255 255
-3.422741 0.179999 -2.796303 -0.000001 -0.958391 0.285457 255 255 255
-3.422741 2.411347 4.695200 -0.000001 -0.958391 0.285457 255 255 255
-3.525832 0.179997 -3.269235 -1.000000 0.000000 -0.000000 255 255 255
-3.422741 3.420001 -1.370630 0.000002 0.815377 -0.578930 255 255 255
-3.422741 1.059505 -4.695201 0.000002 0.815377 -0.578930 255 255 255
-3.525832 1.059506 -4.695200 0.000002 0.815377 -0.578930 255 255 255
-3.422741 1.059505 -4.695201 -0.000005 -0.000003 -1.000000 255 255 255
-3.422741 0.893937 -4.695200 -0.000005 -0.000003 -1.000000 255 255 255
-3.525832 0.893938 -4.695200 -0.000005 -0.000003 -1.000000 255 255 255
-3.525832 0.893938 -4.695200 -0.000004 -0.815377 0.578930 255 255 255
-3.422741 0.893937 -4.695200 -0.000004 -0.815377 0.578930 255 255 255
-3.422741 3.420001 -1.137441 -0.000004 -0.815377 0.578930 255 255 255
-3.525832 3.420001 -1.370630 -1.000000 0.000000 0.000000 255 255 255
3 0 1 2
3 3 4 5
3 6 7 8
3 9 10 11
3 12 13 14
3 15 16 17
3 18 19 20
3 2 21 18
3 20 22 0
3 23 24 25
3 26 27 28
3 29 30 31
3 32 33 34
3 35 36 37
3 38 39 40
3 9 39 41
3 11 42 38
3 43 44 45
3 46 47 48
3 49 50 51
3 52 53 54
3 55 56 57
3 8 58 59
3 6 60 61
3 62 58 60
3 63 64 65
3 66 67 68
3 69 70 71
3 72 73 74
3 75 76 77
3 78 4 79
3 3 80 81
3 81 82 78
3 83 84 85
3 86 87 88
3 89 90 91
3 92 93 94
3 95 96 97
3 98 99 100
3 101 102 103
3 104 105 106
3 107 108 109
3 110 111 112
3 113 114 115
3 116 117 118
3 119 120 121
3 122 123 124
3 125 126 127
3 128 129 130
3 131 132 133
3 134 135 136
3 137 138 139
3 140 141 142
3 143 144 145
3 146 147 148
3 149 150 151
3 152 153 154
3 155 156 157
3 158 159 160
3 161 162 163
3 164 165 166
3 167 168 169
3 170 171 172
3 173 174 175
3 176 177 178
3 179 180 181
3 182 183 184
3 185 186 187
3 188 189 190
3 191 192 193
3 194 195 196
3 197 198 199
3 200 201 202
3 203 204 205
3 206 207 208
3 209 210 211
3 212 213 214
3 215 216 217
3 218 219 220
3 221 222 223
3 224 225 226
3 227 228 229
3 230 231 232
3 233 234 235
3 236 237 238
3 239 240 241
3 242 243 244
3 245 246 247
3 248 249 250
3 0 22 1
3 3 79 4
3 6 61 7
3 9 41 10
3 12 251 13
3 15 252 16
3 18 21 19
3 2 1 21
3 20 19 22
3 23 253 24
3 26 254 27
3 29 255 30
3 32 256 33
3 35 257 36
3 38 42 39
3 9 40 39
3 11 10 42
3 43 258 44
3 46 259 47
3 49 260 50
3 52 261 53
3 55 262 56
3 8 7 58
3 6 62 60
3 62 59 58
3 63 263 64
3 66 264 67
3 69 265 70
3 72 266 73
3 75 267 76
3 78 82 4
3 3 5 80
3 81 80 82
3 83 268 84
3 86 269 87
3 89 270 90
3 92 271 93
3 272 273 274
3 98 275 99
3 276 277 278
3 104 279 105
3 280 281 282
3 110 283 111
3 284 285 286
3 287 288 289
3 119 290 120
3 291 292 293
3 294 295 296
3 297 298 299
3 131 300 132
3 301 302 303
3 304 305 306
3 307 308 309
3 310 311 312
3 146 313 147
3 314 315 316
3 317 318 319
3 320 321 322
3 323 324 325
3 161 326 162
3 327 328 329
3 330 331 332
3 333 334 335
3 336 337 338
3 339 340 341
3 342 343 344
3 182 345 183
3 346 347 348
3 349 350 351
3 191 352 192
3 194 353 195
3 354 355 356
3 200 357 201
3 358 359 360
3 206 361 207
3 362 363 364
3 365 366 367
3 215 368 216
3 218 369 219
3 370 371 372
3 373 374 375
3 227 376 228
3 377 378 379
3 380 381 382
3 236 383 237
3 384 385 386
3 387 388 389
3 390 391 392
3 248 393 249
