# Blender v2.79 (sub 0) OBJ File: 'FirstRoom.blend'
# www.blender.org
v -3.602740 0.000000 4.875200
v -3.602740 3.600001 4.875200
v -3.602740 0.000000 -4.875201
v -3.602740 3.600001 -4.875201
v 3.622737 0.000000 4.875200
v 3.622737 3.600001 4.875200
v 3.622737 0.000000 -4.875201
v 3.622737 3.600001 -4.875201
v -3.602740 0.180000 -4.695200
v -3.602740 0.180000 4.695199
v -3.602740 3.420001 4.695199
v -3.602740 3.420001 -4.695200
v -3.422740 0.180000 -4.695200
v -3.422740 0.180000 4.695199
v -3.422740 3.420001 4.695199
v -3.422740 3.420001 -4.695200
v -3.402741 0.200000 4.875200
v -3.402741 3.400001 4.875200
v 3.422737 3.400001 4.875200
v 3.422737 0.200000 4.875200
v -3.402741 0.200000 4.675200
v -3.402741 3.400001 4.675200
v 3.422737 3.400001 4.675200
v 3.422737 0.200000 4.675200
v 3.622737 3.400001 -4.675200
v 3.622737 0.261580 -4.675200
v 3.622737 0.261580 4.675200
v 3.622737 3.400001 4.675200
v 3.422737 3.400001 -4.675200
v 3.422737 0.261580 -4.675200
v 3.422737 0.261580 4.675200
v 3.422737 3.400001 4.675200
v -3.402739 3.400001 -4.875201
v -3.402739 0.261579 -4.875201
v 3.422736 0.261579 -4.875201
v 3.422736 3.400001 -4.875201
v -3.402739 3.400001 -4.675201
v -3.402739 0.261579 -4.675201
v 3.422736 0.261579 -4.675201
v 3.422736 3.400001 -4.675201
s off
f 3 12 4
f 8 35 36
f 6 25 8
f 5 17 1
f 4 6 8
f 9 16 12
f 2 10 1
f 4 11 2
f 1 9 3
f 15 13 14
f 11 14 10
f 12 15 11
f 10 13 9
f 20 21 17
f 2 19 6
f 5 19 20
f 1 18 2
f 23 21 24
f 17 22 18
f 18 23 19
f 19 24 20
f 26 31 27
f 8 26 7
f 6 27 28
f 5 26 27
f 29 31 30
f 28 29 25
f 25 30 26
f 27 32 28
f 35 40 36
f 3 35 7
f 8 33 4
f 4 34 3
f 37 39 38
f 34 39 35
f 36 37 33
f 33 38 34
f 3 9 12
f 8 7 35
f 6 28 25
f 5 20 17
f 4 2 6
f 9 13 16
f 2 11 10
f 4 12 11
f 1 10 9
f 15 16 13
f 11 15 14
f 12 16 15
f 10 14 13
f 20 24 21
f 2 18 19
f 5 6 19
f 1 17 18
f 23 22 21
f 17 21 22
f 18 22 23
f 19 23 24
f 26 30 31
f 8 25 26
f 6 5 27
f 5 7 26
f 29 32 31
f 28 32 29
f 25 29 30
f 27 31 32
f 35 39 40
f 3 34 35
f 8 36 33
f 4 33 34
f 37 40 39
f 34 38 39
f 36 40 37
f 33 37 38
