# Blender v2.79 (sub 0) OBJ File: 'FirstRoom.blend'
# www.blender.org
v 7.814457 4.688404 -21.281691
v 7.814457 4.857204 -21.281691
v 7.814457 4.688404 -18.943911
v 7.814457 4.857204 -18.943911
v 7.881990 4.688404 -21.281691
v 7.881990 4.857204 -21.281691
v 7.881990 4.688404 -18.943911
v 7.881990 4.857204 -18.943911
v 37.075089 5.163157 -20.004839
v 37.075089 0.000005 -20.004839
v 37.075089 5.163157 -20.220762
v 37.075089 0.000005 -20.220762
v 37.291012 5.163157 -20.004839
v 37.291012 0.000005 -20.004839
v 37.291012 5.163157 -20.220762
v 37.291012 0.000005 -20.220762
v 37.007553 4.688404 -21.281691
v 37.007553 4.857204 -21.281691
v 37.007553 4.688404 -18.943911
v 37.007553 4.857204 -18.943911
v 37.075085 4.688404 -21.281691
v 37.075085 4.857204 -21.281691
v 37.075085 4.688404 -18.943911
v 37.075085 4.857204 -18.943911
v 37.098568 4.758352 -19.487425
v 37.098568 4.803917 -19.532991
v 37.098568 4.240937 -20.004837
v 37.098568 4.332078 -20.004829
v 37.075089 4.758352 -19.487425
v 37.075089 4.803917 -19.532991
v 37.075089 4.240937 -20.004837
v 37.075089 4.332078 -20.004829
v 37.075089 4.758352 -20.738174
v 37.075089 4.803917 -20.692608
v 37.075089 4.240937 -20.220762
v 37.075089 4.332078 -20.220770
v 37.098568 4.758352 -20.738174
v 37.098568 4.803917 -20.692608
v 37.098568 4.240937 -20.220762
v 37.098568 4.332078 -20.220770
v 37.075089 3.972566 -20.738174
v 37.075089 4.018131 -20.692608
v 37.075089 3.455152 -20.220762
v 37.075089 3.546292 -20.220770
v 37.098568 3.972566 -20.738174
v 37.098568 4.018131 -20.692608
v 37.098568 3.455152 -20.220762
v 37.098568 3.546292 -20.220770
v 37.098568 3.972566 -19.487425
v 37.098568 4.018131 -19.532991
v 37.098568 3.455152 -20.004837
v 37.098568 3.546292 -20.004829
v 37.075089 3.972566 -19.487425
v 37.075089 4.018131 -19.532991
v 37.075089 3.455152 -20.004837
v 37.075089 3.546292 -20.004829
v 37.007557 3.902618 -21.281691
v 37.007557 4.071419 -21.281691
v 37.007557 3.902618 -18.943911
v 37.007557 4.071419 -18.943911
v 37.075089 3.902618 -21.281691
v 37.075089 4.071419 -21.281691
v 37.075089 3.902618 -18.943911
v 37.075089 4.071419 -18.943911
v -33.106979 3.902618 -21.281691
v -33.106979 4.071419 -21.281691
v -33.106979 3.902618 -18.943911
v -33.106979 4.071419 -18.943911
v -33.039448 3.902618 -21.281691
v -33.039448 4.071419 -21.281691
v -33.039448 3.902618 -18.943911
v -33.039448 4.071419 -18.943911
v -33.015965 3.972566 -19.487425
v -33.015965 4.018131 -19.532991
v -33.015968 3.455152 -20.004837
v -33.015968 3.546292 -20.004829
v -33.039444 3.972566 -19.487425
v -33.039444 4.018131 -19.532991
v -33.039448 3.455152 -20.004837
v -33.039448 3.546292 -20.004829
v -33.039448 3.972566 -20.738174
v -33.039448 4.018131 -20.692608
v -33.039444 3.455152 -20.220762
v -33.039444 3.546292 -20.220770
v -33.015968 3.972566 -20.738174
v -33.015968 4.018131 -20.692608
v -33.015965 3.455152 -20.220762
v -33.015965 3.546292 -20.220770
v -33.039448 4.758352 -20.738174
v -33.039448 4.803917 -20.692608
v -33.039444 4.240937 -20.220762
v -33.039444 4.332078 -20.220770
v -33.015968 4.758352 -20.738174
v -33.015968 4.803917 -20.692608
v -33.015965 4.240937 -20.220762
v -33.015965 4.332078 -20.220770
v -33.015965 4.758352 -19.487425
v -33.015965 4.803917 -19.532991
v -33.015968 4.240937 -20.004837
v -33.015968 4.332078 -20.004829
v -33.039444 4.758352 -19.487425
v -33.039444 4.803917 -19.532991
v -33.039448 4.240937 -20.004837
v -33.039448 4.332078 -20.004829
v -33.106979 4.688404 -21.281691
v -33.106979 4.857204 -21.281691
v -33.106979 4.688404 -18.943911
v -33.106979 4.857204 -18.943911
v -33.039448 4.688404 -21.281691
v -33.039448 4.857204 -21.281691
v -33.039448 4.688404 -18.943911
v -33.039448 4.857204 -18.943911
v -33.039448 5.163157 -20.004839
v -33.039448 0.000005 -20.004839
v -33.039448 5.163157 -20.220762
v -33.039448 0.000005 -20.220762
v -32.823521 5.163157 -20.004839
v -32.823521 0.000005 -20.004839
v -32.823521 5.163157 -20.220762
v -32.823521 0.000005 -20.220762
v -9.537189 5.163157 -20.004839
v -9.537189 0.000005 -20.004839
v -9.537189 5.163157 -20.220762
v -9.537189 0.000005 -20.220762
v -9.321265 5.163157 -20.004839
v -9.321265 0.000005 -20.004839
v -9.321265 5.163157 -20.220762
v -9.321265 0.000005 -20.220762
v -9.604720 4.688404 -21.281691
v -9.604720 4.857204 -21.281691
v -9.604720 4.688404 -18.943911
v -9.604720 4.857204 -18.943911
v -9.537189 4.688404 -21.281691
v -9.537189 4.857204 -21.281691
v -9.537189 4.688404 -18.943911
v -9.537189 4.857204 -18.943911
v -9.513707 4.758352 -19.487425
v -9.513707 4.803917 -19.532991
v -9.513707 4.240937 -20.004837
v -9.513707 4.332078 -20.004829
v -9.537187 4.758352 -19.487425
v -9.537187 4.803917 -19.532991
v -9.537187 4.240937 -20.004837
v -9.537187 4.332078 -20.004829
v -9.537187 4.758352 -20.738174
v -9.537187 4.803917 -20.692608
v -9.537187 4.240937 -20.220762
v -9.537187 4.332078 -20.220770
v -9.513707 4.758352 -20.738174
v -9.513707 4.803917 -20.692608
v -9.513707 4.240937 -20.220762
v -9.513707 4.332078 -20.220770
v -9.537187 3.972566 -20.738174
v -9.537187 4.018131 -20.692608
v -9.537187 3.455152 -20.220762
v -9.537187 3.546292 -20.220770
v -9.513707 3.972566 -20.738174
v -9.513707 4.018131 -20.692608
v -9.513707 3.455152 -20.220762
v -9.513707 3.546292 -20.220770
v -9.513707 3.972566 -19.487425
v -9.513707 4.018131 -19.532991
v -9.513707 3.455152 -20.004837
v -9.513707 3.546292 -20.004829
v -9.537187 3.972566 -19.487425
v -9.537187 4.018131 -19.532991
v -9.537187 3.455152 -20.004837
v -9.537187 3.546292 -20.004829
v -9.604720 3.902618 -21.281691
v -9.604720 4.071419 -21.281691
v -9.604720 3.902618 -18.943911
v -9.604720 4.071419 -18.943911
v -9.537189 3.902618 -21.281691
v -9.537189 4.071419 -21.281691
v -9.537189 3.902618 -18.943911
v -9.537189 4.071419 -18.943911
v 7.814458 3.902618 -21.281691
v 7.814458 4.071419 -21.281691
v 7.814458 3.902618 -18.943911
v 7.814458 4.071419 -18.943911
v 7.881990 3.902618 -21.281691
v 7.881990 4.071419 -21.281691
v 7.881990 3.902618 -18.943911
v 7.881990 4.071419 -18.943911
v 7.905470 3.972566 -19.487425
v 7.905470 4.018131 -19.532991
v 7.905470 3.455152 -20.004837
v 7.905470 3.546292 -20.004829
v 7.881990 3.972566 -19.487425
v 7.881990 4.018131 -19.532991
v 7.881990 3.455152 -20.004837
v 7.881990 3.546292 -20.004829
v 7.881990 3.972566 -20.738174
v 7.881990 4.018131 -20.692608
v 7.881990 3.455152 -20.220762
v 7.881990 3.546292 -20.220770
v 7.905469 3.972566 -20.738174
v 7.905470 4.018131 -20.692608
v 7.905470 3.455152 -20.220762
v 7.905470 3.546292 -20.220770
v 7.881990 4.758352 -20.738174
v 7.881990 4.803917 -20.692608
v 7.881990 4.240937 -20.220762
v 7.881990 4.332078 -20.220770
v 7.905469 4.758352 -20.738174
v 7.905470 4.803917 -20.692608
v 7.905470 4.240937 -20.220762
v 7.905470 4.332078 -20.220770
v 7.905470 4.758352 -19.487425
v 7.905470 4.803917 -19.532991
v 7.905470 4.240937 -20.004837
v 7.905470 4.332078 -20.004829
v 7.881990 4.758352 -19.487425
v 7.881990 4.803917 -19.532991
v 7.881990 4.240937 -20.004837
v 7.881990 4.332078 -20.004829
v 7.881988 5.163157 -20.004839
v 7.881988 0.000005 -20.004839
v 7.881988 5.163157 -20.220762
v 7.881988 0.000005 -20.220762
v 8.097913 5.163157 -20.004839
v 8.097913 0.000005 -20.004839
v 8.097913 5.163157 -20.220762
v 8.097913 0.000005 -20.220762
s off
f 3 2 1
f 7 4 3
f 5 8 7
f 1 6 5
f 1 7 3
f 6 4 8
f 11 10 9
f 15 12 11
f 13 16 15
f 9 14 13
f 9 15 11
f 14 12 16
f 19 18 17
f 23 20 19
f 21 24 23
f 17 22 21
f 17 23 19
f 22 20 24
f 25 28 26
f 29 32 31
f 25 30 29
f 25 31 27
f 30 28 32
f 33 36 34
f 37 40 39
f 33 38 37
f 33 39 35
f 38 36 40
f 41 44 42
f 45 48 47
f 41 46 45
f 41 47 43
f 46 44 48
f 49 52 50
f 53 56 55
f 49 54 53
f 49 55 51
f 54 52 56
f 59 58 57
f 63 60 59
f 61 64 63
f 57 62 61
f 57 63 59
f 62 60 64
f 67 66 65
f 71 68 67
f 69 72 71
f 65 70 69
f 65 71 67
f 70 68 72
f 73 76 74
f 77 80 79
f 73 78 77
f 75 77 79
f 78 76 80
f 81 84 82
f 85 88 87
f 81 86 85
f 83 85 87
f 86 84 88
f 89 92 90
f 93 96 95
f 89 94 93
f 91 93 95
f 94 92 96
f 97 100 98
f 101 104 103
f 97 102 101
f 99 101 103
f 102 100 104
f 107 106 105
f 111 108 107
f 109 112 111
f 105 110 109
f 105 111 107
f 110 108 112
f 115 114 113
f 119 116 115
f 117 120 119
f 113 118 117
f 113 119 115
f 118 116 120
f 123 122 121
f 127 124 123
f 125 128 127
f 121 126 125
f 121 127 123
f 126 124 128
f 131 130 129
f 135 132 131
f 133 136 135
f 129 134 133
f 129 135 131
f 134 132 136
f 137 140 138
f 141 144 143
f 137 142 141
f 137 143 139
f 142 140 144
f 145 148 146
f 149 152 151
f 145 150 149
f 145 151 147
f 150 148 152
f 153 156 154
f 157 160 159
f 153 158 157
f 153 159 155
f 158 156 160
f 161 164 162
f 165 168 167
f 161 166 165
f 161 167 163
f 166 164 168
f 171 170 169
f 175 172 171
f 173 176 175
f 169 174 173
f 169 175 171
f 174 172 176
f 179 178 177
f 183 180 179
f 181 184 183
f 177 182 181
f 177 183 179
f 182 180 184
f 185 188 186
f 189 192 191
f 189 186 190
f 185 191 187
f 190 188 192
f 193 196 194
f 197 200 199
f 197 194 198
f 193 199 195
f 198 196 200
f 201 204 202
f 205 208 207
f 205 202 206
f 201 207 203
f 208 202 204
f 209 212 210
f 213 216 215
f 209 214 213
f 209 215 211
f 214 212 216
f 219 218 217
f 223 220 219
f 221 224 223
f 217 222 221
f 217 223 219
f 222 220 224
f 3 4 2
f 7 8 4
f 5 6 8
f 1 2 6
f 1 5 7
f 6 2 4
f 11 12 10
f 15 16 12
f 13 14 16
f 9 10 14
f 9 13 15
f 14 10 12
f 19 20 18
f 23 24 20
f 21 22 24
f 17 18 22
f 17 21 23
f 22 18 20
f 25 27 28
f 29 30 32
f 25 26 30
f 25 29 31
f 30 26 28
f 33 35 36
f 37 38 40
f 33 34 38
f 33 37 39
f 38 34 36
f 41 43 44
f 45 46 48
f 41 42 46
f 41 45 47
f 46 42 44
f 49 51 52
f 53 54 56
f 49 50 54
f 49 53 55
f 54 50 52
f 59 60 58
f 63 64 60
f 61 62 64
f 57 58 62
f 57 61 63
f 62 58 60
f 67 68 66
f 71 72 68
f 69 70 72
f 65 66 70
f 65 69 71
f 70 66 68
f 73 75 76
f 77 78 80
f 73 74 78
f 75 73 77
f 78 74 76
f 81 83 84
f 85 86 88
f 81 82 86
f 83 81 85
f 86 82 84
f 89 91 92
f 93 94 96
f 89 90 94
f 91 89 93
f 94 90 92
f 97 99 100
f 101 102 104
f 97 98 102
f 99 97 101
f 102 98 100
f 107 108 106
f 111 112 108
f 109 110 112
f 105 106 110
f 105 109 111
f 110 106 108
f 115 116 114
f 119 120 116
f 117 118 120
f 113 114 118
f 113 117 119
f 118 114 116
f 123 124 122
f 127 128 124
f 125 126 128
f 121 122 126
f 121 125 127
f 126 122 124
f 131 132 130
f 135 136 132
f 133 134 136
f 129 130 134
f 129 133 135
f 134 130 132
f 137 139 140
f 141 142 144
f 137 138 142
f 137 141 143
f 142 138 140
f 145 147 148
f 149 150 152
f 145 146 150
f 145 149 151
f 150 146 148
f 153 155 156
f 157 158 160
f 153 154 158
f 153 157 159
f 158 154 156
f 161 163 164
f 165 166 168
f 161 162 166
f 161 165 167
f 166 162 164
f 171 172 170
f 175 176 172
f 173 174 176
f 169 170 174
f 169 173 175
f 174 170 172
f 179 180 178
f 183 184 180
f 181 182 184
f 177 178 182
f 177 181 183
f 182 178 180
f 185 187 188
f 189 190 192
f 189 185 186
f 185 189 191
f 190 186 188
f 193 195 196
f 197 198 200
f 197 193 194
f 193 197 199
f 198 194 196
f 201 203 204
f 205 206 208
f 205 201 202
f 201 205 207
f 208 206 202
f 209 211 212
f 213 214 216
f 209 210 214
f 209 213 215
f 214 210 212
f 219 220 218
f 223 224 220
f 221 222 224
f 217 218 222
f 217 221 223
f 222 218 220
