# Blender v2.79 (sub 0) OBJ File: 'FirstRoom.blend'
# www.blender.org
v 7.814457 4.688404 -21.281691
v 7.814457 4.857204 -21.281691
v 7.814457 4.688404 -18.943911
v 7.814457 4.857204 -18.943911
v 7.881990 4.688404 -21.281691
v 7.881990 4.857204 -21.281691
v 7.881990 4.688404 -18.943911
v 7.881990 4.857204 -18.943911
v 37.075089 5.163157 -20.004839
v 37.075089 0.000005 -20.004839
v 37.075089 5.163157 -20.220762
v 37.075089 0.000005 -20.220762
v 37.291012 5.163157 -20.004839
v 37.291012 0.000005 -20.004839
v 37.291012 5.163157 -20.220762
v 37.291012 0.000005 -20.220762
v 37.007553 4.688404 -21.281691
v 37.007553 4.857204 -21.281691
v 37.007553 4.688404 -18.943911
v 37.007553 4.857204 -18.943911
v 37.075085 4.688404 -21.281691
v 37.075085 4.857204 -21.281691
v 37.075085 4.688404 -18.943911
v 37.075085 4.857204 -18.943911
v 37.098568 4.758352 -19.487425
v 37.098568 4.803917 -19.532991
v 37.098568 4.240937 -20.004837
v 37.098568 4.332078 -20.004829
v 37.075089 4.758352 -19.487425
v 37.075089 4.803917 -19.532991
v 37.075089 4.240937 -20.004837
v 37.075089 4.332078 -20.004829
v 37.075089 4.758352 -20.738174
v 37.075089 4.803917 -20.692608
v 37.075089 4.240937 -20.220762
v 37.075089 4.332078 -20.220770
v 37.098568 4.758352 -20.738174
v 37.098568 4.803917 -20.692608
v 37.098568 4.240937 -20.220762
v 37.098568 4.332078 -20.220770
v 37.075089 3.972566 -20.738174
v 37.075089 4.018131 -20.692608
v 37.075089 3.455152 -20.220762
v 37.075089 3.546292 -20.220770
v 37.098568 3.972566 -20.738174
v 37.098568 4.018131 -20.692608
v 37.098568 3.455152 -20.220762
v 37.098568 3.546292 -20.220770
v 37.098568 3.972566 -19.487425
v 37.098568 4.018131 -19.532991
v 37.098568 3.455152 -20.004837
v 37.098568 3.546292 -20.004829
v 37.075089 3.972566 -19.487425
v 37.075089 4.018131 -19.532991
v 37.075089 3.455152 -20.004837
v 37.075089 3.546292 -20.004829
v 37.007557 3.902618 -21.281691
v 37.007557 4.071419 -21.281691
v 37.007557 3.902618 -18.943911
v 37.007557 4.071419 -18.943911
v 37.075089 3.902618 -21.281691
v 37.075089 4.071419 -21.281691
v 37.075089 3.902618 -18.943911
v 37.075089 4.071419 -18.943911
v -33.106979 3.902618 -21.281691
v -33.106979 4.071419 -21.281691
v -33.106979 3.902618 -18.943911
v -33.106979 4.071419 -18.943911
v -33.039448 3.902618 -21.281691
v -33.039448 4.071419 -21.281691
v -33.039448 3.902618 -18.943911
v -33.039448 4.071419 -18.943911
v -33.015965 3.972566 -19.487425
v -33.015965 4.018131 -19.532991
v -33.015968 3.455152 -20.004837
v -33.015968 3.546292 -20.004829
v -33.039444 3.972566 -19.487425
v -33.039444 4.018131 -19.532991
v -33.039448 3.455152 -20.004837
v -33.039448 3.546292 -20.004829
v -33.039448 3.972566 -20.738174
v -33.039448 4.018131 -20.692608
v -33.039444 3.455152 -20.220762
v -33.039444 3.546292 -20.220770
v -33.015968 3.972566 -20.738174
v -33.015968 4.018131 -20.692608
v -33.015965 3.455152 -20.220762
v -33.015965 3.546292 -20.220770
v -33.039448 4.758352 -20.738174
v -33.039448 4.803917 -20.692608
v -33.039444 4.240937 -20.220762
v -33.039444 4.332078 -20.220770
v -33.015968 4.758352 -20.738174
v -33.015968 4.803917 -20.692608
v -33.015965 4.240937 -20.220762
v -33.015965 4.332078 -20.220770
v -33.015965 4.758352 -19.487425
v -33.015965 4.803917 -19.532991
v -33.015968 4.240937 -20.004837
v -33.015968 4.332078 -20.004829
v -33.039444 4.758352 -19.487425
v -33.039444 4.803917 -19.532991
v -33.039448 4.240937 -20.004837
v -33.039448 4.332078 -20.004829
v -33.106979 4.688404 -21.281691
v -33.106979 4.857204 -21.281691
v -33.106979 4.688404 -18.943911
v -33.106979 4.857204 -18.943911
v -33.039448 4.688404 -21.281691
v -33.039448 4.857204 -21.281691
v -33.039448 4.688404 -18.943911
v -33.039448 4.857204 -18.943911
v -33.039448 5.163157 -20.004839
v -33.039448 0.000005 -20.004839
v -33.039448 5.163157 -20.220762
v -33.039448 0.000005 -20.220762
v -32.823521 5.163157 -20.004839
v -32.823521 0.000005 -20.004839
v -32.823521 5.163157 -20.220762
v -32.823521 0.000005 -20.220762
v -9.537189 5.163157 -20.004839
v -9.537189 0.000005 -20.004839
v -9.537189 5.163157 -20.220762
v -9.537189 0.000005 -20.220762
v -9.321265 5.163157 -20.004839
v -9.321265 0.000005 -20.004839
v -9.321265 5.163157 -20.220762
v -9.321265 0.000005 -20.220762
v -9.604720 4.688404 -21.281691
v -9.604720 4.857204 -21.281691
v -9.604720 4.688404 -18.943911
v -9.604720 4.857204 -18.943911
v -9.537189 4.688404 -21.281691
v -9.537189 4.857204 -21.281691
v -9.537189 4.688404 -18.943911
v -9.537189 4.857204 -18.943911
v -9.513707 4.758352 -19.487425
v -9.513707 4.803917 -19.532991
v -9.513707 4.240937 -20.004837
v -9.513707 4.332078 -20.004829
v -9.537187 4.758352 -19.487425
v -9.537187 4.803917 -19.532991
v -9.537187 4.240937 -20.004837
v -9.537187 4.332078 -20.004829
v -9.537187 4.758352 -20.738174
v -9.537187 4.803917 -20.692608
v -9.537187 4.240937 -20.220762
v -9.537187 4.332078 -20.220770
v -9.513707 4.758352 -20.738174
v -9.513707 4.803917 -20.692608
v -9.513707 4.240937 -20.220762
v -9.513707 4.332078 -20.220770
v -9.537187 3.972566 -20.738174
v -9.537187 4.018131 -20.692608
v -9.537187 3.455152 -20.220762
v -9.537187 3.546292 -20.220770
v -9.513707 3.972566 -20.738174
v -9.513707 4.018131 -20.692608
v -9.513707 3.455152 -20.220762
v -9.513707 3.546292 -20.220770
v -9.513707 3.972566 -19.487425
v -9.513707 4.018131 -19.532991
v -9.513707 3.455152 -20.004837
v -9.513707 3.546292 -20.004829
v -9.537187 3.972566 -19.487425
v -9.537187 4.018131 -19.532991
v -9.537187 3.455152 -20.004837
v -9.537187 3.546292 -20.004829
v -9.604720 3.902618 -21.281691
v -9.604720 4.071419 -21.281691
v -9.604720 3.902618 -18.943911
v -9.604720 4.071419 -18.943911
v -9.537189 3.902618 -21.281691
v -9.537189 4.071419 -21.281691
v -9.537189 3.902618 -18.943911
v -9.537189 4.071419 -18.943911
v 7.814458 3.902618 -21.281691
v 7.814458 4.071419 -21.281691
v 7.814458 3.902618 -18.943911
v 7.814458 4.071419 -18.943911
v 7.881990 3.902618 -21.281691
v 7.881990 4.071419 -21.281691
v 7.881990 3.902618 -18.943911
v 7.881990 4.071419 -18.943911
v 7.905470 3.972566 -19.487425
v 7.905470 4.018131 -19.532991
v 7.905470 3.455152 -20.004837
v 7.905470 3.546292 -20.004829
v 7.881990 3.972566 -19.487425
v 7.881990 4.018131 -19.532991
v 7.881990 3.455152 -20.004837
v 7.881990 3.546292 -20.004829
v 7.881990 3.972566 -20.738174
v 7.881990 4.018131 -20.692608
v 7.881990 3.455152 -20.220762
v 7.881990 3.546292 -20.220770
v 7.905469 3.972566 -20.738174
v 7.905470 4.018131 -20.692608
v 7.905470 3.455152 -20.220762
v 7.905470 3.546292 -20.220770
v 7.881990 4.758352 -20.738174
v 7.881990 4.803917 -20.692608
v 7.881990 4.240937 -20.220762
v 7.881990 4.332078 -20.220770
v 7.905469 4.758352 -20.738174
v 7.905470 4.803917 -20.692608
v 7.905470 4.240937 -20.220762
v 7.905470 4.332078 -20.220770
v 7.905470 4.758352 -19.487425
v 7.905470 4.803917 -19.532991
v 7.905470 4.240937 -20.004837
v 7.905470 4.332078 -20.004829
v 7.881990 4.758352 -19.487425
v 7.881990 4.803917 -19.532991
v 7.881990 4.240937 -20.004837
v 7.881990 4.332078 -20.004829
v 7.881988 5.163157 -20.004839
v 7.881988 0.000005 -20.004839
v 7.881988 5.163157 -20.220762
v 7.881988 0.000005 -20.220762
v 8.097913 5.163157 -20.004839
v 8.097913 0.000005 -20.004839
v 8.097913 5.163157 -20.220762
v 8.097913 0.000005 -20.220762
vn -1.0000 0.0000 0.0000
vn 0.0000 0.0000 1.0000
vn 1.0000 0.0000 0.0000
vn 0.0000 0.0000 -1.0000
vn 0.0000 -1.0000 0.0000
vn 0.0000 1.0000 0.0000
vn 1.0000 -0.0001 0.0000
vn 0.0000 0.7072 0.7070
vn 0.0000 -0.7070 0.7072
vn 0.0000 0.7072 -0.7070
vn 0.0000 0.7071 -0.7071
vn 0.0000 -0.7073 -0.7070
vn 0.0000 0.7071 0.7071
vn 0.0000 0.7072 0.7071
vn 0.0000 0.7070 -0.7072
vn 0.0000 0.7072 -0.7071
vn 0.0000 -0.7070 -0.7072
vn 0.0000 -0.7071 0.7071
vn 0.0000 -0.7071 -0.7071
vn 0.0000 -0.7073 0.7070
vn 0.0000 0.7070 0.7072
s off
f 3//1 2//1 1//1
f 7//2 4//2 3//2
f 5//3 8//3 7//3
f 1//4 6//4 5//4
f 1//5 7//5 3//5
f 6//6 4//6 8//6
f 11//1 10//1 9//1
f 15//4 12//4 11//4
f 13//3 16//3 15//3
f 9//2 14//2 13//2
f 9//6 15//6 11//6
f 14//5 12//5 16//5
f 19//1 18//1 17//1
f 23//2 20//2 19//2
f 21//3 24//3 23//3
f 17//4 22//4 21//4
f 17//5 23//5 19//5
f 22//6 20//6 24//6
f 25//7 28//7 26//7
f 29//1 32//1 31//1
f 25//8 30//8 29//8
f 25//9 31//9 27//9
f 30//10 28//10 32//10
f 33//1 36//1 34//1
f 37//3 40//3 39//3
f 33//11 38//11 37//11
f 33//12 39//12 35//12
f 38//13 36//13 40//13
f 41//1 44//1 42//1
f 45//3 48//3 47//3
f 41//11 46//11 45//11
f 41//12 47//12 43//12
f 46//13 44//13 48//13
f 49//7 52//7 50//7
f 53//1 56//1 55//1
f 49//14 54//14 53//14
f 49//9 55//9 51//9
f 54//10 52//10 56//10
f 59//1 58//1 57//1
f 63//2 60//2 59//2
f 61//3 64//3 63//3
f 57//4 62//4 61//4
f 57//5 63//5 59//5
f 62//6 60//6 64//6
f 67//1 66//1 65//1
f 71//2 68//2 67//2
f 69//3 72//3 71//3
f 65//4 70//4 69//4
f 65//5 71//5 67//5
f 70//6 68//6 72//6
f 73//3 76//3 74//3
f 77//1 80//1 79//1
f 73//14 78//14 77//14
f 75//9 77//9 79//9
f 78//15 76//15 80//15
f 81//1 84//1 82//1
f 85//3 88//3 87//3
f 81//16 86//16 85//16
f 83//17 85//17 87//17
f 86//13 84//13 88//13
f 89//1 92//1 90//1
f 93//3 96//3 95//3
f 89//10 94//10 93//10
f 91//17 93//17 95//17
f 94//13 92//13 96//13
f 97//3 100//3 98//3
f 101//1 104//1 103//1
f 97//8 102//8 101//8
f 99//9 101//9 103//9
f 102//15 100//15 104//15
f 107//1 106//1 105//1
f 111//2 108//2 107//2
f 109//3 112//3 111//3
f 105//4 110//4 109//4
f 105//5 111//5 107//5
f 110//6 108//6 112//6
f 115//1 114//1 113//1
f 119//4 116//4 115//4
f 117//3 120//3 119//3
f 113//2 118//2 117//2
f 113//6 119//6 115//6
f 118//5 116//5 120//5
f 123//1 122//1 121//1
f 127//4 124//4 123//4
f 125//3 128//3 127//3
f 121//2 126//2 125//2
f 121//6 127//6 123//6
f 126//5 124//5 128//5
f 131//1 130//1 129//1
f 135//2 132//2 131//2
f 133//3 136//3 135//3
f 129//4 134//4 133//4
f 129//5 135//5 131//5
f 134//6 132//6 136//6
f 137//3 140//3 138//3
f 141//1 144//1 143//1
f 137//13 142//13 141//13
f 137//18 143//18 139//18
f 142//11 140//11 144//11
f 145//1 148//1 146//1
f 149//3 152//3 151//3
f 145//11 150//11 149//11
f 145//19 151//19 147//19
f 150//13 148//13 152//13
f 153//1 156//1 154//1
f 157//3 160//3 159//3
f 153//11 158//11 157//11
f 153//19 159//19 155//19
f 158//13 156//13 160//13
f 161//3 164//3 162//3
f 165//1 168//1 167//1
f 161//13 166//13 165//13
f 161//18 167//18 163//18
f 166//11 164//11 168//11
f 171//1 170//1 169//1
f 175//2 172//2 171//2
f 173//3 176//3 175//3
f 169//4 174//4 173//4
f 169//5 175//5 171//5
f 174//6 172//6 176//6
f 179//1 178//1 177//1
f 183//2 180//2 179//2
f 181//3 184//3 183//3
f 177//4 182//4 181//4
f 177//5 183//5 179//5
f 182//6 180//6 184//6
f 185//3 188//3 186//3
f 189//1 192//1 191//1
f 189//13 186//13 190//13
f 185//18 191//18 187//18
f 190//11 188//11 192//11
f 193//1 196//1 194//1
f 197//3 200//3 199//3
f 197//11 194//11 198//11
f 193//19 199//19 195//19
f 198//13 196//13 200//13
f 201//1 204//1 202//1
f 205//3 208//3 207//3
f 205//11 202//11 206//11
f 201//19 207//19 203//19
f 208//13 202//13 204//13
f 209//3 212//3 210//3
f 213//1 216//1 215//1
f 209//13 214//13 213//13
f 209//18 215//18 211//18
f 214//11 212//11 216//11
f 219//1 218//1 217//1
f 223//4 220//4 219//4
f 221//3 224//3 223//3
f 217//2 222//2 221//2
f 217//6 223//6 219//6
f 222//5 220//5 224//5
f 3//1 4//1 2//1
f 7//2 8//2 4//2
f 5//3 6//3 8//3
f 1//4 2//4 6//4
f 1//5 5//5 7//5
f 6//6 2//6 4//6
f 11//1 12//1 10//1
f 15//4 16//4 12//4
f 13//3 14//3 16//3
f 9//2 10//2 14//2
f 9//6 13//6 15//6
f 14//5 10//5 12//5
f 19//1 20//1 18//1
f 23//2 24//2 20//2
f 21//3 22//3 24//3
f 17//4 18//4 22//4
f 17//5 21//5 23//5
f 22//6 18//6 20//6
f 25//3 27//3 28//3
f 29//1 30//1 32//1
f 25//13 26//13 30//13
f 25//20 29//20 31//20
f 30//11 26//11 28//11
f 33//1 35//1 36//1
f 37//7 38//7 40//7
f 33//16 34//16 38//16
f 33//17 37//17 39//17
f 38//8 34//8 36//8
f 41//1 43//1 44//1
f 45//7 46//7 48//7
f 41//16 42//16 46//16
f 41//17 45//17 47//17
f 46//8 42//8 44//8
f 49//3 51//3 52//3
f 53//1 54//1 56//1
f 49//13 50//13 54//13
f 49//20 53//20 55//20
f 54//11 50//11 52//11
f 59//1 60//1 58//1
f 63//2 64//2 60//2
f 61//3 62//3 64//3
f 57//4 58//4 62//4
f 57//5 61//5 63//5
f 62//6 58//6 60//6
f 67//1 68//1 66//1
f 71//2 72//2 68//2
f 69//3 70//3 72//3
f 65//4 66//4 70//4
f 65//5 69//5 71//5
f 70//6 66//6 68//6
f 73//3 75//3 76//3
f 77//1 78//1 80//1
f 73//13 74//13 78//13
f 75//9 73//9 77//9
f 78//11 74//11 76//11
f 81//1 83//1 84//1
f 85//3 86//3 88//3
f 81//11 82//11 86//11
f 83//17 81//17 85//17
f 86//21 82//21 84//21
f 89//1 91//1 92//1
f 93//3 94//3 96//3
f 89//11 90//11 94//11
f 91//17 89//17 93//17
f 94//21 90//21 92//21
f 97//3 99//3 100//3
f 101//1 102//1 104//1
f 97//13 98//13 102//13
f 99//9 97//9 101//9
f 102//11 98//11 100//11
f 107//1 108//1 106//1
f 111//2 112//2 108//2
f 109//3 110//3 112//3
f 105//4 106//4 110//4
f 105//5 109//5 111//5
f 110//6 106//6 108//6
f 115//1 116//1 114//1
f 119//4 120//4 116//4
f 117//3 118//3 120//3
f 113//2 114//2 118//2
f 113//6 117//6 119//6
f 118//5 114//5 116//5
f 123//1 124//1 122//1
f 127//4 128//4 124//4
f 125//3 126//3 128//3
f 121//2 122//2 126//2
f 121//6 125//6 127//6
f 126//5 122//5 124//5
f 131//1 132//1 130//1
f 135//2 136//2 132//2
f 133//3 134//3 136//3
f 129//4 130//4 134//4
f 129//5 133//5 135//5
f 134//6 130//6 132//6
f 137//3 139//3 140//3
f 141//1 142//1 144//1
f 137//13 138//13 142//13
f 137//18 141//18 143//18
f 142//11 138//11 140//11
f 145//1 147//1 148//1
f 149//3 150//3 152//3
f 145//11 146//11 150//11
f 145//19 149//19 151//19
f 150//13 146//13 148//13
f 153//1 155//1 156//1
f 157//3 158//3 160//3
f 153//11 154//11 158//11
f 153//19 157//19 159//19
f 158//13 154//13 156//13
f 161//3 163//3 164//3
f 165//1 166//1 168//1
f 161//13 162//13 166//13
f 161//18 165//18 167//18
f 166//11 162//11 164//11
f 171//1 172//1 170//1
f 175//2 176//2 172//2
f 173//3 174//3 176//3
f 169//4 170//4 174//4
f 169//5 173//5 175//5
f 174//6 170//6 172//6
f 179//1 180//1 178//1
f 183//2 184//2 180//2
f 181//3 182//3 184//3
f 177//4 178//4 182//4
f 177//5 181//5 183//5
f 182//6 178//6 180//6
f 185//3 187//3 188//3
f 189//1 190//1 192//1
f 189//13 185//13 186//13
f 185//18 189//18 191//18
f 190//11 186//11 188//11
f 193//1 195//1 196//1
f 197//3 198//3 200//3
f 197//11 193//11 194//11
f 193//19 197//19 199//19
f 198//13 194//13 196//13
f 201//1 203//1 204//1
f 205//3 206//3 208//3
f 205//11 201//11 202//11
f 201//19 205//19 207//19
f 208//13 206//13 202//13
f 209//3 211//3 212//3
f 213//1 214//1 216//1
f 209//13 210//13 214//13
f 209//18 213//18 215//18
f 214//11 210//11 212//11
f 219//1 220//1 218//1
f 223//4 224//4 220//4
f 221//3 222//3 224//3
f 217//2 218//2 222//2
f 217//6 221//6 223//6
f 222//5 218//5 220//5
