# Blender v2.79 (sub 0) OBJ File: 'FirstRoom.blend'
# www.blender.org
v -0.599940 1.007912 0.168526
v -0.599940 1.712605 -0.087962
v -0.599940 0.987393 0.112150
v -0.599940 1.692086 -0.144337
v 0.599930 1.007912 0.168526
v 0.599930 1.712605 -0.087962
v 0.599930 0.987393 0.112150
v 0.599930 1.692086 -0.144337
v -0.570291 1.034836 0.158726
v -0.570291 1.685681 -0.078162
v 0.570281 1.685681 -0.078162
v 0.570281 1.034836 0.158726
v -0.570291 1.027666 0.139027
v -0.570291 1.678512 -0.097861
v 0.570281 1.678512 -0.097861
v 0.570281 1.027666 0.139027
v -0.093167 0.070050 0.022898
v -0.093167 0.070050 -0.063983
v 0.093157 0.070050 0.022898
v 0.093157 0.070050 -0.063983
v 0.093157 1.471313 -0.063983
v 0.093157 1.285025 0.003821
v -0.093167 1.471313 -0.063983
v -0.093167 1.394454 -0.036008
v 0.093157 1.232609 0.022898
v -0.093167 1.232609 0.022898
v -0.342100 -0.000000 0.207174
v -0.342100 0.070050 0.207174
v -0.342100 0.000000 -0.248335
v -0.342100 0.070050 -0.248335
v 0.342110 -0.000000 0.207174
v 0.342110 0.070050 0.207174
v 0.342110 0.000000 -0.248335
v 0.342110 0.070050 -0.248335
vn -1.0000 0.0000 0.0000
vn 0.0000 -0.3420 -0.9397
vn 1.0000 0.0000 0.0000
vn -0.0000 0.3420 0.9397
vn 0.0000 -0.9397 0.3420
vn 0.0000 0.9397 -0.3420
vn 0.0000 0.0000 -1.0000
vn 0.0000 -0.0000 1.0000
vn 0.0000 1.0000 0.0000
s off
f 2//1 3//1 1//1
f 4//2 7//2 3//2
f 8//3 5//3 7//3
f 2//4 9//4 10//4
f 7//5 1//5 3//5
f 4//6 6//6 8//6
f 12//6 13//6 9//6
f 5//4 9//4 1//4
f 2//4 11//4 6//4
f 6//4 12//4 5//4
f 9//3 14//3 10//3
f 10//5 15//5 11//5
f 12//1 15//1 16//1
f 24//1 23//1 17//1
f 23//7 20//7 18//7
f 21//3 22//3 19//3
f 25//8 17//8 19//8
f 27//1 30//1 29//1
f 30//7 33//7 29//7
f 34//3 31//3 33//3
f 32//8 27//8 31//8
f 30//9 32//9 34//9
f 2//1 4//1 3//1
f 4//2 8//2 7//2
f 8//3 6//3 5//3
f 2//4 1//4 9//4
f 7//5 5//5 1//5
f 4//6 2//6 6//6
f 12//6 16//6 13//6
f 5//4 12//4 9//4
f 2//4 10//4 11//4
f 6//4 11//4 12//4
f 9//3 13//3 14//3
f 10//5 14//5 15//5
f 12//1 11//1 15//1
f 18//1 17//1 23//1
f 17//1 26//1 24//1
f 23//7 21//7 20//7
f 19//3 20//3 21//3
f 22//3 25//3 19//3
f 25//8 26//8 17//8
f 27//1 28//1 30//1
f 30//7 34//7 33//7
f 34//3 32//3 31//3
f 32//8 28//8 27//8
f 30//9 28//9 32//9
