# Blender v2.79 (sub 0) OBJ File: 'FirstRoom.blend'
# www.blender.org
v -0.599940 1.007912 0.168526
v -0.599940 1.712605 -0.087962
v -0.599940 0.987393 0.112150
v -0.599940 1.692086 -0.144337
v 0.599930 1.007912 0.168526
v 0.599930 1.712605 -0.087962
v 0.599930 0.987393 0.112150
v 0.599930 1.692086 -0.144337
v -0.570291 1.034836 0.158726
v -0.570291 1.685681 -0.078162
v 0.570281 1.685681 -0.078162
v 0.570281 1.034836 0.158726
v -0.570291 1.027666 0.139027
v -0.570291 1.678512 -0.097861
v 0.570281 1.678512 -0.097861
v 0.570281 1.027666 0.139027
v -0.093167 0.070050 0.022898
v -0.093167 0.070050 -0.063983
v 0.093157 0.070050 0.022898
v 0.093157 0.070050 -0.063983
v 0.093157 1.471313 -0.063983
v 0.093157 1.285025 0.003821
v -0.093167 1.471313 -0.063983
v -0.093167 1.394454 -0.036008
v 0.093157 1.232609 0.022898
v -0.093167 1.232609 0.022898
v -0.342100 -0.000000 0.207174
v -0.342100 0.070050 0.207174
v -0.342100 0.000000 -0.248335
v -0.342100 0.070050 -0.248335
v 0.342110 -0.000000 0.207174
v 0.342110 0.070050 0.207174
v 0.342110 0.000000 -0.248335
v 0.342110 0.070050 -0.248335
v -0.570291 1.027666 0.139026
v -0.570291 1.678512 -0.097862
v 0.570281 1.678512 -0.097862
v 0.570281 1.027666 0.139026
s off
f 2 3 1
f 4 7 3
f 8 5 7
f 2 9 10
f 7 1 3
f 4 6 8
f 12 13 9
f 5 9 1
f 2 11 6
f 6 12 5
f 9 14 10
f 10 15 11
f 12 15 16
f 24 23 17
f 23 20 18
f 21 22 19
f 25 17 19
f 27 30 29
f 30 33 29
f 34 31 33
f 32 27 31
f 30 32 34
f 37 35 38
f 2 4 3
f 4 8 7
f 8 6 5
f 2 1 9
f 7 5 1
f 4 2 6
f 12 16 13
f 5 12 9
f 2 10 11
f 6 11 12
f 9 13 14
f 10 14 15
f 12 11 15
f 18 17 23
f 17 26 24
f 23 21 20
f 19 20 21
f 22 25 19
f 25 26 17
f 27 28 30
f 30 34 33
f 34 32 31
f 32 28 27
f 30 28 32
f 37 36 35
