# Blender v2.79 (sub 0) OBJ File: 'FirstRoom.blend'
# www.blender.org
v 0.193680 0.000000 0.103524
v 0.193680 0.662213 0.103524
v 0.169762 0.000000 0.139320
v 0.169762 0.662213 0.139320
v 0.139320 0.000000 0.169762
v 0.139320 0.662213 0.169762
v 0.103524 0.000000 0.193680
v 0.103524 0.662213 0.193680
v 0.063750 0.000000 0.210155
v 0.063750 0.662213 0.210155
v 0.021526 0.000000 0.218554
v -0.021526 0.000000 0.218554
v -0.047526 0.537117 -0.088915
v -0.063750 0.000000 0.210155
v -0.063750 0.662213 0.210155
v -0.103524 0.000000 0.193680
v -0.103524 0.662213 0.193680
v -0.139320 0.000000 0.169762
v -0.139320 0.662213 0.169762
v -0.169762 0.000000 0.139320
v -0.169762 0.662213 0.139320
v -0.193680 0.000000 0.103524
v -0.193680 0.662213 0.103524
v -0.210155 0.000000 0.063750
v -0.210155 0.662213 0.063750
v -0.218554 0.000000 0.021526
v -0.218554 0.662213 0.021526
v -0.218554 0.000000 -0.021526
v -0.218554 0.662213 -0.021526
v -0.210155 0.000000 -0.063750
v -0.210155 0.662213 -0.063750
v -0.193680 0.000000 -0.103524
v -0.193680 0.662213 -0.103524
v -0.169762 0.000000 -0.139320
v -0.169762 0.662213 -0.139320
v -0.139320 0.000000 -0.169762
v -0.139320 0.662213 -0.169762
v -0.103524 0.000000 -0.193680
v -0.103524 0.662213 -0.193680
v -0.063750 0.000000 -0.210155
v -0.063750 0.662213 -0.210155
v -0.021526 0.000000 -0.218554
v -0.021526 0.662213 -0.218554
v 0.021526 0.000000 -0.218554
v 0.021526 0.662213 -0.218554
v 0.063750 0.000000 -0.210155
v 0.063750 0.662213 -0.210155
v 0.103524 0.000000 -0.193680
v 0.103524 0.662213 -0.193680
v 0.139320 0.000000 -0.169762
v 0.139320 0.662213 -0.169762
v 0.169762 0.000000 -0.139320
v 0.169762 0.662213 -0.139320
v 0.193680 0.000000 -0.103524
v 0.193680 0.662213 -0.103524
v 0.210155 0.000000 -0.063750
v 0.210155 0.662213 -0.063750
v 0.218554 0.000000 -0.021526
v 0.218554 0.662213 -0.021526
v 0.218554 0.000000 0.021526
v 0.218554 0.662213 0.021526
v 0.210155 0.000000 0.063750
v 0.210155 0.662213 0.063750
v 0.077934 0.659660 0.063959
v 0.088915 0.659660 0.047526
v 0.063959 0.659660 0.077934
v 0.047526 0.659660 0.088914
v -0.047526 0.659660 0.088915
v -0.063959 0.659660 0.077934
v -0.077934 0.659660 0.063959
v -0.088914 0.659660 0.047526
v -0.096478 0.659660 0.029266
v -0.100334 0.659660 0.009882
v -0.100334 0.659660 -0.009882
v -0.096478 0.659660 -0.029266
v -0.088915 0.659660 -0.047526
v -0.077934 0.659660 -0.063959
v -0.063959 0.659660 -0.077934
v -0.047526 0.659660 -0.088915
v -0.029266 0.659660 -0.096478
v -0.009882 0.659660 -0.100334
v 0.009882 0.659660 -0.100334
v 0.029266 0.659660 -0.096478
v 0.047526 0.659660 -0.088914
v 0.063959 0.659660 -0.077934
v 0.077934 0.659660 -0.063959
v 0.088915 0.659660 -0.047526
v 0.096478 0.659660 -0.029266
v 0.100334 0.659660 -0.009882
v 0.100334 0.659660 0.009882
v 0.096478 0.659660 0.029266
v 0.193680 0.534564 0.103524
v 0.169762 0.534564 0.139320
v 0.139320 0.534564 0.169762
v 0.103524 0.534564 0.193680
v 0.063750 0.534564 0.210155
v 0.021526 0.534564 0.218554
v -0.021526 0.534564 0.218554
v -0.063750 0.534564 0.210155
v -0.103524 0.534564 0.193680
v -0.139320 0.534564 0.169762
v -0.169762 0.534564 0.139320
v -0.193680 0.534564 0.103524
v -0.210155 0.534564 0.063750
v -0.218554 0.534564 0.021526
v -0.218554 0.534564 -0.021526
v -0.210155 0.534564 -0.063750
v -0.193680 0.534564 -0.103524
v -0.169762 0.534564 -0.139320
v -0.139320 0.534564 -0.169762
v -0.103524 0.534564 -0.193680
v -0.063750 0.534564 -0.210155
v -0.021526 0.534564 -0.218554
v 0.021526 0.534564 -0.218554
v 0.063750 0.534564 -0.210155
v 0.103524 0.534564 -0.193680
v 0.139320 0.534564 -0.169762
v 0.169762 0.534564 -0.139320
v 0.193680 0.534564 -0.103524
v 0.210155 0.534564 -0.063750
v 0.218554 0.534564 -0.021526
v 0.218554 0.534564 0.021526
v 0.210155 0.534564 0.063750
v -0.029266 0.537117 -0.096478
v -0.009882 0.537117 0.100334
v -0.029266 0.537117 0.096478
v -0.009882 0.537117 -0.100334
v -0.047526 0.537117 0.088915
v 0.009882 0.537117 -0.100334
v -0.063959 0.537117 0.077934
v 0.029266 0.537117 -0.096478
v -0.077934 0.537117 0.063959
v 0.047526 0.537117 -0.088914
v -0.088914 0.537117 0.047526
v 0.063959 0.537117 -0.077934
v -0.096478 0.537117 0.029266
v 0.077934 0.537117 -0.063959
v -0.100334 0.537117 0.009882
v 0.088915 0.537117 -0.047526
v -0.100334 0.537117 -0.009882
v 0.088915 0.537117 0.047526
v 0.077934 0.537117 0.063959
v 0.096478 0.537117 -0.029266
v -0.096478 0.537117 -0.029266
v 0.063959 0.537117 0.077934
v 0.100334 0.537117 -0.009882
v -0.088915 0.537117 -0.047526
v 0.047526 0.537117 0.088914
v 0.100334 0.537117 0.009882
v -0.077934 0.537117 -0.063959
v 0.029266 0.537117 0.096478
v 0.096478 0.537117 0.029266
v -0.063959 0.537117 -0.077934
v 0.009882 0.537117 0.100334
vn 0.8315 0.0000 0.5556
vn 0.7071 0.0000 0.7071
vn 0.5556 0.0000 0.8315
vn 0.3827 0.0000 0.9239
vn 0.0042 0.9998 0.0212
vn 0.0083 0.9998 0.0199
vn -0.9239 0.0000 -0.3827
vn -0.3827 0.0000 0.9239
vn -0.5556 0.0000 0.8315
vn -0.7071 0.0000 0.7071
vn -0.8315 0.0000 0.5556
vn -0.9239 0.0000 0.3827
vn -0.9808 0.0000 0.1951
vn -1.0000 0.0000 0.0000
vn -0.9808 0.0000 -0.1951
vn -0.8315 0.0000 -0.5556
vn -0.7071 0.0000 -0.7071
vn -0.5556 0.0000 -0.8315
vn -0.3827 0.0000 -0.9239
vn -0.1951 0.0000 -0.9808
vn 0.0000 0.0000 -1.0000
vn 0.1951 0.0000 -0.9808
vn 0.3827 0.0000 -0.9239
vn 0.5556 0.0000 -0.8315
vn 0.7071 0.0000 -0.7071
vn 0.8315 0.0000 -0.5556
vn 0.9239 0.0000 -0.3827
vn 0.9808 0.0000 -0.1951
vn 1.0000 0.0000 0.0000
vn -0.0120 0.9998 -0.0180
vn 0.9808 0.0000 0.1951
vn 0.9239 0.0000 0.3827
vn 0.0199 0.9998 -0.0083
vn -0.0216 0.9998 0.0000
vn 0.0180 0.9998 0.0120
vn -0.0153 0.9998 0.0153
vn -0.9912 0.0000 0.1326
vn 0.0212 0.9998 -0.0042
vn -0.0000 0.9998 0.0216
vn -0.0212 0.9998 -0.0042
vn 0.0120 0.9998 -0.0180
vn 0.0153 0.9998 0.0153
vn -0.0180 0.9998 0.0120
vn 0.0216 0.9998 0.0000
vn -0.0042 0.9998 0.0212
vn -0.0180 0.9998 -0.0120
vn -0.0199 0.9998 -0.0083
vn 0.0153 0.9998 -0.0153
vn 0.0120 0.9998 0.0180
vn -0.0199 0.9998 0.0083
vn 0.0212 0.9998 0.0042
vn -0.0083 0.9998 0.0199
vn -0.0153 0.9998 -0.0153
vn 0.0180 0.9998 -0.0120
vn -0.0212 0.9998 0.0042
vn 0.0199 0.9998 0.0083
vn -0.0120 0.9998 0.0180
vn -0.1951 0.0000 0.9808
vn 0.0000 0.0000 1.0000
vn 0.1951 0.0000 0.9808
vn -0.0083 0.9998 -0.0199
vn 0.0083 0.9998 -0.0199
vn 0.9912 0.0000 0.1326
s off
f 2//1 93//1 92//1
f 4//2 94//2 93//2
f 6//3 95//3 94//3
f 8//4 96//4 95//4
f 96//5 154//5 97//5
f 151//6 96//6 148//6
f 91//7 141//7 65//7
f 15//8 100//8 99//8
f 17//9 101//9 100//9
f 19//10 102//10 101//10
f 21//11 103//11 102//11
f 23//12 104//12 103//12
f 25//13 105//13 104//13
f 27//14 106//14 105//14
f 29//15 107//15 106//15
f 31//7 108//7 107//7
f 33//16 109//16 108//16
f 35//17 110//17 109//17
f 37//18 111//18 110//18
f 39//19 112//19 111//19
f 41//20 113//20 112//20
f 43//21 114//21 113//21
f 45//22 115//22 114//22
f 47//23 116//23 115//23
f 49//24 117//24 116//24
f 51//25 118//25 117//25
f 53//26 119//26 118//26
f 55//27 120//27 119//27
f 57//28 121//28 120//28
f 59//29 122//29 121//29
f 6//30 67//30 8//30
f 61//31 123//31 122//31
f 63//32 92//32 123//32
f 123//32 1//32 62//32
f 25//33 71//33 72//33
f 41//5 81//5 43//5
f 61//34 89//34 90//34
f 33//35 77//35 35//35
f 53//36 85//36 86//36
f 96//37 67//37 148//37
f 27//38 72//38 73//38
f 43//39 82//39 45//39
f 63//40 90//40 91//40
f 17//41 69//41 19//41
f 35//42 78//42 37//42
f 53//43 87//43 55//43
f 27//44 74//44 29//44
f 45//45 83//45 47//45
f 4//46 65//46 64//46
f 63//47 65//47 2//47
f 21//48 69//48 70//48
f 37//49 79//49 39//49
f 57//50 87//50 88//50
f 78//3 13//3 79//3
f 31//51 74//51 75//51
f 47//52 84//52 49//52
f 4//53 66//53 6//53
f 21//54 71//54 23//54
f 41//6 79//6 80//6
f 57//55 89//55 59//55
f 125//45 99//45 98//45
f 31//56 76//56 33//56
f 49//57 85//57 51//57
f 122//31 62//31 60//31
f 121//29 60//29 58//29
f 120//28 58//28 56//28
f 119//27 56//27 54//27
f 118//26 54//26 52//26
f 117//25 52//25 50//25
f 116//24 50//24 48//24
f 115//23 48//23 46//23
f 114//22 46//22 44//22
f 113//21 44//21 42//21
f 112//20 42//20 40//20
f 111//19 40//19 38//19
f 110//18 38//18 36//18
f 109//17 36//17 34//17
f 108//16 34//16 32//16
f 107//7 32//7 30//7
f 106//15 30//15 28//15
f 105//14 28//14 26//14
f 104//13 26//13 24//13
f 103//12 24//12 22//12
f 102//11 22//11 20//11
f 101//10 20//10 18//10
f 100//9 18//9 16//9
f 99//8 16//8 14//8
f 98//58 14//58 12//58
f 97//59 12//59 11//59
f 96//60 11//60 9//60
f 95//4 9//4 7//4
f 94//3 7//3 5//3
f 93//2 5//2 3//2
f 92//1 3//1 1//1
f 77//2 153//2 78//2
f 90//15 152//15 91//15
f 8//61 67//61 10//61
f 76//1 150//1 77//1
f 89//14 149//14 90//14
f 66//18 148//18 67//18
f 75//32 147//32 76//32
f 88//13 146//13 89//13
f 64//17 145//17 66//17
f 74//31 144//31 75//31
f 87//12 143//12 88//12
f 65//16 142//16 64//16
f 73//29 140//29 74//29
f 86//11 139//11 87//11
f 72//28 138//28 73//28
f 85//10 137//10 86//10
f 71//27 136//27 72//27
f 84//9 135//9 85//9
f 70//26 134//26 71//26
f 83//8 133//8 84//8
f 69//25 132//25 70//25
f 82//58 131//58 83//58
f 68//24 130//24 69//24
f 81//59 129//59 82//59
f 80//60 127//60 81//60
f 98//39 154//39 125//39
f 79//4 124//4 80//4
f 17//62 15//62 68//62
f 68//63 99//63 128//63
f 99//52 126//52 128//52
f 2//1 4//1 93//1
f 4//2 6//2 94//2
f 6//3 8//3 95//3
f 8//4 10//4 96//4
f 96//5 151//5 154//5
f 91//7 152//7 141//7
f 15//8 17//8 100//8
f 17//9 19//9 101//9
f 19//10 21//10 102//10
f 21//11 23//11 103//11
f 23//12 25//12 104//12
f 25//13 27//13 105//13
f 27//14 29//14 106//14
f 29//15 31//15 107//15
f 31//7 33//7 108//7
f 33//16 35//16 109//16
f 35//17 37//17 110//17
f 37//18 39//18 111//18
f 39//19 41//19 112//19
f 41//20 43//20 113//20
f 43//21 45//21 114//21
f 45//22 47//22 115//22
f 47//23 49//23 116//23
f 49//24 51//24 117//24
f 51//25 53//25 118//25
f 53//26 55//26 119//26
f 55//27 57//27 120//27
f 57//28 59//28 121//28
f 59//29 61//29 122//29
f 6//30 66//30 67//30
f 61//31 63//31 123//31
f 63//32 2//32 92//32
f 123//32 92//32 1//32
f 25//33 23//33 71//33
f 41//5 80//5 81//5
f 61//34 59//34 89//34
f 33//35 76//35 77//35
f 53//36 51//36 85//36
f 96//37 10//37 67//37
f 27//38 25//38 72//38
f 43//39 81//39 82//39
f 63//40 61//40 90//40
f 17//41 68//41 69//41
f 35//42 77//42 78//42
f 53//43 86//43 87//43
f 27//44 73//44 74//44
f 45//45 82//45 83//45
f 4//46 2//46 65//46
f 63//47 91//47 65//47
f 21//48 19//48 69//48
f 37//49 78//49 79//49
f 57//50 55//50 87//50
f 78//3 153//3 13//3
f 31//51 29//51 74//51
f 47//52 83//52 84//52
f 4//53 64//53 66//53
f 21//54 70//54 71//54
f 41//6 39//6 79//6
f 57//55 88//55 89//55
f 125//45 126//45 99//45
f 31//56 75//56 76//56
f 49//57 84//57 85//57
f 122//31 123//31 62//31
f 121//29 122//29 60//29
f 120//28 121//28 58//28
f 119//27 120//27 56//27
f 118//26 119//26 54//26
f 117//25 118//25 52//25
f 116//24 117//24 50//24
f 115//23 116//23 48//23
f 114//22 115//22 46//22
f 113//21 114//21 44//21
f 112//20 113//20 42//20
f 111//19 112//19 40//19
f 110//18 111//18 38//18
f 109//17 110//17 36//17
f 108//16 109//16 34//16
f 107//7 108//7 32//7
f 106//15 107//15 30//15
f 105//14 106//14 28//14
f 104//13 105//13 26//13
f 103//12 104//12 24//12
f 102//11 103//11 22//11
f 101//10 102//10 20//10
f 100//9 101//9 18//9
f 99//8 100//8 16//8
f 98//58 99//58 14//58
f 97//59 98//59 12//59
f 96//60 97//60 11//60
f 95//4 96//4 9//4
f 94//3 95//3 7//3
f 93//2 94//2 5//2
f 92//1 93//1 3//1
f 77//2 150//2 153//2
f 90//15 149//15 152//15
f 76//1 147//1 150//1
f 89//14 146//14 149//14
f 66//18 145//18 148//18
f 75//32 144//32 147//32
f 88//13 143//13 146//13
f 64//17 142//17 145//17
f 74//31 140//31 144//31
f 87//12 139//12 143//12
f 65//16 141//16 142//16
f 73//29 138//29 140//29
f 86//11 137//11 139//11
f 72//28 136//28 138//28
f 85//10 135//10 137//10
f 71//27 134//27 136//27
f 84//9 133//9 135//9
f 70//26 132//26 134//26
f 83//8 131//8 133//8
f 69//25 130//25 132//25
f 82//58 129//58 131//58
f 68//24 128//24 130//24
f 81//59 127//59 129//59
f 80//60 124//60 127//60
f 98//39 97//39 154//39
f 79//4 13//4 124//4
f 68//63 15//63 99//63
