# Blender v2.79 (sub 0) OBJ File: 'Tree.blend'
# www.blender.org
v -0.286987 -0.000000 -0.315552
v -0.217377 0.205924 -0.245943
v 0.240400 0.205924 -0.245943
v 0.310010 -0.000000 -0.315552
v 0.240400 0.205924 0.211835
v 0.310010 -0.000000 0.281445
v -0.217377 0.205924 0.211835
v -0.286987 -0.000000 0.281445
v -0.099288 2.843450 1.452678
v -0.099288 2.843450 1.674276
v 0.122311 2.843450 1.674276
v 0.122311 2.843450 1.452678
v -0.163186 0.782117 -0.066538
v 0.186210 0.782117 -0.066538
v 0.186210 0.782117 0.282858
v -0.163186 0.782117 0.282858
v -0.125123 2.272274 1.443762
v -0.125123 2.272274 1.170493
v -0.156174 1.585793 0.389804
v 0.179197 1.585793 0.389804
v 0.179197 1.585793 0.725174
v -0.156174 1.585793 0.725174
v -0.028544 2.523395 -0.473962
v -0.025452 2.523080 -0.384463
v 0.048475 2.523080 -0.384463
v 0.051567 2.523395 -0.473962
v 0.166253 1.871957 0.631648
v 0.166253 1.871957 0.941131
v -0.143230 1.871957 0.941131
v -0.143230 1.871957 0.631648
v 0.148146 2.272274 1.170493
v 0.148146 2.272274 1.443762
v -0.109894 1.794663 -0.015959
v 0.132917 1.794663 -0.015959
v 0.123546 1.976946 0.170643
v 0.088491 2.187479 -0.154789
v -0.065468 2.187479 -0.154789
v -0.071907 2.118690 -0.311743
v 0.094930 2.118690 -0.311743
v -0.100522 1.976946 0.170643
vt 0.000000 -0.000000
vt 1.000000 -1.000000
vt 0.000000 -1.000000
vt 0.000000 -0.000000
vt 1.000000 -1.000000
vt 0.000000 -1.000000
vt 0.000000 -0.000000
vt 1.000000 -1.000000
vt 0.000000 -1.000000
vt 0.000000 -0.000000
vt 1.000000 -1.000000
vt 0.000000 -1.000000
vt 0.000000 -0.000000
vt 1.000000 -1.000000
vt 0.000000 -1.000000
vt 0.000000 -0.000000
vt 0.000000 -1.000000
vt 1.000000 -1.000000
vt 0.000000 -1.000000
vt 1.000000 -1.000000
vt 1.000000 -0.000000
vt 1.000000 -0.000000
vt 0.000000 -0.000000
vt 0.000000 -1.000000
vt 0.000000 -1.000000
vt 1.000000 -1.000000
vt 1.000000 -0.000000
vt 0.000000 -0.000000
vt 0.000000 -0.000000
vt 0.000000 -1.000000
vt 1.000000 -1.000000
vt 0.000000 -1.000000
vt 1.000000 -1.000000
vt 1.000000 -0.000000
vt 0.000000 -1.000000
vt 0.000000 -0.000000
vt 1.000000 -1.000000
vt 1.000000 -0.000000
vt 0.000000 -1.000000
vt 1.000000 -1.000000
vt 1.000000 -1.000000
vt 0.000000 -1.000000
vt 1.000000 -1.000000
vt 0.000000 -1.000000
vt 1.000000 -1.000000
vt 0.000000 -1.000000
vt 1.000000 -1.000000
vt 1.000000 -0.000000
vt 1.000000 -0.000000
vt 1.000000 -0.000000
vt 1.000000 -0.000000
vt 1.000000 -0.000000
vn 0.0000 0.3202 -0.9473
vn 0.9473 0.3202 0.0000
vn 0.0000 0.3202 0.9473
vn -0.9473 0.3202 0.0000
vn 0.0000 1.0000 0.0000
vn 0.0000 -1.0000 -0.0000
vn 0.0000 0.2973 -0.9548
vn 0.9956 0.0936 0.0000
vn 0.0000 -0.1223 0.9925
vn -0.9990 0.0452 0.0000
vn 0.0000 0.4938 -0.8696
vn 1.0000 0.0087 0.0000
vn 0.0000 -0.4822 0.8761
vn -0.9956 0.0936 0.0000
vn -1.0000 0.0087 0.0000
vn 0.0000 1.0000 0.0035
vn 0.9990 0.0452 0.0000
vn 0.0000 -0.6024 0.7982
vn 0.0000 0.8027 -0.5964
vn 0.0000 -0.7822 0.6230
vn 0.0000 -0.8891 -0.4577
vn 0.9923 0.1028 -0.0685
vn 0.0000 0.5648 0.8252
vn -0.9936 0.1126 -0.0086
vn 0.0000 -0.6742 -0.7386
vn 0.9943 0.0967 -0.0445
vn 0.0000 0.9750 0.2221
vn -0.9924 0.1093 -0.0569
vn 0.0000 0.8396 0.5432
vn -0.9939 0.1098 -0.0074
vn 0.0000 -0.3721 -0.9282
vn 0.9936 0.1126 -0.0086
vn 0.0000 0.4429 -0.8966
vn 0.0000 -0.3742 0.9273
vn 0.9924 0.1093 -0.0569
vn -0.9921 0.1202 0.0347
vn 0.9939 0.1098 -0.0074
vn -0.9923 0.1028 -0.0685
vn -0.9943 0.0967 -0.0445
vn 0.9921 0.1202 0.0347
s off
f 2/1/1 4/2/1 1/3/1
f 3/4/2 6/5/2 4/6/2
f 5/7/3 8/8/3 6/9/3
f 7/10/4 1/11/4 8/12/4
f 10/13/5 12/14/5 9/15/5
f 1/16/6 6/5/6 8/12/6
f 13/17/7 3/18/7 2/19/7
f 14/20/8 5/21/8 3/18/8
f 15/22/9 7/10/9 5/21/9
f 17/23/10 9/15/10 18/24/10
f 19/25/11 14/20/11 13/17/11
f 20/26/12 15/22/12 14/20/12
f 21/27/13 16/28/13 15/22/13
f 13/17/14 7/10/14 16/28/14
f 19/25/15 16/28/15 22/29/15
f 24/30/16 26/31/16 23/32/16
f 27/33/17 21/27/17 20/26/17
f 28/34/18 22/29/18 21/27/18
f 30/35/10 22/29/10 29/36/10
f 18/24/19 27/33/19 30/35/19
f 31/37/17 28/34/17 27/33/17
f 32/38/20 29/36/20 28/34/20
f 33/39/21 20/26/21 19/25/21
f 20/26/22 35/40/22 27/33/22
f 25/41/23 37/42/23 36/43/23
f 24/30/24 38/44/24 37/42/24
f 38/44/25 34/45/25 33/39/25
f 34/45/26 36/43/26 35/40/26
f 30/35/27 35/40/27 40/46/27
f 19/25/28 40/46/28 33/39/28
f 40/46/29 36/43/29 37/42/29
f 33/39/30 37/42/30 38/44/30
f 23/32/31 39/47/31 38/44/31
f 39/47/32 25/41/32 36/43/32
f 18/24/10 29/36/10 17/23/10
f 9/15/33 31/37/33 18/24/33
f 12/14/17 32/38/17 31/37/17
f 11/48/34 17/23/34 32/38/34
f 2/1/1 3/49/1 4/2/1
f 3/4/2 5/21/2 6/5/2
f 5/7/3 7/50/3 8/8/3
f 7/10/4 2/51/4 1/11/4
f 10/13/5 11/48/5 12/14/5
f 1/16/6 4/52/6 6/5/6
f 13/17/7 14/20/7 3/18/7
f 14/20/8 15/22/8 5/21/8
f 15/22/9 16/28/9 7/10/9
f 17/23/10 10/13/10 9/15/10
f 19/25/11 20/26/11 14/20/11
f 20/26/12 21/27/12 15/22/12
f 21/27/13 22/29/13 16/28/13
f 13/17/14 2/19/14 7/10/14
f 19/25/15 13/17/15 16/28/15
f 24/30/16 25/41/16 26/31/16
f 27/33/17 28/34/17 21/27/17
f 28/34/18 29/36/18 22/29/18
f 30/35/10 19/25/10 22/29/10
f 18/24/19 31/37/19 27/33/19
f 31/37/17 32/38/17 28/34/17
f 32/38/20 17/23/20 29/36/20
f 33/39/21 34/45/21 20/26/21
f 20/26/35 34/45/35 35/40/35
f 25/41/23 24/30/23 37/42/23
f 24/30/36 23/32/36 38/44/36
f 38/44/25 39/47/25 34/45/25
f 34/45/37 39/47/37 36/43/37
f 30/35/27 27/33/27 35/40/27
f 19/25/38 30/35/38 40/46/38
f 40/46/29 35/40/29 36/43/29
f 33/39/39 40/46/39 37/42/39
f 23/32/31 26/31/31 39/47/31
f 39/47/40 26/31/40 25/41/40
f 18/24/10 30/35/10 29/36/10
f 9/15/33 12/14/33 31/37/33
f 12/14/17 11/48/17 32/38/17
f 11/48/34 10/13/34 17/23/34
