# Blender v2.79 (sub 0) OBJ File: ''
# www.blender.org
v -0.242197 2.810371 0.358638
v -0.252496 2.333665 0.276030
v -0.166151 2.321255 0.752024
v -0.181142 2.801597 0.695217
v 0.208755 2.437811 1.034937
v 0.083957 2.884014 0.895267
v 0.652607 2.615054 0.959044
v 0.397808 3.009344 0.841602
v 0.905402 2.749158 0.568800
v 0.576561 3.104170 0.565658
v 0.819057 2.761568 0.092806
v 0.515506 3.112945 0.229080
v 0.444152 2.645012 -0.190107
v 0.250407 3.030528 0.029029
v 0.000300 2.467769 -0.114214
v -0.063443 2.905198 0.082694
v 0.076345 1.978653 0.279172
v 0.137400 1.969878 0.615750
v 0.402499 2.052295 0.815800
v 0.716350 2.177625 0.762135
v 0.895103 2.272452 0.486192
v 0.834048 2.281226 0.149613
v 0.568949 2.198809 -0.050437
v 0.255099 2.073479 0.003228
v 0.101210 3.129525 0.478606
v 0.551696 1.953298 0.366224
vt 0.000000 -0.750000
vt 0.000000 -0.500000
vt 0.125000 -0.500000
vt 0.125000 -0.750000
vt 0.250000 -0.500000
vt 0.250000 -0.750000
vt 0.375000 -0.500000
vt 0.375000 -0.750000
vt 0.500000 -0.500000
vt 0.500000 -0.750000
vt 0.625000 -0.500000
vt 0.625000 -0.750000
vt 0.750000 -0.500000
vt 0.750000 -0.750000
vt 0.875000 -0.500000
vt 0.875000 -0.750000
vt 1.000000 -0.500000
vt 1.000000 -0.750000
vt 0.000000 -0.250000
vt 0.125000 -0.250000
vt 0.250000 -0.250000
vt 0.375000 -0.250000
vt 0.500000 -0.250000
vt 0.625000 -0.250000
vt 0.750000 -0.250000
vt 0.875000 -0.250000
vt 1.000000 -0.250000
vt 0.000000 -1.000000
vt 0.000000 -0.000000
vt 0.125000 -1.000000
vt 0.125000 -0.000000
vt 0.250000 -1.000000
vt 0.250000 -0.000000
vt 0.375000 -1.000000
vt 0.375000 -0.000000
vt 0.500000 -1.000000
vt 0.500000 -0.000000
vt 0.625000 -1.000000
vt 0.625000 -0.000000
vt 0.750000 -1.000000
vt 0.750000 -0.000000
vt 0.875000 -1.000000
vt 0.875000 -0.000000
vn -0.9839 -0.0096 0.1782
vn -0.6152 0.0736 0.7849
vn 0.0393 0.3085 0.9504
vn 0.5962 0.5574 0.5778
vn 0.7293 0.6745 -0.1147
vn 0.3606 0.5913 -0.7214
vn -0.2940 0.3564 -0.8869
vn -0.8509 0.1075 -0.5142
vn -0.7293 -0.6745 0.1147
vn -0.3606 -0.5913 0.7214
vn 0.2940 -0.3564 0.8869
vn 0.8509 -0.1075 0.5142
vn 0.9839 0.0096 -0.1782
vn 0.6152 -0.0736 -0.7849
vn -0.0393 -0.3085 -0.9504
vn -0.5962 -0.5574 -0.5778
vn -0.7003 0.6989 0.1453
vn -0.0502 -0.9986 -0.0169
vn -0.5388 0.7354 0.4110
vn 0.1114 -0.9621 0.2488
vn -0.2521 0.8383 0.4835
vn 0.3981 -0.8592 0.3213
vn -0.0081 0.9473 0.3203
vn 0.6420 -0.7502 0.1581
vn 0.0502 0.9986 0.0169
vn 0.7003 -0.6989 -0.1453
vn -0.1114 0.9621 -0.2488
vn 0.5388 -0.7354 -0.4110
vn -0.3981 0.8592 -0.3213
vn 0.2521 -0.8383 -0.4835
vn -0.6420 0.7502 -0.1581
vn 0.0081 -0.9473 -0.3203
s off
f 1/1/1 2/2/1 3/3/1 4/4/1
f 4/4/2 3/3/2 5/5/2 6/6/2
f 6/6/3 5/5/3 7/7/3 8/8/3
f 8/8/4 7/7/4 9/9/4 10/10/4
f 10/10/5 9/9/5 11/11/5 12/12/5
f 12/12/6 11/11/6 13/13/6 14/14/6
f 14/14/7 13/13/7 15/15/7 16/16/7
f 16/16/8 15/15/8 2/17/8 1/18/8
f 2/2/9 17/19/9 18/20/9 3/3/9
f 3/3/10 18/20/10 19/21/10 5/5/10
f 5/5/11 19/21/11 20/22/11 7/7/11
f 7/7/12 20/22/12 21/23/12 9/9/12
f 9/9/13 21/23/13 22/24/13 11/11/13
f 11/11/14 22/24/14 23/25/14 13/13/14
f 13/13/15 23/25/15 24/26/15 15/15/15
f 15/15/16 24/26/16 17/27/16 2/17/16
f 25/28/17 1/1/17 4/4/17
f 18/20/18 17/19/18 26/29/18
f 25/30/19 4/4/19 6/6/19
f 19/21/20 18/20/20 26/31/20
f 25/32/21 6/6/21 8/8/21
f 20/22/22 19/21/22 26/33/22
f 25/34/23 8/8/23 10/10/23
f 21/23/24 20/22/24 26/35/24
f 25/36/25 10/10/25 12/12/25
f 22/24/26 21/23/26 26/37/26
f 25/38/27 12/12/27 14/14/27
f 23/25/28 22/24/28 26/39/28
f 25/40/29 14/14/29 16/16/29
f 24/26/30 23/25/30 26/41/30
f 25/42/31 16/16/31 1/18/31
f 17/27/32 24/26/32 26/43/32
v -0.299396 3.330345 0.440597
v 0.005756 3.396027 0.057169
v -0.347346 3.715560 -0.075747
v -0.549077 3.556289 0.346611
v -0.815420 3.675190 -0.229778
v -0.880056 3.527744 0.237695
v -1.124276 3.298565 -0.314694
v -1.098450 3.261430 0.177650
v -1.092990 2.806307 -0.280754
v -1.076327 2.913351 0.201650
v -0.739888 2.486773 -0.147838
v -0.826646 2.687406 0.295635
v -0.271813 2.527143 0.006193
v -0.495668 2.715952 0.404552
v 0.037042 2.903768 0.091110
v -0.277274 2.982266 0.464597
v -0.010907 3.288983 -0.425234
v -0.260588 3.514927 -0.519220
v -0.591566 3.486381 -0.628136
v -0.809960 3.220067 -0.688181
v -0.787837 2.871988 -0.664182
v -0.538157 2.646044 -0.570196
v -0.207178 2.674589 -0.461280
v 0.011216 2.940903 -0.401235
v -0.747610 3.130414 0.500443
v -0.339624 3.071919 -0.724028
vt 0.000000 -0.750000
vt 0.000000 -0.500000
vt 0.125000 -0.500000
vt 0.125000 -0.750000
vt 0.250000 -0.500000
vt 0.250000 -0.750000
vt 0.375000 -0.500000
vt 0.375000 -0.750000
vt 0.500000 -0.500000
vt 0.500000 -0.750000
vt 0.625000 -0.500000
vt 0.625000 -0.750000
vt 0.750000 -0.500000
vt 0.750000 -0.750000
vt 0.875000 -0.500000
vt 0.875000 -0.750000
vt 1.000000 -0.500000
vt 1.000000 -0.750000
vt 0.000000 -0.250000
vt 0.125000 -0.250000
vt 0.250000 -0.250000
vt 0.375000 -0.250000
vt 0.500000 -0.250000
vt 0.625000 -0.250000
vt 0.750000 -0.250000
vt 0.875000 -0.250000
vt 1.000000 -0.250000
vt 0.000000 -1.000000
vt 0.000000 -0.000000
vt 0.125000 -1.000000
vt 0.125000 -0.000000
vt 0.250000 -1.000000
vt 0.250000 -0.000000
vt 0.375000 -1.000000
vt 0.375000 -0.000000
vt 0.500000 -1.000000
vt 0.500000 -0.000000
vt 0.625000 -1.000000
vt 0.625000 -0.000000
vt 0.750000 -1.000000
vt 0.750000 -0.000000
vt 0.875000 -1.000000
vt 0.875000 -0.000000
vn 0.4706 0.7276 0.4991
vn -0.1720 0.9461 0.2746
vn -0.7799 0.6198 0.0877
vn -0.9971 -0.0601 0.0478
vn -0.6963 -0.6953 0.1783
vn -0.0538 -0.9137 0.4028
vn 0.5541 -0.5874 0.5898
vn 0.7713 0.0924 0.6297
vn 0.6963 0.6953 -0.1783
vn 0.0538 0.9137 -0.4028
vn -0.5541 0.5874 -0.5898
vn -0.7713 -0.0924 -0.6297
vn -0.4706 -0.7276 -0.4991
vn 0.1720 -0.9461 -0.2746
vn 0.7799 -0.6198 -0.0877
vn 0.9971 0.0601 -0.0478
vn -0.0326 0.3530 0.9351
vn 0.5437 0.2703 -0.7945
vn -0.3140 0.4486 0.8367
vn 0.2623 0.3660 -0.8929
vn -0.5803 0.3057 0.7548
vn -0.0040 0.2231 -0.9748
vn -0.6755 0.0079 0.7374
vn -0.0992 -0.0747 -0.9923
vn -0.5437 -0.2703 0.7945
vn 0.0326 -0.3530 -0.9351
vn -0.2623 -0.3660 0.8929
vn 0.3140 -0.4486 -0.8367
vn 0.0040 -0.2231 0.9748
vn 0.5803 -0.3057 -0.7548
vn 0.0992 0.0747 0.9923
vn 0.6755 -0.0079 -0.7374
s off
f 27/44/33 28/45/33 29/46/33 30/47/33
f 30/47/34 29/46/34 31/48/34 32/49/34
f 32/49/35 31/48/35 33/50/35 34/51/35
f 34/51/36 33/50/36 35/52/36 36/53/36
f 36/53/37 35/52/37 37/54/37 38/55/37
f 38/55/38 37/54/38 39/56/38 40/57/38
f 40/57/39 39/56/39 41/58/39 42/59/39
f 42/59/40 41/58/40 28/60/40 27/61/40
f 28/45/41 43/62/41 44/63/41 29/46/41
f 29/46/42 44/63/42 45/64/42 31/48/42
f 31/48/43 45/64/43 46/65/43 33/50/43
f 33/50/44 46/65/44 47/66/44 35/52/44
f 35/52/45 47/66/45 48/67/45 37/54/45
f 37/54/46 48/67/46 49/68/46 39/56/46
f 39/56/47 49/68/47 50/69/47 41/58/47
f 41/58/48 50/69/48 43/70/48 28/60/48
f 51/71/49 27/44/49 30/47/49
f 44/63/50 43/62/50 52/72/50
f 51/73/51 30/47/51 32/49/51
f 45/64/52 44/63/52 52/74/52
f 51/75/53 32/49/53 34/51/53
f 46/65/54 45/64/54 52/76/54
f 51/77/55 34/51/55 36/53/55
f 47/66/56 46/65/56 52/78/56
f 51/79/57 36/53/57 38/55/57
f 48/67/58 47/66/58 52/80/58
f 51/81/59 38/55/59 40/57/59
f 49/68/60 48/67/60 52/82/60
f 51/83/61 40/57/61 42/59/61
f 50/69/62 49/68/62 52/84/62
f 51/85/63 42/59/63 27/61/63
f 43/70/64 50/69/64 52/86/64
v 0.856185 2.555971 1.465952
v 0.858351 3.254456 1.540570
v 0.656904 3.082128 2.191090
v 0.713740 2.434117 1.925939
v 0.077395 2.803898 2.474306
v 0.303966 2.237378 2.126203
v -0.540708 2.582748 2.224313
v -0.133099 2.081002 1.949432
v -0.835328 2.548226 1.587555
v -0.341427 2.056591 1.499176
v -0.633881 2.720555 0.937035
v -0.198983 2.178445 1.039189
v -0.054372 2.998785 0.653819
v 0.210792 2.375184 0.838925
v 0.563731 3.219934 0.903811
v 0.647857 2.531560 1.015696
v 0.364450 3.746091 1.628949
v 0.222006 3.624237 2.088936
v -0.187769 3.427498 2.289201
v -0.624834 3.271122 2.112429
v -0.833161 3.246711 1.662173
v -0.690717 3.368566 1.202186
v -0.280942 3.565305 1.001922
v 0.156122 3.721681 1.178693
v 0.359220 2.059799 1.448806
v -0.336197 3.742884 1.679319
vt 0.000000 -0.750000
vt 0.000000 -0.500000
vt 0.125000 -0.500000
vt 0.125000 -0.750000
vt 0.250000 -0.500000
vt 0.250000 -0.750000
vt 0.375000 -0.500000
vt 0.375000 -0.750000
vt 0.500000 -0.500000
vt 0.500000 -0.750000
vt 0.625000 -0.500000
vt 0.625000 -0.750000
vt 0.750000 -0.500000
vt 0.750000 -0.750000
vt 0.875000 -0.500000
vt 0.875000 -0.750000
vt 1.000000 -0.500000
vt 1.000000 -0.750000
vt 0.000000 -0.250000
vt 0.125000 -0.250000
vt 0.250000 -0.250000
vt 0.375000 -0.250000
vt 0.500000 -0.250000
vt 0.625000 -0.250000
vt 0.750000 -0.250000
vt 0.875000 -0.250000
vt 1.000000 -0.250000
vt 0.000000 -1.000000
vt 0.000000 -0.000000
vt 0.125000 -1.000000
vt 0.125000 -0.000000
vt 0.250000 -1.000000
vt 0.250000 -0.000000
vt 0.375000 -1.000000
vt 0.375000 -0.000000
vt 0.500000 -1.000000
vt 0.500000 -0.000000
vt 0.625000 -1.000000
vt 0.625000 -0.000000
vt 0.750000 -1.000000
vt 0.750000 -0.000000
vt 0.875000 -1.000000
vt 0.875000 -0.000000
vn 0.9572 -0.0337 0.2875
vn 0.5271 -0.2818 0.8017
vn -0.1324 -0.5568 0.8200
vn -0.6351 -0.6976 0.3317
vn -0.6864 -0.6217 -0.3773
vn -0.2563 -0.3736 -0.8915
vn 0.4032 -0.0986 -0.9098
vn 0.9059 0.0422 -0.4214
vn 0.6864 0.6217 0.3773
vn 0.2563 0.3736 0.8915
vn -0.4032 0.0986 0.9098
vn -0.9059 -0.0422 0.4214
vn -0.9572 0.0337 -0.2875
vn -0.5271 0.2818 -0.8017
vn 0.1324 0.5568 -0.8200
vn 0.6351 0.6976 -0.3317
vn 0.7057 -0.7079 0.0310
vn 0.0143 0.9655 0.2602
vn 0.5173 -0.8166 0.2563
vn -0.1741 0.8568 0.4854
vn 0.2284 -0.9370 0.2643
vn -0.4630 0.7363 0.4934
vn 0.0082 -0.9987 0.0504
vn -0.6832 0.6746 0.2795
vn -0.0143 -0.9655 -0.2602
vn -0.7057 0.7079 -0.0310
vn 0.1741 -0.8568 -0.4854
vn -0.5173 0.8166 -0.2563
vn 0.4630 -0.7363 -0.4934
vn -0.2284 0.9370 -0.2643
vn 0.6832 -0.6746 -0.2795
vn -0.0082 0.9987 -0.0504
s off
f 53/87/65 54/88/65 55/89/65 56/90/65
f 56/90/66 55/89/66 57/91/66 58/92/66
f 58/92/67 57/91/67 59/93/67 60/94/67
f 60/94/68 59/93/68 61/95/68 62/96/68
f 62/96/69 61/95/69 63/97/69 64/98/69
f 64/98/70 63/97/70 65/99/70 66/100/70
f 66/100/71 65/99/71 67/101/71 68/102/71
f 68/102/72 67/101/72 54/103/72 53/104/72
f 54/88/73 69/105/73 70/106/73 55/89/73
f 55/89/74 70/106/74 71/107/74 57/91/74
f 57/91/75 71/107/75 72/108/75 59/93/75
f 59/93/76 72/108/76 73/109/76 61/95/76
f 61/95/77 73/109/77 74/110/77 63/97/77
f 63/97/78 74/110/78 75/111/78 65/99/78
f 65/99/79 75/111/79 76/112/79 67/101/79
f 67/101/80 76/112/80 69/113/80 54/103/80
f 77/114/81 53/87/81 56/90/81
f 70/106/82 69/105/82 78/115/82
f 77/116/83 56/90/83 58/92/83
f 71/107/84 70/106/84 78/117/84
f 77/118/85 58/92/85 60/94/85
f 72/108/86 71/107/86 78/119/86
f 77/120/87 60/94/87 62/96/87
f 73/109/88 72/108/88 78/121/88
f 77/122/89 62/96/89 64/98/89
f 74/110/90 73/109/90 78/123/90
f 77/124/91 64/98/91 66/100/91
f 75/111/92 74/110/92 78/125/92
f 77/126/93 66/100/93 68/102/93
f 76/112/94 75/111/94 78/127/94
f 77/128/95 68/102/95 53/104/95
f 69/113/96 76/112/96 78/129/96
v -0.635159 2.652966 -0.118317
v -0.625975 2.201633 -0.507399
v -0.191094 2.013927 -0.145715
v -0.327652 2.520238 0.137433
v 0.362470 2.196793 -0.022032
v 0.063777 2.649543 0.224890
v 0.710448 2.643110 -0.208804
v 0.309834 2.965137 0.092822
v 0.648998 3.091432 -0.596621
v 0.266383 3.282148 -0.181406
v 0.214117 3.279137 -0.958306
v -0.041124 3.414876 -0.437156
v -0.339447 3.096272 -1.081988
v -0.432553 3.285570 -0.524613
v -0.687425 2.649955 -0.895217
v -0.678611 2.969977 -0.392545
v -0.243359 2.010916 -0.922614
v 0.064148 1.878189 -0.666865
v 0.455577 2.007494 -0.579408
v 0.701634 2.323088 -0.711475
v 0.658182 2.640099 -0.985704
v 0.350675 2.772827 -1.241454
v -0.040754 2.643521 -1.328910
v -0.286811 2.327928 -1.196843
v -0.265532 3.100530 0.016714
v 0.288556 2.192535 -1.120735
vt 0.000000 -0.750000
vt 0.000000 -0.500000
vt 0.125000 -0.500000
vt 0.125000 -0.750000
vt 0.250000 -0.500000
vt 0.250000 -0.750000
vt 0.375000 -0.500000
vt 0.375000 -0.750000
vt 0.500000 -0.500000
vt 0.500000 -0.750000
vt 0.625000 -0.500000
vt 0.625000 -0.750000
vt 0.750000 -0.500000
vt 0.750000 -0.750000
vt 0.875000 -0.500000
vt 0.875000 -0.750000
vt 1.000000 -0.500000
vt 1.000000 -0.750000
vt 0.000000 -0.250000
vt 0.125000 -0.250000
vt 0.250000 -0.250000
vt 0.375000 -0.250000
vt 0.500000 -0.250000
vt 0.625000 -0.250000
vt 0.750000 -0.250000
vt 0.875000 -0.250000
vt 1.000000 -0.250000
vt 0.000000 -1.000000
vt 0.000000 -0.000000
vt 0.125000 -1.000000
vt 0.125000 -0.000000
vt 0.250000 -1.000000
vt 0.250000 -0.000000
vt 0.375000 -1.000000
vt 0.375000 -0.000000
vt 0.500000 -1.000000
vt 0.500000 -0.000000
vt 0.625000 -1.000000
vt 0.625000 -0.000000
vt 0.750000 -1.000000
vt 0.750000 -0.000000
vt 0.875000 -1.000000
vt 0.875000 -0.000000
vn -0.6725 -0.4911 0.5537
vn -0.0309 -0.4942 0.8688
vn 0.5544 -0.0858 0.8279
vn 0.7403 0.4950 0.4549
vn 0.4182 0.9078 -0.0316
vn -0.2235 0.9110 -0.3467
vn -0.8087 0.5025 -0.3058
vn -0.9947 -0.0782 0.0672
vn -0.4182 -0.9078 0.0317
vn 0.2235 -0.9110 0.3467
vn 0.8087 -0.5025 0.3058
vn 0.9947 0.0782 -0.0672
vn 0.6725 0.4911 -0.5537
vn 0.0309 0.4942 -0.8688
vn -0.5544 0.0858 -0.8279
vn -0.7403 -0.4950 -0.4549
vn -0.5635 0.2256 0.7947
vn 0.0858 -0.8384 -0.5383
vn -0.2825 0.2243 0.9327
vn 0.3668 -0.8398 -0.4002
vn -0.0261 0.4032 0.9148
vn 0.6232 -0.6609 -0.4182
vn 0.0553 0.6576 0.7514
vn 0.7047 -0.4065 -0.5816
vn -0.0858 0.8384 0.5383
vn 0.5635 -0.2256 -0.7947
vn -0.3668 0.8398 0.4002
vn 0.2825 -0.2243 -0.9327
vn -0.6232 0.6609 0.4182
vn 0.0261 -0.4032 -0.9148
vn -0.7047 0.4065 0.5816
vn -0.0553 -0.6576 -0.7514
s off
f 79/130/97 80/131/97 81/132/97 82/133/97
f 82/133/98 81/132/98 83/134/98 84/135/98
f 84/135/99 83/134/99 85/136/99 86/137/99
f 86/137/100 85/136/100 87/138/100 88/139/100
f 88/139/101 87/138/101 89/140/101 90/141/101
f 90/141/102 89/140/102 91/142/102 92/143/102
f 92/143/103 91/142/103 93/144/103 94/145/103
f 94/145/104 93/144/104 80/146/104 79/147/104
f 80/131/105 95/148/105 96/149/105 81/132/105
f 81/132/106 96/149/106 97/150/106 83/134/106
f 83/134/107 97/150/107 98/151/107 85/136/107
f 85/136/108 98/151/108 99/152/108 87/138/108
f 87/138/109 99/152/109 100/153/109 89/140/109
f 89/140/110 100/153/110 101/154/110 91/142/110
f 91/142/111 101/154/111 102/155/111 93/144/111
f 93/144/112 102/155/112 95/156/112 80/146/112
f 103/157/113 79/130/113 82/133/113
f 96/149/114 95/148/114 104/158/114
f 103/159/115 82/133/115 84/135/115
f 97/150/116 96/149/116 104/160/116
f 103/161/117 84/135/117 86/137/117
f 98/151/118 97/150/118 104/162/118
f 103/163/119 86/137/119 88/139/119
f 99/152/120 98/151/120 104/164/120
f 103/165/121 88/139/121 90/141/121
f 100/153/122 99/152/122 104/166/122
f 103/167/123 90/141/123 92/143/123
f 101/154/124 100/153/124 104/168/124
f 103/169/125 92/143/125 94/145/125
f 102/155/126 101/154/126 104/170/126
f 103/171/127 94/145/127 79/147/127
f 95/156/128 102/155/128 104/172/128
v -0.465024 2.766623 1.253765
v -0.614163 3.147258 1.146545
v -0.878211 2.910361 0.916806
v -0.651735 2.599112 1.091316
v -0.838688 2.663870 0.575777
v -0.623787 2.424817 0.850171
v -0.518744 2.552176 0.323226
v -0.397553 2.345837 0.671591
v -0.105800 2.640707 0.307095
v -0.105557 2.408438 0.660185
v 0.158249 2.877604 0.536834
v 0.081154 2.575949 0.822634
v 0.118725 3.124095 0.877863
v 0.053206 2.750244 1.063779
v -0.201218 3.235789 1.130414
v -0.173028 2.829224 1.242359
v -0.614406 3.379527 0.793455
v -0.801116 3.212016 0.631006
v -0.773169 3.037720 0.389861
v -0.546934 2.958740 0.211281
v -0.254938 3.021342 0.199875
v -0.068228 3.188853 0.362324
v -0.096175 3.363148 0.603469
v -0.322410 3.442128 0.782049
v -0.254353 2.460594 1.052308
v -0.465610 3.327371 0.401332
vt 0.000000 -0.750000
vt 0.000000 -0.500000
vt 0.125000 -0.500000
vt 0.125000 -0.750000
vt 0.250000 -0.500000
vt 0.250000 -0.750000
vt 0.375000 -0.500000
vt 0.375000 -0.750000
vt 0.500000 -0.500000
vt 0.500000 -0.750000
vt 0.625000 -0.500000
vt 0.625000 -0.750000
vt 0.750000 -0.500000
vt 0.750000 -0.750000
vt 0.875000 -0.500000
vt 0.875000 -0.750000
vt 1.000000 -0.500000
vt 1.000000 -0.750000
vt 0.000000 -0.250000
vt 0.125000 -0.250000
vt 0.250000 -0.250000
vt 0.375000 -0.250000
vt 0.500000 -0.250000
vt 0.625000 -0.250000
vt 0.750000 -0.250000
vt 0.875000 -0.250000
vt 1.000000 -0.250000
vt 0.000000 -1.000000
vt 0.000000 -0.000000
vt 0.125000 -1.000000
vt 0.125000 -0.000000
vt 0.250000 -1.000000
vt 0.250000 -0.000000
vt 0.375000 -1.000000
vt 0.375000 -0.000000
vt 0.500000 -1.000000
vt 0.500000 -0.000000
vt 0.625000 -1.000000
vt 0.625000 -0.000000
vt 0.750000 -1.000000
vt 0.750000 -0.000000
vt 0.875000 -1.000000
vt 0.875000 -0.000000
vn -0.6386 -0.0337 0.7688
vn -0.8442 -0.4761 0.2463
vn -0.5151 -0.8040 -0.2970
vn 0.1557 -0.8252 -0.5429
vn 0.7754 -0.5273 -0.3474
vn 0.9809 -0.0849 0.1750
vn 0.6519 0.2430 0.7183
vn -0.0190 0.2642 0.9643
vn -0.7754 0.5273 0.3474
vn -0.9809 0.0849 -0.1750
vn -0.6519 -0.2430 -0.7183
vn 0.0190 -0.2642 -0.9643
vn 0.6386 0.0337 -0.7688
vn 0.8442 0.4761 -0.2463
vn 0.5151 0.8040 0.2970
vn -0.1557 0.8252 0.5429
vn -0.1352 -0.6080 0.7823
vn -0.4842 0.8243 -0.2934
vn -0.2252 -0.8019 0.5535
vn -0.5743 0.6305 -0.5222
vn -0.0810 -0.9455 0.3155
vn -0.4301 0.4868 -0.7602
vn 0.2128 -0.9548 0.2077
vn -0.1363 0.4776 -0.8680
vn 0.4842 -0.8243 0.2934
vn 0.1352 0.6080 -0.7823
vn 0.5743 -0.6305 0.5222
vn 0.2252 0.8019 -0.5535
vn 0.4301 -0.4868 0.7602
vn 0.0810 0.9455 -0.3155
vn 0.1363 -0.4776 0.8680
vn -0.2128 0.9548 -0.2077
s off
f 105/173/129 106/174/129 107/175/129 108/176/129
f 108/176/130 107/175/130 109/177/130 110/178/130
f 110/178/131 109/177/131 111/179/131 112/180/131
f 112/180/132 111/179/132 113/181/132 114/182/132
f 114/182/133 113/181/133 115/183/133 116/184/133
f 116/184/134 115/183/134 117/185/134 118/186/134
f 118/186/135 117/185/135 119/187/135 120/188/135
f 120/188/136 119/187/136 106/189/136 105/190/136
f 106/174/137 121/191/137 122/192/137 107/175/137
f 107/175/138 122/192/138 123/193/138 109/177/138
f 109/177/139 123/193/139 124/194/139 111/179/139
f 111/179/140 124/194/140 125/195/140 113/181/140
f 113/181/141 125/195/141 126/196/141 115/183/141
f 115/183/142 126/196/142 127/197/142 117/185/142
f 117/185/143 127/197/143 128/198/143 119/187/143
f 119/187/144 128/198/144 121/199/144 106/189/144
f 129/200/145 105/173/145 108/176/145
f 122/192/146 121/191/146 130/201/146
f 129/202/147 108/176/147 110/178/147
f 123/193/148 122/192/148 130/203/148
f 129/204/149 110/178/149 112/180/149
f 124/194/150 123/193/150 130/205/150
f 129/206/151 112/180/151 114/182/151
f 125/195/152 124/194/152 130/207/152
f 129/208/153 114/182/153 116/184/153
f 126/196/154 125/195/154 130/209/154
f 129/210/155 116/184/155 118/186/155
f 127/197/156 126/196/156 130/211/156
f 129/212/157 118/186/157 120/188/157
f 128/198/158 127/197/158 130/213/158
f 129/214/159 120/188/159 105/190/159
f 121/199/160 128/198/160 130/215/160
