# Blender v2.79 (sub 0) OBJ File: 'Tree.blend'
# www.blender.org
v 0.856185 2.555971 1.465952
v 0.858351 3.254456 1.540570
v 0.656904 3.082128 2.191090
v 0.713740 2.434117 1.925939
v 0.077395 2.803898 2.474306
v 0.303966 2.237378 2.126203
v -0.540708 2.582748 2.224313
v -0.133099 2.081002 1.949432
v -0.835328 2.548226 1.587555
v -0.341427 2.056591 1.499176
v -0.633881 2.720555 0.937035
v -0.198983 2.178445 1.039189
v -0.054372 2.998785 0.653819
v 0.210792 2.375184 0.838925
v 0.563731 3.219934 0.903811
v 0.647857 2.531560 1.015696
v 0.364450 3.746091 1.628949
v 0.222006 3.624237 2.088936
v -0.187769 3.427498 2.289201
v -0.624834 3.271122 2.112429
v -0.833161 3.246711 1.662173
v -0.690717 3.368566 1.202186
v -0.280942 3.565305 1.001922
v 0.156122 3.721681 1.178693
v 0.359220 2.059799 1.448806
v -0.336197 3.742884 1.679319
v -0.242197 2.810371 0.358638
v -0.252496 2.333664 0.276030
v -0.166151 2.321255 0.752024
v -0.181142 2.801597 0.695217
v 0.208755 2.437810 1.034937
v 0.083957 2.884014 0.895267
v 0.652607 2.615054 0.959044
v 0.397808 3.009344 0.841602
v 0.905402 2.749158 0.568800
v 0.576561 3.104170 0.565658
v 0.819057 2.761568 0.092806
v 0.515506 3.112945 0.229080
v 0.444152 2.645012 -0.190107
v 0.250407 3.030528 0.029029
v 0.000300 2.467769 -0.114214
v -0.063443 2.905198 0.082694
v 0.076345 1.978653 0.279172
v 0.137400 1.969878 0.615750
v 0.402499 2.052295 0.815800
v 0.716350 2.177625 0.762135
v 0.895103 2.272451 0.486192
v 0.834048 2.281226 0.149613
v 0.568949 2.198809 -0.050437
v 0.255099 2.073479 0.003228
v 0.101210 3.129525 0.478606
v 0.551696 1.953298 0.366224
v -0.299396 3.330345 0.440597
v 0.005756 3.396027 0.057169
v -0.347346 3.715560 -0.075747
v -0.549077 3.556289 0.346611
v -0.815420 3.675190 -0.229778
v -0.880056 3.527744 0.237695
v -1.124276 3.298565 -0.314694
v -1.098450 3.261430 0.177650
v -1.092990 2.806307 -0.280754
v -1.076327 2.913351 0.201650
v -0.739888 2.486773 -0.147838
v -0.826646 2.687406 0.295635
v -0.271813 2.527143 0.006193
v -0.495668 2.715952 0.404552
v 0.037042 2.903768 0.091110
v -0.277274 2.982266 0.464597
v -0.010907 3.288983 -0.425234
v -0.260588 3.514927 -0.519220
v -0.591566 3.486381 -0.628136
v -0.809960 3.220067 -0.688181
v -0.787837 2.871988 -0.664182
v -0.538157 2.646044 -0.570196
v -0.207178 2.674589 -0.461280
v 0.011216 2.940903 -0.401235
v -0.747610 3.130414 0.500443
v -0.339624 3.071919 -0.724028
v -0.635159 2.652966 -0.118317
v -0.625975 2.201633 -0.507399
v -0.191094 2.013927 -0.145715
v -0.327652 2.520238 0.137433
v 0.362470 2.196793 -0.022032
v 0.063777 2.649543 0.224890
v 0.710448 2.643110 -0.208804
v 0.309834 2.965137 0.092822
v 0.648998 3.091432 -0.596621
v 0.266383 3.282148 -0.181406
v 0.214117 3.279137 -0.958306
v -0.041124 3.414876 -0.437156
v -0.339447 3.096272 -1.081988
v -0.432553 3.285570 -0.524613
v -0.687425 2.649955 -0.895217
v -0.678611 2.969977 -0.392545
v -0.243359 2.010916 -0.922614
v 0.064148 1.878189 -0.666865
v 0.455577 2.007494 -0.579408
v 0.701634 2.323088 -0.711475
v 0.658182 2.640099 -0.985704
v 0.350675 2.772827 -1.241454
v -0.040754 2.643521 -1.328910
v -0.286811 2.327928 -1.196843
v -0.265532 3.100530 0.016714
v 0.288556 2.192535 -1.120735
v -0.465024 2.766623 1.253765
v -0.614163 3.147258 1.146545
v -0.878211 2.910361 0.916806
v -0.651735 2.599112 1.091316
v -0.838688 2.663870 0.575777
v -0.623787 2.424817 0.850171
v -0.518744 2.552176 0.323226
v -0.397553 2.345837 0.671591
v -0.105800 2.640707 0.307095
v -0.105557 2.408438 0.660185
v 0.158249 2.877604 0.536834
v 0.081154 2.575949 0.822634
v 0.118725 3.124095 0.877863
v 0.053206 2.750245 1.063779
v -0.201218 3.235789 1.130414
v -0.173028 2.829224 1.242359
v -0.614406 3.379527 0.793455
v -0.801116 3.212016 0.631006
v -0.773169 3.037720 0.389861
v -0.546934 2.958740 0.211281
v -0.254938 3.021342 0.199875
v -0.068228 3.188853 0.362324
v -0.096175 3.363148 0.603469
v -0.322410 3.442128 0.782049
v -0.254353 2.460594 1.052308
v -0.465610 3.327371 0.401332
s off
f 1 3 4
f 4 5 6
f 5 8 6
f 8 9 10
f 10 11 12
f 12 13 14
f 13 16 14
f 16 2 1
f 17 3 2
f 18 5 3
f 19 7 5
f 7 21 9
f 21 11 9
f 22 13 11
f 23 15 13
f 15 17 2
f 25 1 4
f 18 17 26
f 25 4 6
f 19 18 26
f 25 6 8
f 20 19 26
f 25 8 10
f 21 20 26
f 25 10 12
f 22 21 26
f 25 12 14
f 23 22 26
f 25 14 16
f 24 23 26
f 25 16 1
f 17 24 26
f 27 29 30
f 29 32 30
f 32 33 34
f 33 36 34
f 36 37 38
f 37 40 38
f 39 42 40
f 42 28 27
f 28 44 29
f 29 45 31
f 31 46 33
f 33 47 35
f 47 37 35
f 48 39 37
f 49 41 39
f 50 28 41
f 51 27 30
f 44 43 52
f 51 30 32
f 45 44 52
f 51 32 34
f 46 45 52
f 51 34 36
f 47 46 52
f 51 36 38
f 48 47 52
f 51 38 40
f 49 48 52
f 51 40 42
f 50 49 52
f 51 42 27
f 43 50 52
f 54 56 53
f 55 58 56
f 57 60 58
f 60 61 62
f 61 64 62
f 64 65 66
f 66 67 68
f 67 53 68
f 69 55 54
f 70 57 55
f 71 59 57
f 59 73 61
f 73 63 61
f 63 75 65
f 75 67 65
f 67 69 54
f 77 53 56
f 70 69 78
f 77 56 58
f 71 70 78
f 77 58 60
f 72 71 78
f 77 60 62
f 73 72 78
f 77 62 64
f 74 73 78
f 77 64 66
f 75 74 78
f 77 66 68
f 76 75 78
f 77 68 53
f 69 76 78
f 79 81 82
f 81 84 82
f 83 86 84
f 85 88 86
f 87 90 88
f 90 91 92
f 91 94 92
f 93 79 94
f 95 81 80
f 96 83 81
f 97 85 83
f 98 87 85
f 87 100 89
f 100 91 89
f 91 102 93
f 102 80 93
f 103 79 82
f 96 95 104
f 103 82 84
f 97 96 104
f 103 84 86
f 98 97 104
f 103 86 88
f 99 98 104
f 103 88 90
f 100 99 104
f 103 90 92
f 101 100 104
f 103 92 94
f 102 101 104
f 103 94 79
f 95 102 104
f 106 108 105
f 107 110 108
f 109 112 110
f 112 113 114
f 113 116 114
f 115 118 116
f 118 119 120
f 120 106 105
f 121 107 106
f 107 123 109
f 109 124 111
f 111 125 113
f 125 115 113
f 126 117 115
f 117 128 119
f 119 121 106
f 129 105 108
f 122 121 130
f 129 108 110
f 123 122 130
f 129 110 112
f 124 123 130
f 129 112 114
f 125 124 130
f 129 114 116
f 126 125 130
f 129 116 118
f 127 126 130
f 129 118 120
f 128 127 130
f 129 120 105
f 121 128 130
f 1 2 3
f 4 3 5
f 5 7 8
f 8 7 9
f 10 9 11
f 12 11 13
f 13 15 16
f 16 15 2
f 17 18 3
f 18 19 5
f 19 20 7
f 7 20 21
f 21 22 11
f 22 23 13
f 23 24 15
f 15 24 17
f 27 28 29
f 29 31 32
f 32 31 33
f 33 35 36
f 36 35 37
f 37 39 40
f 39 41 42
f 42 41 28
f 28 43 44
f 29 44 45
f 31 45 46
f 33 46 47
f 47 48 37
f 48 49 39
f 49 50 41
f 50 43 28
f 54 55 56
f 55 57 58
f 57 59 60
f 60 59 61
f 61 63 64
f 64 63 65
f 66 65 67
f 67 54 53
f 69 70 55
f 70 71 57
f 71 72 59
f 59 72 73
f 73 74 63
f 63 74 75
f 75 76 67
f 67 76 69
f 79 80 81
f 81 83 84
f 83 85 86
f 85 87 88
f 87 89 90
f 90 89 91
f 91 93 94
f 93 80 79
f 95 96 81
f 96 97 83
f 97 98 85
f 98 99 87
f 87 99 100
f 100 101 91
f 91 101 102
f 102 95 80
f 106 107 108
f 107 109 110
f 109 111 112
f 112 111 113
f 113 115 116
f 115 117 118
f 118 117 119
f 120 119 106
f 121 122 107
f 107 122 123
f 109 123 124
f 111 124 125
f 125 126 115
f 126 127 117
f 117 127 128
f 119 128 121
