# Blender v2.79 (sub 0) OBJ File: ''
# www.blender.org
v -0.286987 -0.000000 -0.315552
v -0.217377 0.205924 -0.245943
v 0.240400 0.205924 -0.245943
v 0.310010 -0.000000 -0.315552
v 0.240400 0.205924 0.211835
v 0.310010 -0.000000 0.281445
v -0.217377 0.205924 0.211835
v -0.286987 -0.000000 0.281445
v -0.099288 2.843450 1.452678
v -0.099288 2.843450 1.674276
v 0.122311 2.843450 1.674276
v 0.122311 2.843450 1.452678
v -0.163186 0.782117 -0.066538
v 0.186210 0.782117 -0.066538
v 0.186210 0.782117 0.282858
v -0.163186 0.782117 0.282858
v -0.125123 2.272274 1.443762
v -0.125123 2.272274 1.170493
v -0.156174 1.585793 0.389804
v 0.179197 1.585793 0.389804
v 0.179197 1.585793 0.725174
v -0.156174 1.585793 0.725174
v -0.028544 2.523395 -0.473962
v -0.025452 2.523080 -0.384463
v 0.048475 2.523080 -0.384463
v 0.051567 2.523395 -0.473962
v 0.166253 1.871957 0.631648
v 0.166253 1.871957 0.941131
v -0.143230 1.871957 0.941131
v -0.143230 1.871957 0.631648
v 0.148146 2.272274 1.170493
v 0.148146 2.272274 1.443762
v -0.109894 1.794663 -0.015959
v 0.132917 1.794663 -0.015959
v 0.123546 1.976946 0.170643
v 0.088491 2.187479 -0.154789
v -0.065468 2.187479 -0.154789
v -0.071907 2.118690 -0.311743
v 0.094930 2.118690 -0.311743
v -0.100522 1.976946 0.170643
s off
f 1 2 3 4
f 4 3 5 6
f 6 5 7 8
f 8 7 2 1
f 9 10 11 12
f 8 1 4 6
f 2 13 14 3
f 3 14 15 5
f 5 15 16 7
f 17 10 9 18
f 13 19 20 14
f 14 20 21 15
f 15 21 22 16
f 13 2 7 16
f 19 13 16 22
f 23 24 25 26
f 20 27 28 21
f 21 28 29 22
f 30 19 22 29
f 30 18 31 27
f 27 31 32 28
f 28 32 17 29
f 19 33 34 20
f 20 34 35 27
f 36 25 24 37
f 37 24 23 38
f 33 38 39 34
f 34 39 36 35
f 40 30 27 35
f 33 19 30 40
f 37 40 35 36
f 38 33 40 37
f 38 23 26 39
f 39 26 25 36
f 18 30 29 17
f 18 9 12 31
f 31 12 11 32
f 32 11 10 17
