# Blender v2.79 (sub 0) OBJ File: 'FirstRoom.blend'
# www.blender.org
v 0.451808 8.513748 0.270052
v 0.451808 8.969509 0.270052
v -0.701164 8.513748 0.270052
v -0.846425 8.969509 0.270052
v 0.451808 8.513748 -0.270056
v 0.451808 8.969509 -0.270056
v -0.701164 8.513748 -0.270056
v -0.846425 8.969509 -0.270056
v 0.360847 9.062321 0.234843
v -0.755464 9.062321 0.234843
v -0.755464 9.062321 -0.234847
v 0.360847 9.062321 -0.234847
v -0.320084 -0.000001 -0.028004
v -0.202291 8.513745 -0.017698
v -0.308470 -0.000001 -0.089911
v -0.194951 8.513745 -0.056823
v -0.285003 -0.000001 -0.148363
v -0.180119 8.513745 -0.093764
v -0.250582 -0.000001 -0.201113
v -0.158366 8.513745 -0.127102
v -0.206532 -0.000001 -0.246135
v -0.130527 8.513745 -0.155556
v -0.154545 -0.000001 -0.281698
v -0.097671 8.513745 -0.178031
v -0.096619 -0.000001 -0.306436
v -0.061062 8.513745 -0.193665
v -0.034980 -0.000001 -0.319397
v -0.022107 8.513745 -0.201857
v 0.028004 -0.000001 -0.320084
v 0.017698 8.513745 -0.202291
v 0.089911 -0.000001 -0.308471
v 0.056823 8.513745 -0.194951
v 0.148363 -0.000001 -0.285003
v 0.093764 8.513745 -0.180119
v 0.201113 -0.000001 -0.250582
v 0.127102 8.513745 -0.158366
v 0.246135 -0.000001 -0.206532
v 0.155556 8.513745 -0.130527
v 0.281698 -0.000001 -0.154545
v 0.178031 8.513745 -0.097671
v 0.306436 -0.000001 -0.096619
v 0.193665 8.513745 -0.061062
v 0.319397 -0.000001 -0.034980
v 0.201857 8.513745 -0.022107
v 0.320084 -0.000001 0.028004
v 0.202291 8.513745 0.017698
v 0.308470 -0.000001 0.089911
v 0.194951 8.513745 0.056823
v 0.285002 -0.000001 0.148363
v 0.180119 8.513745 0.093764
v 0.250582 -0.000001 0.201114
v 0.158366 8.513745 0.127102
v 0.206532 -0.000001 0.246135
v 0.130527 8.513745 0.155556
v 0.154545 -0.000001 0.281698
v 0.097671 8.513745 0.178031
v 0.096619 -0.000001 0.306436
v 0.061062 8.513745 0.193665
v 0.034979 -0.000001 0.319397
v 0.022107 8.513745 0.201857
v -0.028004 -0.000001 0.320084
v -0.017698 8.513745 0.202291
v -0.089911 -0.000001 0.308470
v -0.056823 8.513745 0.194951
v -0.148363 -0.000001 0.285002
v -0.093764 8.513745 0.180119
v -0.201114 -0.000001 0.250582
v -0.127102 8.513745 0.158366
v -0.246136 -0.000001 0.206532
v -0.155556 8.513745 0.130526
v -0.281698 -0.000001 0.154545
v -0.178031 8.513745 0.097671
v -0.306436 -0.000001 0.096618
v -0.193665 8.513745 0.061062
v -0.319397 -0.000001 0.034979
v -0.201857 8.513745 0.022107
vn 0.0000 0.0000 1.0000
vn -0.9528 -0.3037 0.0000
vn -0.0000 0.0000 -1.0000
vn 1.0000 0.0000 0.0000
vn 0.0000 -1.0000 0.0000
vn -0.7142 0.7000 0.0000
vn 0.0000 1.0000 0.0000
vn -0.0000 0.3547 -0.9350
vn 0.0000 0.3547 0.9350
vn 0.7142 0.6999 -0.0000
vn -0.9828 0.0138 -0.1844
vn -0.9279 0.0138 -0.3725
vn -0.8374 0.0138 -0.5464
vn -0.7147 0.0138 -0.6993
vn -0.5646 0.0138 -0.8253
vn -0.3927 0.0138 -0.9196
vn -0.2058 0.0138 -0.9785
vn -0.0109 0.0138 -0.9998
vn 0.1844 0.0138 -0.9828
vn 0.3725 0.0138 -0.9279
vn 0.5464 0.0138 -0.8374
vn 0.6993 0.0138 -0.7147
vn 0.8253 0.0138 -0.5646
vn 0.9196 0.0138 -0.3927
vn 0.9785 0.0138 -0.2058
vn 0.9998 0.0138 -0.0109
vn 0.9828 0.0138 0.1844
vn 0.9279 0.0138 0.3725
vn 0.8374 0.0138 0.5464
vn 0.7147 0.0138 0.6993
vn 0.5646 0.0138 0.8253
vn 0.3927 0.0138 0.9196
vn 0.2058 0.0138 0.9785
vn 0.0109 0.0138 0.9998
vn -0.1844 0.0138 0.9828
vn -0.3725 0.0138 0.9279
vn -0.5464 0.0138 0.8374
vn -0.6993 0.0138 0.7147
vn -0.8253 0.0138 0.5646
vn -0.9196 0.0138 0.3927
vn -0.9785 0.0138 0.2058
vn -0.9998 0.0138 0.0109
vn -0.7142 0.6999 0.0000
vn 0.7142 0.7000 0.0000
s off
f 2//1 3//1 1//1
f 4//2 7//2 3//2
f 7//3 6//3 5//3
f 6//4 1//4 5//4
f 7//5 1//5 3//5
f 4//6 11//6 8//6
f 10//7 12//7 11//7
f 8//8 12//8 6//8
f 2//9 10//9 4//9
f 2//10 12//10 9//10
f 14//11 15//11 13//11
f 16//12 17//12 15//12
f 18//13 19//13 17//13
f 20//14 21//14 19//14
f 22//15 23//15 21//15
f 24//16 25//16 23//16
f 26//17 27//17 25//17
f 27//18 30//18 29//18
f 30//19 31//19 29//19
f 31//20 34//20 33//20
f 34//21 35//21 33//21
f 36//22 37//22 35//22
f 38//23 39//23 37//23
f 40//24 41//24 39//24
f 42//25 43//25 41//25
f 44//26 45//26 43//26
f 46//27 47//27 45//27
f 48//28 49//28 47//28
f 50//29 51//29 49//29
f 52//30 53//30 51//30
f 54//31 55//31 53//31
f 55//32 58//32 57//32
f 58//33 59//33 57//33
f 60//34 61//34 59//34
f 62//35 63//35 61//35
f 64//36 65//36 63//36
f 66//37 67//37 65//37
f 68//38 69//38 67//38
f 70//39 71//39 69//39
f 72//40 73//40 71//40
f 74//41 75//41 73//41
f 76//42 13//42 75//42
f 2//1 4//1 3//1
f 4//2 8//2 7//2
f 7//3 8//3 6//3
f 6//4 2//4 1//4
f 7//5 5//5 1//5
f 4//43 10//43 11//43
f 10//7 9//7 12//7
f 8//8 11//8 12//8
f 2//9 9//9 10//9
f 2//44 6//44 12//44
f 14//11 16//11 15//11
f 16//12 18//12 17//12
f 18//13 20//13 19//13
f 20//14 22//14 21//14
f 22//15 24//15 23//15
f 24//16 26//16 25//16
f 26//17 28//17 27//17
f 27//18 28//18 30//18
f 30//19 32//19 31//19
f 31//20 32//20 34//20
f 34//21 36//21 35//21
f 36//22 38//22 37//22
f 38//23 40//23 39//23
f 40//24 42//24 41//24
f 42//25 44//25 43//25
f 44//26 46//26 45//26
f 46//27 48//27 47//27
f 48//28 50//28 49//28
f 50//29 52//29 51//29
f 52//30 54//30 53//30
f 54//31 56//31 55//31
f 55//32 56//32 58//32
f 58//33 60//33 59//33
f 60//34 62//34 61//34
f 62//35 64//35 63//35
f 64//36 66//36 65//36
f 66//37 68//37 67//37
f 68//38 70//38 69//38
f 70//39 72//39 71//39
f 72//40 74//40 73//40
f 74//41 76//41 75//41
f 76//42 14//42 13//42
