# Blender v2.79 (sub 0) OBJ File: 'FirstRoom.blend'
# www.blender.org
v 0.059470 -0.184573 0.116168
v 0.066770 -2.060745 3.282997
v -0.021079 -0.196873 0.109066
v -0.013780 -2.073045 3.275895
v 0.021079 0.003985 0.225032
v 0.013779 -1.800481 3.433260
v -0.059471 -0.008315 0.217931
v -0.066771 -1.812781 3.426158
v 0.111290 -0.860815 0.699689
v 0.111290 -1.145859 1.193399
v 0.030740 -1.158159 1.186297
v 0.030740 -0.873116 0.692587
v -0.111290 -0.460581 1.589044
v -0.111290 -0.175537 1.095334
v -0.030741 -0.448280 1.596146
v -0.030741 -0.163237 1.102436
v -0.040275 -0.102594 0.163498
v -0.040275 -1.942913 3.351027
v 0.040274 -0.090294 0.170600
v 0.040274 -1.930613 3.358128
v 0.159821 -0.493771 0.911602
v 0.159821 -0.778814 1.405312
v 0.079272 -0.506071 0.904500
v 0.079272 -0.791115 1.398211
v -0.013758 -0.443700 0.453536
v -0.066792 -0.183221 0.603923
v 0.013757 -0.170920 0.611025
v 0.066792 -0.431400 0.460637
v 0.019498 -0.304333 0.533999
v 0.100048 -0.292032 0.541101
v 0.059470 -0.008315 -0.217930
v 0.066770 -1.812781 -3.426157
v -0.021079 0.003985 -0.225032
v -0.013780 -1.800482 -3.433259
v 0.021079 -0.196873 -0.109066
v 0.013779 -2.073045 -3.275894
v -0.059471 -0.184573 -0.116168
v -0.066771 -2.060746 -3.282996
v 0.111289 -0.175537 -1.095334
v 0.111289 -0.460581 -1.589044
v 0.030740 -0.448281 -1.596145
v 0.030740 -0.163237 -1.102435
v -0.111290 -1.145859 -1.193398
v -0.111290 -0.860815 -0.699688
v -0.030741 -1.158159 -1.186297
v -0.030741 -0.873116 -0.692587
v -0.040275 -0.090294 -0.170600
v -0.040275 -1.930613 -3.358127
v 0.040274 -0.102594 -0.163498
v 0.040274 -1.942914 -3.351026
v 0.159821 -0.542582 -0.883421
v 0.159821 -0.827625 -1.377131
v 0.079272 -0.530281 -0.890522
v 0.079272 -0.815325 -1.384232
v -0.013758 -0.170920 -0.611025
v -0.066792 -0.431400 -0.460637
v 0.013757 -0.443700 -0.453536
v 0.066792 -0.183221 -0.603923
v 0.019498 -0.310288 -0.530561
v 0.100048 -0.322588 -0.523460
v 0.011332 0.201136 -0.039182
v 0.011332 0.189707 -0.076859
v 0.011332 0.171147 -0.111582
v 0.011332 0.146170 -0.142017
v 0.011332 0.115735 -0.166995
v 0.011332 0.081012 -0.185555
v 0.011332 0.043335 -0.196984
v 0.011332 0.004152 -0.200843
v 0.011332 -0.035030 -0.196984
v 0.011332 -0.072707 -0.185555
v 0.011332 -0.107430 -0.166995
v 0.011332 -0.137865 -0.142017
v 0.011332 -0.162843 -0.111582
v 0.011332 -0.181402 -0.076859
v 0.011332 -0.192832 -0.039182
v 0.018976 0.201136 -0.038430
v 0.026327 0.189707 -0.075382
v 0.033101 0.171147 -0.109438
v 0.039038 0.146170 -0.139289
v 0.043911 0.115735 -0.163786
v 0.047532 0.081012 -0.181989
v 0.049762 0.043335 -0.193199
v 0.050515 0.004152 -0.196984
v 0.049762 -0.035030 -0.193199
v 0.047532 -0.072707 -0.181989
v 0.043911 -0.107430 -0.163786
v 0.039038 -0.137865 -0.139289
v 0.033101 -0.162843 -0.109438
v 0.026327 -0.181402 -0.075382
v 0.018976 -0.192832 -0.038430
v 0.026327 0.201136 -0.036200
v 0.040745 0.189707 -0.071009
v 0.054033 0.171147 -0.103089
v 0.065680 0.146170 -0.131207
v 0.075238 0.115735 -0.154283
v 0.082341 0.081012 -0.171430
v 0.086715 0.043335 -0.181989
v 0.088191 0.004152 -0.185555
v 0.086715 -0.035030 -0.181989
v 0.082341 -0.072707 -0.171430
v 0.075238 -0.107430 -0.154283
v 0.065680 -0.137865 -0.131207
v 0.054033 -0.162843 -0.103089
v 0.040745 -0.181402 -0.071009
v 0.026327 -0.192832 -0.036200
v 0.033101 0.201136 -0.032579
v 0.054033 0.189707 -0.063906
v 0.073324 0.171147 -0.092777
v 0.090233 0.146170 -0.118083
v 0.104109 0.115735 -0.138851
v 0.114421 0.081012 -0.154283
v 0.120770 0.043335 -0.163786
v 0.122915 0.004152 -0.166995
v 0.120770 -0.035030 -0.163786
v 0.114421 -0.072707 -0.154283
v 0.104109 -0.107430 -0.138851
v 0.090233 -0.137865 -0.118083
v 0.073324 -0.162843 -0.092777
v 0.054033 -0.181402 -0.063906
v 0.033101 -0.192832 -0.032579
v 0.039038 0.201136 -0.027706
v 0.065680 0.189707 -0.054348
v 0.090233 0.171147 -0.078901
v 0.111754 0.146170 -0.100421
v 0.129415 0.115735 -0.118083
v 0.142539 0.081012 -0.131207
v 0.150621 0.043335 -0.139289
v 0.153350 0.004152 -0.142017
v 0.150621 -0.035030 -0.139289
v 0.142539 -0.072707 -0.131207
v 0.129415 -0.107430 -0.118083
v 0.111754 -0.137865 -0.100421
v 0.090233 -0.162843 -0.078901
v 0.065680 -0.181402 -0.054348
v 0.039038 -0.192832 -0.027706
v 0.043911 0.201136 -0.021769
v 0.075238 0.189707 -0.042701
v 0.104109 0.171147 -0.061992
v 0.129415 0.146170 -0.078901
v 0.150183 0.115735 -0.092777
v 0.165615 0.081012 -0.103089
v 0.175118 0.043335 -0.109438
v 0.178327 0.004152 -0.111582
v 0.175118 -0.035030 -0.109438
v 0.165615 -0.072707 -0.103089
v 0.150183 -0.107430 -0.092777
v 0.129415 -0.137865 -0.078901
v 0.104109 -0.162843 -0.061992
v 0.075238 -0.181402 -0.042701
v 0.043911 -0.192832 -0.021769
v 0.011332 -0.196691 0.000000
v 0.047532 0.201136 -0.014994
v 0.082341 0.189707 -0.029413
v 0.114421 0.171147 -0.042701
v 0.142539 0.146170 -0.054348
v 0.165615 0.115735 -0.063906
v 0.182762 0.081012 -0.071009
v 0.193321 0.043335 -0.075382
v 0.196887 0.004152 -0.076859
v 0.193321 -0.035030 -0.075382
v 0.182762 -0.072707 -0.071009
v 0.165615 -0.107430 -0.063906
v 0.142539 -0.137865 -0.054348
v 0.114421 -0.162843 -0.042701
v 0.082341 -0.181402 -0.029413
v 0.047532 -0.192832 -0.014994
v 0.049762 0.201136 -0.007644
v 0.086715 0.189707 -0.014994
v 0.120770 0.171147 -0.021769
v 0.150621 0.146170 -0.027706
v 0.175118 0.115735 -0.032579
v 0.193321 0.081012 -0.036200
v 0.204531 0.043335 -0.038430
v 0.208316 0.004152 -0.039182
v 0.204531 -0.035030 -0.038430
v 0.193321 -0.072707 -0.036200
v 0.175118 -0.107430 -0.032579
v 0.150621 -0.137865 -0.027706
v 0.120770 -0.162843 -0.021769
v 0.086715 -0.181402 -0.014994
v 0.049762 -0.192832 -0.007644
v 0.050515 0.201136 0.000000
v 0.088191 0.189707 0.000000
v 0.122915 0.171147 0.000000
v 0.153350 0.146170 0.000000
v 0.178327 0.115735 0.000000
v 0.196887 0.081012 0.000000
v 0.208316 0.043335 0.000000
v 0.212175 0.004152 0.000000
v 0.208316 -0.035030 0.000000
v 0.196887 -0.072707 0.000000
v 0.178327 -0.107430 0.000000
v 0.153350 -0.137865 0.000000
v 0.122914 -0.162843 0.000000
v 0.088191 -0.181402 0.000000
v 0.050515 -0.192832 0.000000
v 0.049762 0.201136 0.007644
v 0.086715 0.189707 0.014995
v 0.120770 0.171147 0.021769
v 0.150621 0.146170 0.027706
v 0.175118 0.115735 0.032579
v 0.193321 0.081012 0.036200
v 0.204531 0.043335 0.038430
v 0.208316 0.004152 0.039183
v 0.204531 -0.035030 0.038430
v 0.193321 -0.072707 0.036200
v 0.175118 -0.107430 0.032579
v 0.150621 -0.137865 0.027706
v 0.120770 -0.162843 0.021769
v 0.086715 -0.181402 0.014995
v 0.049762 -0.192832 0.007644
v 0.047532 0.201136 0.014995
v 0.082341 0.189707 0.029413
v 0.114421 0.171147 0.042701
v 0.142539 0.146170 0.054348
v 0.165615 0.115735 0.063906
v 0.182762 0.081012 0.071009
v 0.193321 0.043335 0.075383
v 0.196887 0.004152 0.076859
v 0.193321 -0.035030 0.075383
v 0.182762 -0.072707 0.071009
v 0.165615 -0.107430 0.063906
v 0.142539 -0.137865 0.054348
v 0.114421 -0.162843 0.042701
v 0.082341 -0.181402 0.029413
v 0.047532 -0.192832 0.014995
v 0.043911 0.201136 0.021769
v 0.075238 0.189707 0.042701
v 0.104109 0.171147 0.061992
v 0.129415 0.146170 0.078901
v 0.150183 0.115735 0.092777
v 0.165615 0.081012 0.103089
v 0.175118 0.043335 0.109438
v 0.178327 0.004152 0.111583
v 0.175118 -0.035030 0.109438
v 0.165615 -0.072707 0.103089
v 0.150183 -0.107430 0.092777
v 0.129415 -0.137865 0.078901
v 0.104109 -0.162843 0.061992
v 0.075238 -0.181402 0.042701
v 0.043911 -0.192832 0.021769
v 0.011332 0.204995 0.000000
v 0.039038 0.201136 0.027706
v 0.065680 0.189707 0.054348
v 0.090233 0.171147 0.078901
v 0.111754 0.146170 0.100422
v 0.129415 0.115735 0.118083
v 0.142539 0.081012 0.131207
v 0.150621 0.043335 0.139289
v 0.153350 0.004152 0.142018
v 0.150621 -0.035030 0.139289
v 0.142539 -0.072707 0.131207
v 0.129415 -0.107430 0.118083
v 0.111754 -0.137865 0.100422
v 0.090233 -0.162843 0.078901
v 0.065680 -0.181402 0.054348
v 0.039038 -0.192832 0.027706
v 0.033101 0.201136 0.032579
v 0.054033 0.189707 0.063906
v 0.073324 0.171147 0.092777
v 0.090233 0.146170 0.118083
v 0.104109 0.115735 0.138851
v 0.114421 0.081012 0.154283
v 0.120770 0.043335 0.163786
v 0.122914 0.004152 0.166995
v 0.120770 -0.035030 0.163786
v 0.114421 -0.072707 0.154283
v 0.104109 -0.107430 0.138851
v 0.090233 -0.137865 0.118083
v 0.073324 -0.162843 0.092777
v 0.054033 -0.181402 0.063906
v 0.033101 -0.192832 0.032579
v 0.026327 0.201136 0.036200
v 0.040745 0.189707 0.071009
v 0.054033 0.171147 0.103089
v 0.065680 0.146170 0.131207
v 0.075238 0.115735 0.154283
v 0.082341 0.081012 0.171430
v 0.086714 0.043335 0.181989
v 0.088191 0.004152 0.185555
v 0.086714 -0.035030 0.181989
v 0.082341 -0.072707 0.171430
v 0.075238 -0.107430 0.154283
v 0.065680 -0.137865 0.131207
v 0.054033 -0.162843 0.103089
v 0.040745 -0.181402 0.071009
v 0.026327 -0.192832 0.036200
v 0.018976 0.201136 0.038430
v 0.026327 0.189707 0.075383
v 0.033101 0.171147 0.109438
v 0.039038 0.146170 0.139289
v 0.043911 0.115735 0.163786
v 0.047532 0.081012 0.181989
v 0.049762 0.043335 0.193199
v 0.050515 0.004152 0.196984
v 0.049762 -0.035030 0.193199
v 0.047532 -0.072707 0.181989
v 0.043911 -0.107430 0.163786
v 0.039038 -0.137865 0.139289
v 0.033101 -0.162843 0.109438
v 0.026327 -0.181402 0.075383
v 0.018976 -0.192832 0.038430
v 0.011332 0.201136 0.039183
v 0.011332 0.189707 0.076859
v 0.011332 0.171147 0.111582
v 0.011332 0.146170 0.142018
v 0.011332 0.115735 0.166995
v 0.011332 0.081012 0.185555
v 0.011332 0.043335 0.196984
v 0.011332 0.004152 0.200843
v 0.011332 -0.035030 0.196984
v 0.011332 -0.072707 0.185555
v 0.011332 -0.107430 0.166995
v 0.011332 -0.137865 0.142018
v 0.011332 -0.162843 0.111582
v 0.011332 -0.181402 0.076859
v 0.011332 -0.192832 0.039183
v -0.273485 0.201136 -0.039182
v -0.273485 0.189707 -0.076859
v -0.273485 0.171147 -0.111582
v -0.273485 0.146170 -0.142017
v -0.273485 0.115735 -0.166995
v -0.273485 0.081012 -0.185555
v -0.273485 0.043335 -0.196984
v -0.273485 0.004152 -0.200843
v -0.273485 -0.035030 -0.196984
v -0.273485 -0.072707 -0.185555
v -0.273485 -0.107430 -0.166995
v -0.273485 -0.137865 -0.142017
v -0.273485 -0.162843 -0.111582
v -0.273485 -0.181402 -0.076859
v -0.273485 -0.192832 -0.039182
v -0.273485 -0.196691 0.000000
v -0.273485 0.204995 0.000000
v -0.273485 0.201136 0.039183
v -0.273485 0.189707 0.076859
v -0.273485 0.171147 0.111583
v -0.273485 0.146170 0.142018
v -0.273485 0.115735 0.166995
v -0.273485 0.081012 0.185555
v -0.273485 0.043335 0.196984
v -0.273485 0.004152 0.200843
v -0.273485 -0.035030 0.196984
v -0.273485 -0.072707 0.185555
v -0.273485 -0.107430 0.166995
v -0.273485 -0.137865 0.142018
v -0.273485 -0.162843 0.111582
v -0.273485 -0.181402 0.076859
v -0.273485 -0.192832 0.039183
v 0.059470 0.192894 0.101763
v 0.066770 3.873533 0.143162
v -0.021079 0.192894 0.115966
v -0.013779 3.873533 0.157365
v 0.021079 0.192894 -0.115966
v 0.013779 3.873533 -0.157365
v -0.059471 0.192894 -0.101763
v -0.066770 3.873533 -0.143162
v 0.111290 1.036359 0.395645
v 0.111290 1.606446 0.395645
v 0.030740 1.606446 0.409849
v 0.030740 1.036359 0.409849
v -0.111290 1.606446 -0.395645
v -0.111290 1.036359 -0.395645
v -0.030741 1.606446 -0.409848
v -0.030741 1.036359 -0.409849
v -0.040275 0.192894 0.007102
v -0.040275 3.873534 0.007102
v 0.040274 0.192894 -0.007102
v 0.040274 3.873533 -0.007102
v 0.159821 1.036359 -0.028181
v 0.159821 1.606446 -0.028181
v 0.079272 1.036359 -0.013978
v 0.079272 1.606446 -0.013978
v -0.013758 0.614626 0.157489
v -0.066792 0.614626 -0.143286
v 0.013757 0.614626 -0.157489
v 0.066792 0.614626 0.143286
v 0.019498 0.614626 -0.003438
v 0.100048 0.614626 -0.017641
vn 0.1725 -0.9037 -0.3920
vn -0.8942 -0.3706 -0.2511
vn -0.1726 0.7913 0.5866
vn 0.9930 -0.1146 -0.0290
vn -0.0000 0.5000 -0.8660
vn -0.0000 -0.5000 0.8660
vn 0.9707 -0.1074 -0.2151
vn -0.1484 0.9885 -0.0289
vn 0.1736 -0.8529 -0.4924
vn 0.9935 -0.0985 -0.0569
vn -0.8435 -0.5170 -0.1454
vn -0.1736 0.8529 0.4924
vn -0.8947 -0.3869 -0.2234
vn 0.1484 -0.4692 -0.8705
vn -0.9935 0.0985 0.0569
vn -0.9707 0.1074 0.2151
vn 0.8947 0.3869 0.2234
vn 0.8435 0.5170 0.1454
vn 0.8942 0.3706 0.2511
vn -0.9930 0.1146 0.0290
vn 0.9748 0.2201 -0.0374
vn -0.9748 -0.2201 0.0374
vn 0.1728 -0.7989 -0.5761
vn -0.1728 0.8984 0.4038
vn 0.1725 0.7913 -0.5866
vn -0.8942 0.4027 -0.1954
vn -0.1725 -0.9037 0.3920
vn 0.9930 0.0824 -0.0847
vn 0.0000 0.5000 0.8660
vn -0.0000 -0.5000 -0.8660
vn 0.9707 0.2400 0.0145
vn -0.1484 -0.4692 0.8705
vn 0.1736 0.8529 -0.4924
vn 0.9935 0.0985 -0.0569
vn -0.8435 0.3845 -0.3750
vn -0.1736 -0.8529 0.4924
vn -0.8947 0.3869 -0.2234
vn 0.1484 0.9885 0.0289
vn -0.9935 -0.0985 0.0569
vn -0.9707 -0.2400 -0.0145
vn 0.8947 -0.3869 0.2234
vn 0.8435 -0.3845 0.3750
vn 0.8942 -0.4027 0.1954
vn -0.9930 -0.0824 0.0847
vn 0.9748 -0.0776 0.2093
vn -0.9748 0.0776 -0.2093
vn 0.1728 0.8984 -0.4038
vn -0.1728 -0.7989 0.5761
vn 0.0286 0.9565 -0.2902
vn 0.0938 -0.2890 -0.9527
vn 0.0464 0.8810 -0.4709
vn 0.0865 -0.4696 -0.8786
vn 0.0624 0.7715 -0.6332
vn 0.0759 -0.6326 -0.7708
vn 0.0759 0.6326 -0.7708
vn 0.0624 -0.7715 -0.6332
vn 0.0865 0.4696 -0.8786
vn 0.0464 -0.8810 -0.4709
vn 0.0938 0.2890 -0.9527
vn 0.0286 -0.9565 -0.2902
vn 0.0975 0.0976 -0.9904
vn 0.0097 0.9951 -0.0980
vn 0.0097 -0.9951 -0.0980
vn 0.0976 -0.0976 -0.9904
vn 0.2563 0.4696 -0.8448
vn 0.1374 -0.8810 -0.4528
vn 0.2779 0.2890 -0.9161
vn 0.0846 -0.9565 -0.2790
vn 0.2889 0.0976 -0.9524
vn 0.0286 0.9951 -0.0942
vn 0.0286 -0.9951 -0.0942
vn 0.2889 -0.0976 -0.9524
vn 0.0846 0.9565 -0.2790
vn 0.2779 -0.2890 -0.9161
vn 0.1374 0.8810 -0.4528
vn 0.2563 -0.4696 -0.8448
vn 0.1847 0.7715 -0.6088
vn 0.2248 -0.6326 -0.7412
vn 0.2248 0.6326 -0.7412
vn 0.1847 -0.7715 -0.6088
vn 0.4513 -0.2890 -0.8443
vn 0.2231 0.8810 -0.4173
vn 0.4162 -0.4696 -0.7786
vn 0.2999 0.7715 -0.5611
vn 0.3651 -0.6326 -0.6831
vn 0.3651 0.6326 -0.6831
vn 0.2999 -0.7715 -0.5611
vn 0.4162 0.4696 -0.7786
vn 0.2230 -0.8810 -0.4173
vn 0.4513 0.2890 -0.8443
vn 0.1374 -0.9565 -0.2571
vn 0.4691 0.0976 -0.8777
vn 0.0464 0.9951 -0.0869
vn 0.0464 -0.9951 -0.0869
vn 0.4691 -0.0976 -0.8777
vn 0.1374 0.9565 -0.2571
vn 0.3002 -0.8810 -0.3658
vn 0.6073 0.2890 -0.7400
vn 0.1850 -0.9565 -0.2254
vn 0.6314 0.0976 -0.7693
vn 0.0625 0.9951 -0.0761
vn 0.0625 -0.9951 -0.0761
vn 0.6314 -0.0976 -0.7693
vn 0.1850 0.9565 -0.2254
vn 0.6073 -0.2890 -0.7400
vn 0.3002 0.8810 -0.3658
vn 0.5601 -0.4696 -0.6825
vn 0.4036 0.7715 -0.4918
vn 0.4913 -0.6326 -0.5987
vn 0.4913 0.6326 -0.5987
vn 0.4036 -0.7715 -0.4918
vn 0.5601 0.4696 -0.6825
vn 0.6825 -0.4696 -0.5601
vn 0.4918 0.7715 -0.4036
vn 0.5987 -0.6326 -0.4913
vn 0.5987 0.6326 -0.4913
vn 0.4918 -0.7715 -0.4036
vn 0.6825 0.4696 -0.5601
vn 0.3658 -0.8810 -0.3002
vn 0.7400 0.2890 -0.6073
vn 0.2254 -0.9565 -0.1850
vn 0.7693 0.0976 -0.6314
vn 0.0761 0.9951 -0.0625
vn 0.0761 -0.9951 -0.0625
vn 0.7693 -0.0976 -0.6314
vn 0.2254 0.9565 -0.1850
vn 0.7400 -0.2890 -0.6073
vn 0.3658 0.8810 -0.3002
vn 0.2571 -0.9565 -0.1374
vn 0.8777 0.0976 -0.4691
vn 0.0869 0.9951 -0.0464
vn 0.0869 -0.9951 -0.0464
vn 0.8777 -0.0976 -0.4691
vn 0.2571 0.9565 -0.1374
vn 0.8443 -0.2890 -0.4513
vn 0.4173 0.8810 -0.2230
vn 0.7786 -0.4696 -0.4162
vn 0.5611 0.7715 -0.2999
vn 0.6831 -0.6326 -0.3651
vn 0.6831 0.6326 -0.3651
vn 0.5611 -0.7715 -0.2999
vn 0.7786 0.4696 -0.4162
vn 0.4173 -0.8810 -0.2231
vn 0.8443 0.2890 -0.4513
vn 0.6088 0.7715 -0.1847
vn 0.7412 -0.6326 -0.2248
vn 0.7412 0.6326 -0.2248
vn 0.6088 -0.7715 -0.1847
vn 0.8448 0.4696 -0.2563
vn 0.4528 -0.8810 -0.1374
vn 0.9161 0.2890 -0.2779
vn 0.2790 -0.9566 -0.0846
vn 0.9524 0.0976 -0.2889
vn 0.0942 0.9951 -0.0286
vn 0.0942 -0.9951 -0.0286
vn 0.9524 -0.0976 -0.2889
vn 0.2790 0.9565 -0.0846
vn 0.9161 -0.2890 -0.2779
vn 0.4528 0.8810 -0.1374
vn 0.8448 -0.4696 -0.2563
vn 0.9904 0.0976 -0.0975
vn 0.0980 0.9951 -0.0097
vn 0.0980 -0.9951 -0.0097
vn 0.9904 -0.0976 -0.0976
vn 0.2902 0.9565 -0.0286
vn 0.9527 -0.2890 -0.0938
vn 0.4709 0.8810 -0.0464
vn 0.8786 -0.4696 -0.0865
vn 0.6332 0.7715 -0.0624
vn 0.7708 -0.6326 -0.0759
vn 0.7708 0.6326 -0.0759
vn 0.6332 -0.7715 -0.0624
vn 0.8786 0.4696 -0.0865
vn 0.4709 -0.8810 -0.0464
vn 0.9527 0.2890 -0.0938
vn 0.2902 -0.9565 -0.0286
vn 0.7708 -0.6326 0.0759
vn 0.7708 0.6326 0.0759
vn 0.6332 -0.7715 0.0624
vn 0.8786 0.4696 0.0865
vn 0.4709 -0.8810 0.0464
vn 0.9527 0.2890 0.0938
vn 0.2902 -0.9565 0.0286
vn 0.9904 0.0976 0.0976
vn 0.0980 0.9951 0.0096
vn 0.0980 -0.9951 0.0097
vn 0.9904 -0.0976 0.0976
vn 0.2902 0.9565 0.0286
vn 0.9527 -0.2890 0.0938
vn 0.4709 0.8810 0.0464
vn 0.8786 -0.4696 0.0865
vn 0.6332 0.7715 0.0624
vn 0.0942 0.9951 0.0286
vn 0.0942 -0.9951 0.0286
vn 0.9524 -0.0976 0.2889
vn 0.2790 0.9565 0.0846
vn 0.9161 -0.2890 0.2779
vn 0.4528 0.8810 0.1374
vn 0.8448 -0.4696 0.2563
vn 0.6088 0.7715 0.1847
vn 0.7412 -0.6326 0.2248
vn 0.7412 0.6326 0.2248
vn 0.6088 -0.7715 0.1847
vn 0.8448 0.4696 0.2563
vn 0.4528 -0.8810 0.1374
vn 0.9161 0.2890 0.2779
vn 0.2790 -0.9565 0.0846
vn 0.9524 0.0976 0.2889
vn 0.6831 0.6326 0.3651
vn 0.5611 -0.7715 0.2999
vn 0.7786 0.4696 0.4162
vn 0.4173 -0.8810 0.2231
vn 0.8443 0.2890 0.4513
vn 0.2571 -0.9565 0.1374
vn 0.8777 0.0976 0.4691
vn 0.0869 0.9951 0.0464
vn 0.0869 -0.9951 0.0464
vn 0.8777 -0.0976 0.4691
vn 0.2571 0.9565 0.1374
vn 0.8443 -0.2890 0.4513
vn 0.4173 0.8810 0.2231
vn 0.7786 -0.4696 0.4162
vn 0.5611 0.7715 0.2999
vn 0.6831 -0.6326 0.3651
vn 0.7693 -0.0976 0.6314
vn 0.2254 0.9565 0.1850
vn 0.7400 -0.2890 0.6073
vn 0.3658 0.8810 0.3002
vn 0.6825 -0.4696 0.5601
vn 0.4918 0.7715 0.4036
vn 0.5987 -0.6326 0.4913
vn 0.5987 0.6326 0.4913
vn 0.4918 -0.7715 0.4036
vn 0.6825 0.4696 0.5601
vn 0.3658 -0.8810 0.3002
vn 0.7400 0.2890 0.6073
vn 0.2254 -0.9565 0.1850
vn 0.7693 0.0976 0.6314
vn 0.0761 0.9951 0.0625
vn 0.0761 -0.9951 0.0625
vn 0.4036 -0.7715 0.4918
vn 0.5601 0.4696 0.6825
vn 0.3002 -0.8810 0.3658
vn 0.6073 0.2890 0.7400
vn 0.1850 -0.9565 0.2254
vn 0.6314 0.0976 0.7693
vn 0.0625 0.9951 0.0761
vn 0.0625 -0.9951 0.0761
vn 0.6314 -0.0976 0.7693
vn 0.1850 0.9565 0.2254
vn 0.6073 -0.2890 0.7400
vn 0.3002 0.8810 0.3658
vn 0.5601 -0.4696 0.6825
vn 0.4036 0.7715 0.4918
vn 0.4913 -0.6326 0.5987
vn 0.4913 0.6326 0.5987
vn 0.4513 -0.2890 0.8443
vn 0.2230 0.8810 0.4173
vn 0.4162 -0.4696 0.7786
vn 0.2999 0.7715 0.5611
vn 0.3651 -0.6326 0.6831
vn 0.3651 0.6326 0.6831
vn 0.2999 -0.7715 0.5611
vn 0.4162 0.4696 0.7786
vn 0.2230 -0.8810 0.4173
vn 0.4513 0.2890 0.8443
vn 0.1374 -0.9565 0.2571
vn 0.4691 0.0976 0.8777
vn 0.0464 0.9951 0.0869
vn 0.0464 -0.9951 0.0869
vn 0.4691 -0.0976 0.8777
vn 0.1374 0.9565 0.2571
vn 0.1374 -0.8810 0.4528
vn 0.2779 0.2890 0.9161
vn 0.0846 -0.9565 0.2790
vn 0.2889 0.0976 0.9524
vn 0.0286 0.9951 0.0942
vn 0.0286 -0.9951 0.0942
vn 0.2889 -0.0976 0.9524
vn 0.0846 0.9565 0.2790
vn 0.2779 -0.2890 0.9161
vn 0.1374 0.8810 0.4528
vn 0.2563 -0.4696 0.8448
vn 0.1847 0.7715 0.6088
vn 0.2248 -0.6326 0.7412
vn 0.2248 0.6326 0.7412
vn 0.1847 -0.7715 0.6088
vn 0.2563 0.4696 0.8448
vn 0.0464 0.8810 0.4709
vn 0.0865 -0.4696 0.8786
vn 0.0624 0.7715 0.6332
vn 0.0759 -0.6326 0.7708
vn 0.0759 0.6326 0.7708
vn 0.0624 -0.7715 0.6332
vn 0.0865 0.4696 0.8786
vn 0.0464 -0.8810 0.4709
vn 0.0938 0.2890 0.9527
vn 0.0286 -0.9565 0.2902
vn 0.0975 0.0976 0.9904
vn 0.0097 0.9951 0.0980
vn 0.0097 -0.9951 0.0980
vn 0.0975 -0.0976 0.9904
vn 0.0286 0.9565 0.2902
vn 0.0938 -0.2890 0.9527
vn 0.0000 -0.8819 0.4714
vn 0.0000 -0.2903 -0.9569
vn -0.0000 -0.9569 0.2903
vn 0.0000 0.9569 0.2903
vn 0.0000 -0.4714 -0.8819
vn 0.0000 0.8819 0.4714
vn 0.0000 -0.6344 -0.7730
vn 0.0000 0.7730 0.6344
vn -0.0000 0.9952 -0.0980
vn -0.0000 -0.7730 -0.6344
vn 0.0000 0.6344 0.7730
vn -0.0000 -0.9952 -0.0980
vn 0.0000 -0.8819 -0.4714
vn 0.0000 0.4714 0.8819
vn -0.0000 -0.9569 -0.2903
vn -0.0000 0.9569 -0.2903
vn 0.0000 0.2903 0.9569
vn 0.0000 0.9952 0.0980
vn 0.0000 0.8819 -0.4714
vn 0.0000 0.0980 0.9952
vn 0.0000 -0.9952 0.0980
vn -0.0000 0.7730 -0.6344
vn -0.0000 -0.0980 0.9952
vn 0.0000 0.6344 -0.7730
vn 0.0000 -0.2903 0.9569
vn 0.0000 0.4714 -0.8819
vn 0.0000 -0.4714 0.8819
vn -0.0000 0.2903 -0.9569
vn 0.0000 -0.6344 0.7730
vn -0.0000 0.0980 -0.9952
vn 0.0000 -0.7730 0.6344
vn -0.0000 -0.0980 -0.9952
vn 0.1725 0.1124 0.9786
vn -0.8942 -0.0322 0.4465
vn -0.1725 0.1124 -0.9786
vn 0.9930 0.0322 0.1137
vn -0.0000 -1.0000 0.0000
vn 0.0000 1.0000 0.0000
vn 0.9707 -0.1326 0.2006
vn -0.1484 -0.5193 -0.8416
vn 0.1736 -0.0000 0.9848
vn 0.9935 0.0000 0.1138
vn -0.8435 0.1326 0.5205
vn -0.1736 0.0000 -0.9848
vn -0.8947 0.0000 0.4467
vn 0.1484 -0.5193 0.8416
vn -0.9935 -0.0000 -0.1138
vn -0.9707 0.1326 -0.2006
vn 0.8947 0.0000 -0.4467
vn 0.8435 -0.1326 -0.5205
vn 0.8942 0.0322 -0.4465
vn -0.9930 -0.0322 -0.1137
vn 0.9748 -0.1425 -0.1719
vn -0.9748 0.1425 0.1719
vn 0.1728 -0.0995 0.9799
vn -0.1728 -0.0995 -0.9799
vn 0.1726 -0.9037 -0.3920
vn -0.9834 -0.1234 -0.1330
vn -0.1725 0.7913 0.5866
vn 0.9834 0.1234 0.1330
vn 0.9790 -0.0119 -0.2036
vn -0.8816 -0.4664 -0.0725
vn -0.9790 0.0119 0.2036
vn 0.8816 0.4664 0.0725
vn 0.8505 0.4729 0.2304
vn -0.9786 0.1567 0.1331
vn -0.8505 -0.4729 -0.2304
vn 0.9786 -0.1567 -0.1331
vn -0.9834 0.1769 -0.0404
vn 0.9834 -0.1769 0.0404
vn 0.9790 0.1823 0.0915
vn -0.8816 0.2960 -0.3676
vn -0.9790 -0.1823 -0.0915
vn 0.8816 -0.2960 0.3676
vn 0.8505 -0.4360 0.2943
vn -0.9786 -0.1936 0.0692
vn -0.8505 0.4360 -0.2943
vn 0.9786 0.1936 -0.0692
vn 0.0976 0.0976 -0.9904
vn 0.2230 0.8810 -0.4173
vn 0.1850 -0.9566 -0.2254
vn 0.2571 0.9565 -0.1375
vn 0.4173 0.8810 -0.2231
vn 0.4173 -0.8810 -0.2230
vn 0.2790 -0.9565 -0.0846
vn 0.9904 0.0976 -0.0976
vn 0.9904 -0.0976 -0.0975
vn 0.4173 0.8810 0.2230
vn 0.0976 -0.0976 0.9904
vn -0.9834 -0.0535 0.1734
vn 0.9834 0.0535 -0.1734
vn 0.9790 -0.1704 0.1121
vn -0.8816 0.1704 0.4402
vn -0.9790 0.1704 -0.1121
vn 0.8816 -0.1704 -0.4402
vn 0.8505 -0.0369 -0.5248
vn -0.9786 0.0369 -0.2022
vn -0.8505 0.0369 0.5248
vn 0.9786 -0.0369 0.2022
s off
f 2//1 11//1 10//1
f 24//2 8//2 13//2
f 8//3 15//3 13//3
f 22//4 2//4 10//4
f 7//5 19//5 17//5
f 4//6 20//6 18//6
f 21//7 28//7 30//7
f 14//8 27//8 26//8
f 12//9 10//9 11//9
f 10//10 21//10 22//10
f 23//11 26//11 29//11
f 16//12 13//12 15//12
f 13//13 23//13 24//13
f 28//14 12//14 25//14
f 24//15 12//15 11//15
f 25//16 23//16 29//16
f 22//17 16//17 15//17
f 27//18 21//18 30//18
f 18//6 6//6 8//6
f 17//5 1//5 3//5
f 6//19 22//19 15//19
f 4//20 24//20 11//20
f 5//21 30//21 19//21
f 3//22 29//22 17//22
f 1//23 25//23 3//23
f 29//22 7//22 17//22
f 26//24 5//24 7//24
f 30//21 1//21 19//21
f 32//25 41//25 40//25
f 54//26 38//26 43//26
f 38//27 45//27 43//27
f 52//28 32//28 40//28
f 37//29 49//29 47//29
f 34//30 50//30 48//30
f 51//31 58//31 60//31
f 44//32 57//32 56//32
f 42//33 40//33 41//33
f 40//34 51//34 52//34
f 53//35 56//35 59//35
f 45//36 44//36 43//36
f 43//37 53//37 54//37
f 58//38 42//38 55//38
f 54//39 42//39 41//39
f 55//40 53//40 59//40
f 52//41 46//41 45//41
f 57//42 51//42 60//42
f 48//30 36//30 38//30
f 47//29 31//29 33//29
f 36//43 52//43 45//43
f 34//44 54//44 41//44
f 35//45 60//45 49//45
f 33//46 59//46 47//46
f 58//47 33//47 31//47
f 59//46 37//46 47//46
f 37//48 57//48 35//48
f 60//45 31//45 49//45
f 62//49 76//49 77//49
f 69//50 85//50 70//50
f 63//51 77//51 78//51
f 71//52 85//52 86//52
f 63//53 79//53 64//53
f 71//54 87//54 72//54
f 64//55 80//55 65//55
f 72//56 88//56 73//56
f 65//57 81//57 66//57
f 73//58 89//58 74//58
f 67//59 81//59 82//59
f 74//60 90//60 75//60
f 68//61 82//61 83//61
f 61//62 242//62 76//62
f 151//63 75//63 90//63
f 69//64 83//64 84//64
f 80//65 96//65 81//65
f 88//66 104//66 89//66
f 82//67 96//67 97//67
f 90//68 104//68 105//68
f 82//69 98//69 83//69
f 76//70 242//70 91//70
f 151//71 90//71 105//71
f 83//72 99//72 84//72
f 77//73 91//73 92//73
f 84//74 100//74 85//74
f 77//75 93//75 78//75
f 85//76 101//76 86//76
f 78//77 94//77 79//77
f 86//78 102//78 87//78
f 80//79 94//79 95//79
f 88//80 102//80 103//80
f 99//81 115//81 100//81
f 92//82 108//82 93//82
f 100//83 116//83 101//83
f 93//84 109//84 94//84
f 101//85 117//85 102//85
f 95//86 109//86 110//86
f 102//87 118//87 103//87
f 95//88 111//88 96//88
f 104//89 118//89 119//89
f 96//90 112//90 97//90
f 105//91 119//91 120//91
f 97//92 113//92 98//92
f 91//93 242//93 106//93
f 151//94 105//94 120//94
f 98//95 114//95 99//95
f 92//96 106//96 107//96
f 118//97 134//97 119//97
f 112//98 126//98 127//98
f 119//99 135//99 120//99
f 112//100 128//100 113//100
f 106//101 242//101 121//101
f 151//102 120//102 135//102
f 113//103 129//103 114//103
f 106//104 122//104 107//104
f 114//105 130//105 115//105
f 107//106 123//106 108//106
f 116//107 130//107 131//107
f 108//108 124//108 109//108
f 117//109 131//109 132//109
f 109//110 125//110 110//110
f 118//111 132//111 133//111
f 110//112 126//112 111//112
f 131//113 145//113 146//113
f 123//114 139//114 124//114
f 131//115 147//115 132//115
f 125//116 139//116 140//116
f 133//117 147//117 148//117
f 125//118 141//118 126//118
f 133//119 149//119 134//119
f 127//120 141//120 142//120
f 134//121 150//121 135//121
f 128//122 142//122 143//122
f 121//123 242//123 136//123
f 151//124 135//124 150//124
f 128//125 144//125 129//125
f 121//126 137//126 122//126
f 129//127 145//127 130//127
f 123//128 137//128 138//128
f 149//129 166//129 150//129
f 142//130 159//130 143//130
f 136//131 242//131 152//131
f 151//132 150//132 166//132
f 143//133 160//133 144//133
f 136//134 153//134 137//134
f 144//135 161//135 145//135
f 138//136 153//136 154//136
f 146//137 161//137 162//137
f 139//138 154//138 155//138
f 147//139 162//139 163//139
f 140//140 155//140 156//140
f 148//141 163//141 164//141
f 140//142 157//142 141//142
f 149//143 164//143 165//143
f 142//144 157//144 158//144
f 155//145 169//145 170//145
f 162//146 178//146 163//146
f 155//147 171//147 156//147
f 163//148 179//148 164//148
f 156//149 172//149 157//149
f 164//150 180//150 165//150
f 158//151 172//151 173//151
f 165//152 181//152 166//152
f 159//153 173//153 174//153
f 152//154 242//154 167//154
f 151//155 166//155 181//155
f 159//156 175//156 160//156
f 152//157 168//157 153//157
f 160//158 176//158 161//158
f 153//159 169//159 154//159
f 162//160 176//160 177//160
f 174//161 188//161 189//161
f 167//162 242//162 182//162
f 151//163 181//163 196//163
f 174//164 190//164 175//164
f 167//165 183//165 168//165
f 175//166 191//166 176//166
f 169//167 183//167 184//167
f 177//168 191//168 192//168
f 169//169 185//169 170//169
f 178//170 192//170 193//170
f 170//171 186//171 171//171
f 179//172 193//172 194//172
f 171//173 187//173 172//173
f 179//174 195//174 180//174
f 173//175 187//175 188//175
f 180//176 196//176 181//176
f 192//177 208//177 193//177
f 186//178 200//178 201//178
f 193//179 209//179 194//179
f 186//180 202//180 187//180
f 195//181 209//181 210//181
f 188//182 202//182 203//182
f 196//183 210//183 211//183
f 188//184 204//184 189//184
f 182//185 242//185 197//185
f 151//186 196//186 211//186
f 189//187 205//187 190//187
f 182//188 198//188 183//188
f 190//189 206//189 191//189
f 183//190 199//190 184//190
f 192//191 206//191 207//191
f 184//192 200//192 185//192
f 197//193 242//193 212//193
f 151//194 211//194 226//194
f 204//195 220//195 205//195
f 198//196 212//196 213//196
f 205//197 221//197 206//197
f 199//198 213//198 214//198
f 207//199 221//199 222//199
f 200//200 214//200 215//200
f 208//201 222//201 223//201
f 200//202 216//202 201//202
f 208//203 224//203 209//203
f 201//204 217//204 202//204
f 209//205 225//205 210//205
f 203//206 217//206 218//206
f 210//207 226//207 211//207
f 203//208 219//208 204//208
f 216//209 230//209 231//209
f 223//210 239//210 224//210
f 216//211 232//211 217//211
f 225//212 239//212 240//212
f 218//213 232//213 233//213
f 226//214 240//214 241//214
f 218//215 234//215 219//215
f 212//216 242//216 227//216
f 151//217 226//217 241//217
f 220//218 234//218 235//218
f 212//219 228//219 213//219
f 220//220 236//220 221//220
f 213//221 229//221 214//221
f 222//222 236//222 237//222
f 214//223 230//223 215//223
f 222//224 238//224 223//224
f 234//225 251//225 235//225
f 227//226 244//226 228//226
f 235//227 252//227 236//227
f 228//228 245//228 229//228
f 237//229 252//229 253//229
f 230//230 245//230 246//230
f 237//231 254//231 238//231
f 230//232 247//232 231//232
f 238//233 255//233 239//233
f 231//234 248//234 232//234
f 239//235 256//235 240//235
f 233//236 248//236 249//236
f 241//237 256//237 257//237
f 233//238 250//238 234//238
f 227//239 242//239 243//239
f 151//240 241//240 257//240
f 255//241 269//241 270//241
f 247//242 263//242 248//242
f 256//243 270//243 271//243
f 249//244 263//244 264//244
f 256//245 272//245 257//245
f 249//246 265//246 250//246
f 243//247 242//247 258//247
f 151//248 257//248 272//248
f 251//249 265//249 266//249
f 243//250 259//250 244//250
f 251//251 267//251 252//251
f 244//252 260//252 245//252
f 253//253 267//253 268//253
f 245//254 261//254 246//254
f 253//255 269//255 254//255
f 246//256 262//256 247//256
f 266//257 282//257 267//257
f 259//258 275//258 260//258
f 268//259 282//259 283//259
f 261//260 275//260 276//260
f 268//261 284//261 269//261
f 262//262 276//262 277//262
f 270//263 284//263 285//263
f 262//264 278//264 263//264
f 270//265 286//265 271//265
f 264//266 278//266 279//266
f 272//267 286//267 287//267
f 264//268 280//268 265//268
f 258//269 242//269 273//269
f 151//270 272//270 287//270
f 266//271 280//271 281//271
f 259//272 273//272 274//272
f 286//273 300//273 301//273
f 279//274 293//274 294//274
f 287//275 301//275 302//275
f 279//276 295//276 280//276
f 273//277 242//277 288//277
f 151//278 287//278 302//278
f 281//279 295//279 296//279
f 273//280 289//280 274//280
f 281//281 297//281 282//281
f 274//282 290//282 275//282
f 283//283 297//283 298//283
f 276//284 290//284 291//284
f 283//285 299//285 284//285
f 276//286 292//286 277//286
f 284//287 300//287 285//287
f 277//288 293//288 278//288
f 289//289 305//289 290//289
f 298//290 312//290 313//290
f 290//291 306//291 291//291
f 298//292 314//292 299//292
f 291//293 307//293 292//293
f 299//294 315//294 300//294
f 292//295 308//295 293//295
f 300//296 316//296 301//296
f 294//297 308//297 309//297
f 301//298 317//298 302//298
f 295//299 309//299 310//299
f 288//300 242//300 303//300
f 151//301 302//301 317//301
f 295//302 311//302 296//302
f 289//303 303//303 304//303
f 296//304 312//304 297//304
f 315//305 348//305 316//305
f 70//306 326//306 69//306
f 317//307 348//307 349//307
f 303//308 336//308 304//308
f 71//309 327//309 70//309
f 304//310 337//310 305//310
f 71//311 329//311 328//311
f 305//312 338//312 306//312
f 61//313 334//313 242//313
f 72//314 330//314 329//314
f 307//315 338//315 339//315
f 151//316 332//316 75//316
f 74//317 330//317 73//317
f 307//318 340//318 308//318
f 75//319 331//319 74//319
f 62//320 318//320 61//320
f 309//321 340//321 341//321
f 303//322 334//322 335//322
f 63//323 319//323 62//323
f 309//324 342//324 310//324
f 317//325 333//325 151//325
f 64//326 320//326 63//326
f 310//327 343//327 311//327
f 65//328 321//328 64//328
f 311//329 344//329 312//329
f 66//330 322//330 65//330
f 313//331 344//331 345//331
f 67//332 323//332 66//332
f 313//333 346//333 314//333
f 68//334 324//334 67//334
f 314//335 347//335 315//335
f 68//336 326//336 325//336
f 351//337 360//337 359//337
f 373//338 357//338 362//338
f 357//339 364//339 362//339
f 371//340 351//340 359//340
f 356//341 368//341 366//341
f 353//342 369//342 367//342
f 370//343 377//343 379//343
f 363//344 376//344 375//344
f 361//345 359//345 360//345
f 359//346 370//346 371//346
f 372//347 375//347 378//347
f 365//348 362//348 364//348
f 362//349 372//349 373//349
f 377//350 361//350 374//350
f 373//351 361//351 360//351
f 374//352 372//352 378//352
f 364//353 370//353 365//353
f 376//354 370//354 379//354
f 357//342 369//342 355//342
f 366//341 350//341 352//341
f 355//355 371//355 364//355
f 353//356 373//356 360//356
f 354//357 379//357 368//357
f 352//358 378//358 366//358
f 377//359 352//359 350//359
f 378//358 356//358 366//358
f 375//360 354//360 356//360
f 379//357 350//357 368//357
f 2//361 4//361 11//361
f 24//362 18//362 8//362
f 8//363 6//363 15//363
f 22//364 20//364 2//364
f 7//5 5//5 19//5
f 4//6 2//6 20//6
f 21//365 9//365 28//365
f 14//8 16//8 27//8
f 12//9 9//9 10//9
f 10//10 9//10 21//10
f 23//366 14//366 26//366
f 16//12 14//12 13//12
f 13//13 14//13 23//13
f 28//14 9//14 12//14
f 24//15 23//15 12//15
f 25//367 12//367 23//367
f 22//17 21//17 16//17
f 27//368 16//368 21//368
f 18//6 20//6 6//6
f 17//5 19//5 1//5
f 6//364 20//364 22//364
f 4//362 18//362 24//362
f 5//369 27//369 30//369
f 3//370 25//370 29//370
f 1//23 28//23 25//23
f 29//371 26//371 7//371
f 26//24 27//24 5//24
f 30//372 28//372 1//372
f 32//25 34//25 41//25
f 54//373 48//373 38//373
f 38//27 36//27 45//27
f 52//374 50//374 32//374
f 37//29 35//29 49//29
f 34//30 32//30 50//30
f 51//375 39//375 58//375
f 44//32 46//32 57//32
f 42//33 39//33 40//33
f 40//34 39//34 51//34
f 53//376 44//376 56//376
f 45//36 46//36 44//36
f 43//37 44//37 53//37
f 58//38 39//38 42//38
f 54//39 53//39 42//39
f 55//377 42//377 53//377
f 52//41 51//41 46//41
f 57//378 46//378 51//378
f 48//30 50//30 36//30
f 47//29 49//29 31//29
f 36//374 50//374 52//374
f 34//373 48//373 54//373
f 35//379 57//379 60//379
f 33//380 55//380 59//380
f 58//47 55//47 33//47
f 59//381 56//381 37//381
f 37//48 56//48 57//48
f 60//382 58//382 31//382
f 62//49 61//49 76//49
f 69//50 84//50 85//50
f 63//51 62//51 77//51
f 71//52 70//52 85//52
f 63//53 78//53 79//53
f 71//54 86//54 87//54
f 64//55 79//55 80//55
f 72//56 87//56 88//56
f 65//57 80//57 81//57
f 73//58 88//58 89//58
f 67//59 66//59 81//59
f 74//60 89//60 90//60
f 68//383 67//383 82//383
f 69//64 68//64 83//64
f 80//65 95//65 96//65
f 88//66 103//66 104//66
f 82//67 81//67 96//67
f 90//68 89//68 104//68
f 82//69 97//69 98//69
f 83//72 98//72 99//72
f 77//73 76//73 91//73
f 84//74 99//74 100//74
f 77//75 92//75 93//75
f 85//76 100//76 101//76
f 78//77 93//77 94//77
f 86//78 101//78 102//78
f 80//79 79//79 94//79
f 88//80 87//80 102//80
f 99//81 114//81 115//81
f 92//384 107//384 108//384
f 100//83 115//83 116//83
f 93//84 108//84 109//84
f 101//85 116//85 117//85
f 95//86 94//86 109//86
f 102//87 117//87 118//87
f 95//88 110//88 111//88
f 104//89 103//89 118//89
f 96//90 111//90 112//90
f 105//91 104//91 119//91
f 97//92 112//92 113//92
f 98//95 113//95 114//95
f 92//96 91//96 106//96
f 118//97 133//97 134//97
f 112//98 111//98 126//98
f 119//385 134//385 135//385
f 112//100 127//100 128//100
f 113//103 128//103 129//103
f 106//104 121//104 122//104
f 114//105 129//105 130//105
f 107//106 122//106 123//106
f 116//107 115//107 130//107
f 108//108 123//108 124//108
f 117//109 116//109 131//109
f 109//110 124//110 125//110
f 118//111 117//111 132//111
f 110//112 125//112 126//112
f 131//113 130//113 145//113
f 123//114 138//114 139//114
f 131//115 146//115 147//115
f 125//116 124//116 139//116
f 133//117 132//117 147//117
f 125//118 140//118 141//118
f 133//119 148//119 149//119
f 127//120 126//120 141//120
f 134//121 149//121 150//121
f 128//122 127//122 142//122
f 128//125 143//125 144//125
f 121//126 136//126 137//126
f 129//127 144//127 145//127
f 123//128 122//128 137//128
f 149//129 165//129 166//129
f 142//130 158//130 159//130
f 143//133 159//133 160//133
f 136//386 152//386 153//386
f 144//135 160//135 161//135
f 138//387 137//387 153//387
f 146//137 145//137 161//137
f 139//138 138//138 154//138
f 147//139 146//139 162//139
f 140//140 139//140 155//140
f 148//141 147//141 163//141
f 140//142 156//142 157//142
f 149//388 148//388 164//388
f 142//144 141//144 157//144
f 155//145 154//145 169//145
f 162//146 177//146 178//146
f 155//147 170//147 171//147
f 163//148 178//148 179//148
f 156//149 171//149 172//149
f 164//150 179//150 180//150
f 158//151 157//151 172//151
f 165//389 180//389 181//389
f 159//153 158//153 173//153
f 159//156 174//156 175//156
f 152//157 167//157 168//157
f 160//158 175//158 176//158
f 153//159 168//159 169//159
f 162//160 161//160 176//160
f 174//390 173//390 188//390
f 174//391 189//391 190//391
f 167//165 182//165 183//165
f 175//166 190//166 191//166
f 169//167 168//167 183//167
f 177//168 176//168 191//168
f 169//169 184//169 185//169
f 178//170 177//170 192//170
f 170//171 185//171 186//171
f 179//172 178//172 193//172
f 171//173 186//173 187//173
f 179//174 194//174 195//174
f 173//175 172//175 187//175
f 180//176 195//176 196//176
f 192//177 207//177 208//177
f 186//178 185//178 200//178
f 193//179 208//179 209//179
f 186//180 201//180 202//180
f 195//181 194//181 209//181
f 188//182 187//182 202//182
f 196//183 195//183 210//183
f 188//184 203//184 204//184
f 189//187 204//187 205//187
f 182//188 197//188 198//188
f 190//189 205//189 206//189
f 183//190 198//190 199//190
f 192//191 191//191 206//191
f 184//192 199//192 200//192
f 204//195 219//195 220//195
f 198//196 197//196 212//196
f 205//197 220//197 221//197
f 199//198 198//198 213//198
f 207//199 206//199 221//199
f 200//200 199//200 214//200
f 208//201 207//201 222//201
f 200//202 215//202 216//202
f 208//203 223//203 224//203
f 201//204 216//204 217//204
f 209//205 224//205 225//205
f 203//206 202//206 217//206
f 210//207 225//207 226//207
f 203//208 218//208 219//208
f 216//209 215//209 230//209
f 223//210 238//210 239//210
f 216//211 231//211 232//211
f 225//212 224//212 239//212
f 218//213 217//213 232//213
f 226//214 225//214 240//214
f 218//215 233//215 234//215
f 220//218 219//218 234//218
f 212//219 227//219 228//219
f 220//220 235//220 236//220
f 213//392 228//392 229//392
f 222//222 221//222 236//222
f 214//223 229//223 230//223
f 222//224 237//224 238//224
f 234//225 250//225 251//225
f 227//226 243//226 244//226
f 235//227 251//227 252//227
f 228//228 244//228 245//228
f 237//229 236//229 252//229
f 230//230 229//230 245//230
f 237//231 253//231 254//231
f 230//232 246//232 247//232
f 238//233 254//233 255//233
f 231//234 247//234 248//234
f 239//235 255//235 256//235
f 233//236 232//236 248//236
f 241//237 240//237 256//237
f 233//238 249//238 250//238
f 255//241 254//241 269//241
f 247//242 262//242 263//242
f 256//243 255//243 270//243
f 249//244 248//244 263//244
f 256//245 271//245 272//245
f 249//246 264//246 265//246
f 251//249 250//249 265//249
f 243//250 258//250 259//250
f 251//251 266//251 267//251
f 244//252 259//252 260//252
f 253//253 252//253 267//253
f 245//254 260//254 261//254
f 253//255 268//255 269//255
f 246//256 261//256 262//256
f 266//257 281//257 282//257
f 259//258 274//258 275//258
f 268//259 267//259 282//259
f 261//260 260//260 275//260
f 268//261 283//261 284//261
f 262//262 261//262 276//262
f 270//263 269//263 284//263
f 262//264 277//264 278//264
f 270//265 285//265 286//265
f 264//266 263//266 278//266
f 272//267 271//267 286//267
f 264//268 279//268 280//268
f 266//271 265//271 280//271
f 259//272 258//272 273//272
f 286//273 285//273 300//273
f 279//274 278//274 293//274
f 287//275 286//275 301//275
f 279//276 294//276 295//276
f 281//279 280//279 295//279
f 273//280 288//280 289//280
f 281//281 296//281 297//281
f 274//282 289//282 290//282
f 283//283 282//283 297//283
f 276//284 275//284 290//284
f 283//285 298//285 299//285
f 276//286 291//286 292//286
f 284//287 299//287 300//287
f 277//288 292//288 293//288
f 289//289 304//289 305//289
f 298//290 297//290 312//290
f 290//291 305//291 306//291
f 298//292 313//292 314//292
f 291//293 306//293 307//293
f 299//294 314//294 315//294
f 292//295 307//295 308//295
f 300//296 315//296 316//296
f 294//297 293//297 308//297
f 301//298 316//298 317//298
f 295//299 294//299 309//299
f 295//393 310//393 311//393
f 289//303 288//303 303//303
f 296//304 311//304 312//304
f 315//305 347//305 348//305
f 70//306 327//306 326//306
f 317//307 316//307 348//307
f 303//308 335//308 336//308
f 71//309 328//309 327//309
f 304//310 336//310 337//310
f 71//311 72//311 329//311
f 305//312 337//312 338//312
f 61//313 318//313 334//313
f 72//314 73//314 330//314
f 307//315 306//315 338//315
f 151//316 333//316 332//316
f 74//317 331//317 330//317
f 307//318 339//318 340//318
f 75//319 332//319 331//319
f 62//320 319//320 318//320
f 309//321 308//321 340//321
f 303//322 242//322 334//322
f 63//323 320//323 319//323
f 309//324 341//324 342//324
f 317//325 349//325 333//325
f 64//326 321//326 320//326
f 310//327 342//327 343//327
f 65//328 322//328 321//328
f 311//329 343//329 344//329
f 66//330 323//330 322//330
f 313//331 312//331 344//331
f 67//332 324//332 323//332
f 313//333 345//333 346//333
f 68//334 325//334 324//334
f 314//335 346//335 347//335
f 68//336 69//336 326//336
f 351//337 353//337 360//337
f 373//394 367//394 357//394
f 357//339 355//339 364//339
f 371//395 369//395 351//395
f 356//341 354//341 368//341
f 353//342 351//342 369//342
f 370//396 358//396 377//396
f 363//344 365//344 376//344
f 361//345 358//345 359//345
f 359//346 358//346 370//346
f 372//397 363//397 375//397
f 365//348 363//348 362//348
f 362//349 363//349 372//349
f 377//350 358//350 361//350
f 373//351 372//351 361//351
f 374//398 361//398 372//398
f 364//353 371//353 370//353
f 376//399 365//399 370//399
f 357//342 367//342 369//342
f 366//341 368//341 350//341
f 355//395 369//395 371//395
f 353//394 367//394 373//394
f 354//400 376//400 379//400
f 352//401 374//401 378//401
f 377//359 374//359 352//359
f 378//402 375//402 356//402
f 375//360 376//360 354//360
f 379//403 377//403 350//403
