# Blender v2.79 (sub 0) OBJ File: 'FirstRoom.blend'
# www.blender.org
v 0.451808 8.513748 0.270052
v 0.451808 8.969509 0.270052
v -0.701164 8.513748 0.270052
v -0.846425 8.969509 0.270052
v 0.451808 8.513748 -0.270056
v 0.451808 8.969509 -0.270056
v -0.701164 8.513748 -0.270056
v -0.846425 8.969509 -0.270056
v 0.360847 9.062321 0.234843
v -0.755464 9.062321 0.234843
v -0.755464 9.062321 -0.234847
v 0.360847 9.062321 -0.234847
v -0.320084 -0.000001 -0.028004
v -0.202291 8.513745 -0.017698
v -0.308470 -0.000001 -0.089911
v -0.194951 8.513745 -0.056823
v -0.285003 -0.000001 -0.148363
v -0.180119 8.513745 -0.093764
v -0.250582 -0.000001 -0.201113
v -0.158366 8.513745 -0.127102
v -0.206532 -0.000001 -0.246135
v -0.130527 8.513745 -0.155556
v -0.154545 -0.000001 -0.281698
v -0.097671 8.513745 -0.178031
v -0.096619 -0.000001 -0.306436
v -0.061062 8.513745 -0.193665
v -0.034980 -0.000001 -0.319397
v -0.022107 8.513745 -0.201857
v 0.028004 -0.000001 -0.320084
v 0.017698 8.513745 -0.202291
v 0.089911 -0.000001 -0.308471
v 0.056823 8.513745 -0.194951
v 0.148363 -0.000001 -0.285003
v 0.093764 8.513745 -0.180119
v 0.201113 -0.000001 -0.250582
v 0.127102 8.513745 -0.158366
v 0.246135 -0.000001 -0.206532
v 0.155556 8.513745 -0.130527
v 0.281698 -0.000001 -0.154545
v 0.178031 8.513745 -0.097671
v 0.306436 -0.000001 -0.096619
v 0.193665 8.513745 -0.061062
v 0.319397 -0.000001 -0.034980
v 0.201857 8.513745 -0.022107
v 0.320084 -0.000001 0.028004
v 0.202291 8.513745 0.017698
v 0.308470 -0.000001 0.089911
v 0.194951 8.513745 0.056823
v 0.285002 -0.000001 0.148363
v 0.180119 8.513745 0.093764
v 0.250582 -0.000001 0.201114
v 0.158366 8.513745 0.127102
v 0.206532 -0.000001 0.246135
v 0.130527 8.513745 0.155556
v 0.154545 -0.000001 0.281698
v 0.097671 8.513745 0.178031
v 0.096619 -0.000001 0.306436
v 0.061062 8.513745 0.193665
v 0.034979 -0.000001 0.319397
v 0.022107 8.513745 0.201857
v -0.028004 -0.000001 0.320084
v -0.017698 8.513745 0.202291
v -0.089911 -0.000001 0.308470
v -0.056823 8.513745 0.194951
v -0.148363 -0.000001 0.285002
v -0.093764 8.513745 0.180119
v -0.201114 -0.000001 0.250582
v -0.127102 8.513745 0.158366
v -0.246136 -0.000001 0.206532
v -0.155556 8.513745 0.130526
v -0.281698 -0.000001 0.154545
v -0.178031 8.513745 0.097671
v -0.306436 -0.000001 0.096618
v -0.193665 8.513745 0.061062
v -0.319397 -0.000001 0.034979
v -0.201857 8.513745 0.022107
s off
f 2 3 1
f 4 7 3
f 7 6 5
f 6 1 5
f 7 1 3
f 4 11 8
f 10 12 11
f 8 12 6
f 2 10 4
f 2 12 9
f 14 15 13
f 16 17 15
f 18 19 17
f 20 21 19
f 22 23 21
f 24 25 23
f 26 27 25
f 27 30 29
f 30 31 29
f 31 34 33
f 34 35 33
f 36 37 35
f 38 39 37
f 40 41 39
f 42 43 41
f 44 45 43
f 46 47 45
f 48 49 47
f 50 51 49
f 52 53 51
f 54 55 53
f 55 58 57
f 58 59 57
f 60 61 59
f 62 63 61
f 64 65 63
f 66 67 65
f 68 69 67
f 70 71 69
f 72 73 71
f 74 75 73
f 76 13 75
f 2 4 3
f 4 8 7
f 7 8 6
f 6 2 1
f 7 5 1
f 4 10 11
f 10 9 12
f 8 11 12
f 2 9 10
f 2 6 12
f 14 16 15
f 16 18 17
f 18 20 19
f 20 22 21
f 22 24 23
f 24 26 25
f 26 28 27
f 27 28 30
f 30 32 31
f 31 32 34
f 34 36 35
f 36 38 37
f 38 40 39
f 40 42 41
f 42 44 43
f 44 46 45
f 46 48 47
f 48 50 49
f 50 52 51
f 52 54 53
f 54 56 55
f 55 56 58
f 58 60 59
f 60 62 61
f 62 64 63
f 64 66 65
f 66 68 67
f 68 70 69
f 70 72 71
f 72 74 73
f 74 76 75
f 76 14 13
