# Blender v2.79 (sub 0) OBJ File: 'FirstRoom.blend'
# www.blender.org
v 0.059470 -0.184573 0.116168
v 0.066770 -2.060745 3.282997
v -0.021079 -0.196873 0.109066
v -0.013780 -2.073045 3.275895
v 0.021079 0.003985 0.225032
v 0.013779 -1.800481 3.433260
v -0.059471 -0.008315 0.217931
v -0.066771 -1.812781 3.426158
v 0.111290 -0.860815 0.699689
v 0.111290 -1.145859 1.193399
v 0.030740 -1.158159 1.186297
v 0.030740 -0.873116 0.692587
v -0.111290 -0.460581 1.589044
v -0.111290 -0.175537 1.095334
v -0.030741 -0.448280 1.596146
v -0.030741 -0.163237 1.102436
v -0.040275 -0.102594 0.163498
v -0.040275 -1.942913 3.351027
v 0.040274 -0.090294 0.170600
v 0.040274 -1.930613 3.358128
v 0.159821 -0.493771 0.911602
v 0.159821 -0.778814 1.405312
v 0.079272 -0.506071 0.904500
v 0.079272 -0.791115 1.398211
v -0.013758 -0.443700 0.453536
v -0.066792 -0.183221 0.603923
v 0.013757 -0.170920 0.611025
v 0.066792 -0.431400 0.460637
v 0.019498 -0.304333 0.533999
v 0.100048 -0.292032 0.541101
v 0.059470 -0.008315 -0.217930
v 0.066770 -1.812781 -3.426157
v -0.021079 0.003985 -0.225032
v -0.013780 -1.800482 -3.433259
v 0.021079 -0.196873 -0.109066
v 0.013779 -2.073045 -3.275894
v -0.059471 -0.184573 -0.116168
v -0.066771 -2.060746 -3.282996
v 0.111289 -0.175537 -1.095334
v 0.111289 -0.460581 -1.589044
v 0.030740 -0.448281 -1.596145
v 0.030740 -0.163237 -1.102435
v -0.111290 -1.145859 -1.193398
v -0.111290 -0.860815 -0.699688
v -0.030741 -1.158159 -1.186297
v -0.030741 -0.873116 -0.692587
v -0.040275 -0.090294 -0.170600
v -0.040275 -1.930613 -3.358127
v 0.040274 -0.102594 -0.163498
v 0.040274 -1.942914 -3.351026
v 0.159821 -0.542582 -0.883421
v 0.159821 -0.827625 -1.377131
v 0.079272 -0.530281 -0.890522
v 0.079272 -0.815325 -1.384232
v -0.013758 -0.170920 -0.611025
v -0.066792 -0.431400 -0.460637
v 0.013757 -0.443700 -0.453536
v 0.066792 -0.183221 -0.603923
v 0.019498 -0.310288 -0.530561
v 0.100048 -0.322588 -0.523460
v 0.011332 0.201136 -0.039182
v 0.011332 0.189707 -0.076859
v 0.011332 0.171147 -0.111582
v 0.011332 0.146170 -0.142017
v 0.011332 0.115735 -0.166995
v 0.011332 0.081012 -0.185555
v 0.011332 0.043335 -0.196984
v 0.011332 0.004152 -0.200843
v 0.011332 -0.035030 -0.196984
v 0.011332 -0.072707 -0.185555
v 0.011332 -0.107430 -0.166995
v 0.011332 -0.137865 -0.142017
v 0.011332 -0.162843 -0.111582
v 0.011332 -0.181402 -0.076859
v 0.011332 -0.192832 -0.039182
v 0.018976 0.201136 -0.038430
v 0.026327 0.189707 -0.075382
v 0.033101 0.171147 -0.109438
v 0.039038 0.146170 -0.139289
v 0.043911 0.115735 -0.163786
v 0.047532 0.081012 -0.181989
v 0.049762 0.043335 -0.193199
v 0.050515 0.004152 -0.196984
v 0.049762 -0.035030 -0.193199
v 0.047532 -0.072707 -0.181989
v 0.043911 -0.107430 -0.163786
v 0.039038 -0.137865 -0.139289
v 0.033101 -0.162843 -0.109438
v 0.026327 -0.181402 -0.075382
v 0.018976 -0.192832 -0.038430
v 0.026327 0.201136 -0.036200
v 0.040745 0.189707 -0.071009
v 0.054033 0.171147 -0.103089
v 0.065680 0.146170 -0.131207
v 0.075238 0.115735 -0.154283
v 0.082341 0.081012 -0.171430
v 0.086715 0.043335 -0.181989
v 0.088191 0.004152 -0.185555
v 0.086715 -0.035030 -0.181989
v 0.082341 -0.072707 -0.171430
v 0.075238 -0.107430 -0.154283
v 0.065680 -0.137865 -0.131207
v 0.054033 -0.162843 -0.103089
v 0.040745 -0.181402 -0.071009
v 0.026327 -0.192832 -0.036200
v 0.033101 0.201136 -0.032579
v 0.054033 0.189707 -0.063906
v 0.073324 0.171147 -0.092777
v 0.090233 0.146170 -0.118083
v 0.104109 0.115735 -0.138851
v 0.114421 0.081012 -0.154283
v 0.120770 0.043335 -0.163786
v 0.122915 0.004152 -0.166995
v 0.120770 -0.035030 -0.163786
v 0.114421 -0.072707 -0.154283
v 0.104109 -0.107430 -0.138851
v 0.090233 -0.137865 -0.118083
v 0.073324 -0.162843 -0.092777
v 0.054033 -0.181402 -0.063906
v 0.033101 -0.192832 -0.032579
v 0.039038 0.201136 -0.027706
v 0.065680 0.189707 -0.054348
v 0.090233 0.171147 -0.078901
v 0.111754 0.146170 -0.100421
v 0.129415 0.115735 -0.118083
v 0.142539 0.081012 -0.131207
v 0.150621 0.043335 -0.139289
v 0.153350 0.004152 -0.142017
v 0.150621 -0.035030 -0.139289
v 0.142539 -0.072707 -0.131207
v 0.129415 -0.107430 -0.118083
v 0.111754 -0.137865 -0.100421
v 0.090233 -0.162843 -0.078901
v 0.065680 -0.181402 -0.054348
v 0.039038 -0.192832 -0.027706
v 0.043911 0.201136 -0.021769
v 0.075238 0.189707 -0.042701
v 0.104109 0.171147 -0.061992
v 0.129415 0.146170 -0.078901
v 0.150183 0.115735 -0.092777
v 0.165615 0.081012 -0.103089
v 0.175118 0.043335 -0.109438
v 0.178327 0.004152 -0.111582
v 0.175118 -0.035030 -0.109438
v 0.165615 -0.072707 -0.103089
v 0.150183 -0.107430 -0.092777
v 0.129415 -0.137865 -0.078901
v 0.104109 -0.162843 -0.061992
v 0.075238 -0.181402 -0.042701
v 0.043911 -0.192832 -0.021769
v 0.011332 -0.196691 0.000000
v 0.047532 0.201136 -0.014994
v 0.082341 0.189707 -0.029413
v 0.114421 0.171147 -0.042701
v 0.142539 0.146170 -0.054348
v 0.165615 0.115735 -0.063906
v 0.182762 0.081012 -0.071009
v 0.193321 0.043335 -0.075382
v 0.196887 0.004152 -0.076859
v 0.193321 -0.035030 -0.075382
v 0.182762 -0.072707 -0.071009
v 0.165615 -0.107430 -0.063906
v 0.142539 -0.137865 -0.054348
v 0.114421 -0.162843 -0.042701
v 0.082341 -0.181402 -0.029413
v 0.047532 -0.192832 -0.014994
v 0.049762 0.201136 -0.007644
v 0.086715 0.189707 -0.014994
v 0.120770 0.171147 -0.021769
v 0.150621 0.146170 -0.027706
v 0.175118 0.115735 -0.032579
v 0.193321 0.081012 -0.036200
v 0.204531 0.043335 -0.038430
v 0.208316 0.004152 -0.039182
v 0.204531 -0.035030 -0.038430
v 0.193321 -0.072707 -0.036200
v 0.175118 -0.107430 -0.032579
v 0.150621 -0.137865 -0.027706
v 0.120770 -0.162843 -0.021769
v 0.086715 -0.181402 -0.014994
v 0.049762 -0.192832 -0.007644
v 0.050515 0.201136 0.000000
v 0.088191 0.189707 0.000000
v 0.122915 0.171147 0.000000
v 0.153350 0.146170 0.000000
v 0.178327 0.115735 0.000000
v 0.196887 0.081012 0.000000
v 0.208316 0.043335 0.000000
v 0.212175 0.004152 0.000000
v 0.208316 -0.035030 0.000000
v 0.196887 -0.072707 0.000000
v 0.178327 -0.107430 0.000000
v 0.153350 -0.137865 0.000000
v 0.122914 -0.162843 0.000000
v 0.088191 -0.181402 0.000000
v 0.050515 -0.192832 0.000000
v 0.049762 0.201136 0.007644
v 0.086715 0.189707 0.014995
v 0.120770 0.171147 0.021769
v 0.150621 0.146170 0.027706
v 0.175118 0.115735 0.032579
v 0.193321 0.081012 0.036200
v 0.204531 0.043335 0.038430
v 0.208316 0.004152 0.039183
v 0.204531 -0.035030 0.038430
v 0.193321 -0.072707 0.036200
v 0.175118 -0.107430 0.032579
v 0.150621 -0.137865 0.027706
v 0.120770 -0.162843 0.021769
v 0.086715 -0.181402 0.014995
v 0.049762 -0.192832 0.007644
v 0.047532 0.201136 0.014995
v 0.082341 0.189707 0.029413
v 0.114421 0.171147 0.042701
v 0.142539 0.146170 0.054348
v 0.165615 0.115735 0.063906
v 0.182762 0.081012 0.071009
v 0.193321 0.043335 0.075383
v 0.196887 0.004152 0.076859
v 0.193321 -0.035030 0.075383
v 0.182762 -0.072707 0.071009
v 0.165615 -0.107430 0.063906
v 0.142539 -0.137865 0.054348
v 0.114421 -0.162843 0.042701
v 0.082341 -0.181402 0.029413
v 0.047532 -0.192832 0.014995
v 0.043911 0.201136 0.021769
v 0.075238 0.189707 0.042701
v 0.104109 0.171147 0.061992
v 0.129415 0.146170 0.078901
v 0.150183 0.115735 0.092777
v 0.165615 0.081012 0.103089
v 0.175118 0.043335 0.109438
v 0.178327 0.004152 0.111583
v 0.175118 -0.035030 0.109438
v 0.165615 -0.072707 0.103089
v 0.150183 -0.107430 0.092777
v 0.129415 -0.137865 0.078901
v 0.104109 -0.162843 0.061992
v 0.075238 -0.181402 0.042701
v 0.043911 -0.192832 0.021769
v 0.011332 0.204995 0.000000
v 0.039038 0.201136 0.027706
v 0.065680 0.189707 0.054348
v 0.090233 0.171147 0.078901
v 0.111754 0.146170 0.100422
v 0.129415 0.115735 0.118083
v 0.142539 0.081012 0.131207
v 0.150621 0.043335 0.139289
v 0.153350 0.004152 0.142018
v 0.150621 -0.035030 0.139289
v 0.142539 -0.072707 0.131207
v 0.129415 -0.107430 0.118083
v 0.111754 -0.137865 0.100422
v 0.090233 -0.162843 0.078901
v 0.065680 -0.181402 0.054348
v 0.039038 -0.192832 0.027706
v 0.033101 0.201136 0.032579
v 0.054033 0.189707 0.063906
v 0.073324 0.171147 0.092777
v 0.090233 0.146170 0.118083
v 0.104109 0.115735 0.138851
v 0.114421 0.081012 0.154283
v 0.120770 0.043335 0.163786
v 0.122914 0.004152 0.166995
v 0.120770 -0.035030 0.163786
v 0.114421 -0.072707 0.154283
v 0.104109 -0.107430 0.138851
v 0.090233 -0.137865 0.118083
v 0.073324 -0.162843 0.092777
v 0.054033 -0.181402 0.063906
v 0.033101 -0.192832 0.032579
v 0.026327 0.201136 0.036200
v 0.040745 0.189707 0.071009
v 0.054033 0.171147 0.103089
v 0.065680 0.146170 0.131207
v 0.075238 0.115735 0.154283
v 0.082341 0.081012 0.171430
v 0.086714 0.043335 0.181989
v 0.088191 0.004152 0.185555
v 0.086714 -0.035030 0.181989
v 0.082341 -0.072707 0.171430
v 0.075238 -0.107430 0.154283
v 0.065680 -0.137865 0.131207
v 0.054033 -0.162843 0.103089
v 0.040745 -0.181402 0.071009
v 0.026327 -0.192832 0.036200
v 0.018976 0.201136 0.038430
v 0.026327 0.189707 0.075383
v 0.033101 0.171147 0.109438
v 0.039038 0.146170 0.139289
v 0.043911 0.115735 0.163786
v 0.047532 0.081012 0.181989
v 0.049762 0.043335 0.193199
v 0.050515 0.004152 0.196984
v 0.049762 -0.035030 0.193199
v 0.047532 -0.072707 0.181989
v 0.043911 -0.107430 0.163786
v 0.039038 -0.137865 0.139289
v 0.033101 -0.162843 0.109438
v 0.026327 -0.181402 0.075383
v 0.018976 -0.192832 0.038430
v 0.011332 0.201136 0.039183
v 0.011332 0.189707 0.076859
v 0.011332 0.171147 0.111582
v 0.011332 0.146170 0.142018
v 0.011332 0.115735 0.166995
v 0.011332 0.081012 0.185555
v 0.011332 0.043335 0.196984
v 0.011332 0.004152 0.200843
v 0.011332 -0.035030 0.196984
v 0.011332 -0.072707 0.185555
v 0.011332 -0.107430 0.166995
v 0.011332 -0.137865 0.142018
v 0.011332 -0.162843 0.111582
v 0.011332 -0.181402 0.076859
v 0.011332 -0.192832 0.039183
v -0.273485 0.201136 -0.039182
v -0.273485 0.189707 -0.076859
v -0.273485 0.171147 -0.111582
v -0.273485 0.146170 -0.142017
v -0.273485 0.115735 -0.166995
v -0.273485 0.081012 -0.185555
v -0.273485 0.043335 -0.196984
v -0.273485 0.004152 -0.200843
v -0.273485 -0.035030 -0.196984
v -0.273485 -0.072707 -0.185555
v -0.273485 -0.107430 -0.166995
v -0.273485 -0.137865 -0.142017
v -0.273485 -0.162843 -0.111582
v -0.273485 -0.181402 -0.076859
v -0.273485 -0.192832 -0.039182
v -0.273485 -0.196691 0.000000
v -0.273485 0.204995 0.000000
v -0.273485 0.201136 0.039183
v -0.273485 0.189707 0.076859
v -0.273485 0.171147 0.111583
v -0.273485 0.146170 0.142018
v -0.273485 0.115735 0.166995
v -0.273485 0.081012 0.185555
v -0.273485 0.043335 0.196984
v -0.273485 0.004152 0.200843
v -0.273485 -0.035030 0.196984
v -0.273485 -0.072707 0.185555
v -0.273485 -0.107430 0.166995
v -0.273485 -0.137865 0.142018
v -0.273485 -0.162843 0.111582
v -0.273485 -0.181402 0.076859
v -0.273485 -0.192832 0.039183
v 0.059470 0.192894 0.101763
v 0.066770 3.873533 0.143162
v -0.021079 0.192894 0.115966
v -0.013779 3.873533 0.157365
v 0.021079 0.192894 -0.115966
v 0.013779 3.873533 -0.157365
v -0.059471 0.192894 -0.101763
v -0.066770 3.873533 -0.143162
v 0.111290 1.036359 0.395645
v 0.111290 1.606446 0.395645
v 0.030740 1.606446 0.409849
v 0.030740 1.036359 0.409849
v -0.111290 1.606446 -0.395645
v -0.111290 1.036359 -0.395645
v -0.030741 1.606446 -0.409848
v -0.030741 1.036359 -0.409849
v -0.040275 0.192894 0.007102
v -0.040275 3.873534 0.007102
v 0.040274 0.192894 -0.007102
v 0.040274 3.873533 -0.007102
v 0.159821 1.036359 -0.028181
v 0.159821 1.606446 -0.028181
v 0.079272 1.036359 -0.013978
v 0.079272 1.606446 -0.013978
v -0.013758 0.614626 0.157489
v -0.066792 0.614626 -0.143286
v 0.013757 0.614626 -0.157489
v 0.066792 0.614626 0.143286
v 0.019498 0.614626 -0.003438
v 0.100048 0.614626 -0.017641
s off
f 2 11 10
f 24 8 13
f 8 15 13
f 22 2 10
f 7 19 17
f 4 20 18
f 21 28 30
f 14 27 26
f 12 10 11
f 10 21 22
f 23 26 29
f 16 13 15
f 13 23 24
f 28 12 25
f 24 12 11
f 25 23 29
f 22 16 15
f 27 21 30
f 18 6 8
f 17 1 3
f 6 22 15
f 4 24 11
f 5 30 19
f 3 29 17
f 1 25 3
f 29 7 17
f 26 5 7
f 30 1 19
f 32 41 40
f 54 38 43
f 38 45 43
f 52 32 40
f 37 49 47
f 34 50 48
f 51 58 60
f 44 57 56
f 42 40 41
f 40 51 52
f 53 56 59
f 45 44 43
f 43 53 54
f 58 42 55
f 54 42 41
f 55 53 59
f 52 46 45
f 57 51 60
f 48 36 38
f 47 31 33
f 36 52 45
f 34 54 41
f 35 60 49
f 33 59 47
f 58 33 31
f 59 37 47
f 37 57 35
f 60 31 49
f 62 76 77
f 69 85 70
f 63 77 78
f 71 85 86
f 63 79 64
f 71 87 72
f 64 80 65
f 72 88 73
f 65 81 66
f 73 89 74
f 67 81 82
f 74 90 75
f 68 82 83
f 61 242 76
f 151 75 90
f 69 83 84
f 80 96 81
f 88 104 89
f 82 96 97
f 90 104 105
f 82 98 83
f 76 242 91
f 151 90 105
f 83 99 84
f 77 91 92
f 84 100 85
f 77 93 78
f 85 101 86
f 78 94 79
f 86 102 87
f 80 94 95
f 88 102 103
f 99 115 100
f 92 108 93
f 100 116 101
f 93 109 94
f 101 117 102
f 95 109 110
f 102 118 103
f 95 111 96
f 104 118 119
f 96 112 97
f 105 119 120
f 97 113 98
f 91 242 106
f 151 105 120
f 98 114 99
f 92 106 107
f 118 134 119
f 112 126 127
f 119 135 120
f 112 128 113
f 106 242 121
f 151 120 135
f 113 129 114
f 106 122 107
f 114 130 115
f 107 123 108
f 116 130 131
f 108 124 109
f 117 131 132
f 109 125 110
f 118 132 133
f 110 126 111
f 131 145 146
f 123 139 124
f 131 147 132
f 125 139 140
f 133 147 148
f 125 141 126
f 133 149 134
f 127 141 142
f 134 150 135
f 128 142 143
f 121 242 136
f 151 135 150
f 128 144 129
f 121 137 122
f 129 145 130
f 123 137 138
f 149 166 150
f 142 159 143
f 136 242 152
f 151 150 166
f 143 160 144
f 136 153 137
f 144 161 145
f 138 153 154
f 146 161 162
f 139 154 155
f 147 162 163
f 140 155 156
f 148 163 164
f 140 157 141
f 149 164 165
f 142 157 158
f 155 169 170
f 162 178 163
f 155 171 156
f 163 179 164
f 156 172 157
f 164 180 165
f 158 172 173
f 165 181 166
f 159 173 174
f 152 242 167
f 151 166 181
f 159 175 160
f 152 168 153
f 160 176 161
f 153 169 154
f 162 176 177
f 174 188 189
f 167 242 182
f 151 181 196
f 174 190 175
f 167 183 168
f 175 191 176
f 169 183 184
f 177 191 192
f 169 185 170
f 178 192 193
f 170 186 171
f 179 193 194
f 171 187 172
f 179 195 180
f 173 187 188
f 180 196 181
f 192 208 193
f 186 200 201
f 193 209 194
f 186 202 187
f 195 209 210
f 188 202 203
f 196 210 211
f 188 204 189
f 182 242 197
f 151 196 211
f 189 205 190
f 182 198 183
f 190 206 191
f 183 199 184
f 192 206 207
f 184 200 185
f 197 242 212
f 151 211 226
f 204 220 205
f 198 212 213
f 205 221 206
f 199 213 214
f 207 221 222
f 200 214 215
f 208 222 223
f 200 216 201
f 208 224 209
f 201 217 202
f 209 225 210
f 203 217 218
f 210 226 211
f 203 219 204
f 216 230 231
f 223 239 224
f 216 232 217
f 225 239 240
f 218 232 233
f 226 240 241
f 218 234 219
f 212 242 227
f 151 226 241
f 220 234 235
f 212 228 213
f 220 236 221
f 213 229 214
f 222 236 237
f 214 230 215
f 222 238 223
f 234 251 235
f 227 244 228
f 235 252 236
f 228 245 229
f 237 252 253
f 230 245 246
f 237 254 238
f 230 247 231
f 238 255 239
f 231 248 232
f 239 256 240
f 233 248 249
f 241 256 257
f 233 250 234
f 227 242 243
f 151 241 257
f 255 269 270
f 247 263 248
f 256 270 271
f 249 263 264
f 256 272 257
f 249 265 250
f 243 242 258
f 151 257 272
f 251 265 266
f 243 259 244
f 251 267 252
f 244 260 245
f 253 267 268
f 245 261 246
f 253 269 254
f 246 262 247
f 266 282 267
f 259 275 260
f 268 282 283
f 261 275 276
f 268 284 269
f 262 276 277
f 270 284 285
f 262 278 263
f 270 286 271
f 264 278 279
f 272 286 287
f 264 280 265
f 258 242 273
f 151 272 287
f 266 280 281
f 259 273 274
f 286 300 301
f 279 293 294
f 287 301 302
f 279 295 280
f 273 242 288
f 151 287 302
f 281 295 296
f 273 289 274
f 281 297 282
f 274 290 275
f 283 297 298
f 276 290 291
f 283 299 284
f 276 292 277
f 284 300 285
f 277 293 278
f 289 305 290
f 298 312 313
f 290 306 291
f 298 314 299
f 291 307 292
f 299 315 300
f 292 308 293
f 300 316 301
f 294 308 309
f 301 317 302
f 295 309 310
f 288 242 303
f 151 302 317
f 295 311 296
f 289 303 304
f 296 312 297
f 315 348 316
f 70 326 69
f 317 348 349
f 303 336 304
f 71 327 70
f 304 337 305
f 71 329 328
f 305 338 306
f 61 334 242
f 72 330 329
f 307 338 339
f 151 332 75
f 74 330 73
f 307 340 308
f 75 331 74
f 62 318 61
f 309 340 341
f 303 334 335
f 63 319 62
f 309 342 310
f 317 333 151
f 64 320 63
f 310 343 311
f 65 321 64
f 311 344 312
f 66 322 65
f 313 344 345
f 67 323 66
f 313 346 314
f 68 324 67
f 314 347 315
f 68 326 325
f 351 360 359
f 373 357 362
f 357 364 362
f 371 351 359
f 356 368 366
f 353 369 367
f 370 377 379
f 363 376 375
f 361 359 360
f 359 370 371
f 372 375 378
f 365 362 364
f 362 372 373
f 377 361 374
f 373 361 360
f 374 372 378
f 364 370 365
f 376 370 379
f 357 369 355
f 366 350 352
f 355 371 364
f 353 373 360
f 354 379 368
f 352 378 366
f 377 352 350
f 378 356 366
f 375 354 356
f 379 350 368
f 2 4 11
f 24 18 8
f 8 6 15
f 22 20 2
f 7 5 19
f 4 2 20
f 21 9 28
f 14 16 27
f 12 9 10
f 10 9 21
f 23 14 26
f 16 14 13
f 13 14 23
f 28 9 12
f 24 23 12
f 25 12 23
f 22 21 16
f 27 16 21
f 18 20 6
f 17 19 1
f 6 20 22
f 4 18 24
f 5 27 30
f 3 25 29
f 1 28 25
f 29 26 7
f 26 27 5
f 30 28 1
f 32 34 41
f 54 48 38
f 38 36 45
f 52 50 32
f 37 35 49
f 34 32 50
f 51 39 58
f 44 46 57
f 42 39 40
f 40 39 51
f 53 44 56
f 45 46 44
f 43 44 53
f 58 39 42
f 54 53 42
f 55 42 53
f 52 51 46
f 57 46 51
f 48 50 36
f 47 49 31
f 36 50 52
f 34 48 54
f 35 57 60
f 33 55 59
f 58 55 33
f 59 56 37
f 37 56 57
f 60 58 31
f 62 61 76
f 69 84 85
f 63 62 77
f 71 70 85
f 63 78 79
f 71 86 87
f 64 79 80
f 72 87 88
f 65 80 81
f 73 88 89
f 67 66 81
f 74 89 90
f 68 67 82
f 69 68 83
f 80 95 96
f 88 103 104
f 82 81 96
f 90 89 104
f 82 97 98
f 83 98 99
f 77 76 91
f 84 99 100
f 77 92 93
f 85 100 101
f 78 93 94
f 86 101 102
f 80 79 94
f 88 87 102
f 99 114 115
f 92 107 108
f 100 115 116
f 93 108 109
f 101 116 117
f 95 94 109
f 102 117 118
f 95 110 111
f 104 103 118
f 96 111 112
f 105 104 119
f 97 112 113
f 98 113 114
f 92 91 106
f 118 133 134
f 112 111 126
f 119 134 135
f 112 127 128
f 113 128 129
f 106 121 122
f 114 129 130
f 107 122 123
f 116 115 130
f 108 123 124
f 117 116 131
f 109 124 125
f 118 117 132
f 110 125 126
f 131 130 145
f 123 138 139
f 131 146 147
f 125 124 139
f 133 132 147
f 125 140 141
f 133 148 149
f 127 126 141
f 134 149 150
f 128 127 142
f 128 143 144
f 121 136 137
f 129 144 145
f 123 122 137
f 149 165 166
f 142 158 159
f 143 159 160
f 136 152 153
f 144 160 161
f 138 137 153
f 146 145 161
f 139 138 154
f 147 146 162
f 140 139 155
f 148 147 163
f 140 156 157
f 149 148 164
f 142 141 157
f 155 154 169
f 162 177 178
f 155 170 171
f 163 178 179
f 156 171 172
f 164 179 180
f 158 157 172
f 165 180 181
f 159 158 173
f 159 174 175
f 152 167 168
f 160 175 176
f 153 168 169
f 162 161 176
f 174 173 188
f 174 189 190
f 167 182 183
f 175 190 191
f 169 168 183
f 177 176 191
f 169 184 185
f 178 177 192
f 170 185 186
f 179 178 193
f 171 186 187
f 179 194 195
f 173 172 187
f 180 195 196
f 192 207 208
f 186 185 200
f 193 208 209
f 186 201 202
f 195 194 209
f 188 187 202
f 196 195 210
f 188 203 204
f 189 204 205
f 182 197 198
f 190 205 206
f 183 198 199
f 192 191 206
f 184 199 200
f 204 219 220
f 198 197 212
f 205 220 221
f 199 198 213
f 207 206 221
f 200 199 214
f 208 207 222
f 200 215 216
f 208 223 224
f 201 216 217
f 209 224 225
f 203 202 217
f 210 225 226
f 203 218 219
f 216 215 230
f 223 238 239
f 216 231 232
f 225 224 239
f 218 217 232
f 226 225 240
f 218 233 234
f 220 219 234
f 212 227 228
f 220 235 236
f 213 228 229
f 222 221 236
f 214 229 230
f 222 237 238
f 234 250 251
f 227 243 244
f 235 251 252
f 228 244 245
f 237 236 252
f 230 229 245
f 237 253 254
f 230 246 247
f 238 254 255
f 231 247 248
f 239 255 256
f 233 232 248
f 241 240 256
f 233 249 250
f 255 254 269
f 247 262 263
f 256 255 270
f 249 248 263
f 256 271 272
f 249 264 265
f 251 250 265
f 243 258 259
f 251 266 267
f 244 259 260
f 253 252 267
f 245 260 261
f 253 268 269
f 246 261 262
f 266 281 282
f 259 274 275
f 268 267 282
f 261 260 275
f 268 283 284
f 262 261 276
f 270 269 284
f 262 277 278
f 270 285 286
f 264 263 278
f 272 271 286
f 264 279 280
f 266 265 280
f 259 258 273
f 286 285 300
f 279 278 293
f 287 286 301
f 279 294 295
f 281 280 295
f 273 288 289
f 281 296 297
f 274 289 290
f 283 282 297
f 276 275 290
f 283 298 299
f 276 291 292
f 284 299 300
f 277 292 293
f 289 304 305
f 298 297 312
f 290 305 306
f 298 313 314
f 291 306 307
f 299 314 315
f 292 307 308
f 300 315 316
f 294 293 308
f 301 316 317
f 295 294 309
f 295 310 311
f 289 288 303
f 296 311 312
f 315 347 348
f 70 327 326
f 317 316 348
f 303 335 336
f 71 328 327
f 304 336 337
f 71 72 329
f 305 337 338
f 61 318 334
f 72 73 330
f 307 306 338
f 151 333 332
f 74 331 330
f 307 339 340
f 75 332 331
f 62 319 318
f 309 308 340
f 303 242 334
f 63 320 319
f 309 341 342
f 317 349 333
f 64 321 320
f 310 342 343
f 65 322 321
f 311 343 344
f 66 323 322
f 313 312 344
f 67 324 323
f 313 345 346
f 68 325 324
f 314 346 347
f 68 69 326
f 351 353 360
f 373 367 357
f 357 355 364
f 371 369 351
f 356 354 368
f 353 351 369
f 370 358 377
f 363 365 376
f 361 358 359
f 359 358 370
f 372 363 375
f 365 363 362
f 362 363 372
f 377 358 361
f 373 372 361
f 374 361 372
f 364 371 370
f 376 365 370
f 357 367 369
f 366 368 350
f 355 369 371
f 353 367 373
f 354 376 379
f 352 374 378
f 377 374 352
f 378 375 356
f 375 376 354
f 379 377 350
